<?xml version="1.0" encoding="UTF-8"?>
<!DOCTYPE svg PUBLIC "-//W3C//DTD SVG 1.1//EN" "http://www.w3.org/Graphics/SVG/1.1/DTD/svg11.dtd">
<svg xmlns="http://www.w3.org/2000/svg" style="background-color: rgb(255, 255, 255);" xmlns:xlink="http://www.w3.org/1999/xlink" version="1.1" width="1025px" height="479px" viewBox="-0.5 -0.5 1025 479"><defs><clipPath id="mx-clip-253-212-282-124-0"><rect x="253" y="212" width="282" height="124"/></clipPath><clipPath id="mx-clip-743-227-134-134-0"><rect x="743" y="227" width="134" height="134"/></clipPath><clipPath id="mx-clip-253-162-282-34-0"><rect x="253" y="162" width="282" height="34"/></clipPath><clipPath id="mx-clip-743-202-134-24-0"><rect x="743" y="202" width="134" height="24"/></clipPath><style type="text/css">@import url(https://fonts.googleapis.com/css?family=Architects+Daughter);&#xa;</style></defs><g><rect x="20" y="89" width="634.29" height="370" fill="none" stroke="none" pointer-events="all"/><path d="M 588.46 419.51 L 85.83 419.51 L 85.83 108.81 C 85.83 97.92 94.75 89 105.76 89 L 568.53 89 C 579.54 89 588.46 97.92 588.46 108.81 Z" fill="#ffffff" stroke="none" pointer-events="all"/><rect x="20" y="89" width="0" height="0" fill="none" stroke="none" pointer-events="all"/><path d="M 654.29 431.58 L 380.35 431.58 L 380.35 435.25 C 380.35 439.45 376.94 442.86 372.75 442.86 L 301.54 442.86 C 297.35 442.86 293.94 439.45 293.94 435.25 L 293.94 431.58 L 20 431.58 L 20 441.29 C 20 451.13 27.87 459 37.57 459 L 636.72 459 C 646.42 459 654.29 451.13 654.29 441.29 Z M 566.69 110.78 L 566.69 397.73 L 107.6 397.73 L 107.6 110.78 Z M 568.53 89 L 105.76 89 C 94.75 89 85.83 97.92 85.83 108.81 L 85.83 419.51 L 588.46 419.51 L 588.46 108.81 C 588.46 97.92 579.54 89 568.53 89 Z" fill="#005f4b" stroke="none" pointer-events="all"/><path d="M 730 116.69 C 730 109.35 733.03 102.3 738.44 97.11 C 743.84 91.92 751.16 89 758.8 89 L 861.2 89 C 868.84 89 876.16 91.92 881.56 97.11 C 886.97 102.3 890 109.35 890 116.69 L 890 361.31 C 890 368.65 886.97 375.7 881.56 380.89 C 876.16 386.08 868.84 389 861.2 389 L 758.8 389 C 751.16 389 743.84 386.08 738.44 380.89 C 733.03 375.7 730 368.65 730 361.31 Z Z M 736.4 115.92 L 736.4 362.08 L 884.4 362.08 L 884.4 115.92 Z" fill="#49ab95" stroke="#427368" stroke-miterlimit="10" pointer-events="all"/><ellipse cx="783.6" cy="95.15" rx="2.4000000000000004" ry="2.307692307692308" fill="#ffffff" stroke="#427368" pointer-events="all"/><rect x="790.8" y="370.54" width="38.4" height="10.77" rx="4.62" ry="4.62" fill="#ffffff" stroke="#427368" pointer-events="all"/><rect x="791.6" y="94.38" width="36" height="3.85" rx="1.54" ry="1.54" fill="#ffffff" stroke="#427368" pointer-events="all"/><ellipse cx="834" cy="95.15" rx="2.4000000000000004" ry="2.307692307692308" fill="#ffffff" stroke="#427368" pointer-events="all"/><ellipse cx="842" cy="95.15" rx="2.4000000000000004" ry="2.307692307692308" fill="#ffffff" stroke="#427368" pointer-events="all"/><ellipse cx="862" cy="98.23" rx="3.2" ry="3.076923076923077" fill="#ffffff" stroke="#427368" pointer-events="all"/><rect x="100" y="109" width="470" height="290" fill="rgb(255, 255, 255)" stroke="#91cbff" stroke-width="2" pointer-events="all"/><path d="M 100 143.8 L 570 143.8 M 118.8 126.4 L 128.2 126.4 M 142.3 126.4 L 151.7 126.4 M 165.8 126.4 L 551.2 126.4" fill="none" stroke="#91cbff" stroke-width="2" stroke-miterlimit="10" pointer-events="all"/><rect x="250" y="209" width="287.85" height="130" fill="none" stroke="none" pointer-events="all"/><g fill="rgb(0, 0, 0)" font-family="Helvetica" clip-path="url(#mx-clip-253-212-282-124-0)" font-size="12px"><text x="254.5" y="224.5">Lorem ipsum dolor sit amet, consectetur adipisicing</text><text x="254.5" y="238.5">elit, sed do eiusmod tempor incididunt ut labore et</text><text x="254.5" y="252.5">dolore magna aliqua.</text><text x="254.5" y="294.5">Praesent aliquam, enim at fermentum mollis, ligula</text><text x="254.5" y="308.5">massa adipiscing nisl, ac euismod nibh nisl eu lectus.</text><text x="254.5" y="322.5">Fusce vulputate sem at sapien. Vivamus leo</text></g><rect x="740" y="219" width="140" height="140" fill="none" stroke="none" pointer-events="all"/><g fill="rgb(0, 0, 0)" font-family="Helvetica" clip-path="url(#mx-clip-743-227-134-134-0)" font-size="9px"><text x="744.5" y="236.5">Lorem ipsum dolor sit amet,</text><text x="744.5" y="247.5">consectetur adipisicing elit, sed </text><text x="744.5" y="258.5">do eiusmod tempor incididunt ut </text><text x="744.5" y="269.5">labore et dolore magna aliqua.</text><text x="744.5" y="291.5">Praesent aliquam, enim at</text><text x="744.5" y="302.5">fermentum mollis, ligula massa</text><text x="744.5" y="313.5">adipiscing nisl, ac euismod nibh</text><text x="744.5" y="324.5">nisl eu lectus. Fusce vulputate</text><text x="744.5" y="335.5">sem at sapien. Vivamus leo</text></g><path d="M 106.37 69 L 563.63 69.13" fill="none" stroke="rgb(0, 0, 0)" stroke-miterlimit="10" pointer-events="stroke"/><path d="M 101.12 69 L 108.12 65.5 L 106.37 69 L 108.12 72.5 Z" fill="rgb(0, 0, 0)" stroke="rgb(0, 0, 0)" stroke-miterlimit="10" pointer-events="all"/><path d="M 568.88 69.13 L 561.88 72.63 L 563.63 69.13 L 561.88 65.63 Z" fill="rgb(0, 0, 0)" stroke="rgb(0, 0, 0)" stroke-miterlimit="10" pointer-events="all"/><g fill="rgb(0, 0, 0)" font-family="Helvetica" text-anchor="middle" font-size="18px"><rect fill="rgb(255, 255, 255)" stroke="none" x="209" y="29" width="243" height="23" stroke-width="0"/><text x="329.51" y="46.56">Largeur de la zone d'affichage</text></g><path d="M 741.41 69.03 L 878.59 69.57" fill="none" stroke="rgb(0, 0, 0)" stroke-miterlimit="10" pointer-events="stroke"/><path d="M 736.16 69 L 743.17 65.53 L 741.41 69.03 L 743.14 72.53 Z" fill="rgb(0, 0, 0)" stroke="rgb(0, 0, 0)" stroke-miterlimit="10" pointer-events="all"/><path d="M 883.84 69.6 L 876.83 73.07 L 878.59 69.57 L 876.86 66.07 Z" fill="rgb(0, 0, 0)" stroke="rgb(0, 0, 0)" stroke-miterlimit="10" pointer-events="all"/><g fill="rgb(0, 0, 0)" font-family="Helvetica" text-anchor="middle" font-size="18px"><rect fill="rgb(255, 255, 255)" stroke="none" x="744" y="18" width="132" height="44" stroke-width="0"/><text x="809.27" y="35.8">Largeur de la</text><text x="809.27" y="57.8">zone d'affichage</text></g><path d="M 600 392.48 L 600 155.37" fill="none" stroke="rgb(0, 0, 0)" stroke-miterlimit="10" pointer-events="stroke"/><path d="M 600 397.73 L 596.5 390.73 L 600 392.48 L 603.5 390.73 Z" fill="rgb(0, 0, 0)" stroke="rgb(0, 0, 0)" stroke-miterlimit="10" pointer-events="all"/><path d="M 600 150.12 L 603.5 157.12 L 600 155.37 L 596.5 157.12 Z" fill="rgb(0, 0, 0)" stroke="rgb(0, 0, 0)" stroke-miterlimit="10" pointer-events="all"/><g fill="rgb(0, 0, 0)" font-family="Helvetica" text-anchor="middle" font-size="18px"><rect fill="rgb(255, 255, 255)" stroke="none" x="607" y="227" width="88" height="66" stroke-width="0"/><text x="649.5" y="233.35">Hauteur</text><text x="649.5" y="255.35">de la zone</text><text x="649.5" y="277.35">d'affichage</text></g><path d="M 910 352.63 L 910 125.52" fill="none" stroke="rgb(0, 0, 0)" stroke-miterlimit="10" pointer-events="stroke"/><path d="M 910 357.88 L 906.5 350.88 L 910 352.63 L 913.5 350.88 Z" fill="rgb(0, 0, 0)" stroke="rgb(0, 0, 0)" stroke-miterlimit="10" pointer-events="all"/><path d="M 910 120.27 L 913.5 127.27 L 910 125.52 L 906.5 127.27 Z" fill="rgb(0, 0, 0)" stroke="rgb(0, 0, 0)" stroke-miterlimit="10" pointer-events="all"/><g fill="rgb(0, 0, 0)" font-family="Helvetica" text-anchor="middle" font-size="18px"><rect fill="rgb(255, 255, 255)" stroke="none" x="917" y="207" width="88" height="66" stroke-width="0"/><text x="959.5" y="213.5">Hauteur</text><text x="959.5" y="235.5">de la zone</text><text x="959.5" y="257.5">d'affichage</text></g><rect x="130" y="179" width="100" height="100" fill="none" stroke="none" pointer-events="all"/><path d="M 170.91 208.55 C 174.67 208.55 177.73 211.6 177.73 215.36 C 177.73 219.12 174.67 222.18 170.91 222.18 C 167.15 222.18 164.09 219.12 164.09 215.36 C 164.09 211.6 167.15 208.55 170.91 208.55 Z M 170.91 226.73 C 177.17 226.73 182.27 221.63 182.27 215.36 C 182.27 209.1 177.17 204 170.91 204 C 164.64 204 159.55 209.1 159.55 215.36 C 159.55 221.63 164.64 226.73 170.91 226.73 Z M 134.55 274.45 L 134.55 252.67 L 152.73 234.49 L 187.48 269.24 L 190.7 266.03 L 172.99 248.32 L 198.18 223.12 L 225.45 250.4 L 225.45 274.45 Z M 225.45 183.55 L 225.45 243.97 L 199.79 218.3 C 198.9 217.41 197.46 217.41 196.58 218.3 L 169.77 245.1 L 154.33 229.67 C 153.45 228.78 152.01 228.78 151.12 229.67 L 134.55 246.24 L 134.55 183.55 Z M 227.73 179 L 132.27 179 C 131.02 179 130 180.02 130 181.27 L 130 276.73 C 130 277.98 131.02 279 132.27 279 L 227.73 279 C 228.98 279 230 277.98 230 276.73 L 230 181.27 C 230 180.02 228.98 179 227.73 179 Z" fill="#d45b07" stroke="none" pointer-events="all"/><rect x="775" y="129" width="70" height="70" fill="none" stroke="none" pointer-events="all"/><path d="M 803.64 149.68 C 806.27 149.68 808.41 151.82 808.41 154.45 C 808.41 157.09 806.27 159.23 803.64 159.23 C 801.01 159.23 798.86 157.09 798.86 154.45 C 798.86 151.82 801.01 149.68 803.64 149.68 Z M 803.64 162.41 C 808.02 162.41 811.59 158.84 811.59 154.45 C 811.59 150.07 808.02 146.5 803.64 146.5 C 799.25 146.5 795.68 150.07 795.68 154.45 C 795.68 158.84 799.25 162.41 803.64 162.41 Z M 778.18 195.82 L 778.18 180.57 L 790.91 167.84 L 815.24 192.17 L 817.49 189.92 L 805.09 177.52 L 822.73 159.89 L 841.82 178.98 L 841.82 195.82 Z M 841.82 132.18 L 841.82 174.48 L 823.85 156.51 C 823.23 155.89 822.22 155.89 821.6 156.51 L 802.84 175.27 L 792.03 164.47 C 791.41 163.84 790.41 163.84 789.78 164.47 L 778.18 176.07 L 778.18 132.18 Z M 843.41 129 L 776.59 129 C 775.71 129 775 129.71 775 130.59 L 775 197.41 C 775 198.29 775.71 199 776.59 199 L 843.41 199 C 844.29 199 845 198.29 845 197.41 L 845 130.59 C 845 129.71 844.29 129 843.41 129 Z" fill="#d45b07" stroke="none" pointer-events="all"/><rect x="250" y="159" width="287.85" height="40" fill="none" stroke="none" pointer-events="all"/><g fill="rgb(0, 0, 0)" font-family="Helvetica" clip-path="url(#mx-clip-253-162-282-34-0)" font-size="25px"><text x="254.5" y="190">Titre</text></g><rect x="740" y="199" width="140" height="30" fill="none" stroke="none" pointer-events="all"/><g fill="rgb(0, 0, 0)" font-family="Helvetica" clip-path="url(#mx-clip-743-202-134-24-0)" font-size="17px"><text x="744.5" y="221">Titre</text></g></g></svg>