<svg xmlns="http://www.w3.org/2000/svg" style="background-color:#fff" width="1025" height="479" viewBox="-0.5 -0.5 1025 479"><defs><clipPath id="mx-clip-253-212-282-124-0"><path d="M253 212h282v124H253z"/></clipPath><clipPath id="mx-clip-743-227-134-134-0"><path d="M743 227h134v134H743z"/></clipPath><clipPath id="mx-clip-253-162-282-34-0"><path d="M253 162h282v34H253z"/></clipPath><clipPath id="mx-clip-743-202-134-24-0"><path d="M743 202h134v24H743z"/></clipPath><style>@import url(https://fonts.googleapis.com/css?family=Architects+Daughter);</style></defs><path fill="none" pointer-events="all" d="M20 89h634.29v370H20z"/><path d="M588.46 419.51H85.83v-310.7c0-10.89 8.92-19.81 19.93-19.81h462.77c11.01 0 19.93 8.92 19.93 19.81Z" fill="#fff" pointer-events="all"/><path d="M654.29 431.58H380.35v3.67c0 4.2-3.41 7.61-7.6 7.61h-71.21c-4.19 0-7.6-3.41-7.6-7.61v-3.67H20v9.71c0 9.84 7.87 17.71 17.57 17.71h599.15c9.7 0 17.57-7.87 17.57-17.71Zm-87.6-320.8v286.95H107.6V110.78ZM568.53 89H105.76c-11.01 0-19.93 8.92-19.93 19.81v310.7h502.63v-310.7c0-10.89-8.92-19.81-19.93-19.81Z" fill="#005f4b" pointer-events="all"/><path d="M730 116.69c0-7.34 3.03-14.39 8.44-19.58 5.4-5.19 12.72-8.11 20.36-8.11h102.4c7.64 0 14.96 2.92 20.36 8.11 5.41 5.19 8.44 12.24 8.44 19.58v244.62c0 7.34-3.03 14.39-8.44 19.58-5.4 5.19-12.72 8.11-20.36 8.11H758.8c-7.64 0-14.96-2.92-20.36-8.11-5.41-5.19-8.44-12.24-8.44-19.58Zm6.4-.77v246.16h148V115.92Z" fill="#49ab95" stroke="#427368" stroke-miterlimit="10" pointer-events="all"/><ellipse cx="783.6" cy="95.15" rx="2.4" ry="2.308" fill="#fff" stroke="#427368" pointer-events="all"/><rect x="790.8" y="370.54" width="38.4" height="10.77" rx="4.62" ry="4.62" fill="#fff" stroke="#427368" pointer-events="all"/><rect x="791.6" y="94.38" width="36" height="3.85" rx="1.54" ry="1.54" fill="#fff" stroke="#427368" pointer-events="all"/><ellipse cx="834" cy="95.15" rx="2.4" ry="2.308" fill="#fff" stroke="#427368" pointer-events="all"/><ellipse cx="842" cy="95.15" rx="2.4" ry="2.308" fill="#fff" stroke="#427368" pointer-events="all"/><ellipse cx="862" cy="98.23" rx="3.2" ry="3.077" fill="#fff" stroke="#427368" pointer-events="all"/><path fill="#FFF" stroke="#91cbff" stroke-width="2" pointer-events="all" d="M100 109h470v290H100z"/><path d="M100 143.8h470m-451.2-17.4h9.4m14.1 0h9.4m14.1 0h385.4" fill="none" stroke="#91cbff" stroke-width="2" stroke-miterlimit="10" pointer-events="all"/><path fill="none" pointer-events="all" d="M250 209h287.85v130H250z"/><g font-family="Helvetica" clip-path="url(#mx-clip-253-212-282-124-0)" font-size="12"><text x="254.5" y="224.5">Lorem ipsum dolor sit amet, consectetur adipisicing</text><text x="254.5" y="238.5">elit, sed do eiusmod tempor incididunt ut labore et</text><text x="254.5" y="252.5">dolore magna aliqua.</text><text x="254.5" y="294.5">Praesent aliquam, enim at fermentum mollis, ligula</text><text x="254.5" y="308.5">massa adipiscing nisl, ac euismod nibh nisl eu lectus.</text><text x="254.5" y="322.5">Fusce vulputate sem at sapien. Vivamus leo</text></g><path fill="none" pointer-events="all" d="M740 219h140v140H740z"/><g font-family="Helvetica" clip-path="url(#mx-clip-743-227-134-134-0)" font-size="9"><text x="744.5" y="236.5">Lorem ipsum dolor sit amet,</text><text x="744.5" y="247.5">consectetur adipisicing elit, sed </text><text x="744.5" y="258.5">do eiusmod tempor incididunt ut </text><text x="744.5" y="269.5">labore et dolore magna aliqua.</text><text x="744.5" y="291.5">Praesent aliquam, enim at</text><text x="744.5" y="302.5">fermentum mollis, ligula massa</text><text x="744.5" y="313.5">adipiscing nisl, ac euismod nibh</text><text x="744.5" y="324.5">nisl eu lectus. Fusce vulputate</text><text x="744.5" y="335.5">sem at sapien. Vivamus leo</text></g><path d="m106.37 69 457.26.13" fill="none" stroke="#000" stroke-miterlimit="10" pointer-events="stroke"/><path d="m101.12 69 7-3.5-1.75 3.5 1.75 3.5Zm467.76.13-7 3.5 1.75-3.5-1.75-3.5Z" stroke="#000" stroke-miterlimit="10" pointer-events="all"/><g font-family="Helvetica" text-anchor="middle" font-size="18"><path fill="#FFF" stroke-width="0" d="M209 29h243v23H209z"/><text x="329.51" y="46.56">Largeur de la zone d&apos;affichage</text></g><path d="m741.41 69.03 137.18.54" fill="none" stroke="#000" stroke-miterlimit="10" pointer-events="stroke"/><path d="m736.16 69 7.01-3.47-1.76 3.5 1.73 3.5Zm147.68.6-7.01 3.47 1.76-3.5-1.73-3.5Z" stroke="#000" stroke-miterlimit="10" pointer-events="all"/><g font-family="Helvetica" text-anchor="middle" font-size="18"><path fill="#FFF" stroke-width="0" d="M744 18h132v44H744z"/><text x="809.27" y="35.8">Largeur de la</text><text x="809.27" y="57.8">zone d&apos;affichage</text></g><path d="M600 392.48V155.37" fill="none" stroke="#000" stroke-miterlimit="10" pointer-events="stroke"/><path d="m600 397.73-3.5-7 3.5 1.75 3.5-1.75Zm0-247.61 3.5 7-3.5-1.75-3.5 1.75Z" stroke="#000" stroke-miterlimit="10" pointer-events="all"/><g font-family="Helvetica" text-anchor="middle" font-size="18"><path fill="#FFF" stroke-width="0" d="M607 227h88v66h-88z"/><text x="649.5" y="233.35">Hauteur</text><text x="649.5" y="255.35">de la zone</text><text x="649.5" y="277.35">d&apos;affichage</text></g><path d="M910 352.63V125.52" fill="none" stroke="#000" stroke-miterlimit="10" pointer-events="stroke"/><path d="m910 357.88-3.5-7 3.5 1.75 3.5-1.75Zm0-237.61 3.5 7-3.5-1.75-3.5 1.75Z" stroke="#000" stroke-miterlimit="10" pointer-events="all"/><g font-family="Helvetica" text-anchor="middle" font-size="18"><path fill="#FFF" stroke-width="0" d="M917 207h88v66h-88z"/><text x="959.5" y="213.5">Hauteur</text><text x="959.5" y="235.5">de la zone</text><text x="959.5" y="257.5">d&apos;affichage</text></g><path fill="none" pointer-events="all" d="M130 179h100v100H130z"/><path d="M170.91 208.55c3.76 0 6.82 3.05 6.82 6.81s-3.06 6.82-6.82 6.82c-3.76 0-6.82-3.06-6.82-6.82 0-3.76 3.06-6.81 6.82-6.81Zm0 18.18c6.26 0 11.36-5.1 11.36-11.37 0-6.26-5.1-11.36-11.36-11.36-6.27 0-11.36 5.1-11.36 11.36 0 6.27 5.09 11.37 11.36 11.37Zm-36.36 47.72v-21.78l18.18-18.18 34.75 34.75 3.22-3.21-17.71-17.71 25.19-25.2 27.27 27.28v24.05Zm90.9-90.9v60.42l-25.66-25.67c-.89-.89-2.33-.89-3.21 0l-26.81 26.8-15.44-15.43c-.88-.89-2.32-.89-3.21 0l-16.57 16.57v-62.69Zm2.28-4.55h-95.46c-1.25 0-2.27 1.02-2.27 2.27v95.46c0 1.25 1.02 2.27 2.27 2.27h95.46c1.25 0 2.27-1.02 2.27-2.27v-95.46c0-1.25-1.02-2.27-2.27-2.27Z" fill="#d45b07" pointer-events="all"/><path fill="none" pointer-events="all" d="M775 129h70v70h-70z"/><path d="M803.64 149.68a4.776 4.776 0 0 1 0 9.55c-2.63 0-4.78-2.14-4.78-4.78 0-2.63 2.15-4.77 4.78-4.77Zm0 12.73c4.38 0 7.95-3.57 7.95-7.96 0-4.38-3.57-7.95-7.95-7.95-4.39 0-7.96 3.57-7.96 7.95 0 4.39 3.57 7.96 7.96 7.96Zm-25.46 33.41v-15.25l12.73-12.73 24.33 24.33 2.25-2.25-12.4-12.4 17.64-17.63 19.09 19.09v16.84Zm63.64-63.64v42.3l-17.97-17.97c-.62-.62-1.63-.62-2.25 0l-18.76 18.76-10.81-10.8c-.62-.63-1.62-.63-2.25 0l-11.6 11.6v-43.89Zm1.59-3.18h-66.82c-.88 0-1.59.71-1.59 1.59v66.82c0 .88.71 1.59 1.59 1.59h66.82c.88 0 1.59-.71 1.59-1.59v-66.82c0-.88-.71-1.59-1.59-1.59Z" fill="#d45b07" pointer-events="all"/><path fill="none" pointer-events="all" d="M250 159h287.85v40H250z"/><g font-family="Helvetica" clip-path="url(#mx-clip-253-162-282-34-0)" font-size="25"><text x="254.5" y="190">Titre</text></g><path fill="none" pointer-events="all" d="M740 199h140v30H740z"/><g font-family="Helvetica" clip-path="url(#mx-clip-743-202-134-24-0)" font-size="17"><text x="744.5" y="221">Titre</text></g></svg>