<?xml version="1.0" encoding="UTF-8" standalone="no"?>
<svg
   xml:space="preserve"
   stroke-linecap="round"
   stroke-linejoin="round"
   stroke-miterlimit="10"
   clip-rule="evenodd"
   viewBox="0 0 1125.49 595.35"
   version="1.1"
   id="svg17"
   xmlns="http://www.w3.org/2000/svg"
   xmlns:svg="http://www.w3.org/2000/svg"><defs
     id="defs17" /><clipPath
     id="a"><path
       d="M0 0h1125.49v595.35H0z"
       id="path1" /></clipPath><g
     clip-path="url(#a)"
     id="g2"><path
       fill="#fff"
       d="M22.788 14.175H1097.04c12.58 0 22.79 7.1 22.79 15.857v492.761c0 8.758-10.21 15.857-22.79 15.857H22.789C10.203 538.65 0 531.551 0 522.793V30.033c0-8.759 10.203-15.858 22.788-15.858"
       id="path2" /></g><path
     fill="#dbdbdb"
     d="M623.7 108.06v325.607c0 6.494-5.166 11.758-11.539 11.758H39.889c-6.373 0-11.539-5.264-11.539-11.758V108.06"
     id="path3" /><path
     fill="#ddd"
     d="M39.89 76.875h572.27c6.373 0 11.539 6.75 11.539 15.075V509.4c0 8.326-5.166 15.075-11.539 15.075H39.889c-6.373 0-11.539-6.749-11.539-15.075V91.95c0-8.326 5.166-15.075 11.54-15.075"
     id="path4" /><path
     fill="#f5f5f5"
     d="M609.525 510.3H42.518V105.225h567.007"
     id="path5" /><path
     fill="#fee1e1"
     d="M650.197 99.225h443.133c6.8 0 12.32 5.517 12.32 12.322v102.931c0 6.805-5.52 12.322-12.32 12.322H650.197c-6.805 0-12.322-5.517-12.322-12.322V111.547c0-6.805 5.517-12.322 12.322-12.322"
     id="path6" /><path
     fill="#e94420"
     d="M42.525 92.468a7.088 7.088 0 1 1 14.175 0 7.088 7.088 0 0 1-14.175 0"
     id="path7" /><path
     fill="#ef9f46"
     d="M68.04 92.468a7.088 7.088 0 1 1 14.175 0 7.088 7.088 0 0 1-14.175 0"
     id="path8" /><path
     fill="#68c40c"
     d="M93.555 92.468a7.087 7.087 0 1 1 14.175 0 7.087 7.087 0 0 1-14.175 0"
     id="path9" /><path
     fill="#dafcef"
     stroke="#000"
     stroke-linecap="butt"
     d="M170.1 269.325H567V390.9H170.1z"
     id="path10" /><path
     fill="none"
     stroke="#000"
     stroke-dasharray="2"
     stroke-linecap="butt"
     stroke-width="2"
     d="M28.35 34.35V62.7"
     id="path11" /><path
     fill="none"
     stroke="#000"
     stroke-dasharray="4"
     stroke-linecap="butt"
     stroke-width="2"
     d="M28.35 48.525H623.7m0-14.175V62.7"
     id="path12" /><path
     fill="none"
     stroke="#000"
     stroke-dasharray="4"
     stroke-linecap="butt"
     stroke-width="2"
     d="M170.1 396.9v28.35m0-14.175H567m0-14.175v28.35"
     id="path14" /><path
     d="M665.903 133.481q0-1.434-.648-2.247t-1.777-.813-1.771.813-.641 2.247q0 1.447.641 2.26.64.812 1.771.812t1.777-.812q.648-.813.648-2.26m2.361 5.205h-2.488v-1.041q-.483.673-1.137.984t-1.568.311q-2.082 0-3.357-1.498t-1.276-3.961q0-2.45 1.269-3.942 1.27-1.492 3.364-1.492.902 0 1.587.311.686.311 1.118.908v-.52q0-1.727-.946-2.666-.946-.94-2.698-.94-2.64 0-4.31 2.323t-1.669 6.043q0 3.898 1.929 6.202t5.142 2.304q1.016 0 1.968-.298a7 7 0 0 0 1.828-.895l1.168 2.234a7.8 7.8 0 0 1-2.241 1.048 9.4 9.4 0 0 1-2.596.349q-4.443 0-7.084-2.958t-2.641-7.986q0-4.913 2.374-7.864 2.375-2.952 6.284-2.952 2.767 0 4.374 1.669t1.606 4.552zm9.699-11.083q.419-.901 1.066-1.333.648-.432 1.587-.432 1.841 0 2.546 1.27t.704 5.281v8.011h-3.046v-9.128q0-1.587-.242-2.12-.24-.534-.876-.533-.635 0-.888.546-.255.546-.254 2.107v9.128h-3.009v-9.128q0-1.561-.254-2.107-.253-.546-.889-.546-.635 0-.876.533-.24.533-.241 2.12v9.128h-3.047v-14.219h2.704v1.473a2.8 2.8 0 0 1 1.016-1.327 2.66 2.66 0 0 1 1.562-.489q.863 0 1.574.515.711.513.863 1.25m20.884 12.099q-1.295.533-2.641.8-1.346.266-2.843.266-3.568 0-5.453-1.91-1.885-1.911-1.885-5.504 0-3.478 1.815-5.497c1.815-2.019 2.861-2.019 4.951-2.019q3.161 0 4.907 1.873t1.746 5.275v1.511h-9.636q.012 1.676.99 2.501t2.92.825q1.283 0 2.526-.368 1.245-.369 2.603-1.168zm-3.149-7.998q-.024-1.473-.755-2.228-.73-.756-2.152-.756-1.282 0-2.044.781t-.901 2.215zm14.854-3.504v-7.554h3.707V140.4h-3.707v-2.107q-.597 1.231-1.543 1.853-.945.622-2.228.622-2.437 0-3.783-1.955-1.345-1.955-1.345-5.51 0-3.605 1.364-5.535t3.891-1.93q1.143 0 2.051.591.907.59 1.593 1.771m-5.18 5.129q0 2.057.686 3.224.685 1.168 1.891 1.168c1.206 0 1.439-.389 1.905-1.168q.698-1.167.698-3.224t-.698-3.225-1.905-1.168c-1.206 0-1.434.389-1.891 1.168q-.686 1.168-.686 3.225m13.597-7.148h7.363v11.363h4.621v2.856h-12.974v-2.856h4.634v-8.506h-3.644zm3.644-6.919h3.719v4.342h-3.719zm18.09 14.46q-2.082 0-2.907.533-.825.534-.825 1.829 0 .964.571 1.536.571.571 1.549.571 1.473 0 2.285-1.111t.813-3.104v-.254zm5.18-1.434v8.112h-3.694v-1.587a4.5 4.5 0 0 1-1.727 1.447q-1.053.508-2.323.508-2.425 0-3.777-1.282t-1.352-3.58q0-2.488 1.612-3.675t4.99-1.187h2.577v-.623q0-.9-.654-1.364t-1.923-.464q-1.333 0-2.584.337-1.25.336-2.609 1.073v-3.174a12.8 12.8 0 0 1 2.501-.749 14.4 14.4 0 0 1 2.692-.242q3.465 0 4.868 1.41t1.403 5.04m28.971-11.642q-1.676 3.034-2.489 5.884a20.7 20.7 0 0 0-.812 5.694q0 2.832.812 5.7.813 2.87 2.489 5.916h-2.895q-2.019-2.932-2.996-5.789a17.9 17.9 0 0 1-.977-5.827q0-2.944.983-5.814.984-2.87 2.99-5.764zm12.682 6.957q.42-.901 1.067-1.333t1.587-.432q1.84 0 2.545 1.27t.705 5.281v8.011h-3.047v-9.128q0-1.587-.241-2.12t-.876-.533-.889.546-.254 2.107v9.128h-3.009v-9.128q0-1.561-.254-2.107-.253-.546-.888-.546-.636 0-.876.533-.242.533-.242 2.12v9.128h-3.046v-14.219h2.704v1.473a2.77 2.77 0 0 1 1.015-1.327 2.66 2.66 0 0 1 1.562-.489q.863 0 1.574.515.711.513.863 1.25m15.781 6.119q-2.082 0-2.908.533-.825.534-.825 1.829 0 .964.571 1.536.572.571 1.549.571 1.473 0 2.285-1.111t.813-3.104v-.254zm5.179-1.434v8.112h-3.694v-1.587a4.5 4.5 0 0 1-1.727 1.447q-1.053.508-2.323.508-2.424 0-3.777-1.282-1.352-1.282-1.352-3.58 0-2.488 1.613-3.675t4.989-1.187h2.577v-.623q0-.9-.654-1.364t-1.923-.464q-1.333 0-2.584.337-1.25.336-2.609 1.073v-3.174a12.8 12.8 0 0 1 2.501-.749 14.4 14.4 0 0 1 2.692-.242q3.465 0 4.868 1.41t1.403 5.04m16.123-6.107-4.786 6.805 5.205 7.414h-4.342l-2.792-4.786-2.781 4.786h-4.342l5.256-7.414-4.837-6.805h4.342l2.362 4.24 2.374-4.24zm2.412 5.028h13.457v3.415h-13.457zm14.359-5.028h3.098l1.688 10.893 1.536-7.173h3.009l1.511 7.173 1.714-10.893h3.097l-2.577 14.219h-3.529l-1.727-7.389-1.714 7.389h-3.529zm18.459 0h7.363v11.363h4.621v2.856h-12.974v-2.856h4.633v-8.506h-3.643zm3.643-6.919h3.72v4.342h-3.72zm19.246 8.938v-7.554h3.708V140.4h-3.708v-2.107q-.595 1.231-1.542 1.853-.946.622-2.228.622-2.437 0-3.783-1.955t-1.346-5.51q0-3.605 1.365-5.535t3.891-1.93q1.143 0 2.05.591.908.59 1.593 1.771m-5.179 5.129q0 2.057.685 3.224.686 1.168 1.892 1.168t1.904-1.168q.698-1.167.698-3.224 0-2.056-.698-3.225-.698-1.168-1.904-1.168t-1.892 1.168q-.685 1.169-.685 3.225m19.551-11.185v4.037h4.862v2.857h-4.862v6.728q0 .953.463 1.365t1.542.413h2.857v2.856h-3.123q-3.2 0-4.329-1.022-1.13-1.021-1.13-3.79v-6.55h-3.631v-2.857h3.631v-4.037zm20.49 9.027v9.229h-3.695v-8.658q0-1.536-.438-2.196t-1.428-.661q-1.016 0-1.587.895t-.571 2.482v8.138h-3.694v-19.754h3.694v7.668q.393-1.18 1.346-1.828.952-.648 2.298-.648 2.018 0 3.046 1.34t1.029 3.993m7.757-4.266h4.24v4.634h-4.24zm0 8.836h4.24v4.659h-4.24zm32.576-3.821h-2.006v-3.301h2.006q1.396 0 2.164-.552.768-.553.768-1.556 0-1.053-.768-1.644-.768-.59-2.164-.59-1.067 0-2.285.267a17 17 0 0 0-2.527.774v-3.402a20 20 0 0 1 2.577-.603 15 15 0 0 1 2.438-.21q2.996 0 4.672 1.308 1.676 1.307 1.676 3.605 0 1.689-.965 2.761t-2.755 1.403q2.031.356 3.098 1.619t1.066 3.32q0 2.754-1.765 4.202t-5.129 1.447q-1.434 0-2.824-.241a16 16 0 0 1-2.66-.698v-3.479q1.194.597 2.577.908a13.3 13.3 0 0 0 2.907.311q1.524 0 2.412-.705.89-.704.889-1.898 0-1.46-.889-2.253-.888-.793-2.513-.793m10.245-.978q0-4.926 1.561-7.382 1.562-2.457 4.698-2.457 3.149 0 4.71 2.45t1.561 7.389q0 4.926-1.561 7.376c-1.561 2.45-2.611 2.45-4.71 2.45q-3.137 0-4.698-2.456t-1.561-7.37m4.367 5.065q.596 1.587 1.892 1.587 1.307 0 1.904-1.587t.597-5.065q0-1.32-.089-2.361l-4.431 7.058q.063.204.127.368m1.892-11.73q-1.296 0-1.892 1.587-.597 1.587-.597 5.078 0 1.079.051 1.968l4.367-6.97-.025-.076q-.597-1.587-1.904-1.587m21.823 15.425q-1.295.533-2.641.8-1.346.266-2.843.266-3.568 0-5.453-1.91-1.885-1.911-1.885-5.504 0-3.478 1.815-5.497c1.815-2.019 2.861-2.019 4.951-2.019q3.162 0 4.907 1.873t1.746 5.275v1.511h-9.636q.012 1.676.99 2.501t2.92.825q1.283 0 2.526-.368 1.245-.369 2.603-1.168zm-3.148-7.998q-.026-1.473-.756-2.228t-2.152-.756q-1.282 0-2.044.781-.761.781-.901 2.215zm13.568-4.101c.28-.601.64-1.045 1.07-1.333q.645-.432 1.59-.432c1.22 0 2.07.424 2.54 1.27s.71 2.607.71 5.281v8.011h-3.05v-9.128q0-1.587-.24-2.12c-.16-.356-.45-.533-.88-.533-.42 0-.72.182-.89.546s-.25 1.066-.25 2.107v9.128h-3.01v-9.128c0-1.041-.08-1.743-.25-2.107s-.47-.546-.89-.546c-.43 0-.72.177-.88.533q-.24.533-.24 2.12v9.128h-3.046v-14.219h2.706v1.473a2.8 2.8 0 0 1 1.01-1.327c.47-.326.99-.489 1.57-.489.57 0 1.1.172 1.57.515.47.342.76.759.86 1.25m10.82-6.957h2.89c1.34 1.93 2.34 3.851 2.99 5.764q.99 2.87.99 5.814c0 1.981-.33 3.923-.98 5.827q-.975 2.857-3 5.789h-2.89q1.68-3.047 2.49-5.916.81-2.868.81-5.7 0-2.844-.81-5.694c-.81-2.85-1.37-3.861-2.49-5.884m25.1 21.569v2.425h-1.91c-2.1 0-3.52-.313-4.23-.939-.72-.627-1.07-1.875-1.07-3.745v-2.73c0-1.278-.23-2.16-.68-2.647-.46-.486-1.27-.73-2.46-.73h-.79v-2.425h.79c1.19 0 2-.241 2.46-.723.45-.483.68-1.367.68-2.654v-2.729c0-1.87.35-3.117 1.07-3.739.71-.622 2.13-.933 4.23-.933h1.91v2.412h-1.56q-1.32 0-1.77.533c-.29.356-.44 1.139-.44 2.349v2.653c0 1.397-.21 2.379-.62 2.946-.42.567-1.16.931-2.23 1.091 1.07.178 1.81.555 2.23 1.13.41.576.62 1.558.62 2.946v2.602c0 1.219.15 2.008.44 2.368q.45.54 1.77.539zm-346.33 15.231h2.805l-9.978 21.366h-2.806zm19.157 4.519-5.243 2.831 5.256 2.857-1.118 1.93-4.963-2.996v5.547h-2.247v-5.535q-1.207.724-2.489 1.498-1.282.775-2.475 1.486l-1.105-1.93 5.269-2.857-5.256-2.831 1.092-1.942 4.964 2.983v-5.535h2.247v5.535q1.218-.723 2.494-1.498 1.277-.774 2.469-1.485zm28.971.661v3.25a8.5 8.5 0 0 0-2.14-.997 7.7 7.7 0 0 0-2.228-.336q-1.243 0-1.878.361-.635.362-.635 1.073 0 1.015 2.717 1.651l.139.038 1.067.254q2.03.482 2.977 1.555.945 1.072.946 2.901 0 2.196-1.441 3.294t-4.336 1.098q-1.283 0-2.628-.222a19 19 0 0 1-2.729-.667v-3.25a11.6 11.6 0 0 0 2.507 1.067 9 9 0 0 0 2.469.368q1.308 0 1.981-.381.672-.381.673-1.104 0-.711-.476-1.092t-2.267-.813l-1.028-.228q-2.133-.482-3.11-1.511-.978-1.028-.978-2.755 0-2.056 1.486-3.199t4.176-1.143q1.206 0 2.406.197c1.2.197 1.576.328 2.33.591m11.832-4.482v4.037h4.862v2.857h-4.862v6.728q0 .952.463 1.365t1.543.413h2.856v2.856h-3.123q-3.2 0-4.329-1.022-1.13-1.021-1.13-3.79v-6.55h-3.631v-2.857h3.631v-4.037zm15.92 19.792q-.75 2.006-1.797 2.926t-2.545.921h-3.072v-2.831h1.51q1.143 0 1.676-.387.534-.388 1.079-1.797l.279-.762-5.408-13.825h3.91l3.25 9.23 3.111-9.23h3.91zm11.54-7.465v-10.968h-3.771v-2.857h7.49v13.825q0 1.676.521 2.374.52.699 1.765.699h2.97v2.856h-4.011q-2.654 0-3.809-1.371t-1.155-4.558m24.73 5.231a14 14 0 0 1-2.641.8q-1.346.266-2.843.266-3.568 0-5.453-1.91-1.885-1.911-1.885-5.504 0-3.478 1.815-5.497 1.816-2.019 4.951-2.019 3.162 0 4.907 1.873t1.746 5.275v1.511h-9.636q.014 1.676.99 2.501.978.825 2.92.825a8.9 8.9 0 0 0 2.527-.368q1.244-.369 2.602-1.168zm-3.148-7.998q-.025-1.473-.756-2.228-.73-.756-2.152-.756-1.282 0-2.043.781t-.902 2.215zm17.392-5.078v3.25a8.5 8.5 0 0 0-2.139-.997 7.7 7.7 0 0 0-2.228-.336q-1.244 0-1.879.361-.635.362-.635 1.073 0 1.015 2.717 1.651l.14.038 1.066.254q2.031.482 2.977 1.555t.946 2.901q0 2.196-1.441 3.294-1.44 1.098-4.335 1.098-1.282 0-2.628-.222a19 19 0 0 1-2.73-.667v-3.25q1.232.698 2.508 1.067a9 9 0 0 0 2.469.368q1.308 0 1.98-.381.673-.381.673-1.104 0-.711-.476-1.092t-2.266-.813l-1.028-.228q-2.133-.482-3.111-1.511-.977-1.028-.977-2.755 0-2.056 1.485-3.199t4.177-1.143q1.206 0 2.406.197 1.199.196 2.329.591m16.669 4.545v9.229h-3.694v-8.658q0-1.536-.438-2.196t-1.428-.661q-1.015 0-1.587.895t-.572 2.482v8.138h-3.694v-19.754h3.694v7.668q.394-1.18 1.346-1.828t2.298-.648q2.019 0 3.047 1.34t1.028 3.993m16.047 8.531a14 14 0 0 1-2.641.8q-1.346.266-2.843.266-3.568 0-5.453-1.91-1.885-1.911-1.885-5.504 0-3.478 1.815-5.497 1.816-2.019 4.951-2.019 3.162 0 4.907 1.873t1.746 5.275v1.511h-9.636q.013 1.676.99 2.501.978.825 2.92.825a8.9 8.9 0 0 0 2.527-.368q1.243-.369 2.602-1.168zm-3.148-7.998q-.025-1.473-.756-2.228-.73-.756-2.152-.756-1.282 0-2.044.781-.761.781-.901 2.215zm18.801 7.998q-1.295.533-2.64.8a14.7 14.7 0 0 1-2.844.266q-3.567 0-5.453-1.91-1.884-1.911-1.885-5.504 0-3.478 1.816-5.497 1.815-2.019 4.951-2.019 3.161 0 4.906 1.873 1.746 1.873 1.746 5.275v1.511h-9.636q.013 1.676.991 2.501.977.825 2.919.825a8.9 8.9 0 0 0 2.527-.368q1.244-.369 2.602-1.168zm-3.148-7.998q-.026-1.473-.755-2.228-.73-.756-2.152-.756-1.282 0-2.044.781t-.902 2.215zm13.571-9.56v4.037h4.863v2.857h-4.863v6.728q0 .952.464 1.365.463.413 1.542.413h2.857v2.856h-3.123q-3.2 0-4.33-1.022-1.13-1.021-1.129-3.79v-6.55h-3.631v-2.857h3.631v-4.037zm37.464 3.821-5.243 2.831 5.256 2.857-1.117 1.93-4.964-2.996v5.547h-2.247v-5.535q-1.206.724-2.489 1.498a428 428 0 0 1-2.475 1.486l-1.105-1.93 5.269-2.857-5.256-2.831 1.092-1.942 4.964 2.983v-5.535h2.247v5.535q1.219-.723 2.494-1.498 1.276-.774 2.47-1.485zm12.15-4.519h2.805l-9.978 21.366h-2.806zm-275.235 56.769h1.536q1.32 0 1.778-.545.457-.547.457-2.362v-2.602q0-2.082.622-2.946.621-.863 2.209-1.13-1.6-.24-2.216-1.091-.615-.85-.615-2.946v-2.653q0-1.79-.451-2.336-.45-.546-1.784-.546h-1.536v-2.412h1.904q3.149 0 4.209.933t1.06 3.739v2.729q0 1.918.692 2.647.691.73 2.482.73h.787v2.425h-.787q-1.79 0-2.482.737-.692.736-.692 2.64v2.73q0 2.805-1.06 3.745-1.06.939-4.209.939h-1.904z"
     id="path15" /><path
     fill="#dafcef"
     d="M649.694 354.375h444.136c6.53 0 11.82 5.292 11.82 11.819v103.937c0 6.527-5.29 11.819-11.82 11.819H649.694c-6.527 0-11.819-5.292-11.819-11.819V366.194c0-6.527 5.292-11.819 11.819-11.819"
     id="path16" /><path
     d="M670.833 392.989q0-1.434-.647-2.247-.648-.812-1.778-.812t-1.771.812-.641 2.247q0 1.447.641 2.26.642.813 1.771.813t1.778-.813q.647-.813.647-2.26m2.361 5.205h-2.488v-1.041q-.483.674-1.136.984-.654.312-1.568.311-2.082 0-3.358-1.498c-1.276-1.498-1.276-2.319-1.276-3.961q0-2.45 1.27-3.942 1.269-1.491 3.364-1.491.902 0 1.587.311t1.117.907v-.52q0-1.727-.946-2.666-.946-.94-2.698-.94-2.64 0-4.31 2.324-1.67 2.322-1.669 6.043 0 3.897 1.93 6.201t5.141 2.304q1.015 0 1.968-.298a6.9 6.9 0 0 0 1.828-.895l1.168 2.235a7.8 7.8 0 0 1-2.241 1.047 9.3 9.3 0 0 1-2.596.349q-4.443 0-7.084-2.958t-2.64-7.985q0-4.913 2.374-7.865t6.284-2.952q2.768 0 4.373 1.67t1.606 4.551zm14.409.991a7.8 7.8 0 0 1-2.018.818 9.5 9.5 0 0 1-2.323.273q-3.288 0-5.142-1.98-1.853-1.98-1.853-5.484 0-3.517 1.866-5.504t5.154-1.987q1.143 0 2.203.267a9.5 9.5 0 0 1 2.113.825v3.402a6 6 0 0 0-1.783-1.072 5.5 5.5 0 0 0-2.012-.375q-1.817 0-2.793 1.155-.978 1.156-.978 3.289t.978 3.275q.976 1.143 2.793 1.142a5.6 5.6 0 0 0 2.018-.361 6 6 0 0 0 1.777-1.098zm10.004-10.817q-1.333 0-2.094 1.174-.762 1.175-.762 3.27t.762 3.269q.761 1.173 2.094 1.174 1.347 0 2.108-1.174.762-1.175.762-3.269 0-2.096-.762-3.27t-2.108-1.174m-6.576 4.444q0-3.441 1.784-5.453t4.792-2.012q3.022 0 4.806 2.012 1.783 2.012 1.783 5.453 0 3.44-1.783 5.452-1.784 2.012-4.806 2.012-3.008 0-4.792-2.012t-1.784-5.452m28.006-2.133v9.229h-3.694v-8.658q0-1.55-.438-2.215-.438-.667-1.428-.667-1.003 0-1.581.902-.578.9-.578 2.5v8.138h-3.694v-14.219h3.694v2.133q.394-1.18 1.346-1.828.952-.647 2.298-.647 2.019 0 3.047 1.339 1.028 1.34 1.028 3.993m10.816-9.027v4.037h4.863v2.857h-4.863v6.728q0 .952.464 1.365.463.413 1.542.413h2.857v2.856h-3.123q-3.2 0-4.329-1.022-1.13-1.021-1.13-3.789v-6.551h-3.631v-2.857h3.631v-4.037zm15.781 11.578q-2.082 0-2.907.534-.826.532-.826 1.828 0 .964.572 1.536.57.571 1.548.571 1.473 0 2.286-1.111t.812-3.104v-.254zm5.179-1.434v8.112h-3.694v-1.587a4.5 4.5 0 0 1-1.726 1.448 5.3 5.3 0 0 1-2.324.507q-2.424 0-3.777-1.282-1.352-1.282-1.352-3.58 0-2.489 1.613-3.675 1.613-1.187 4.989-1.187h2.577v-.622q0-.901-.654-1.365t-1.923-.463q-1.333 0-2.584.336-1.25.336-2.608 1.073v-3.174a12.8 12.8 0 0 1 2.501-.749 14.4 14.4 0 0 1 2.691-.241q3.466 0 4.869 1.409t1.402 5.04m4.393-6.107h7.363v11.363h4.621v2.856h-12.974v-2.856h4.634v-8.506h-3.644zm3.644-6.919h3.719v4.342h-3.719zm22.8 11.909v9.229h-3.694v-8.658q0-1.55-.438-2.215-.438-.667-1.428-.667-1.004 0-1.581.902-.577.9-.577 2.5v8.138h-3.695v-14.219h3.695v2.133q.393-1.18 1.345-1.828t2.298-.647q2.019 0 3.047 1.339 1.029 1.34 1.028 3.993m16.047 8.531q-1.294.533-2.64.8-1.346.266-2.844.266-3.567 0-5.453-1.91-1.885-1.911-1.885-5.504 0-3.478 1.815-5.497 1.816-2.018 4.952-2.018 3.161 0 4.906 1.872 1.746 1.873 1.746 5.275v1.511h-9.636q.014 1.676.99 2.501.978.825 2.92.825a8.9 8.9 0 0 0 2.527-.368q1.244-.369 2.602-1.168zm-3.148-7.998q-.026-1.473-.756-2.228t-2.151-.756q-1.283 0-2.044.781t-.902 2.216zm19.424-1.6a4 4 0 0 0-1.429-.838 5.5 5.5 0 0 0-1.796-.279q-1.18 0-2.063.413a3.1 3.1 0 0 0-1.365 1.199 3.2 3.2 0 0 0-.425 1.168q-.12.685-.121 2.082v6.551h-3.719v-14.219h3.719v2.209a4.07 4.07 0 0 1 1.676-1.885q1.13-.666 2.641-.666a6.05 6.05 0 0 1 2.882.723zm28.424-9.458q-1.675 3.034-2.488 5.885a20.7 20.7 0 0 0-.812 5.693q0 2.832.812 5.701t2.488 5.916h-2.894q-2.02-2.933-2.996-5.789a17.9 17.9 0 0 1-.978-5.828q0-2.945.984-5.814t2.99-5.764zm3.923 5.535h3.098l1.688 10.893 1.537-7.173h3.008l1.511 7.173 1.714-10.893h3.098l-2.578 14.219h-3.529l-1.726-7.388-1.714 7.388h-3.53zm18.459 0h7.364v11.363h4.621v2.856h-12.975v-2.856h4.634v-8.506h-3.644zm3.644-6.919h3.72v4.342h-3.72zm19.246 8.938v-7.554h3.707v19.754h-3.707v-2.107q-.597 1.232-1.543 1.853-.945.622-2.228.622-2.437 0-3.783-1.955t-1.346-5.509q0-3.606 1.365-5.536t3.891-1.929q1.143 0 2.051.59t1.593 1.771m-5.18 5.129q0 2.057.686 3.225.685 1.167 1.891 1.167c1.206 0 1.439-.389 1.905-1.167q.698-1.168.698-3.225c0-2.057-.233-2.446-.698-3.225q-.699-1.168-1.905-1.168c-1.206 0-1.434.39-1.891 1.168q-.686 1.168-.686 3.225m19.551-11.185v4.037h4.862v2.857h-4.862v6.728q0 .952.463 1.365t1.543.413h2.856v2.856h-3.123q-3.2 0-4.329-1.022-1.13-1.022-1.13-3.789v-6.551h-3.631v-2.857h3.631v-4.037zm20.49 9.027v9.229h-3.694v-8.658q0-1.536-.438-2.196t-1.428-.66q-1.015 0-1.587.895t-.572 2.481v8.138h-3.694v-19.754h3.694v7.668q.394-1.18 1.346-1.828t2.298-.647q2.019 0 3.047 1.339 1.028 1.34 1.028 3.993m18.827-2.527v-3.174l13.419 5.282v2.996l-13.419 5.268v-3.161l10.093-3.593zm32.577 8.455h4.189v-12.301l-3.897.964v-3.376l3.922-.94h3.619v15.653h4.189v3.301h-12.022zm15.716-15.653h10.296v3.301h-7.261v3.516q.456-.177.977-.26a7 7 0 0 1 1.105-.082q2.818 0 4.57 1.777c1.163 1.185 1.753 2.725 1.753 4.621 0 1.989-.63 3.561-1.899 4.716q-1.898 1.734-5.173 1.733-1.22 0-2.463-.203a18 18 0 0 1-2.539-.609v-3.377q1.053.52 2.164.781 1.111.26 2.228.26 1.98 0 3.009-.844 1.029-.845 1.028-2.457 0-1.486-1.022-2.38-1.022-.895-2.723-.895-1.002 0-2.012.247a10.4 10.4 0 0 0-2.038.743zm27.19 18.256q-1.29.533-2.64.8c-.89.177-1.84.266-2.84.266-2.38 0-4.2-.637-5.45-1.91q-1.89-1.911-1.89-5.504c0-2.319.61-4.151 1.82-5.497q1.815-2.018 4.95-2.018c2.11 0 3.74.624 4.9 1.872 1.17 1.249 1.75 3.007 1.75 5.275v1.511h-9.64q.015 1.676.99 2.501c.66.55 1.63.825 2.92.825.86 0 1.7-.123 2.53-.368.83-.246 1.7-.635 2.6-1.168zm-3.14-7.998c-.02-.982-.27-1.725-.76-2.228s-1.2-.756-2.15-.756c-.86 0-1.54.261-2.05.781q-.75.781-.9 2.216zm13.57-4.101c.28-.601.63-1.045 1.06-1.333q.645-.43 1.59-.431 1.845 0 2.55 1.269c.47.847.7 2.607.7 5.281v8.011h-3.05v-9.128q0-1.587-.24-2.12t-.87-.533c-.43 0-.72.182-.89.546s-.26 1.066-.26 2.107v9.128h-3.01v-9.128c0-1.041-.08-1.743-.25-2.107s-.46-.546-.89-.546q-.63 0-.87.533c-.16.356-.25 1.062-.25 2.12v9.128h-3.04v-14.219h2.7v1.473q.315-.838 1.02-1.327.69-.488 1.56-.488c.57 0 1.1.171 1.57.514q.72.514.87 1.25m10.81-6.957h2.9c1.33 1.93 2.33 3.851 2.99 5.764.65 1.913.98 3.851.98 5.814 0 1.981-.32 3.923-.98 5.828-.65 1.904-1.65 3.834-2.99 5.789h-2.9q1.68-3.048 2.49-5.916.81-2.87.81-5.701 0-2.843-.81-5.693-.81-2.851-2.49-5.885m25.1 21.57v2.424h-1.9c-2.11 0-3.52-.313-4.24-.939-.71-.626-1.07-1.875-1.07-3.745v-2.73c0-1.278-.23-2.16-.68-2.647q-.675-.73-2.46-.73h-.78v-2.424h.78q1.785 0 2.46-.724c.45-.482.68-1.367.68-2.653v-2.73c0-1.87.36-3.117 1.07-3.739.72-.622 2.13-.933 4.24-.933h1.9v2.412h-1.56c-.88 0-1.47.178-1.76.534q-.45.533-.45 2.348v2.654c0 1.396-.21 2.378-.62 2.945q-.63.85-2.22 1.092 1.59.266 2.22 1.13c.41.575.62 1.557.62 2.945v2.602q0 1.828.45 2.368c.29.36.88.54 1.76.54zm-361.98 15.23h2.806l-9.979 21.366h-2.805zm19.157 4.52-5.243 2.831 5.256 2.856-1.117 1.93-4.964-2.996v5.548h-2.247v-5.536q-1.207.724-2.488 1.498-1.282.775-2.476 1.486l-1.104-1.93 5.268-2.856-5.256-2.831 1.092-1.943 4.964 2.984v-5.536h2.247v5.536a323 323 0 0 0 2.495-1.498 308 308 0 0 1 2.469-1.486zm28.971.66v3.25a8.5 8.5 0 0 0-2.139-.997 7.7 7.7 0 0 0-2.228-.336q-1.245 0-1.879.362-.635.361-.635 1.072 0 1.016 2.717 1.651l.14.038 1.066.254q2.032.482 2.977 1.555.946 1.073.946 2.901 0 2.196-1.441 3.294t-4.335 1.098q-1.283 0-2.628-.222a19 19 0 0 1-2.73-.666v-3.25q1.232.698 2.507 1.066a9 9 0 0 0 2.47.368q1.307 0 1.98-.381t.673-1.104q0-.711-.476-1.092t-2.266-.812l-1.028-.229q-2.133-.482-3.111-1.511-.978-1.027-.977-2.755 0-2.056 1.485-3.199t4.177-1.142q1.206 0 2.406.196 1.199.197 2.329.591m11.832-4.482v4.037h4.862v2.857h-4.862v6.728q0 .952.464 1.365.463.413 1.542.413h2.856v2.856h-3.123q-3.198 0-4.329-1.022t-1.13-3.789v-6.551h-3.63v-2.857h3.63v-4.037zm15.92 19.792q-.749 2.006-1.796 2.927-1.048.92-2.546.92h-3.072v-2.831h1.511q1.142 0 1.676-.387.533-.387 1.079-1.797l.279-.761-5.408-13.826h3.91l3.25 9.23 3.11-9.23h3.91zm11.54-7.465v-10.968h-3.77v-2.857h7.49v13.825q0 1.677.52 2.374.521.699 1.765.699h2.971v2.856h-4.012q-2.653 0-3.809-1.371-1.155-1.37-1.155-4.558m24.731 5.231q-1.296.533-2.641.8a14.7 14.7 0 0 1-2.844.266q-3.568 0-5.452-1.91-1.886-1.911-1.886-5.504 0-3.478 1.816-5.497 1.815-2.018 4.951-2.018 3.16 0 4.907 1.872 1.745 1.873 1.745 5.275v1.511h-9.636q.013 1.676.991 2.501.977.825 2.92.825 1.282 0 2.526-.368 1.244-.369 2.603-1.168zm-3.149-7.998q-.026-1.473-.755-2.228-.73-.756-2.152-.756-1.282 0-2.044.781t-.901 2.216zm17.393-5.078v3.25a8.5 8.5 0 0 0-2.139-.997 7.7 7.7 0 0 0-2.228-.336q-1.245 0-1.879.362-.635.361-.635 1.072 0 1.016 2.717 1.651l.139.038 1.067.254q2.03.482 2.977 1.555.946 1.072.946 2.901 0 2.196-1.441 3.294t-4.336 1.098q-1.283 0-2.628-.222a19 19 0 0 1-2.729-.666v-3.25q1.231.698 2.507 1.066a9 9 0 0 0 2.469.368q1.308 0 1.981-.381t.673-1.104q0-.711-.476-1.092t-2.267-.812l-1.028-.229q-2.133-.483-3.11-1.511-.978-1.027-.978-2.755 0-2.056 1.486-3.199t4.176-1.142q1.206 0 2.406.196 1.2.197 2.33.591m16.669 4.545v9.229h-3.695v-8.658q0-1.536-.438-2.196t-1.428-.66q-1.016 0-1.587.895t-.571 2.481v8.138h-3.694v-19.754h3.694v7.668q.393-1.18 1.346-1.828.951-.648 2.297-.647 2.02 0 3.047 1.339 1.029 1.34 1.029 3.993m16.047 8.531q-1.296.533-2.641.8a14.7 14.7 0 0 1-2.844.266q-3.568 0-5.452-1.91-1.886-1.911-1.886-5.504 0-3.478 1.816-5.497 1.815-2.018 4.951-2.018 3.16 0 4.907 1.872 1.745 1.873 1.745 5.275v1.511h-9.636q.013 1.676.991 2.501.977.825 2.92.825 1.282 0 2.526-.368 1.244-.369 2.603-1.168zm-3.149-7.998q-.026-1.473-.755-2.228-.73-.756-2.152-.756-1.282 0-2.044.781t-.901 2.216zm18.802 7.998q-1.295.533-2.641.8a14.7 14.7 0 0 1-2.844.266q-3.567 0-5.452-1.91-1.885-1.911-1.885-5.504 0-3.478 1.815-5.497 1.816-2.018 4.951-2.018 3.162 0 4.907 1.872t1.746 5.275v1.511h-9.636q.012 1.676.99 2.501t2.92.825q1.282 0 2.526-.368 1.245-.369 2.603-1.168zm-3.149-7.998q-.025-1.473-.755-2.228t-2.152-.756q-1.282 0-2.044.781t-.901 2.216zm13.572-9.56v4.037h4.862v2.857h-4.862v6.728q0 .952.463 1.365t1.543.413h2.856v2.856h-3.123q-3.2 0-4.329-1.022-1.13-1.022-1.13-3.789v-6.551h-3.631v-2.857h3.631v-4.037zm37.464 3.822-5.244 2.831 5.256 2.856-1.117 1.93-4.964-2.996v5.548h-2.247v-5.536q-1.206.724-2.488 1.498-1.282.775-2.476 1.486l-1.104-1.93 5.268-2.856-5.256-2.831 1.092-1.943 4.964 2.984v-5.536h2.247v5.536a323 323 0 0 0 2.495-1.498 308 308 0 0 1 2.469-1.486zm12.149-4.52h2.806l-9.979 21.366h-2.806zm-275.234 56.77h1.536q1.32 0 1.777-.546t.457-2.362v-2.602q0-2.082.622-2.945.622-.864 2.209-1.13-1.6-.241-2.215-1.092-.616-.85-.616-2.945v-2.654q0-1.79-.451-2.336-.45-.546-1.783-.546h-1.536v-2.412h1.904q3.149 0 4.208.933 1.06.934 1.06 3.739v2.73q0 1.917.692 2.647.693.73 2.482.73h.787v2.424h-.787q-1.79 0-2.482.737-.692.736-.692 2.64v2.73q0 2.806-1.06 3.745t-4.208.939h-1.904z"
     id="path17" /><text
     xml:space="preserve"
     style="font-style:normal;font-variant:normal;font-weight:bold;font-stretch:normal;font-size:26.6667px;font-family:'Yu Gothic';-inkscape-font-specification:'Yu Gothic Bold';text-align:start;baseline-shift:baseline;text-anchor:start;fill:#000000;fill-opacity:1"
     x="637.84717"
     y="61.158279"
     id="text17"><tspan
       id="tspan17"
       x="637.84717"
       y="61.158279"><tspan
         style="font-size:26.6667px"
         id="tspan19">メディアクエリー</tspan><tspan
         style="font-style:normal;font-variant:normal;font-weight:normal;font-stretch:normal;font-size:21.3333px;font-family:'Yu Gothic';-inkscape-font-specification:'Yu Gothic'"
         id="tspan18">（ビューポートサイズ）</tspan></tspan></text><text
     xml:space="preserve"
     style="font-style:normal;font-variant:normal;font-weight:bold;font-stretch:normal;font-size:26.6667px;font-family:'Yu Gothic';-inkscape-font-specification:'Yu Gothic Bold';text-align:start;baseline-shift:baseline;text-anchor:start;fill:#000000;fill-opacity:1"
     x="636.16296"
     y="343.0495"
     id="text17-3"><tspan
       id="tspan17-8"
       x="636.16296"
       y="343.0495"><tspan
         style="font-size:26.6667px"
         id="tspan20">コンテナークエリー</tspan><tspan
         style="font-style:normal;font-variant:normal;font-weight:normal;font-stretch:normal;font-size:21.3333px;font-family:'Yu Gothic';-inkscape-font-specification:'Yu Gothic'"
         id="tspan21">（コンテナーサイズ）</tspan></tspan></text></svg>
