<svg xmlns="http://www.w3.org/2000/svg" width="820" height="303" fill="none"><rect width="277" height="224" x="512" y="50" fill="#D9D9D9" rx="3"/><rect width="275" height="224" x="35" y="52" fill="#D9D9D9" rx="3"/><rect width="260" height="20" x="42" y="62" fill="#B9DAF2" rx="5" style="mix-blend-mode:darken"/><rect width="260" height="20" x="519" y="62" fill="#B9DAF2" rx="5" style="mix-blend-mode:darken"/><rect width="260" height="101" x="42" y="82" fill="#DCB9F2" rx="5" style="mix-blend-mode:darken"/><rect width="260" height="101" x="519" y="82" fill="#DCB9F2" rx="5" style="mix-blend-mode:darken"/><rect width="260" height="58" x="42" y="204" fill="#CFF2B9" rx="5" style="mix-blend-mode:darken"/><rect width="260" height="58" x="519" y="204" fill="#CFF2B9" rx="5" style="mix-blend-mode:darken"/><text fill="#000" font-family="monospace" font-size="12" letter-spacing="0em" style="white-space:pre"><tspan x="48" y="76.7">POST / HTTP/1.1</tspan><tspan x="48" y="96.7">Host: developer.mozilla.org</tspan><tspan x="48" y="116.7">User-Agent: curl/8.6.0</tspan><tspan x="48" y="136.7">Accept: */*</tspan><tspan x="48" y="156.7">Content-Type: application/json</tspan><tspan x="48" y="176.7">Content-Length: 345</tspan><tspan x="48" y="216.7">{</tspan><tspan x="48" y="236.7">&quot;data&quot;: &quot;ABC123&quot;</tspan><tspan x="48" y="256.7">}</tspan></text><text fill="#000" font-family="monospace" font-size="12" letter-spacing="0em" style="white-space:pre"><tspan x="523" y="76.7">HTTP/1.1 403 Forbidden</tspan><tspan x="523" y="96.7">Server: Apache</tspan><tspan x="523" y="116.7">Date: Fri, 21 Jun 2024 12:52:39 GMT</tspan><tspan x="523" y="136.7">Content-Length: 678</tspan><tspan x="523" y="156.7">Content-Type: text/html</tspan><tspan x="523" y="176.7">Cache-Control: no-store</tspan><tspan x="523" y="216.7">&lt;!DOCTYPE html&gt;</tspan><tspan x="523" y="236.7">&lt;html lang=&quot;en&quot;&gt;</tspan><tspan x="523" y="256.7">(more data…)</tspan></text><text fill="#000" font-family="monospace" font-size="12" letter-spacing="0em" style="white-space:pre"><tspan x="147" y="33.7">リクエスト</tspan></text><text fill="#000" font-family="monospace" font-size="12" letter-spacing="0em" style="white-space:pre"><tspan x="631" y="33.7">レスポンス</tspan></text><text fill="#000" font-family="monospace" font-size="12" letter-spacing="0em" style="white-space:pre"><tspan x="393.3" y="76.7">先頭行</tspan></text><text fill="#000" font-family="monospace" font-size="12" letter-spacing="0em" style="white-space:pre"><tspan x="385.3" y="137.7">ヘッダー</tspan></text><text fill="#000" font-family="monospace" font-size="12" letter-spacing="0em" style="white-space:pre"><tspan x="396.1" y="198.7">空行</tspan></text><text fill="#000" font-family="monospace" font-size="12" letter-spacing="0em" style="white-space:pre"><tspan x="396.1" y="236.7">本体</tspan></text><path fill="#000" d="M318.6 71.6c-.1.2-.1.6 0 .8l3.2 3.1a.5.5 0 0 0 .7-.7l-2.8-2.8 2.8-2.8a.5.5 0 0 0-.7-.7l-3.2 3.1Zm.4.9h49v-1h-49v1Zm184.4-.1c.1-.2.1-.6 0-.8l-3.2-3.1a.5.5 0 0 0-.7.7l2.8 2.8-2.8 2.8a.5.5 0 0 0 .7.7l3.2-3.1Zm-49.4.1h49v-1h-49v1Zm-134.4 60.1c-.1.2-.1.6 0 .8l3.2 3.1a.5.5 0 0 0 .7-.7l-2.8-2.8 2.8-2.8a.5.5 0 0 0-.7-.7l-3.2 3.1Zm.4.9h48v-1h-48v1Zm181.4-.1c.1-.2.1-.6 0-.8l-3.2-3.1a.5.5 0 0 0-.7.7l2.8 2.8-2.8 2.8a.5.5 0 0 0 .7.7l3.2-3.1Zm-48.4.1h48v-1h-48v1Zm-134.4 60.1c-.1.2-.1.6 0 .8l3.2 3.1a.5.5 0 0 0 .7-.7l-2.8-2.8 2.8-2.8a.5.5 0 0 0-.7-.7l-3.2 3.1Zm.4.9h36v-1h-36v1Zm184.4-.1c.1-.2.1-.6 0-.8l-3.2-3.1a.5.5 0 0 0-.7.7l2.8 2.8-2.8 2.8a.5.5 0 0 0 .7.7l3.2-3.1Zm-48.4.1h48v-1h-48v1Zm-136.4 37.1c-.1.2-.1.6 0 .8l3.2 3.1a.5.5 0 0 0 .7-.7l-2.8-2.8 2.8-2.8a.5.5 0 0 0-.7-.7l-3.2 3.1Zm.4.9h49v-1h-49v1Zm183.4-.1c.1-.2.1-.6 0-.8l-3.2-3.1a.5.5 0 0 0-.7.7l2.8 2.8-2.8 2.8a.5.5 0 0 0 .7.7l3.2-3.1Zm-49.4.1h49v-1h-49v1Z"/></svg>
