<?xml version="1.0" encoding="UTF-8"?>
<svg fill="none" version="1.1" viewBox="0 0 550 298" xmlns="http://www.w3.org/2000/svg">
 <rect x="35" y="47" width="275" height="224" rx="3" fill="#D9D9D9"/>
 <rect x="42" y="78" width="260" height="60" rx="5" fill="#DCB9F2" style="mix-blend-mode:darken"/>
 <rect x="42" y="139" width="260" height="39" rx="5" fill="#B9DAF2" style="mix-blend-mode:darken"/>
 <path d="m50.2 68.58v3.42h-1.08v-8.53h2.76c0.39 0 0.75 0.07 1.09 0.18s0.64 0.28 0.9 0.5c0.26 0.2 0.46 0.47 0.61 0.79s0.23 0.68 0.23 1.09c0 0.4-0.08 0.77-0.23 1.09-0.14015 0.30384-0.34492 0.57345-0.6 0.79-0.56269 0.45969-1.2739 0.69796-2 0.67h-1.68zm0-0.9h1.68c0.45746 0.01763 0.90445-0.13971 1.25-0.44 0.33307-0.30764 0.51254-0.74716 0.49-1.2 0.0036-0.4553-0.17248-0.89366-0.49-1.22-0.15879-0.14892-0.3458-0.26453-0.55-0.34-0.22468-0.08003-0.4615-0.12063-0.7-0.12h-1.68v3.33zm11.58 0.55c-0.0099 0.61813-0.11096 1.2314-0.3 1.82-0.11 0.29-0.24 0.56-0.4 0.8-0.47177 0.801-1.3407 1.2833-2.27 1.26-0.62406 0.03507-1.2362-0.18098-1.7-0.6-0.22-0.18-0.41-0.4-0.57-0.65-0.47399-0.79425-0.71645-1.7052-0.7-2.63v-0.98c-0.01752-0.92492 0.22502-1.8362 0.7-2.63 0.45615-0.81802 1.3342-1.3093 2.27-1.27 0.61937-0.0048 1.2209 0.20747 1.7 0.6 0.64459 0.63778 1.0596 1.4712 1.18 2.37 0.05 0.32 0.08 0.63 0.09 0.93zm-1.08-0.99c-0.01411-0.43726-0.06766-0.87236-0.16-1.3-0.05545-0.20611-0.12907-0.4069-0.22-0.6-0.1-0.2-0.21-0.38-0.36-0.54-0.30238-0.31539-0.72318-0.48951-1.16-0.48-0.44038-0.0069-0.86262 0.17513-1.16 0.5-0.14 0.14-0.26 0.32-0.35 0.52-0.2603 0.59981-0.39638 1.2461-0.4 1.9v0.99c-0.0047 0.66116 0.13168 1.3157 0.4 1.92 0.17979 0.37818 0.47829 0.6872 0.85 0.88 0.2 0.09 0.42 0.13 0.67 0.13 0.44333 0.0072 0.86878-0.17464 1.17-0.5 0.14-0.14 0.25-0.32 0.34-0.51 0.18838-0.40312 0.3035-0.83654 0.34-1.28 0.03-0.23 0.04-0.44 0.04-0.64zm7.2 2.6c0-0.26-0.06-0.48-0.18-0.66-0.12022-0.18322-0.27678-0.33978-0.46-0.46-0.19-0.12-0.4-0.22-0.62-0.3-0.53324-0.16152-1.0573-0.35179-1.57-0.57-0.2981-0.13419-0.57992-0.30194-0.84-0.5-0.25342-0.19426-0.46727-0.43527-0.63-0.71-0.16-0.27-0.24-0.6-0.24-0.96-0.0068-0.34518 0.07589-0.68625 0.24-0.99 0.16-0.29 0.37-0.53 0.64-0.73 0.86303-0.60454 1.9629-0.7606 2.96-0.42 0.34 0.12 0.65 0.3 0.92 0.51 0.55628 0.46286 0.88159 1.1464 0.89 1.87h-1.12c-0.03-0.24-0.09-0.46-0.18-0.66s-0.2-0.38-0.36-0.53c-0.15193-0.14549-0.3324-0.25786-0.53-0.33-0.41881-0.14723-0.87293-0.1612-1.3-0.04-0.2 0.06-0.37 0.15-0.52 0.27-0.16 0.12-0.28 0.26-0.38 0.43-0.19341 0.39292-0.17074 0.85777 0.06 1.23 0.12 0.17 0.27 0.3 0.46 0.42 0.18 0.12 0.38 0.22 0.6 0.3l0.61 0.2c0.32 0.1 0.63 0.22 0.95 0.36s0.6 0.31 0.87 0.53c0.26 0.2 0.46 0.44 0.62 0.73s0.24 0.62 0.24 1-0.09 0.72-0.26 1c-0.17 0.29-0.39 0.53-0.65 0.71-0.27931 0.1981-0.59047 0.34691-0.92 0.44-0.7306 0.19706-1.5033 0.1727-2.22-0.07-0.69257-0.242-1.2725-0.72939-1.63-1.37-0.15-0.3-0.23-0.63-0.24-1h1.1c0.04 0.26 0.11 0.5 0.22 0.7 0.21804 0.39788 0.57904 0.69812 1.01 0.84 0.44074 0.13986 0.9118 0.15371 1.36 0.04 0.21-0.05 0.4-0.14 0.55-0.25 0.34844-0.22464 0.55343-0.61564 0.54-1.03zm8.5-5.45h-2.64v7.61h-1.06v-7.6h-2.63v-0.93h6.32v0.92zm10.08 8.34h-0.97l3.56-9.26h0.97zm18.34-0.73h-1.03v-3.94h-3.5v3.94h-1.01v-8.53h1.02v3.67h3.5v-3.67h1.02zm7.61-7.6h-2.64v7.6h-1.05v-7.6h-2.64v-0.93h6.33v0.92zm7.2 0h-2.63v7.6h-1.06v-7.6h-2.63v-0.93h6.33v0.92zm2.64 4.18v3.42h-1.08v-8.53h2.77c0.38 0 0.74 0.07 1.08 0.18s0.64 0.28 0.9 0.5c0.26 0.2 0.46 0.47 0.61 0.79s0.23 0.68 0.23 1.09c0 0.4-0.08 0.77-0.23 1.09-0.14015 0.30384-0.34492 0.57345-0.6 0.79-0.56269 0.45969-1.274 0.69796-2 0.67zm0-0.9h1.69c0.45405 0.01507 0.897-0.14211 1.24-0.44 0.33307-0.30764 0.51254-0.74716 0.49-1.2 0-0.26-0.04-0.49-0.13-0.7-0.16678-0.40334-0.49789-0.71625-0.91-0.86-0.22463-0.08022-0.46148-0.12083-0.7-0.12h-1.68v3.33zm7.46 5.05h-0.98l3.57-9.26h0.96zm9.29-0.73h-1.08v-7.15l-2.24 0.85v-0.99l3.23-1.24h0.09zm5.58-0.7c0-0.23 0.07-0.43 0.2-0.6 0.15-0.16 0.36-0.24 0.65-0.24 0.28 0 0.5 0.08 0.64 0.25 0.14 0.16 0.22 0.35 0.22 0.59 0 0.23-0.08 0.42-0.22 0.58-0.17389 0.15933-0.40446 0.2422-0.64 0.23-0.28 0-0.5-0.08-0.64-0.23-0.14016-0.16022-0.2151-0.36719-0.21-0.58zm8.83 0.7h-1.08v-7.15l-2.23 0.85v-0.99l3.23-1.24h0.08zm-99.06 20h-1.03v-3.94h-3.5v3.94h-1.01v-8.53h1.02v3.67h3.5v-3.67h1.02v8.53zm1.55-3.23c0-0.46 0.07-0.88 0.2-1.27 0.13-0.4 0.33-0.74 0.58-1.03 0.52497-0.60944 1.2959-0.95085 2.1-0.93 0.80773-0.01032 1.5806 0.3287 2.12 0.93 0.25 0.3 0.44 0.64 0.57 1.03 0.13 0.4 0.2 0.81 0.2 1.27v0.13c0 0.46-0.07 0.88-0.2 1.27-0.13 0.4-0.32 0.73-0.57 1.02-0.52543 0.61458-1.3019 0.9568-2.11 0.93-0.45 0-0.85-0.08-1.21-0.25-0.34615-0.15807-0.65338-0.3902-0.9-0.68-0.25795-0.29896-0.45498-0.64546-0.58-1.02-0.13-0.39-0.2-0.81-0.2-1.27zm1.09 0.13c0 0.31 0.03 0.61 0.1 0.9 0.08 0.28 0.2 0.53 0.35 0.74 0.29943 0.45024 0.80948 0.71471 1.35 0.7 0.54052 0.01471 1.0506-0.24976 1.35-0.7 0.15-0.21 0.26-0.46 0.33-0.74 0.08-0.29 0.11-0.59 0.11-0.9v-0.13c0-0.3-0.04-0.6-0.11-0.88-0.06831-0.26806-0.18341-0.52196-0.34-0.75-0.14879-0.21109-0.34373-0.3855-0.57-0.51-0.23691-0.13651-0.50663-0.20567-0.78-0.2-0.3 0-0.56 0.07-0.79 0.2-0.22 0.12-0.4 0.3-0.55 0.5-0.16292 0.2281-0.27852 0.48651-0.34 0.76-0.08 0.28-0.11 0.57-0.11 0.88zm10.64 1.42c0.0017-0.12138-0.02576-0.2414-0.08-0.35-0.06176-0.1137-0.15118-0.20999-0.26-0.28-0.1483-0.10152-0.3098-0.18227-0.48-0.24-0.2-0.07-0.45-0.14-0.74-0.2-0.37-0.07-0.7-0.16-1-0.27-0.3-0.1-0.55-0.23-0.76-0.38-0.20124-0.12807-0.37193-0.29876-0.5-0.5-0.12-0.2-0.17-0.44-0.17-0.7s0.06-0.5 0.18-0.72c0.12-0.23 0.29-0.42 0.5-0.6 0.23-0.16 0.49-0.3 0.79-0.4 0.67001-0.1981 1.384-0.19113 2.05 0.02 0.32 0.1 0.58 0.24 0.8 0.42 0.42307 0.34378 0.67506 0.85507 0.69 1.4h-1.09c0.0013-0.13967-0.03314-0.27736-0.1-0.4-0.07512-0.13588-0.17721-0.25498-0.3-0.35-0.1352-0.1051-0.2874-0.18627-0.45-0.24-0.39042-0.11775-0.80588-0.12468-1.2-0.02-0.15651 0.04244-0.30511 0.10999-0.44 0.2-0.10888 0.07835-0.19792 0.18109-0.26 0.3-0.05929 0.11072-0.09021 0.23441-0.09 0.36 0 0.12 0.02 0.23 0.07 0.33s0.13 0.18 0.25 0.26c0.11 0.08 0.26 0.15 0.45 0.21 0.2 0.07 0.45 0.13 0.74 0.19 0.4 0.08 0.74 0.17 1.05 0.28 0.3 0.1 0.57 0.23 0.78 0.38 0.21 0.16 0.37 0.33 0.48 0.53s0.17 0.43 0.17 0.7-0.06 0.53-0.2 0.76c-0.12 0.23-0.3 0.43-0.52 0.6-0.23 0.16-0.5 0.28-0.81 0.37-0.71696 0.20634-1.479 0.1959-2.19-0.03-0.30933-0.1042-0.59728-0.26342-0.85-0.47-0.45704-0.33676-0.72482-0.87231-0.72-1.44h1.08c0.02 0.23 0.08 0.42 0.18 0.57s0.24 0.28 0.4 0.37c0.14 0.1 0.31 0.16 0.5 0.2 0.4334 0.09364 0.88312 0.07991 1.31-0.04 0.22-0.07 0.39-0.17 0.5-0.29 0.0746-0.06793 0.13567-0.14936 0.18-0.24 0.04156-0.09445 0.06204-0.19683 0.06-0.3zm5.56-6.2v1.54h2.41v0.84h-2.41v3.44c0 0.25 0.03 0.45 0.1 0.61 0.09996 0.2848 0.3306 0.50428 0.62 0.59 0.15 0.04 0.3 0.06 0.46 0.06 0.35762 0.0055 0.7143-0.03827 1.06-0.13l0.26-0.06 0.15 0.77c-0.09 0.05-0.2 0.1-0.33 0.14-0.2918 0.09372-0.59412 0.15083-0.9 0.17l-0.5 0.03c-0.27129 2e-3 -0.54123-0.03851-0.8-0.12-0.23685-0.08056-0.45228-0.21392-0.63-0.39-0.1903-0.18555-0.33715-0.41095-0.43-0.66-0.10622-0.32244-0.15694-0.66058-0.15-1v-3.45h-1.67v-0.84h1.67v-1.53h1.09zm6.82 7.18c0-0.23 0.07-0.43 0.2-0.6 0.15-0.16 0.36-0.24 0.65-0.24 0.28 0 0.5 0.08 0.64 0.25 0.14 0.16 0.22 0.35 0.22 0.59 0 0.23-0.08 0.42-0.22 0.58-0.17389 0.15933-0.40446 0.2422-0.64 0.23-0.28 0-0.5-0.08-0.64-0.23-0.14016-0.16022-0.2151-0.36719-0.21-0.58zm0-5.14c0-0.23 0.07-0.42 0.2-0.59 0.15-0.16 0.36-0.24 0.65-0.24 0.28 0 0.5 0.08 0.64 0.24s0.22 0.36 0.22 0.6c5e-3 0.21162-0.07414 0.41659-0.22 0.57-0.16967 0.1671-0.40229 0.25434-0.64 0.24-0.28 0-0.5-0.08-0.64-0.24-0.14016-0.16022-0.2151-0.36719-0.21-0.58zm15.03 5.96c-0.44 0-0.85-0.08-1.23-0.23-0.72532-0.2937-1.2946-0.87752-1.57-1.61-0.15441-0.39158-0.23248-0.80908-0.23-1.23v-0.24c0-0.52 0.09-0.97 0.25-1.37 0.16-0.41 0.38-0.75 0.66-1.04 0.5217-0.5352 1.2328-0.84405 1.98-0.86 0.46 0 0.86 0.08 1.2 0.24 0.68203 0.31024 1.181 0.92005 1.35 1.65 0.12 0.37 0.18 0.78 0.18 1.22v0.5h-4.53v0.03c0.02 0.31 0.09 0.58 0.18 0.82 0.19591 0.47058 0.55933 0.85181 1.02 1.07 0.91941 0.37583 1.9766 0.08899 2.58-0.7l0.66 0.52c-0.55981 0.82023-1.5086 1.287-2.5 1.23zm-0.14-5.69c-0.22 0-0.42 0.04-0.62 0.13-0.2 0.07-0.37 0.19-0.53 0.34-0.35094 0.3686-0.56909 0.84361-0.62 1.35h3.41v-0.05c0-0.2-0.03-0.4-0.1-0.63-0.06917-0.2148-0.17768-0.41487-0.32-0.59-0.29782-0.36463-0.74956-0.56828-1.22-0.55zm7.17 1.58 1.7-2.35h1.26l-2.36 3.13 2.43 3.21h-1.26l-1.75-2.41-1.75 2.41h-1.27l2.43-3.2-2.36-3.14h1.25zm8.75 3.99c-0.0456-0.09548-0.0792-0.19625-0.1-0.3-0.0268-0.13222-0.0469-0.26572-0.06-0.4-0.36983 0.36239-0.82853 0.62105-1.33 0.75-0.4975 0.11576-1.0176 0.08802-1.5-0.08-0.27-0.1-0.5-0.23-0.68-0.4-0.38745-0.33234-0.60726-0.8196-0.6-1.33-6e-3 -0.31485 0.0626-0.62664 0.2-0.91 0.15-0.26 0.34-0.48 0.6-0.66 0.25-0.17 0.56-0.3 0.91-0.38 0.36-0.1 0.76-0.13 1.2-0.13h1.19v-0.5c0-0.2-0.04-0.37-0.1-0.52-0.0704-0.15029-0.1728-0.28339-0.3-0.39-0.14222-0.11376-0.30526-0.19868-0.48-0.25-0.39382-0.09947-0.80618-0.09947-1.2 0-0.17 0.05-0.31 0.13-0.43 0.21-0.12 0.1-0.21 0.2-0.28 0.33-0.064 0.11654-0.0984 0.24705-0.1 0.38h-1.08c0-0.23 0.06-0.46 0.17-0.68 0.12-0.22 0.29-0.43 0.5-0.6 0.22-0.18 0.48-0.32 0.8-0.43 0.66889-0.21163 1.3852-0.22207 2.06-0.03 0.93056 0.20058 1.5759 1.0497 1.52 2v2.94c5e-3 0.43888 0.0794 0.87422 0.22 1.29v0.09zm-1.91-0.83c0.55373 6e-3 1.0868-0.21009 1.48-0.6 0.1-0.12 0.2-0.24 0.26-0.36v-1.29h-1.01c-0.38 0-0.7 0.04-0.99 0.1-0.27 0.07-0.5 0.16-0.66 0.3-0.12 0.09-0.2 0.2-0.27 0.33-0.11014 0.27892-0.1137 0.58863-0.01 0.87 0.05 0.14 0.13 0.25 0.24 0.34 0.1 0.1 0.24 0.18 0.4 0.23 0.16 0.06 0.34 0.08 0.56 0.08zm5.45-5.51 0.03 0.6c0.13-0.22 0.3-0.4 0.5-0.52 0.37287-0.20393 0.81063-0.25416 1.22-0.14 0.13 0.04 0.25 0.09 0.35 0.16 0.15606 0.12134 0.27972 0.27936 0.36 0.46 0.11221-0.1802 0.26236-0.33377 0.44-0.45 0.2405-0.14865 0.51728-0.22822 0.8-0.23 0.22 0 0.42 0.04 0.6 0.1 0.17 0.07 0.32 0.16 0.44 0.28 0.13 0.14 0.23 0.33 0.3 0.55 0.08 0.23 0.11 0.5 0.11 0.8v4.73h-1.03v-4.75c0-0.13-0.02-0.25-0.05-0.35-0.0251-0.09161-0.0694-0.17682-0.13-0.25-0.0675-0.06542-0.14984-0.11347-0.24-0.14-0.0999-0.03357-0.20462-0.05046-0.31-0.05-0.11605-9.35e-4 -0.23128 0.0194-0.34 0.06-0.085 0.03134-0.16312 0.07889-0.23 0.14-0.0626 0.0601-0.11345 0.13131-0.15 0.21-0.0369 0.08592-0.0605 0.17696-0.07 0.27v4.86h-1.03v-4.75c5e-3 -0.11876-0.0118-0.23744-0.05-0.35-0.0206-0.0963-0.0653-0.18577-0.13-0.26-0.0608-0.06166-0.13664-0.10645-0.22-0.13-0.20879-0.06225-0.43121-0.06225-0.64 0-0.22292 0.06044-0.39993 0.22991-0.47 0.45v5.04h-1.03v-6.34zm6.7 8.78v-8.78h1l0.05 0.7c0.28621-0.37225 0.69262-0.63376 1.15-0.74 0.57843-0.14025 1.1871-0.08396 1.73 0.16 0.31 0.16 0.57 0.39 0.78 0.67 0.22 0.29 0.38 0.63 0.48 1.03 0.12 0.4 0.17 0.82 0.17 1.3v0.12c0 0.45-0.05 0.88-0.16 1.27-0.11 0.4-0.27 0.73-0.48 1.02-0.42664 0.59486-1.1181 0.94244-1.85 0.93-0.24 0-0.47-0.03-0.68-0.08-0.30852-0.07147-0.59828-0.20782-0.85-0.4-0.0893-0.07713-0.17287-0.16068-0.25-0.25v3.05zm4.28-5.66c0-0.31-0.04-0.6-0.11-0.88-0.0581-0.2664-0.16303-0.52035-0.31-0.75-0.14265-0.20656-0.33082-0.37762-0.55-0.5-0.387-0.19388-0.83139-0.24009-1.25-0.13-0.14 0.04-0.27 0.1-0.38 0.17-0.12385 0.07566-0.23518 0.17013-0.33 0.28-0.0998 0.10998-0.18697 0.23072-0.26 0.36v3.05c0.06 0.12 0.14 0.23 0.23 0.33 0.08 0.1 0.18 0.19 0.29 0.26 0.27662 0.17861 0.60085 0.26926 0.93 0.26 0.53317 0.018 1.0358-0.24854 1.32-0.7 0.14-0.22 0.24-0.46 0.31-0.74 0.07-0.29 0.1-0.58 0.1-0.89v-0.12zm3.1-5.78h3.25v8.06h2.06v0.94h-5.3v-0.94h2.15v-7.12h-2.15v-0.94zm9.84 9.12c-0.44 0-0.85-0.08-1.23-0.23-0.72532-0.2937-1.2946-0.87752-1.57-1.61-0.15099-0.39225-0.22567-0.80973-0.22-1.23v-0.24c0-0.52 0.08-0.97 0.24-1.37 0.17-0.41 0.38-0.75 0.66-1.04 0.52108-0.5361 1.2325-0.84512 1.98-0.86 0.46 0 0.86 0.08 1.2 0.24 0.68203 0.31024 1.181 0.92005 1.35 1.65 0.12 0.37 0.18 0.78 0.18 1.22v0.5h-4.53v0.03c0.03 0.31 0.09 0.58 0.18 0.82 0.19671 0.47005 0.55989 0.85103 1.02 1.07 0.91941 0.37583 1.9766 0.08899 2.58-0.7l0.67 0.52c-0.21 0.32-0.53 0.6-0.95 0.86-0.47856 0.25799-1.0166 0.3856-1.56 0.37zm-0.14-5.69c-0.22 0-0.42 0.04-0.62 0.13-0.2 0.07-0.37 0.19-0.52 0.34-0.16 0.16-0.3 0.35-0.4 0.58-0.1 0.22-0.18 0.48-0.22 0.77h3.4v-0.05c0-0.2-0.03-0.4-0.1-0.63-0.069-0.2149-0.17748-0.415-0.32-0.59-0.29782-0.36463-0.74955-0.56828-1.22-0.55zm6.44 4.87c0-0.23 0.07-0.43 0.2-0.6 0.15-0.16 0.36-0.24 0.65-0.24 0.28 0 0.5 0.08 0.64 0.25 0.14 0.16 0.22 0.35 0.22 0.59 0 0.23-0.08 0.42-0.22 0.58-0.17389 0.15933-0.40446 0.2422-0.64 0.23-0.28 0-0.5-0.08-0.64-0.23-0.14016-0.16022-0.2151-0.36719-0.21-0.58zm8.02-0.06c0.38652 7.49e-4 0.76254-0.12576 1.07-0.36 0.14-0.1 0.25-0.24 0.34-0.39 0.0882-0.1485 0.13643-0.31732 0.14-0.49h1.03c0 0.28-0.08 0.55-0.22 0.81-0.15 0.25-0.33 0.48-0.57 0.67-0.86043 0.69931-2.0443 0.84681-3.05 0.38-0.34991-0.1609-0.65792-0.40046-0.9-0.7-0.24354-0.2949-0.42699-0.63462-0.54-1-0.12098-0.38845-0.18169-0.79315-0.18-1.2v-0.25c0-0.42 0.06-0.82 0.18-1.2 0.12-0.39 0.3-0.72 0.54-1.02 0.24-0.29 0.54-0.52 0.9-0.69 0.39524-0.17991 0.82583-0.26876 1.26-0.26 0.67695-0.0051 1.3333 0.23258 1.85 0.67 0.45681 0.42006 0.72078 1.0095 0.73 1.63h-1.03c0-0.2-0.04-0.37-0.13-0.54-0.15657-0.35213-0.44862-0.62616-0.81-0.76-0.19-0.07-0.4-0.1-0.61-0.1-0.56063-0.02206-1.0918 0.25114-1.4 0.72-0.14131 0.22423-0.24281 0.4712-0.3 0.73-0.063 0.26889-0.0966 0.54384-0.1 0.82v0.24c0 0.28 0.03 0.56 0.1 0.83 0.06 0.27 0.16 0.51 0.3 0.73 0.13 0.21 0.32 0.4 0.54 0.53 0.23 0.13 0.52 0.2 0.86 0.2zm4.2-2.47c0-0.46 0.07-0.88 0.2-1.27 0.12011-0.37761 0.31384-0.72768 0.57-1.03 0.25-0.28 0.55-0.51 0.9-0.68 0.36-0.16 0.76-0.25 1.2-0.25 0.81121-0.01323 1.5883 0.32605 2.13 0.93 0.51873 0.65249 0.79132 1.4667 0.77 2.3v0.13c0 0.46-0.07 0.88-0.2 1.27-0.14 0.4-0.33 0.73-0.57 1.02-0.52453 0.61579-1.3016 0.95828-2.11 0.93-0.45 0-0.86-0.08-1.21-0.25-0.34615-0.15807-0.65338-0.3902-0.9-0.68-0.25816-0.29881-0.45521-0.64535-0.58-1.02-0.13-0.39-0.2-0.81-0.2-1.27zm1.08 0.13c0 0.31 0.04 0.61 0.12 0.9 0.07 0.28 0.18 0.53 0.33 0.74 0.30451 0.44454 0.81121 0.70728 1.35 0.7 0.3 0 0.57-0.06 0.79-0.19 0.22-0.12 0.41-0.3 0.57-0.5 0.15-0.22 0.26-0.47 0.33-0.75 0.08-0.29 0.11-0.59 0.11-0.9v-0.13c0-0.3-0.04-0.6-0.12-0.88-0.0652-0.2674-0.17693-0.52125-0.33-0.75-0.14879-0.21109-0.34373-0.3855-0.57-0.51-0.23691-0.13651-0.50663-0.20567-0.78-0.2-0.3 0-0.56 0.07-0.79 0.2-0.22 0.12-0.4 0.3-0.56 0.5-0.29657 0.49548-0.45217 1.0626-0.45 1.64zm6.93-3.24 0.03 0.6c0.13-0.22 0.3-0.4 0.5-0.52 0.37351-0.2019 0.81047-0.25204 1.22-0.14 0.13 0.04 0.25 0.09 0.35 0.16 0.15606 0.12134 0.27972 0.27936 0.36 0.46 0.11343-0.17924 0.26335-0.33257 0.44-0.45 0.24007-0.14961 0.51713-0.22927 0.8-0.23 0.22 0 0.42 0.04 0.6 0.1 0.17 0.07 0.32 0.16 0.44 0.28 0.13 0.14 0.24 0.33 0.3 0.55 0.07 0.23 0.11 0.5 0.11 0.8v4.73h-1.03v-4.75c0-0.13-0.02-0.25-0.05-0.35-0.0254-0.0915-0.0697-0.17666-0.13-0.25-0.0679-0.0648-0.15015-0.11276-0.24-0.14-0.0999-0.03357-0.20462-0.05046-0.31-0.05-0.11605-9.35e-4 -0.23128 0.0194-0.34 0.06-0.085 0.03134-0.16312 0.07889-0.23 0.14-0.0626 0.0601-0.11345 0.13131-0.15 0.21-0.0375 0.08571-0.0612 0.17685-0.07 0.27v4.86h-1.03v-4.75c0-0.13-0.02-0.25-0.05-0.35-0.0214-0.09601-0.066-0.1853-0.13-0.26-0.0608-0.06166-0.13664-0.10645-0.22-0.13-0.20862-0.06343-0.43138-0.06343-0.64 0-0.22388 0.05875-0.40158 0.22889-0.47 0.45v5.04h-1.03v-6.34zm8.14 7.07h-0.97l3.56-9.26h0.97zm5.95-9.73h3.24v8.06h2.06v0.94h-5.3v-0.94h2.15v-7.12h-2.15zm7.2 2.66h3.24v5.4h2.07v0.94h-5.3v-0.94h2.15v-4.46h-2.16zm2.02-1.66c0-0.1 0.01-0.19 0.04-0.27 0.0567-0.15278 0.17722-0.27326 0.33-0.33 0.0901-0.03051 0.185-0.04407 0.28-0.04 0.1 0 0.19 0.01 0.27 0.04 0.0752 0.02367 0.14373 0.06479 0.2 0.12 0.05 0.06 0.1 0.12 0.13 0.2 0.03 0.09 0.05 0.18 0.05 0.28 0 0.17-0.06 0.32-0.16 0.44-0.11 0.11-0.28 0.17-0.5 0.17-0.17646 0.01097-0.34978-0.05041-0.48-0.17-0.10787-0.12067-0.16517-0.27823-0.16-0.44zm9.23 6.32c5e-3 -0.12057-0.0192-0.24054-0.07-0.35-0.0618-0.1137-0.15118-0.20999-0.26-0.28-0.1483-0.10152-0.3098-0.18227-0.48-0.24-0.24432-0.08639-0.4951-0.15327-0.75-0.2-0.33989-0.06366-0.67425-0.15394-1-0.27-0.29-0.1-0.54-0.23-0.75-0.38-0.20145-0.12782-0.37218-0.29855-0.5-0.5-0.23645-0.44026-0.23645-0.96974 0-1.41 0.13-0.24 0.3-0.43 0.51-0.6 0.22-0.17 0.48-0.3 0.78-0.4 0.67014-0.21302 1.3899-0.21302 2.06 0 0.31 0.1 0.58 0.25 0.8 0.43 0.4204 0.34484 0.66886 0.85637 0.68 1.4h-1.08c8.4e-4 -0.13962-0.0335-0.2772-0.1-0.4-0.0749-0.13604-0.17701-0.25519-0.3-0.35-0.13823-0.10611-0.29389-0.18733-0.46-0.24-0.39042-0.11775-0.80588-0.12468-1.2-0.02-0.18 0.05-0.32 0.12-0.43 0.2-0.10888 0.07835-0.19792 0.18109-0.26 0.3-0.0632 0.10964-0.0976 0.23349-0.1 0.36-8e-3 0.2428 0.11381 0.47152 0.32 0.6 0.384 0.17487 0.78656 0.30571 1.2 0.39 0.39 0.08 0.74 0.17 1.05 0.28 0.3 0.1 0.57 0.23 0.78 0.38 0.2 0.16 0.37 0.33 0.48 0.53 0.23605 0.46077 0.22477 1.0093-0.03 1.46-0.12 0.23-0.3 0.43-0.52 0.6-0.23 0.16-0.5 0.28-0.82 0.37-0.71392 0.20374-1.472 0.1933-2.18-0.03-0.30941-0.104-0.59741-0.26324-0.85-0.47-0.45705-0.33676-0.72482-0.87231-0.72-1.44h1.08c0.0182 0.38974 0.23284 0.74365 0.57 0.94 0.15 0.1 0.32 0.16 0.5 0.2 0.43664 0.09489 0.8899 0.08116 1.32-0.04 0.22-0.07 0.38-0.17 0.5-0.29 0.071-0.06881 0.12865-0.15018 0.17-0.24 0.0419-0.09435 0.0624-0.1968 0.06-0.3zm5.56-6.2v1.54h2.42v0.84h-2.42v3.44c0 0.25 0.03 0.45 0.1 0.61 0.10338 0.28622 0.33762 0.50559 0.63 0.59 0.15 0.04 0.3 0.06 0.46 0.06 0.24499-3.53e-4 0.48941-0.02379 0.73-0.07 0.19747-0.03593 0.39418-0.07594 0.59-0.12l0.15 0.77c-0.1 0.05-0.2 0.1-0.33 0.14-0.2919 0.09333-0.59417 0.15042-0.9 0.17l-0.51 0.03c-0.27129 2e-3 -0.54123-0.03851-0.8-0.12-0.23685-0.08056-0.45228-0.21392-0.63-0.39-0.18-0.17-0.32-0.4-0.42-0.66-0.10962-0.32186-0.16372-0.66001-0.16-1v-3.45h-1.66v-0.84h1.66v-1.53h1.1zm7.44 8c-0.44 0-0.85-0.08-1.22-0.23-0.72911-0.29139-1.3024-0.87554-1.58-1.61-0.15099-0.39225-0.22567-0.80973-0.22-1.23v-0.24c0-0.52 0.08-0.97 0.24-1.37 0.17-0.41 0.38-0.75 0.66-1.04 0.5217-0.5352 1.2328-0.84405 1.98-0.86 0.46 0 0.86 0.08 1.2 0.24 0.68203 0.31024 1.181 0.92005 1.35 1.65 0.12 0.37 0.18 0.78 0.18 1.22v0.5h-4.53v0.03c0.03 0.31 0.09 0.58 0.18 0.82 0.19671 0.47005 0.55989 0.85103 1.02 1.07 0.91941 0.37583 1.9766 0.08899 2.58-0.7l0.67 0.52c-0.21 0.32-0.53 0.6-0.95 0.86-0.47856 0.25799-1.0166 0.3856-1.56 0.37zm-0.14-5.69c-0.21 0-0.42 0.04-0.62 0.13-0.2 0.07-0.37 0.19-0.52 0.34-0.16 0.16-0.3 0.35-0.4 0.58-0.1 0.22-0.18 0.48-0.22 0.77h3.4v-0.05c-1e-3 -0.4419-0.14906-0.8709-0.42-1.22-0.29782-0.36463-0.74955-0.56828-1.22-0.55zm4.55 5.57v-6.34h0.97l0.08 0.94c0.18078-0.256 0.404-0.47922 0.66-0.66 0.38976-0.25517 0.84418-0.39392 1.31-0.4 0.34 0 0.64 0.05 0.9 0.14 0.5581 0.18208 0.98676 0.6333 1.14 1.2 0.1 0.3 0.16 0.67 0.16 1.1v4.02h-1.08v-4c0-0.28-0.03-0.52-0.1-0.72-0.06-0.2-0.15-0.35-0.27-0.47-0.13193-0.1223-0.2889-0.21443-0.46-0.27-0.37964-0.10786-0.78227-0.10438-1.16 0.01-0.18 0.06-0.33 0.13-0.48 0.23-0.23736 0.18106-0.43481 0.40915-0.58 0.67v4.55zm10 0.12c-0.44 0-0.85-0.08-1.22-0.23-0.72981-0.29034-1.3034-0.87486-1.58-1.61-0.15099-0.39225-0.22567-0.80973-0.22-1.23v-0.24c0-0.52 0.08-0.97 0.25-1.37 0.39672-1.1226 1.4495-1.8803 2.64-1.9 0.78528-0.04228 1.5447 0.28742 2.05 0.89 0.23 0.28 0.4 0.61 0.5 1 0.12 0.37 0.17 0.78 0.17 1.22v0.5h-4.53v0.03c0.03 0.31 0.1 0.58 0.19 0.82 0.19427 0.46832 0.55365 0.84906 1.01 1.07 0.91941 0.37583 1.9766 0.08899 2.58-0.7l0.67 0.52c-0.21 0.32-0.53 0.6-0.95 0.86-0.42 0.24-0.93 0.37-1.55 0.37zm-0.13-5.69c-0.22 0-0.43 0.04-0.62 0.13-0.2 0.07-0.37 0.19-0.53 0.34-0.16 0.16-0.29 0.35-0.4 0.58-0.1 0.22-0.18 0.48-0.22 0.77h3.4v-0.05c5.9e-4 -0.214-0.0332-0.4267-0.1-0.63-0.0659-0.21416-0.17104-0.41422-0.31-0.59-0.29782-0.36463-0.74955-0.56828-1.22-0.55zm8.7-0.89c0.3749 0.01076 0.74733 0.06445 1.11 0.16l-0.14 1.06c-0.3933-0.0926-0.79595-0.13958-1.2-0.14-0.27 0-0.5 0.03-0.72 0.1-0.38646 0.10876-0.72042 0.3539-0.94 0.69-0.1 0.15-0.2 0.33-0.27 0.52v4.07h-1.09v-6.34h1.03l0.05 0.85v0.16c0.26-0.35 0.57-0.62 0.93-0.82 0.37-0.2 0.78-0.3 1.24-0.3zm-178.97 17.93v5.78c0.0055 0.74786-0.27334 1.4699-0.78 2.02-0.52031 0.5479-1.2444 0.85565-2 0.85-0.42 0-0.8-0.08-1.13-0.23-0.33262-0.13982-0.63236-0.34759-0.88-0.61-0.24207-0.26176-0.43212-0.56719-0.56-0.9-0.13898-0.36087-0.21344-0.74335-0.22-1.13l0.02-5.78h1.03l0.02 5.78c-7.25e-4 0.48695 0.15725 0.96087 0.45 1.35 0.30822 0.38506 0.77682 0.60644 1.27 0.6 0.27 0 0.52-0.06 0.73-0.16 0.21-0.11 0.39-0.26 0.53-0.44 0.29818-0.38625 0.45679-0.86209 0.45-1.35l0.02-5.78zm6.06 6.85c0.0017-0.12138-0.02576-0.2414-0.08-0.35-0.05861-0.11277-0.14457-0.20904-0.25-0.28-0.14817-0.10174-0.3097-0.1825-0.48-0.24-0.2-0.07-0.45-0.14-0.75-0.2-0.33989-0.0637-0.67426-0.15394-1-0.27-0.3-0.1-0.55-0.23-0.76-0.38-0.20124-0.12807-0.37193-0.29875-0.5-0.5-0.11-0.2-0.17-0.44-0.17-0.7s0.06-0.5 0.18-0.72c0.12-0.23 0.3-0.42 0.51-0.6 0.51659-0.37331 1.1431-0.56337 1.78-0.54 0.4 0 0.74 0.05 1.06 0.15 0.3 0.1 0.57 0.25 0.8 0.43 0.41933 0.34569 0.66753 0.85669 0.68 1.4h-1.09c0.0013-0.13967-0.03314-0.27736-0.1-0.4-0.07512-0.13588-0.17721-0.25498-0.3-0.35-0.12-0.1-0.27-0.18-0.45-0.24s-0.38-0.1-0.6-0.1c-0.23 0-0.43 0.03-0.6 0.08-0.15651 0.0424-0.30511 0.10999-0.44 0.2-0.10888 0.0784-0.19792 0.18109-0.26 0.3-0.05808 0.10759-0.08898 0.22774-0.09 0.35 0 0.13 0.03 0.24 0.07 0.34 0.05 0.1 0.13 0.19 0.25 0.26 0.11 0.08 0.27 0.15 0.46 0.21 0.2 0.07 0.44 0.13 0.73 0.19 0.4 0.08 0.75 0.17 1.05 0.28 0.31 0.1 0.57 0.23 0.78 0.38 0.21 0.16 0.37 0.33 0.48 0.53 0.12 0.2 0.17 0.43 0.17 0.7s-0.06 0.53-0.19 0.76c-0.12 0.23-0.3 0.43-0.53 0.6-0.5558 0.34204-1.1974 0.51893-1.85 0.51-0.3899 4e-3 -0.77802-0.0531-1.15-0.17-0.30942-0.104-0.59741-0.26324-0.85-0.47-0.45419-0.33468-0.72162-0.86583-0.72-1.43h1.09c0.01 0.22 0.07 0.4 0.17 0.56 0.1 0.15 0.24 0.28 0.4 0.37 0.15 0.1 0.32 0.16 0.5 0.2 0.43664 0.0949 0.8899 0.0812 1.32-0.04 0.21-0.07 0.38-0.17 0.5-0.29 0.07101-0.0688 0.12865-0.15018 0.17-0.24 0.04188-0.0944 0.06236-0.1968 0.06-0.3zm5.8 1.8c-0.45 0-0.86-0.08-1.24-0.23-0.72532-0.2937-1.2946-0.87752-1.57-1.61-0.15099-0.39225-0.22567-0.80973-0.22-1.23v-0.24c0-0.52 0.08-0.97 0.24-1.37 0.17-0.41 0.38-0.75 0.66-1.04 0.5217-0.5352 1.2328-0.84405 1.98-0.86 0.46 0 0.86 0.08 1.2 0.24 0.68203 0.31024 1.181 0.92005 1.35 1.65 0.12 0.37 0.18 0.78 0.18 1.22v0.5h-4.53v0.03c0.03 0.31 0.09 0.58 0.18 0.82 0.19591 0.47058 0.55933 0.85181 1.02 1.07 0.91941 0.37583 1.9766 0.089 2.58-0.7l0.67 0.52c-0.21 0.32-0.53 0.6-0.95 0.86-0.47856 0.25799-1.0166 0.3856-1.56 0.37zm-0.15-5.69c-0.22 0-0.42 0.04-0.62 0.13-0.2 0.08-0.37 0.19-0.52 0.34-0.16504 0.16943-0.30028 0.36552-0.4 0.58-0.1 0.22-0.18 0.48-0.23 0.77h3.41v-0.05c0-0.2-0.03-0.4-0.1-0.63-0.06938-0.21471-0.17787-0.41474-0.32-0.59-0.29782-0.36463-0.74956-0.56828-1.22-0.55zm8.7-0.89c0.37781 7e-3 0.75355 0.0577 1.12 0.15l-0.15 1.07c-0.39339-0.0921-0.79598-0.13905-1.2-0.14-0.26 0-0.5 0.03-0.71 0.1-0.39056 0.10574-0.72865 0.3513-0.95 0.69-0.1 0.15-0.2 0.33-0.26 0.52v4.07h-1.1v-6.34h1.04l0.05 0.85v0.16c0.26-0.35 0.57-0.62 0.93-0.82s0.77-0.3 1.23-0.3zm7.8 3.17h-4.49v-0.89h4.48v0.9zm6.54 1.08h-2.85l-0.69 2.21h-1.08l2.75-8.53h0.91l2.7 8.53h-1.07l-0.67-2.2zm-2.56-0.94h2.27l-1.13-3.7zm5.5-0.07c0-0.47 0.05-0.9 0.16-1.3 0.12-0.4 0.29-0.74 0.5-1.03 0.23-0.28 0.5-0.5 0.8-0.67 0.55074-0.25553 1.174-0.30864 1.76-0.15 0.431 0.1111 0.81167 0.36489 1.08 0.72l0.06-0.69h0.98v6.2c0 0.42-0.06 0.8-0.2 1.12-0.13 0.32-0.3 0.6-0.54 0.83-0.24 0.22-0.52 0.4-0.85 0.51-0.74759 0.26584-1.5673 0.24445-2.3-0.06-0.21-0.09-0.42-0.2-0.63-0.34-0.2-0.14-0.37-0.31-0.51-0.52l0.56-0.65c0.23111 0.27855 0.51703 0.50661 0.84 0.67 0.27204 0.12791 0.56941 0.19285 0.87 0.19 0.25 0 0.49-0.04 0.7-0.11 0.40573-0.13939 0.72593-0.45591 0.87-0.86 0.07-0.2 0.1-0.45 0.1-0.72v-0.55c-0.15763 0.18446-0.34322 0.34306-0.55 0.47-0.36878 0.18659-0.77672 0.28257-1.19 0.28-0.72882 0.0109-1.4165-0.33673-1.84-0.93-0.22616-0.30746-0.3955-0.6529-0.5-1.02-0.12-0.4-0.18-0.82-0.18-1.27v-0.12zm1.08 0.12c0 0.3 0.03 0.6 0.09 0.88 0.07 0.28 0.17 0.52 0.31 0.73s0.31 0.38 0.53 0.5c0.39761 0.19528 0.85302 0.23798 1.28 0.12 0.4348-0.12876 0.79009-0.44375 0.97-0.86v-2.9c-0.06889-0.1325-0.15277-0.25665-0.25-0.37-0.1-0.1-0.2-0.2-0.32-0.28-0.26919-0.16935-0.58204-0.25625-0.9-0.25-0.3 0-0.56 0.06-0.78 0.18-0.22 0.13-0.4 0.3-0.53 0.5-0.14 0.22-0.24 0.47-0.31 0.75-0.0658 0.28873-0.09934 0.58387-0.1 0.88v0.12zm9.12 3.22c-0.45 0-0.86-0.08-1.23-0.23-0.72841-0.29244-1.3013-0.87621-1.58-1.61-0.15099-0.39225-0.22567-0.80973-0.22-1.23v-0.24c0-0.52 0.08-0.97 0.25-1.37 0.39427-1.1244 1.4486-1.8832 2.64-1.9 0.78528-0.0423 1.5447 0.28741 2.05 0.89 0.23 0.28 0.4 0.61 0.5 1 0.12 0.37 0.17 0.78 0.17 1.22v0.5h-4.53v0.03c0.03 0.31 0.1 0.58 0.19 0.82 0.19591 0.47058 0.55933 0.85181 1.02 1.07 0.91941 0.37583 1.9766 0.089 2.58-0.7l0.66 0.52c-0.56508 0.81413-1.5102 1.2791-2.5 1.23zm-0.14-5.69c-0.22 0-0.43 0.04-0.62 0.13-0.42286 0.16644-0.759 0.49896-0.93 0.92-0.1 0.22-0.18 0.48-0.22 0.77h3.41v-0.05c-3e-3 -0.21454-0.0398-0.42726-0.11-0.63-0.0666-0.2139-0.17161-0.41384-0.31-0.59-0.29879-0.36337-0.74986-0.56672-1.22-0.55zm4.55 5.57v-6.34h0.97l0.07 0.94c0.18423-0.25645 0.4108-0.47965 0.67-0.66 0.39023-0.25416 0.84436-0.39283 1.31-0.4 0.33 0 0.63 0.05 0.9 0.14 0.28 0.1 0.5 0.24 0.7 0.44 0.20244 0.2205 0.3528 0.48364 0.44 0.77 0.1 0.3 0.16 0.66 0.16 1.08v4.03h-1.09v-4c0-0.28-0.03-0.52-0.1-0.72-0.045-0.17854-0.13845-0.34118-0.27-0.47-0.12673-0.12407-0.28089-0.21656-0.45-0.27-0.38261-0.11098-0.78934-0.1075-1.17 0.01-0.17 0.06-0.33 0.13-0.47 0.23-0.24158 0.17937-0.44262 0.40767-0.59 0.67v4.55zm9.77-7.88v1.54h2.41v0.84h-2.41v3.44c0 0.25 0.03 0.45 0.1 0.61 0.10049 0.28811 0.33593 0.50859 0.63 0.59 0.14 0.04 0.3 0.06 0.45 0.06 0.35746 2e-3 0.71374-0.0412 1.06-0.13l0.26-0.06 0.15 0.77c-0.09 0.05-0.2 0.1-0.32 0.14-0.71434 0.21486-1.4719 0.24241-2.2 0.08-0.24042-0.0792-0.45941-0.21263-0.64-0.39-0.19154-0.18844-0.33847-0.41737-0.43-0.67-0.10818-0.32198-0.15895-0.66045-0.15-1v-3.44h-1.67v-0.84h1.67v-1.53h1.09zm6.82 7.18c0-0.23 0.07-0.43 0.21-0.6 0.14-0.16 0.35-0.24 0.64-0.24 0.28 0 0.5 0.08 0.64 0.25 0.15 0.16 0.22 0.35 0.22 0.59 8e-3 0.21505-0.0717 0.42412-0.22 0.58-0.15 0.15-0.36 0.23-0.64 0.23s-0.5-0.08-0.64-0.23c-0.14016-0.16022-0.2151-0.36719-0.21-0.58zm0-5.14c0-0.23 0.07-0.42 0.21-0.59 0.14-0.16 0.35-0.24 0.64-0.24 0.28 0 0.5 0.08 0.64 0.24 0.15 0.16 0.22 0.36 0.22 0.6 0 0.22-0.07 0.42-0.22 0.57-0.15 0.16-0.36 0.24-0.64 0.24s-0.5-0.08-0.64-0.24c-0.14016-0.16022-0.2151-0.36719-0.21-0.58zm14.94 5.08c0.3831-1e-3 0.75526-0.12783 1.06-0.36 0.15-0.1 0.26-0.24 0.35-0.39 0.0882-0.1485 0.13643-0.31732 0.14-0.49h1.02c0 0.28-0.07 0.55-0.22 0.81-0.14 0.25-0.33 0.48-0.57 0.67-0.86235 0.69478-2.0435 0.84194-3.05 0.38-0.35-0.17-0.65-0.4-0.9-0.7-0.24354-0.29489-0.42699-0.63462-0.54-1-0.12098-0.38845-0.18169-0.79315-0.18-1.2v-0.25c0-0.42 0.06-0.82 0.18-1.2 0.13-0.39 0.3-0.73 0.55-1.02 0.24-0.29 0.54-0.52 0.9-0.69 0.39524-0.17991 0.82583-0.26877 1.26-0.26 0.67569-8e-3 1.3319 0.22619 1.85 0.66 0.45562 0.42418 0.71611 1.0175 0.72 1.64h-1.02c-0.0179-0.58483-0.39022-1.0998-0.94-1.3-0.19516-0.0717-0.40217-0.10563-0.61-0.1-0.34 0-0.62 0.06-0.86 0.2-0.22 0.13-0.4 0.3-0.54 0.52-0.15 0.22-0.25 0.46-0.31 0.73-0.0597 0.26926-0.0899 0.54421-0.09 0.82v0.24c0 0.28 0.03 0.56 0.09 0.83s0.16 0.51 0.3 0.73c0.14 0.21 0.32 0.4 0.55 0.53s0.52 0.2 0.86 0.2zm8.68 0.76-0.07-0.87c-0.2 0.3-0.47 0.55-0.79 0.73-0.62543 0.30351-1.3474 0.33961-2 0.1-0.26-0.1-0.5-0.26-0.69-0.48s-0.34-0.5-0.44-0.83c-0.10817-0.39738-0.15868-0.80825-0.15-1.22v-3.77h1.08v3.78c0 0.34 0.03 0.63 0.08 0.86 0.06 0.22 0.14 0.4 0.25 0.53 0.1 0.14 0.24 0.24 0.4 0.3 0.39332 0.10339 0.80668 0.10339 1.2 0 0.19-0.07 0.35-0.15 0.5-0.25 0.22872-0.17671 0.41069-0.40674 0.53-0.67v-4.55h1.08v6.34zm7.18-6.46c0.37782 7e-3 0.75357 0.0577 1.12 0.15l-0.15 1.07c-0.3934-0.092-0.79599-0.13896-1.2-0.14-0.26 0-0.5 0.03-0.72 0.1-0.38728 0.10708-0.72177 0.35261-0.94 0.69-0.1 0.15-0.2 0.33-0.26 0.52v4.07h-1.1v-6.34h1.04l0.04 0.85 0.01 0.16c0.26-0.35 0.57-0.62 0.93-0.82s0.77-0.3 1.23-0.3zm3.22-2.54h3.25v8.06h2.06v0.94h-5.3v-0.94h2.15v-7.12h-2.16zm8.47 9.73h-0.97l3.56-9.26h0.97zm11.03-7.04c9.8e-4 0.68098-0.33626 1.318-0.9 1.7-0.11 0.09-0.23 0.16-0.35 0.22 0.41766 0.17824 0.78015 0.46478 1.05 0.83 0.26422 0.36663 0.40437 0.8081 0.4 1.26 0.0121 0.68295-0.28121 1.3357-0.8 1.78-0.25 0.21-0.53 0.37-0.86 0.48-0.69316 0.21867-1.4368 0.21867-2.13 0-0.33-0.1-0.61-0.26-0.85-0.47-0.25193-0.20272-0.45095-0.4635-0.58-0.76-0.33766-0.74578-0.27363-1.612 0.17-2.3 0.26257-0.3722 0.62724-0.66046 1.05-0.83-0.55393-0.2429-0.97151-0.71909-1.14-1.3-0.06-0.2-0.1-0.4-0.1-0.6 0-0.38 0.07-0.7 0.2-1 0.12-0.29 0.3-0.53 0.52-0.73 0.21-0.2 0.47-0.36 0.78-0.46 0.65284-0.21447 1.3572-0.21447 2.01 0 0.59097 0.1961 1.0754 0.62634 1.34 1.19 0.13 0.3 0.19 0.62 0.19 1zm-0.9 3.98c5e-3 -0.43308-0.15644-0.85156-0.45-1.17-0.14864-0.14478-0.32571-0.25715-0.52-0.33-0.42719-0.15018-0.89281-0.15018-1.32 0-0.2 0.08-0.37 0.2-0.51 0.33-0.15 0.15-0.25 0.32-0.33 0.52s-0.11 0.42-0.11 0.65c-5e-3 0.22739 0.0288 0.45398 0.1 0.67 0.15231 0.37625 0.46362 0.66559 0.85 0.79 0.2 0.07 0.43 0.1 0.68 0.1 0.23 0 0.45-0.03 0.65-0.1s0.37-0.17 0.52-0.3c0.14-0.14 0.25-0.3 0.33-0.5 0.08-0.19 0.12-0.41 0.12-0.66zm-0.2-3.96c6e-3 -0.39132-0.13682-0.77033-0.4-1.06-0.27854-0.26923-0.65267-0.41672-1.04-0.41-0.2 0-0.4 0.04-0.57 0.1-0.17 0.07-0.32 0.17-0.44 0.3-0.13 0.13-0.22 0.29-0.3 0.47-0.13036 0.38938-0.13036 0.81062 0 1.2 0.13693 0.34434 0.4075 0.61852 0.75 0.76 0.37239 0.12955 0.77761 0.12955 1.15 0 0.34318-0.13519 0.61481-0.40682 0.75-0.75 0.07-0.19 0.1-0.39 0.1-0.6zm4.94 5.59c0-0.23 0.07-0.43 0.21-0.6 0.14-0.16 0.36-0.24 0.64-0.24s0.5 0.08 0.64 0.25c0.15 0.16 0.22 0.35 0.22 0.59 8e-3 0.21505-0.0717 0.42412-0.22 0.58-0.15 0.15-0.36 0.23-0.64 0.23s-0.5-0.08-0.64-0.23c-0.13655-0.16169-0.20786-0.36851-0.2-0.58zm9.32-7.84v0.98h-0.1c-0.51 0-0.95 0.07-1.3 0.22-0.68188 0.26353-1.215 0.81125-1.46 1.5-0.13 0.36-0.2 0.73-0.22 1.1 0.33545-0.38849 0.78235-0.66431 1.28-0.79 0.17-0.04 0.36-0.07 0.56-0.07 0.72888-0.0285 1.4249 0.30455 1.86 0.89 0.2 0.27 0.35 0.56 0.44 0.9 0.19777 0.70453 0.18735 1.4513-0.03 2.15-0.1 0.35-0.27 0.66-0.5 0.92-0.22 0.27-0.5 0.48-0.83 0.63s-0.7 0.23-1.14 0.23c-0.78024 0.0215-1.5237-0.33167-2-0.95-0.25617-0.31948-0.4465-0.68655-0.56-1.08-0.12389-0.40176-0.18791-0.81958-0.19-1.24v-0.51c0-0.71 0.08-1.41 0.25-2.1s0.5-1.27 0.99-1.76c0.34377-0.34257 0.76096-0.60246 1.22-0.76 0.52439-0.17955 1.0758-0.2675 1.63-0.26zm-1.42 3.85c-0.18 0-0.36 0.03-0.53 0.08-0.53616 0.17498-0.96091 0.58865-1.15 1.12v0.37c0 0.37 0.05 0.7 0.14 1 0.09 0.29 0.21 0.53 0.36 0.73 0.16 0.2 0.33 0.35 0.53 0.46 0.41049 0.19901 0.88951 0.19901 1.3 0 0.40504-0.19916 0.69887-0.57012 0.8-1.01 0.1424-0.4962 0.14585-1.022 0.01-1.52-0.0583-0.22564-0.15647-0.43902-0.29-0.63-0.12704-0.179-0.29065-0.32897-0.48-0.44-0.2-0.1-0.43-0.16-0.69-0.16zm6.52 3.99c0-0.23 0.07-0.43 0.2-0.6 0.15-0.16 0.36-0.24 0.65-0.24 0.28 0 0.5 0.08 0.63 0.25 0.15 0.16 0.23 0.35 0.23 0.59 8e-3 0.21505-0.0716 0.42412-0.22 0.58-0.17389 0.15933-0.40446 0.24219-0.64 0.23-0.28 0-0.5-0.08-0.64-0.23-0.14016-0.16022-0.2151-0.36719-0.21-0.58zm10.67-2.56c6e-3 0.48661-0.0583 0.97152-0.19 1.44-0.16561 0.76382-0.6857 1.4028-1.4 1.72-0.36749 0.1521-0.76234 0.22699-1.16 0.22-0.44 0-0.82-0.08-1.17-0.22-0.33959-0.14558-0.63831-0.37219-0.87-0.66-0.2544-0.31167-0.44165-0.67255-0.55-1.06-0.12833-0.46897-0.18895-0.95387-0.18-1.44v-2c0-0.55 0.06-1.02 0.19-1.44 0.12-0.42 0.3-0.78 0.54-1.07 0.23-0.29 0.52-0.5 0.86-0.66 0.34-0.15 0.73-0.22 1.17-0.22s0.82 0.07 1.16 0.22c0.35 0.15 0.64 0.37 0.88 0.66 0.23 0.29 0.41 0.64 0.53 1.07 0.13 0.42 0.2 0.9 0.2 1.44v2zm-4.43-0.22 3.32-2.55c-0.0251-0.25287-0.0822-0.50153-0.17-0.74-0.08-0.22-0.19-0.4-0.32-0.55-0.14-0.15-0.3-0.26-0.5-0.33-0.19-0.08-0.4-0.11-0.66-0.11s-0.49 0.04-0.69 0.12-0.36 0.2-0.5 0.34c-0.16 0.2-0.28 0.44-0.37 0.75-0.07 0.3-0.11 0.65-0.11 1.05zm3.34 0.45v-1.97l-3.31 2.53c0.03 0.29 0.1 0.54 0.18 0.76 0.1 0.22 0.21 0.4 0.35 0.53 0.30699 0.27411 0.70882 0.41762 1.12 0.4 0.25 0 0.46-0.03 0.66-0.1 0.19-0.08 0.35-0.19 0.48-0.32 0.18-0.2 0.31-0.45 0.4-0.75 0.08-0.31 0.12-0.68 0.12-1.1zm-151.53 20.81h-2.85l-0.68 2.21h-1.09l2.76-8.53h0.9l2.71 8.53h-1.07l-0.68-2.2zm-2.55-0.94h2.26l-1.12-3.7zm8.39 2.39c0.3831-1e-3 0.75526-0.12783 1.06-0.36 0.15-0.1 0.26-0.24 0.35-0.39 0.0882-0.1485 0.13643-0.31732 0.14-0.49h1.03c0 0.28-0.08 0.55-0.23 0.81-0.14 0.25-0.33 0.48-0.57 0.67-0.86018 0.69077-2.0362 0.83778-3.04 0.38-0.34991-0.16089-0.65792-0.40046-0.9-0.7-0.24354-0.29489-0.42699-0.63462-0.54-1-0.12437-0.38792-0.18845-0.79263-0.19-1.2v-0.25c0-0.42 0.07-0.82 0.19-1.2 0.12-0.39 0.3-0.73 0.54-1.02s0.54-0.52 0.9-0.69 0.78-0.26 1.26-0.26c0.67569-8e-3 1.3319 0.22619 1.85 0.66 0.46032 0.42172 0.72472 1.0157 0.73 1.64h-1.03c0-0.2-0.05-0.37-0.13-0.54-0.1578-0.34901-0.4499-0.61948-0.81-0.75-0.19-0.08-0.4-0.12-0.61-0.12-0.34 0-0.62 0.07-0.85 0.2-0.23 0.14-0.41 0.31-0.55 0.53-0.14132 0.22423-0.24281 0.4712-0.3 0.73-0.07 0.27-0.1 0.54-0.1 0.82v0.24c0 0.28 0.03 0.56 0.1 0.83 0.06 0.27 0.16 0.51 0.3 0.73 0.13 0.22 0.32 0.4 0.54 0.53 0.23 0.13 0.52 0.2 0.86 0.2zm7.2 0c0.38652 7.5e-4 0.76254-0.12576 1.07-0.36 0.15-0.1 0.26-0.24 0.35-0.39 0.0882-0.1485 0.13643-0.31732 0.14-0.49h1.02c0 0.28-0.08 0.55-0.22 0.81-0.14 0.25-0.33 0.48-0.57 0.67-0.86236 0.69478-2.0435 0.84194-3.05 0.38-0.35-0.17-0.65-0.4-0.9-0.7-0.24354-0.29489-0.42699-0.63462-0.54-1-0.12098-0.38845-0.18169-0.79315-0.18-1.2v-0.25c0-0.42 0.06-0.82 0.18-1.2 0.22407-0.74707 0.7496-1.3668 1.45-1.71 0.35-0.17 0.77-0.26 1.25-0.26 0.67911-0.0103 1.3393 0.22393 1.86 0.66 0.45662 0.42347 0.7173 1.0172 0.72 1.64h-1.02c0-0.2-0.05-0.37-0.13-0.54-0.1601-0.35101-0.45613-0.62177-0.82-0.75-0.18963-0.0808-0.39388-0.12165-0.6-0.12-0.34 0-0.62 0.07-0.85 0.2-0.23 0.14-0.42 0.31-0.56 0.53-0.14132 0.22423-0.24281 0.4712-0.3 0.73-0.06 0.27-0.09 0.54-0.09 0.82v0.24c0 0.28 0.03 0.56 0.09 0.83s0.16 0.51 0.3 0.73 0.32 0.4 0.55 0.53 0.51 0.2 0.85 0.2zm7.31 0.88c-0.44 0-0.85-0.08-1.23-0.23-0.72911-0.29139-1.3024-0.87554-1.58-1.61-0.15099-0.39225-0.22567-0.80973-0.22-1.23v-0.24c0-0.52 0.08-0.97 0.25-1.37 0.55102-1.5673 2.3238-2.329 3.84-1.65 0.34 0.15 0.63 0.37 0.85 0.64 0.23 0.28 0.4 0.61 0.5 1 0.12 0.37 0.18 0.78 0.18 1.22v0.5h-4.54v0.03c0.02 0.31 0.08 0.58 0.18 0.82 0.19591 0.47058 0.55933 0.85181 1.02 1.07 0.91941 0.37583 1.9766 0.089 2.58-0.7l0.66 0.52c-0.2 0.32-0.52 0.6-0.95 0.86-0.41 0.24-0.93 0.37-1.55 0.37zm-0.14-5.69c-0.22 0-0.42 0.04-0.62 0.13-0.2 0.08-0.37 0.19-0.53 0.34-0.16504 0.16943-0.30028 0.36552-0.4 0.58-0.1 0.22-0.18 0.48-0.22 0.77h3.41v-0.05c-0.0026-0.21454-0.03978-0.42726-0.11-0.63-0.06635-0.21398-0.17142-0.41397-0.31-0.59-0.29782-0.36463-0.74956-0.56828-1.22-0.55zm4.54 8v-8.77h1l0.04 0.7c0.16474-0.21672 0.37239-0.39715 0.61-0.53 0.71119-0.35499 1.5439-0.37333 2.27-0.05 0.32 0.16 0.58 0.39 0.8 0.67 0.2 0.29 0.36 0.63 0.47 1.03s0.17 0.83 0.17 1.3v0.12c0 0.45-0.06 0.88-0.17 1.27-0.1 0.4-0.27 0.73-0.48 1.02-0.42664 0.59486-1.1181 0.94244-1.85 0.93-0.24 0-0.46-0.03-0.67-0.08-0.30832-0.072-0.59797-0.20834-0.85-0.4-0.08934-0.0771-0.1729-0.16066-0.25-0.25v3.05h-1.09zm4.27-5.65c0-0.31-0.03-0.6-0.1-0.88-0.05847-0.26627-0.1634-0.52016-0.31-0.75-0.2943-0.44559-0.79608-0.70969-1.33-0.7-0.17 0.01-0.33 0.03-0.47 0.07-0.27743 0.0796-0.52691 0.2355-0.72 0.45-0.09627 0.11048-0.18011 0.2312-0.25 0.36v3.05c0.06 0.12 0.14 0.23 0.22 0.33 0.31459 0.33841 0.75801 0.52741 1.22 0.52 0.53575 0.0175 1.0411-0.24847 1.33-0.7 0.14-0.22 0.24-0.46 0.3-0.75 0.08-0.28 0.11-0.57 0.11-0.88zm5.51-4.66v1.54h2.42v0.84h-2.42v3.44c0 0.25 0.03 0.45 0.1 0.61 0.10196 0.28715 0.33678 0.50707 0.63 0.59 0.14 0.04 0.3 0.06 0.45 0.06 0.3608 3e-3 0.7205-0.0403 1.07-0.13l0.25-0.06 0.16 0.77c-0.1 0.05-0.2 0.1-0.33 0.14-0.71412 0.21621-1.4721 0.24377-2.2 0.08-0.24042-0.0792-0.45941-0.21263-0.64-0.39-0.19154-0.18844-0.33847-0.41737-0.43-0.67-0.1-0.27-0.15-0.6-0.15-1v-3.44h-1.66v-0.84h1.66v-1.53h1.1zm6.82 7.18c0-0.23 0.07-0.43 0.21-0.6 0.14-0.16 0.36-0.24 0.64-0.24s0.5 0.08 0.64 0.25c0.15 0.16 0.22 0.35 0.22 0.59 0.0077 0.21505-0.07164 0.42412-0.22 0.58-0.15 0.15-0.36 0.23-0.64 0.23s-0.5-0.08-0.64-0.23c-0.13655-0.16169-0.20786-0.36851-0.2-0.58zm0-5.14c0-0.23 0.07-0.42 0.21-0.59 0.14-0.16 0.36-0.24 0.64-0.24s0.5 0.08 0.64 0.24c0.15 0.16 0.22 0.36 0.22 0.6 5e-3 0.21162-0.07414 0.41659-0.22 0.57-0.15 0.16-0.36 0.24-0.64 0.24s-0.5-0.08-0.64-0.24c-0.13655-0.16169-0.20786-0.36851-0.2-0.58zm14.36 0.48-2.2-0.56 0.31-1.03 2.14 0.89-0.15-2.47h1.04l-0.16 2.5 2.12-0.88 0.32 1.05-2.24 0.55 1.5 1.9-0.86 0.64-1.25-2.13-1.24 2.08-0.86-0.63zm6.51 6.1h-0.97l3.56-9.27h0.97l-3.56 9.26zm7.9-6.1-2.2-0.56 0.31-1.03 2.14 0.89-0.14-2.47h1.04l-0.17 2.5 2.13-0.88 0.31 1.05-2.23 0.55 1.5 1.9-0.86 0.64-1.26-2.13-1.24 2.08-0.85-0.63 1.53-1.91zm-68.67 22.8c-0.05 0.39-0.15 0.75-0.3 1.08-0.2815 0.642-0.80676 1.1457-1.46 1.4-0.34 0.13-0.7 0.2-1.12 0.2-0.9178 0.025-1.785-0.41993-2.3-1.18-0.49244-0.77659-0.74625-1.6806-0.73-2.6v-1.2c-0.01625-0.91942 0.23756-1.8234 0.73-2.6 0.51654-0.75959 1.3816-1.2072 2.3-1.19 0.43 0 0.8 0.07 1.14 0.2 0.66305 0.24595 1.1902 0.76223 1.45 1.42 0.15 0.34 0.25 0.7 0.3 1.11h-1.09c-0.03187-0.24617-0.09228-0.48779-0.18-0.72-0.08182-0.21536-0.20022-0.41496-0.35-0.59-0.14562-0.16763-0.32664-0.30083-0.53-0.39-0.2-0.1-0.45-0.14-0.74-0.14-0.44091-0.0105-0.86704 0.15924-1.18 0.47-0.14865 0.14635-0.2735 0.31506-0.37 0.5-0.26891 0.60409-0.4053 1.2588-0.4 1.92v1.2c0.01097 0.44139 0.06794 0.88043 0.17 1.31 0.06 0.22 0.14 0.43 0.23 0.62 0.1 0.2 0.21 0.36 0.36 0.5 0.14 0.15 0.31 0.27 0.5 0.36 0.2 0.08 0.43 0.12 0.7 0.12 0.28 0 0.52-0.05 0.73-0.14s0.39-0.21 0.53-0.38c0.15-0.16 0.26-0.35 0.35-0.57s0.15-0.46 0.18-0.72h1.08zm1.38-0.67c0-0.46 0.07-0.88 0.2-1.27 0.13-0.4 0.33-0.74 0.58-1.03 0.52497-0.60943 1.2959-0.95085 2.1-0.93 0.80931-8e-3 1.5824 0.335 2.12 0.94 0.25 0.28 0.44 0.63 0.57 1.02 0.13 0.4 0.2 0.81 0.2 1.27v0.13c0 0.46-0.07 0.88-0.2 1.27-0.13 0.4-0.32 0.73-0.57 1.02-0.52543 0.61458-1.3019 0.9568-2.11 0.93-0.45 0-0.85-0.09-1.21-0.25-0.34615-0.15807-0.65338-0.3902-0.9-0.68-0.25795-0.29896-0.45498-0.64546-0.58-1.02-0.13-0.39-0.2-0.81-0.2-1.27zm1.09 0.13c0 0.31 0.03 0.61 0.1 0.9 0.08 0.28 0.2 0.53 0.35 0.74 0.29943 0.45024 0.80948 0.71471 1.35 0.7 0.54052 0.0147 1.0506-0.24976 1.35-0.7 0.15-0.21 0.26-0.46 0.33-0.74 0.08-0.29 0.11-0.59 0.11-0.9v-0.13c0-0.3-0.04-0.6-0.11-0.88-0.06831-0.26806-0.18341-0.52196-0.34-0.75-0.14853-0.21133-0.34352-0.38579-0.57-0.51-0.23691-0.13651-0.50663-0.20567-0.78-0.2-0.3 0-0.56 0.07-0.79 0.2-0.22 0.12-0.4 0.3-0.55 0.5-0.16292 0.2281-0.27852 0.48651-0.34 0.76-0.08 0.28-0.11 0.57-0.11 0.88zm6.42 3.1v-6.34h0.98l0.07 0.94c0.18181-0.25513 0.40487-0.47819 0.66-0.66 0.39023-0.25416 0.84436-0.39283 1.31-0.4 0.34 0 0.64 0.05 0.9 0.14 0.28 0.1 0.52 0.24 0.7 0.44 0.2 0.2 0.34 0.46 0.45 0.76 0.1 0.3 0.15 0.67 0.15 1.1v4.03h-1.08v-4c0-0.28-0.03-0.52-0.1-0.72-0.06-0.2-0.15-0.35-0.27-0.47-0.1305-0.12422-0.28792-0.21662-0.46-0.27-0.37949-0.10899-0.78245-0.10552-1.16 0.01-0.17 0.05-0.33 0.13-0.48 0.23-0.23756 0.18085-0.43505 0.40898-0.58 0.67v4.55h-1.09zm9.78-7.88v1.54h2.41v0.84h-2.41v3.44c0 0.25 0.03 0.45 0.1 0.61 0.09996 0.2848 0.3306 0.50428 0.62 0.59 0.15 0.04 0.3 0.06 0.46 0.06 0.35746 2e-3 0.71374-0.0412 1.06-0.13l0.26-0.06 0.15 0.77c-0.09 0.05-0.2 0.1-0.33 0.14-0.71404 0.21666-1.4721 0.24423-2.2 0.08-0.23685-0.0806-0.45228-0.21392-0.63-0.39-0.19154-0.18844-0.33847-0.41737-0.43-0.67-0.1-0.27-0.15-0.6-0.15-1v-3.44h-1.67v-0.84h1.67v-1.53h1.09zm7.44 8c-0.45 0-0.86-0.08-1.23-0.23-0.72911-0.29139-1.3024-0.87554-1.58-1.61-0.15099-0.39225-0.22567-0.80973-0.22-1.23v-0.24c0-0.52 0.08-0.97 0.25-1.37 0.39427-1.1244 1.4486-1.8832 2.64-1.9 0.78528-0.0423 1.5447 0.28741 2.05 0.89 0.23 0.28 0.4 0.61 0.5 1 0.12 0.37 0.17 0.78 0.17 1.22v0.5h-4.54v0.03c0.03 0.31 0.1 0.58 0.18 0.82 0.19591 0.47058 0.55933 0.85181 1.02 1.07 0.91941 0.37583 1.9766 0.089 2.58-0.7l0.67 0.52c-0.21 0.32-0.53 0.6-0.95 0.86-0.42 0.24-0.93 0.37-1.55 0.37zm-0.14-5.69c-0.22 0-0.43 0.04-0.62 0.13-0.2 0.07-0.37 0.19-0.53 0.34-0.16504 0.16943-0.30028 0.36552-0.4 0.58-0.1 0.22-0.18 0.48-0.22 0.77h3.4v-0.05c5.86e-4 -0.214-0.03318-0.4267-0.1-0.63-0.06635-0.21398-0.17142-0.41397-0.31-0.59-0.29782-0.36463-0.74956-0.56828-1.22-0.55zm4.54 5.57v-6.34h0.98l0.07 0.94c0.18482-0.25595 0.4113-0.47905 0.67-0.66 0.39023-0.25416 0.84436-0.39283 1.31-0.4 0.33 0 0.63 0.05 0.9 0.14 0.27 0.1 0.5 0.24 0.7 0.44 0.19 0.2 0.34 0.46 0.44 0.76s0.16 0.67 0.16 1.1v4.03h-1.09v-4c0-0.28-0.03-0.52-0.1-0.72-0.04501-0.17854-0.13845-0.34118-0.27-0.47-0.12824-0.1221-0.28192-0.2143-0.45-0.27-0.38261-0.11098-0.78934-0.1075-1.17 0.01-0.17 0.05-0.33 0.13-0.48 0.23-0.23756 0.18085-0.43505 0.40898-0.58 0.67v4.55h-1.09zm9.78-7.88v1.54h2.41v0.84h-2.41v3.44c0 0.25 0.03 0.45 0.1 0.61 0.09996 0.2848 0.3306 0.50428 0.62 0.59 0.15 0.04 0.3 0.06 0.46 0.06 0.35746 2e-3 0.71374-0.0412 1.06-0.13l0.26-0.06 0.15 0.77c-0.09 0.05-0.2 0.1-0.33 0.14-0.71404 0.21666-1.4721 0.24423-2.2 0.08-0.23685-0.0806-0.45228-0.21392-0.63-0.39-0.19154-0.18844-0.33847-0.41737-0.43-0.67-0.1-0.27-0.15-0.6-0.15-1v-3.44h-1.67v-0.84h1.67v-1.53h1.09zm9.38 4.6h-4.48v-0.9h4.48zm8.22-4.32h-2.64v7.6h-1.05v-7.6h-2.64v-0.93h6.33zm1.96 10.16-0.36-0.03c-0.10041-0.0179-0.20043-0.0379-0.3-0.06l0.17-0.89c0.17293 0.0161 0.34637 0.0261 0.52 0.03 0.14244 2e-3 0.28198-0.0402 0.4-0.12 0.13-0.08 0.24-0.18 0.33-0.3 0.14727-0.20778 0.28088-0.4249 0.4-0.65l0.44-0.84-2.73-6.04h1.21l1.75 4.09 0.28 0.77 0.3-0.75 1.63-4.11h1.21l-3.21 7.32c-0.18085 0.37621-0.41678 0.72336-0.7 1.03-0.34994 0.36289-0.83602 0.5624-1.34 0.55zm6.7-0.12v-8.78h0.98l0.06 0.7c0.28448-0.37413 0.69162-0.63612 1.15-0.74 0.57832-0.1418 1.1875-0.0855 1.73 0.16 0.31 0.16 0.57 0.39 0.78 0.67 0.22 0.29 0.38 0.63 0.48 1.03 0.12 0.4 0.17 0.83 0.17 1.3v0.12c0 0.45-0.05 0.88-0.16 1.27-0.11 0.4-0.27 0.73-0.48 1.02-0.42664 0.59486-1.1181 0.94244-1.85 0.93-0.24 0-0.47-0.03-0.68-0.08-0.30852-0.0715-0.59828-0.20782-0.85-0.4-0.0894-0.077-0.17298-0.16058-0.25-0.25v3.05h-1.09zm4.27-5.66c0-0.31-0.04-0.6-0.11-0.88-0.0581-0.2664-0.16303-0.52035-0.31-0.75-0.14265-0.20656-0.33082-0.37762-0.55-0.5-0.23897-0.1303-0.50788-0.1958-0.78-0.19-0.30025-0.0126-0.59709 0.0677-0.85 0.23-0.12385 0.0757-0.23518 0.17013-0.33 0.28-0.1 0.1-0.19 0.23-0.26 0.36v3.05c0.06 0.12 0.14 0.23 0.23 0.33 0.08 0.1 0.18 0.19 0.29 0.26 0.27662 0.17861 0.60085 0.26926 0.93 0.26 0.53317 0.018 1.0358-0.24854 1.32-0.7 0.14-0.22 0.24-0.46 0.31-0.75 0.07-0.28 0.1-0.57 0.1-0.88v-0.12zm5.74 3.34c-0.45 0-0.86-0.08-1.23-0.23-0.72841-0.29244-1.3013-0.87621-1.58-1.61-0.15099-0.39225-0.22567-0.80973-0.22-1.23v-0.24c-0.024-0.88967 0.29869-1.7538 0.9-2.41 0.82659-0.85032 2.0945-1.0975 3.18-0.62 0.68209 0.31272 1.1833 0.92076 1.36 1.65 0.12 0.37 0.17 0.78 0.17 1.22v0.5h-4.53v0.03c0.03 0.31 0.09 0.58 0.18 0.82 0.19591 0.47058 0.55933 0.85181 1.02 1.07 0.91963 0.37222 1.9746 0.086 2.58-0.7l0.67 0.52c-0.21 0.32-0.53 0.6-0.95 0.86-0.4756 0.25629-1.0099 0.38384-1.55 0.37zm-0.14-5.69c-0.22 0-0.43 0.04-0.62 0.13-0.2 0.07-0.38 0.19-0.53 0.34-0.16505 0.16943-0.30028 0.36552-0.4 0.58-0.1 0.22-0.18 0.48-0.22 0.77h3.4v-0.05c0-0.2-0.03-0.4-0.1-0.63-0.0661-0.21407-0.17123-0.41409-0.31-0.59-0.29879-0.36337-0.74986-0.56672-1.22-0.55zm6.72 4.87c0-0.23 0.07-0.43 0.22-0.6 0.13-0.16 0.35-0.24 0.63-0.24s0.5 0.08 0.64 0.25c0.15 0.16 0.23 0.35 0.23 0.59 0 0.23-0.08 0.42-0.23 0.58-0.15 0.15-0.36 0.23-0.64 0.23s-0.5-0.08-0.63-0.23c-0.14378-0.15872-0.22235-0.36586-0.22-0.58zm0-5.14c0-0.23 0.07-0.42 0.22-0.59 0.13-0.16 0.35-0.24 0.63-0.24s0.5 0.08 0.64 0.24c0.15 0.16 0.23 0.36 0.23 0.6 0 0.23-0.08 0.42-0.23 0.57-0.15 0.16-0.36 0.24-0.64 0.24s-0.5-0.08-0.63-0.24c-0.14378-0.15872-0.22235-0.36586-0.22-0.58zm16.4 5.84c-0.0459-0.0954-0.0795-0.19617-0.1-0.3-0.0235-0.13239-0.0402-0.2659-0.05-0.4-0.23674 0.23601-0.51031 0.4319-0.81 0.58-0.35015 0.15365-0.72765 0.23527-1.11 0.24-0.30985 5e-3 -0.61803-0.0462-0.91-0.15-0.27-0.1-0.5-0.23-0.69-0.4-0.38859-0.33148-0.60867-0.81931-0.6-1.33 0-0.34 0.07-0.65 0.2-0.91 0.15-0.26 0.34-0.48 0.6-0.66 0.25-0.17 0.56-0.3 0.91-0.38 0.36-0.1 0.76-0.13 1.2-0.13h1.19v-0.5c0-0.2-0.04-0.37-0.1-0.52-0.0701-0.15046-0.17257-0.28361-0.3-0.39-0.14222-0.11376-0.30526-0.19868-0.48-0.25-0.20126-0.0587-0.41043-0.0857-0.62-0.08-0.22 0-0.41 0.02-0.58 0.08-0.29635 0.0839-0.54998 0.27683-0.71 0.54-0.0605 0.11743-0.0914 0.24789-0.09 0.38h-1.09c0.0336-0.50417 0.28102-0.96995 0.68-1.28 0.22-0.18 0.48-0.32 0.79-0.43 0.6688-0.21222 1.3853-0.22266 2.06-0.03 0.93056 0.20058 1.5759 1.0497 1.52 2v2.94c5e-3 0.43888 0.0794 0.87422 0.22 1.29v0.09zm-1.91-0.83c0.5531 3e-3 1.0849-0.2129 1.48-0.6 0.11-0.12 0.2-0.24 0.26-0.36v-1.29h-1.01c-0.38 0-0.7 0.04-0.98 0.1-0.28 0.07-0.5 0.16-0.67 0.3-0.11 0.09-0.2 0.2-0.27 0.33-0.05 0.13-0.08 0.28-0.08 0.44s0.02 0.3 0.07 0.43c0.0523 0.13053 0.13454 0.24697 0.24 0.34 0.1 0.1 0.24 0.18 0.4 0.23 0.16 0.06 0.35 0.08 0.56 0.08zm4.95 3.27v-8.78h0.99l0.05 0.7c0.28698-0.3761 0.69798-0.63829 1.16-0.74 0.57522-0.13873 1.1802-0.0825 1.72 0.16 0.32 0.16 0.58 0.39 0.79 0.67 0.21 0.29 0.37 0.63 0.48 1.03s0.16 0.83 0.16 1.3v0.12c0 0.45-0.05 0.88-0.16 1.27-0.1 0.4-0.27 0.73-0.48 1.02-0.42664 0.59486-1.1181 0.94244-1.85 0.93-0.24 0-0.46-0.03-0.67-0.08-0.30832-0.072-0.59797-0.20834-0.85-0.4-0.0929-0.0766-0.17978-0.16021-0.26-0.25v3.05zm4.27-5.66c0-0.31-0.03-0.6-0.1-0.88-0.0587-0.26621-0.16359-0.52006-0.31-0.75-0.14292-0.20633-0.33102-0.37733-0.55-0.5-0.38752-0.19211-0.83125-0.23825-1.25-0.13-0.27765 0.0791-0.52726 0.23508-0.72 0.45-0.1 0.1-0.18 0.23-0.26 0.36v3.05c0.07 0.12 0.15 0.23 0.23 0.33 0.31384 0.33948 0.75776 0.52869 1.22 0.52 0.3 0 0.57-0.06 0.79-0.19 0.21-0.12 0.4-0.3 0.53-0.51 0.15-0.22 0.25-0.46 0.31-0.75 0.07-0.28 0.11-0.57 0.11-0.88zm2.94 5.66v-8.78h0.99l0.05 0.7c0.28448-0.37413 0.69162-0.63612 1.15-0.74 0.57838-0.14102 1.1873-0.0847 1.73 0.16 0.31 0.16 0.58 0.39 0.79 0.67 0.2 0.29 0.37 0.63 0.48 1.03 0.1 0.4 0.16 0.83 0.16 1.3v0.12c0 0.45-0.05 0.88-0.16 1.27-0.11 0.4-0.27 0.73-0.48 1.02-0.42664 0.59486-1.1181 0.94244-1.85 0.93-0.24 0-0.47-0.03-0.68-0.08-0.30832-0.072-0.59797-0.20834-0.85-0.4-0.0894-0.077-0.17298-0.16058-0.25-0.25v3.05zm4.27-5.66c0-0.31-0.04-0.6-0.1-0.88-0.0617-0.26687-0.17008-0.52075-0.32-0.75-0.14006-0.2052-0.32465-0.37611-0.54-0.5-0.38752-0.19211-0.83125-0.23825-1.25-0.13-0.27765 0.0791-0.52726 0.23508-0.72 0.45-0.1 0.1-0.19 0.23-0.26 0.36v3.05c0.07 0.12 0.14 0.23 0.23 0.33s0.18 0.19 0.3 0.26c0.27353 0.17724 0.59416 0.26786 0.92 0.26 0.53317 0.018 1.0358-0.24854 1.32-0.7 0.14-0.22 0.25-0.46 0.31-0.75 0.07-0.28 0.1-0.57 0.1-0.88v-0.12zm3.1-5.78h3.25v8.06h2.07v0.94h-5.31v-0.94h2.16v-7.12h-2.16v-0.93zm7.22 2.66h3.24v5.4h2.06v0.94h-5.3v-0.94h2.15v-4.46h-2.15zm2.01-1.66c0-0.1 0.01-0.19 0.04-0.27 0.0589-0.15489 0.18342-0.27573 0.34-0.33 0.0869-0.0293 0.17834-0.0428 0.27-0.04 0.1 0 0.2 0.01 0.27 0.04 0.08 0.03 0.14 0.07 0.2 0.12 0.06 0.06 0.1 0.13 0.14 0.2 0.03 0.09 0.04 0.18 0.04 0.28 0 0.17-0.05 0.32-0.16 0.44-0.11 0.11-0.27 0.17-0.49 0.17s-0.38-0.06-0.49-0.17c-0.10787-0.12067-0.16517-0.27823-0.16-0.44zm7.72 7.24c0.3864 1e-5 0.76219-0.12642 1.07-0.36 0.15-0.1 0.26-0.24 0.35-0.39 0.0882-0.1485 0.13643-0.31732 0.14-0.49h1.02c0 0.28-0.08 0.55-0.22 0.81-0.14 0.25-0.33 0.48-0.57 0.67-0.85828 0.69527-2.037 0.84261-3.04 0.38-0.35187-0.15765-0.66059-0.39776-0.9-0.7-0.24711-0.29406-0.43399-0.63384-0.55-1-0.12098-0.38845-0.18169-0.79315-0.18-1.2v-0.25c0-0.42 0.06-0.82 0.18-1.2 0.12-0.39 0.3-0.72 0.55-1.02 0.24-0.29 0.53-0.52 0.9-0.69 0.35-0.17 0.77-0.26 1.25-0.26 0.68023-7e-3 1.3402 0.23111 1.86 0.67 0.45311 0.42179 0.71337 1.011 0.72 1.63h-1.02c0-0.2-0.05-0.37-0.13-0.54-0.15791-0.35481-0.45424-0.62946-0.82-0.76-0.18-0.07-0.39-0.1-0.6-0.1-0.56546-0.0319-1.1043 0.24325-1.41 0.72-0.14 0.22-0.24 0.46-0.3 0.73s-0.09 0.54-0.09 0.82v0.24c0 0.28 0.03 0.56 0.09 0.83s0.16 0.51 0.3 0.73 0.32 0.4 0.55 0.53 0.51 0.2 0.85 0.2zm8.68 0.76c-0.0459-0.0954-0.0795-0.19617-0.1-0.3-0.0268-0.13222-0.0469-0.26573-0.06-0.4-0.36926 0.36315-0.82817 0.62194-1.33 0.75-0.4976 0.11466-1.0174 0.0869-1.5-0.08-0.27-0.1-0.5-0.23-0.69-0.4-0.38859-0.33148-0.60867-0.81931-0.6-1.33 0-0.34 0.07-0.65 0.21-0.91s0.34-0.48 0.6-0.66c0.24-0.17 0.55-0.3 0.9-0.38 0.37-0.1 0.77-0.13 1.2-0.13h1.19v-0.5c0.0128-0.34567-0.13484-0.67787-0.4-0.9-0.14139-0.11732-0.30449-0.20567-0.48-0.26-0.20126-0.0587-0.41043-0.0857-0.62-0.08-0.21 0-0.4 0.02-0.58 0.08-0.17 0.05-0.31 0.13-0.43 0.22-0.11 0.09-0.2 0.2-0.27 0.32-0.0633 0.11684-0.0976 0.24716-0.1 0.38h-1.09c0-0.23 0.07-0.46 0.18-0.68 0.12562-0.23092 0.29552-0.4348 0.5-0.6 0.22-0.18 0.48-0.32 0.79-0.43 0.6688-0.21222 1.3853-0.22266 2.06-0.03 0.92816 0.20435 1.5716 1.051 1.52 2v2.94c8e-3 0.43942 0.086 0.87477 0.23 1.29v0.09zm-1.92-0.83c0.5531 3e-3 1.0849-0.2129 1.48-0.6 0.11-0.12 0.2-0.24 0.26-0.36v-1.29h-1c-0.38 0-0.71 0.04-1 0.1-0.27 0.07-0.49 0.16-0.65 0.3-0.11627 0.0856-0.20913 0.19908-0.27 0.33-0.12898 0.27491-0.13263 0.5922-0.01 0.87 0.05 0.14 0.13 0.25 0.24 0.34 0.1 0.1 0.23 0.18 0.4 0.23 0.15 0.06 0.34 0.08 0.55 0.08zm7.52-7.04v1.53h2.42v0.84h-2.42v3.44c0 0.25 0.03 0.45 0.1 0.61 0.10338 0.28622 0.33762 0.50559 0.63 0.59 0.15 0.04 0.3 0.06 0.46 0.06 0.35746 2e-3 0.71374-0.0412 1.06-0.13l0.26-0.06 0.15 0.77c-0.1 0.05-0.2 0.1-0.33 0.14-0.71419 0.21575-1.472 0.24331-2.2 0.08-0.24058-0.0789-0.45963-0.21234-0.64-0.39-0.18793-0.18944-0.33139-0.4183-0.42-0.67-0.1-0.27-0.16-0.6-0.16-1v-3.44h-1.66v-0.84h1.66v-1.53h1.1zm4.81 1.53h3.24v5.4h2.07v0.94h-5.3v-0.94h2.15v-4.46h-2.16zm2.02-1.66c0-0.1 0.01-0.19 0.04-0.27 0.0567-0.15278 0.17722-0.27326 0.33-0.33 0.0901-0.0305 0.185-0.0441 0.28-0.04 0.1 0 0.2 0.01 0.27 0.04 0.08 0.03 0.14 0.07 0.2 0.12 0.06 0.06 0.1 0.13 0.13 0.2 0.03 0.09 0.05 0.18 0.05 0.28 0 0.17-0.05 0.32-0.16 0.44-0.13446 0.11918-0.31062 0.18029-0.49 0.17-0.18247 0.0108-0.36192-0.0502-0.5-0.17-0.10426-0.12218-0.15792-0.27957-0.15-0.44zm4.72 4.77c0-0.46 0.06-0.88 0.2-1.27 0.13-0.4 0.32-0.74 0.57-1.03 0.25-0.28 0.55-0.51 0.9-0.68 0.36-0.16 0.76-0.25 1.2-0.25 0.81279-0.0107 1.5901 0.33235 2.13 0.94 0.24 0.28 0.43 0.63 0.56 1.02 0.14 0.4 0.2 0.81 0.2 1.27v0.13c0 0.46-0.06 0.88-0.2 1.27-0.12061 0.3723-0.31062 0.7184-0.56 1.02-0.52543 0.61458-1.3019 0.9568-2.11 0.93-0.41997 6e-3 -0.83624-0.0793-1.22-0.25-0.34615-0.15807-0.65338-0.3902-0.9-0.68-0.25417-0.29994-0.44774-0.64634-0.57-1.02-0.14-0.39-0.2-0.81-0.2-1.27zm1.08 0.13c0 0.31 0.04 0.61 0.11 0.9 0.08 0.28 0.19 0.53 0.34 0.74 0.30522 0.44895 0.81727 0.7125 1.36 0.7 0.537 0.0112 1.0425-0.25281 1.34-0.7 0.15-0.21 0.26-0.46 0.34-0.74 0.07-0.29 0.1-0.59 0.1-0.9v-0.13c0-0.3-0.03-0.6-0.1-0.88-0.0683-0.26806-0.18341-0.52196-0.34-0.75-0.14853-0.21133-0.34352-0.38579-0.57-0.51-0.22-0.13-0.49-0.2-0.79-0.2s-0.56 0.07-0.78 0.2c-0.22 0.12-0.41 0.3-0.56 0.5-0.15 0.22-0.26 0.47-0.34 0.76-0.07 0.28-0.1 0.57-0.1 0.88v0.13zm6.43 3.11v-6.34h0.97l0.08 0.94c0.18138-0.2555 0.4045-0.47862 0.66-0.66 0.38999-0.25466 0.84427-0.39337 1.31-0.4 0.33 0 0.63 0.05 0.9 0.14 0.5581 0.18208 0.98676 0.6333 1.14 1.2 0.1 0.3 0.16 0.67 0.16 1.1v4.02h-1.09v-4c0-0.28-0.03-0.52-0.09-0.72s-0.15-0.35-0.27-0.47c-0.13193-0.1223-0.2889-0.21443-0.46-0.27-0.38269-0.1104-0.78925-0.10692-1.17 0.01-0.17 0.05-0.33 0.13-0.47 0.23-0.24058 0.18045-0.44142 0.40853-0.59 0.67v4.55zm8.63 0.73h-0.97l3.56-9.26h0.97zm6.51-7.07h3.2v6.38c0 0.4-0.05 0.77-0.17 1.08-0.20208 0.59474-0.66688 1.0632-1.26 1.27-0.3 0.11-0.65 0.17-1.05 0.17-0.41168-8e-3 -0.82247-0.0412-1.23-0.1l0.07-0.89 0.26 0.03c0.1991 0.0235 0.39955 0.0335 0.6 0.03l0.23 0.01c0.19286 9.6e-4 0.38485-0.026 0.57-0.08 0.37395-0.10137 0.66896-0.3888 0.78-0.76 0.08-0.2 0.12-0.46 0.12-0.76v-5.44h-2.12zm1.97-1.67c0-0.18 0.05-0.32 0.16-0.45 0.1-0.12 0.26-0.18 0.48-0.18s0.38 0.06 0.5 0.18c0.1 0.13 0.16 0.27 0.16 0.45s-0.06 0.32-0.17 0.45c-0.1 0.11-0.27 0.17-0.49 0.17s-0.38-0.06-0.48-0.17c-0.10851-0.12426-0.1657-0.28513-0.16-0.45zm8.72 6.33c5e-3 -0.1206-0.0188-0.24067-0.07-0.35-0.0614-0.11395-0.1509-0.21033-0.26-0.28-0.14817-0.10174-0.3097-0.1825-0.48-0.24-0.2-0.07-0.45-0.14-0.75-0.2-0.33989-0.0637-0.67425-0.15394-1-0.27-0.29-0.1-0.54-0.23-0.75-0.38-0.20125-0.12807-0.37193-0.29875-0.5-0.5-0.23827-0.4398-0.23827-0.9702 0-1.41 0.12-0.24 0.3-0.43 0.51-0.6 0.22-0.17 0.48-0.3 0.78-0.4 0.67035-0.21172 1.3896-0.21172 2.06 0 0.31 0.1 0.58 0.25 0.8 0.43 0.4204 0.34484 0.66886 0.85637 0.68 1.4h-1.08c1e-3 -0.13967-0.0331-0.27736-0.1-0.4-0.0751-0.13588-0.17721-0.25498-0.3-0.35-0.30545-0.2211-0.67292-0.34009-1.05-0.34-0.24 0-0.44 0.03-0.62 0.08-0.17 0.05-0.3 0.12-0.42 0.2-0.11278 0.0769-0.20539 0.17977-0.27 0.3-0.0562 0.11147-0.0837 0.23521-0.08 0.36 0 0.12 0.02 0.23 0.07 0.33 0.04 0.1 0.13 0.19 0.24 0.26 0.12 0.08 0.27 0.15 0.46 0.21 0.2 0.07 0.44 0.13 0.74 0.19 0.39 0.08 0.74 0.17 1.05 0.28 0.3 0.1 0.56 0.24 0.78 0.38 0.2 0.16 0.37 0.33 0.48 0.53 0.23605 0.46077 0.22477 1.0093-0.03 1.46-0.12 0.23-0.3 0.43-0.52 0.6-0.55778 0.34597-1.2038 0.5231-1.86 0.51-0.43 0-0.8-0.06-1.14-0.17-0.30941-0.104-0.59741-0.26324-0.85-0.47-0.45705-0.33676-0.72482-0.87231-0.72-1.44h1.08c0.0182 0.38974 0.23284 0.74365 0.57 0.94 0.15 0.1 0.32 0.16 0.5 0.2 0.43664 0.0949 0.8899 0.0812 1.32-0.04 0.22-0.07 0.38-0.17 0.5-0.29 0.072-0.0718 0.12974-0.15662 0.17-0.25 0.0391-0.0882 0.0595-0.18353 0.06-0.28zm2.7-1.55c-0.0104-0.82999 0.25716-1.6396 0.76-2.3 0.53245-0.59927 1.2984-0.93847 2.1-0.93 0.81279-0.0107 1.5901 0.33235 2.13 0.94 0.25 0.28 0.44 0.63 0.57 1.02 0.13 0.4 0.2 0.81 0.2 1.27v0.13c0 0.46-0.07 0.88-0.2 1.27-0.12363 0.37306-0.31706 0.71921-0.57 1.02-0.52543 0.61458-1.3019 0.9568-2.11 0.93-0.45 0-0.85-0.09-1.21-0.25-0.34615-0.15807-0.65338-0.3902-0.9-0.68-0.25774-0.29911-0.45474-0.64556-0.58-1.02-0.13-0.39-0.2-0.81-0.2-1.27v-0.13zm1.08 0.13c0 0.31 0.03 0.61 0.1 0.9 0.08 0.28 0.2 0.53 0.35 0.74 0.29943 0.45024 0.80948 0.71471 1.35 0.7 0.54052 0.0147 1.0506-0.24976 1.35-0.7 0.15-0.21 0.26-0.46 0.33-0.74 0.08-0.29 0.11-0.59 0.11-0.9v-0.13c0-0.3-0.04-0.6-0.11-0.88-0.0679-0.2682-0.18304-0.52217-0.34-0.75-0.14853-0.21133-0.34352-0.38579-0.57-0.51-0.23691-0.13651-0.50663-0.20567-0.78-0.2-0.3 0-0.56 0.07-0.79 0.2-0.22 0.12-0.4 0.3-0.55 0.5-0.16292 0.2281-0.27853 0.48651-0.34 0.76-0.08 0.28-0.11 0.57-0.11 0.88zm6.42 3.1v-6.34h0.98l0.07 0.94c0.18251-0.25454 0.40546-0.47749 0.66-0.66 0.38999-0.25466 0.84427-0.39337 1.31-0.4 0.34 0 0.64 0.05 0.9 0.14 0.28 0.1 0.51 0.24 0.7 0.44 0.2 0.2 0.34 0.46 0.45 0.76 0.1 0.3 0.15 0.67 0.15 1.1v4.02h-1.08v-4c0-0.28-0.03-0.52-0.1-0.72-0.06-0.2-0.15-0.35-0.27-0.47-0.1305-0.12422-0.28792-0.21662-0.46-0.27-0.37949-0.10899-0.78245-0.10552-1.16 0.01-0.17 0.05-0.33 0.13-0.48 0.23-0.23697 0.18148-0.43434 0.40948-0.58 0.67v4.55zm-203.49 17.43c-0.05 0.4-0.15 0.76-0.3 1.1-0.2815 0.642-0.80676 1.1457-1.46 1.4-0.34 0.12-0.7 0.19-1.12 0.19-0.9178 0.025-1.785-0.41993-2.3-1.18-0.49244-0.77659-0.74625-1.6806-0.73-2.6v-1.2c-0.01625-0.91942 0.23756-1.8234 0.73-2.6 0.51654-0.75959 1.3816-1.2072 2.3-1.19 0.43 0 0.8 0.07 1.14 0.2 0.66305 0.24595 1.1902 0.76223 1.45 1.42 0.15 0.34 0.25 0.7 0.3 1.11h-1.09c-0.03187-0.24617-0.09228-0.48779-0.18-0.72-0.08182-0.21536-0.20022-0.41496-0.35-0.59-0.14562-0.16763-0.32664-0.30083-0.53-0.39-0.2-0.1-0.45-0.14-0.74-0.14-0.44091-0.0105-0.86704 0.15924-1.18 0.47-0.14865 0.14635-0.2735 0.31506-0.37 0.5-0.26891 0.60409-0.4053 1.2588-0.4 1.92v1.2c0.01097 0.44139 0.06794 0.88043 0.17 1.31 0.06 0.22 0.14 0.43 0.23 0.62 0.1 0.2 0.21 0.36 0.36 0.5 0.14 0.15 0.31 0.27 0.5 0.36 0.2 0.08 0.43 0.12 0.7 0.12 0.28 0 0.52-0.05 0.73-0.14s0.39-0.21 0.53-0.38c0.15-0.16 0.26-0.35 0.35-0.57s0.15-0.46 0.18-0.72zm1.38-0.66c0-0.46 0.07-0.88 0.2-1.27 0.13-0.4 0.33-0.74 0.58-1.03 0.52497-0.60943 1.2959-0.95085 2.1-0.93 0.80931-8e-3 1.5824 0.335 2.12 0.94 0.25 0.28 0.44 0.63 0.57 1.02 0.13 0.4 0.2 0.81 0.2 1.27v0.13c0 0.46-0.07 0.88-0.2 1.27-0.13 0.4-0.32 0.73-0.57 1.02-0.52543 0.61458-1.3019 0.9568-2.11 0.93-0.45 0-0.85-0.09-1.21-0.25-0.34615-0.15807-0.65338-0.3902-0.9-0.68-0.25795-0.29896-0.45498-0.64546-0.58-1.02-0.13-0.39-0.2-0.81-0.2-1.27zm1.09 0.13c0 0.31 0.03 0.61 0.1 0.9 0.08 0.28 0.2 0.53 0.35 0.74 0.29943 0.45024 0.80948 0.71471 1.35 0.7 0.54052 0.0147 1.0506-0.24976 1.35-0.7 0.15-0.21 0.26-0.46 0.33-0.74 0.08-0.29 0.11-0.59 0.11-0.9v-0.13c0-0.3-0.04-0.6-0.11-0.88-0.06831-0.26806-0.18341-0.52196-0.34-0.75-0.14853-0.21133-0.34352-0.38579-0.57-0.51-0.23691-0.13651-0.50663-0.20567-0.78-0.2-0.3 0-0.56 0.07-0.79 0.2-0.22 0.12-0.4 0.3-0.55 0.5-0.16292 0.2281-0.27852 0.48651-0.34 0.76-0.08 0.28-0.11 0.57-0.11 0.88zm6.42 3.1v-6.34h0.98l0.07 0.94c0.18181-0.25513 0.40487-0.47819 0.66-0.66 0.39023-0.25416 0.84436-0.39283 1.31-0.4 0.34 0 0.64 0.05 0.9 0.14 0.28 0.1 0.52 0.24 0.7 0.44 0.2 0.2 0.34 0.46 0.45 0.76 0.1 0.3 0.15 0.67 0.15 1.1v4.02h-1.08v-4c0-0.28-0.03-0.52-0.1-0.72-0.06-0.2-0.15-0.35-0.27-0.47-0.1305-0.12422-0.28792-0.21662-0.46-0.27-0.37949-0.10899-0.78245-0.10552-1.16 0.01-0.17 0.05-0.33 0.13-0.48 0.23-0.23756 0.18085-0.43505 0.40898-0.58 0.67v4.55zm9.78-7.88v1.54h2.41v0.84h-2.41v3.44c0 0.25 0.03 0.45 0.1 0.61 0.09996 0.2848 0.3306 0.50428 0.62 0.59 0.15 0.04 0.3 0.06 0.46 0.06 0.35746 2e-3 0.71374-0.0412 1.06-0.13l0.26-0.06 0.15 0.77c-0.09 0.05-0.2 0.1-0.33 0.14-0.71404 0.21666-1.4721 0.24423-2.2 0.08-0.23685-0.0806-0.45228-0.21392-0.63-0.39-0.19154-0.18844-0.33847-0.41737-0.43-0.67-0.1-0.27-0.15-0.6-0.15-1v-3.44h-1.67v-0.84h1.67v-1.53h1.09zm7.44 8c-0.45 0-0.86-0.08-1.23-0.23-0.72911-0.29139-1.3024-0.87554-1.58-1.61-0.15099-0.39225-0.22567-0.80973-0.22-1.23v-0.24c0-0.52 0.08-0.97 0.25-1.37 0.39427-1.1244 1.4486-1.8832 2.64-1.9 0.78528-0.0423 1.5447 0.28741 2.05 0.89 0.23 0.28 0.4 0.61 0.5 1 0.12 0.37 0.17 0.78 0.17 1.22v0.5h-4.53v0.03c0.03 0.31 0.1 0.58 0.18 0.82 0.19591 0.47058 0.55933 0.85181 1.02 1.07 0.91941 0.37583 1.9766 0.089 2.58-0.7l0.67 0.52c-0.21 0.32-0.53 0.6-0.95 0.86-0.42 0.24-0.93 0.37-1.55 0.37zm-0.14-5.69c-0.22 0-0.43 0.04-0.62 0.13-0.2 0.07-0.37 0.19-0.53 0.34-0.16504 0.16943-0.30028 0.36552-0.4 0.58-0.1 0.22-0.18 0.48-0.22 0.77h3.4v-0.05c5.86e-4 -0.214-0.03318-0.4267-0.1-0.63-0.06635-0.21398-0.17142-0.41397-0.31-0.59-0.29782-0.36463-0.74956-0.56828-1.22-0.55zm4.54 5.57v-6.34h0.98l0.07 0.94c0.18482-0.25595 0.4113-0.47905 0.67-0.66 0.39023-0.25416 0.84436-0.39283 1.31-0.4 0.33 0 0.63 0.05 0.9 0.14 0.27 0.1 0.5 0.24 0.7 0.44 0.19 0.2 0.34 0.46 0.44 0.76s0.16 0.67 0.16 1.1v4.02h-1.09v-4c0-0.28-0.03-0.52-0.1-0.72-0.04502-0.17854-0.13845-0.34118-0.27-0.47-0.12824-0.1221-0.28192-0.2143-0.45-0.27-0.38261-0.11098-0.78934-0.1075-1.17 0.01-0.17 0.05-0.33 0.13-0.48 0.23-0.23756 0.18085-0.43505 0.40898-0.58 0.67v4.55zm9.78-7.88v1.54h2.41v0.84h-2.41v3.44c0 0.25 0.03 0.45 0.1 0.61 0.09996 0.2848 0.3306 0.50428 0.62 0.59 0.15 0.04 0.3 0.06 0.46 0.06 0.35746 2e-3 0.71374-0.0412 1.06-0.13l0.26-0.06 0.15 0.77c-0.09 0.05-0.2 0.1-0.33 0.14-0.71404 0.21666-1.4721 0.24423-2.2 0.08-0.23685-0.0806-0.45228-0.21392-0.63-0.39-0.19154-0.18844-0.33847-0.41737-0.43-0.67-0.1-0.27-0.15-0.6-0.15-1v-3.44h-1.67v-0.84h1.67v-1.53h1.09zm9.38 4.6h-4.48v-0.9h4.48zm3.69 2.36h4.17v0.92h-5.25v-8.53h1.08zm8.78 1.04c-0.44 0-0.85-0.08-1.23-0.23-0.72462-0.29474-1.2936-0.87819-1.57-1.61-0.15441-0.39158-0.23248-0.80908-0.23-1.23v-0.24c0-0.52 0.09-0.97 0.25-1.37 0.16-0.41 0.38-0.75 0.66-1.04 0.82659-0.85032 2.0945-1.0975 3.18-0.62 0.68203 0.31024 1.181 0.92005 1.35 1.65 0.12 0.37 0.18 0.78 0.18 1.22v0.5h-4.53v0.03c0.03 0.31 0.09 0.58 0.18 0.82 0.19591 0.47058 0.55933 0.85181 1.02 1.07 0.91941 0.37583 1.9766 0.089 2.58-0.7l0.67 0.52c-0.22 0.32-0.53 0.6-0.95 0.86-0.47856 0.25799-1.0166 0.3856-1.56 0.37zm-0.14-5.69c-0.22 0-0.42 0.04-0.62 0.13-0.2 0.07-0.37 0.19-0.53 0.34-0.15 0.16-0.28 0.35-0.4 0.58-0.1 0.22-0.17 0.48-0.22 0.77h3.41v-0.05c5.9e-4 -0.214-0.0332-0.4267-0.1-0.63-0.0692-0.2148-0.17768-0.41487-0.32-0.59-0.29879-0.36337-0.74986-0.56672-1.22-0.55zm4.55 5.57v-6.34h0.97l0.08 0.94c0.18123-0.25562 0.40438-0.47877 0.66-0.66 0.39023-0.25416 0.84436-0.39283 1.31-0.4 0.33 0 0.64 0.05 0.9 0.14 0.5581 0.18208 0.98676 0.6333 1.14 1.2 0.1 0.3 0.16 0.67 0.16 1.1v4.02h-1.08v-4c0-0.28-0.04-0.52-0.1-0.72s-0.15-0.35-0.27-0.47c-0.13193-0.1223-0.2889-0.21443-0.46-0.27-0.38261-0.11098-0.78934-0.1075-1.17 0.01-0.17 0.05-0.33 0.13-0.47 0.23-0.24158 0.17937-0.44262 0.40767-0.59 0.67v4.55zm7-3.22c0-0.47 0.06-0.9 0.18-1.3 0.099-0.37225 0.26875-0.72195 0.5-1.03 0.44276-0.57729 1.1326-0.91106 1.86-0.9 0.25 0 0.49 0.02 0.7 0.08 0.431 0.1111 0.81167 0.36489 1.08 0.72l0.05-0.69h0.99v6.2c0 0.42-0.07 0.8-0.2 1.12-0.24298 0.63343-0.75654 1.125-1.4 1.34-0.74458 0.26327-1.5602 0.2419-2.29-0.06-0.22-0.09-0.43-0.2-0.63-0.34s-0.37-0.31-0.52-0.52l0.57-0.65c0.22739 0.2783 0.51 0.50643 0.83 0.67 0.15 0.07 0.3 0.12 0.44 0.14 0.37488 0.0859 0.76632 0.0651 1.13-0.06 0.40436-0.13598 0.72465-0.44891 0.87-0.85 0.07-0.22 0.11-0.46 0.11-0.73v-0.55c-0.1582 0.18389-0.34369 0.3424-0.55 0.47-0.36877 0.18659-0.77672 0.28257-1.19 0.28-0.72882 0.0109-1.4165-0.33673-1.84-0.93-0.22561-0.30779-0.3949-0.65313-0.5-1.02-0.12-0.4-0.18-0.82-0.18-1.27v-0.12zm1.1 0.12c0 0.3 0.02 0.6 0.09 0.88 0.06 0.28 0.16 0.52 0.3 0.73s0.32 0.38 0.53 0.5c0.39786 0.19438 0.85294 0.23704 1.28 0.12 0.43412-0.12999 0.78895-0.44458 0.97-0.86v-2.9c-0.13716-0.26061-0.33213-0.48637-0.57-0.66-0.26919-0.16935-0.58204-0.25625-0.9-0.25-0.3 0-0.56 0.06-0.78 0.19-0.21 0.13-0.39 0.3-0.52 0.5-0.15 0.22-0.25 0.47-0.31 0.75-0.07 0.28-0.1 0.57-0.1 0.88v0.12zm8.88-4.78v1.54h2.41v0.84h-2.41v3.44c0 0.25 0.03 0.45 0.1 0.61 0.10196 0.28715 0.33678 0.50707 0.63 0.59 0.14 0.04 0.3 0.06 0.45 0.06 0.35746 2e-3 0.71374-0.0412 1.06-0.13l0.26-0.06 0.16 0.77c-0.1 0.05-0.2 0.1-0.33 0.14-0.71434 0.21486-1.4719 0.24241-2.2 0.08-0.24058-0.0789-0.45963-0.21234-0.64-0.39-0.19154-0.18844-0.33847-0.41737-0.43-0.67-0.10818-0.32198-0.15895-0.66045-0.15-1v-3.44h-1.66v-0.84h1.66v-1.53h1.09zm5.72 2.48c0.16693-0.24906 0.38094-0.46307 0.63-0.63 0.18-0.14 0.39-0.25 0.61-0.32 0.53018-0.16172 1.0984-0.14769 1.62 0.04 0.56305 0.18587 0.99269 0.64566 1.14 1.22 0.1 0.3 0.16 0.67 0.16 1.1v3.99h-1.08v-4c0-0.25-0.03-0.47-0.1-0.66-0.0885-0.36391-0.35598-0.65782-0.71-0.78-0.18-0.07-0.4-0.1-0.63-0.1-0.52076-2e-3 -1.0181 0.21609-1.37 0.6-0.1 0.1-0.19 0.21-0.27 0.34v4.6h-1.08v-9h1.08zm8.3 4.7c0-0.23 0.08-0.43 0.22-0.6 0.14-0.16 0.35-0.24 0.64-0.24 0.28 0 0.5 0.08 0.64 0.25 0.14 0.16 0.22 0.35 0.22 0.59 0 0.23-0.08 0.42-0.22 0.58-0.17389 0.15933-0.40446 0.24219-0.64 0.23-0.28 0-0.5-0.08-0.64-0.23-0.14016-0.16022-0.2151-0.36719-0.21-0.58zm0-5.14c-1e-4 -0.21674 0.078-0.42624 0.22-0.59 0.14-0.16 0.35-0.24 0.64-0.24 0.28 0 0.5 0.08 0.64 0.24s0.22 0.36 0.22 0.6c0 0.23-0.08 0.42-0.22 0.57-0.16967 0.1671-0.40229 0.25434-0.64 0.24-0.28 0-0.5-0.08-0.64-0.24-0.14016-0.16022-0.2151-0.36719-0.21-0.58zm13.5 1.05h0.78c0.28 0 0.51-0.03 0.72-0.1 0.21-0.08 0.39-0.18 0.53-0.31 0.15-0.13 0.25-0.29 0.33-0.47 0.1368-0.4049 0.14031-0.84297 0.01-1.25-0.0603-0.18163-0.16315-0.34621-0.3-0.48-0.13129-0.1209-0.28871-0.20987-0.46-0.26-0.41298-0.1324-0.85702-0.1324-1.27 0-0.36629 0.12198-0.65941 0.40045-0.8 0.76-0.07 0.18-0.1 0.38-0.1 0.6h-1.1c-3e-4 -0.63124 0.26458-1.2336 0.73-1.66 0.23-0.21 0.5-0.38 0.83-0.5 0.68703-0.24594 1.4363-0.25649 2.13-0.03 0.60904 0.17569 1.1033 0.62199 1.34 1.21 0.12 0.3 0.18 0.65 0.18 1.05-3e-3 0.3627-0.11093 0.71679-0.31 1.02-0.24215 0.37105-0.59069 0.66034-1 0.83 0.28 0.1 0.5 0.21 0.7 0.35 0.34234 0.25984 0.58292 0.63132 0.68 1.05 0.10828 0.5556 0.0598 1.1304-0.14 1.66-0.14 0.31-0.33 0.57-0.57 0.78-0.24 0.22-0.53 0.38-0.86 0.5-0.69276 0.22129-1.4372 0.22129-2.13 0-0.63045-0.17389-1.1553-0.61124-1.44-1.2-0.14213-0.31723-0.21051-0.66255-0.2-1.01h1.08c-0.0274 0.40854 0.13491 0.80692 0.44 1.08 0.14 0.13 0.3 0.23 0.5 0.3 0.21 0.07 0.43 0.1 0.68 0.1 0.22739 5e-3 0.45398-0.0288 0.67-0.1 0.2-0.06 0.37-0.16 0.5-0.29 0.15-0.13 0.26-0.3 0.33-0.5 0.17056-0.44554 0.1634-0.93959-0.02-1.38-0.0796-0.18949-0.20295-0.35742-0.36-0.49-0.17191-0.13241-0.36939-0.22775-0.58-0.28-0.24084-0.0675-0.48989-0.1011-0.74-0.1h-0.77v-0.88zm10.34 1.92h1.2v0.89h-1.2v1.98h-1.08v-1.98h-3.9v-0.64l3.83-5.91h1.15zm-3.77 0h2.69v-4.22l-0.18 0.33-2.51 3.9zm6.97-1.4 0.43-4.26h4.38v1.05h-3.47l-0.24 2.28c0.4301-0.25206 0.92159-0.38012 1.42-0.37 0.4 0 0.75 0.07 1.06 0.2 0.63509 0.27103 1.1131 0.81527 1.3 1.48 0.22543 0.74914 0.23237 1.547 0.02 2.3-0.19064 0.67707-0.68062 1.2297-1.33 1.5-0.34 0.14-0.73 0.2-1.19 0.2-0.35 0-0.67-0.04-0.98-0.14-0.60962-0.19216-1.1195-0.61586-1.42-1.18-0.15-0.3-0.25-0.64-0.29-1.03h1.03c0.07 0.48 0.25 0.85 0.54 1.1s0.67 0.37 1.12 0.37c0.45971 0.0299 0.90469-0.16831 1.19-0.53 0.13-0.17 0.23-0.37 0.3-0.61 0.13961-0.50432 0.13615-1.0375-0.01-1.54-0.12347-0.44476-0.43874-0.81134-0.86-1-0.22924-0.10338-0.47857-0.15461-0.73-0.15-0.28005 1e-3 -0.55768 0.052-0.82 0.15-0.1 0.04-0.2 0.1-0.3 0.17l-0.28 0.22-0.87-0.22zm-125.4 46.42c-0.67857-7e-3 -1.309-0.35181-1.68-0.92-0.34184-0.54218-0.5254-1.1691-0.53-1.81v-0.99c0-0.56-0.13-0.97-0.4-1.22-0.27-0.26-0.68-0.39-1.23-0.4v-0.84c0.55 0 0.96-0.13 1.23-0.38s0.4-0.66 0.4-1.23v-1c-0.02426-0.65586 0.15759-1.3028 0.52-1.85 0.38268-0.55928 1.0225-0.88674 1.7-0.87l0.11 0.68c-0.45373-0.02-0.87066 0.24858-1.04 0.67-0.09 0.2-0.14 0.41-0.16 0.66-0.02825 0.23894-0.04161 0.4794-0.04 0.72v1c0 0.46-0.1 0.87-0.33 1.23-0.23664 0.36906-0.58799 0.65014-1 0.8 0.45 0.18 0.79 0.45 1 0.8 0.22 0.36 0.33 0.77 0.33 1.23v0.99c0 0.24 0.02 0.48 0.06 0.72s0.1 0.46 0.2 0.65c0.1 0.2 0.22 0.36 0.38 0.48 0.1731 0.12982 0.38363 0.2 0.6 0.2zm11.64 9.49-0.12 2.17h-0.76v-2.81h0.88zm2.1 0-0.13 2.17h-0.75v-2.81h0.88zm2.97 5.14c0-0.47 0.05-0.9 0.17-1.3s0.3-0.74 0.52-1.03c0.43752-0.57826 1.125-0.9127 1.85-0.9 0.37 0 0.7 0.06 0.98 0.19 0.29 0.12 0.53 0.3 0.74 0.55v-3.29h1.09v9h-1l-0.05-0.67c-0.2 0.26-0.46 0.45-0.75 0.59-0.3 0.13-0.64 0.2-1.03 0.2-0.7261 0.011-1.4109-0.33697-1.83-0.93-0.22808-0.30772-0.40067-0.6529-0.51-1.02-0.12-0.4-0.18-0.82-0.18-1.27zm1.08 0.12c0 0.3 0.03 0.6 0.1 0.88s0.17 0.52 0.31 0.73c0.28296 0.44139 0.77586 0.70301 1.3 0.69 0.36 0 0.66-0.08 0.9-0.25 0.24-0.16 0.43-0.38 0.57-0.66v-2.94c-0.13701-0.25247-0.33245-0.46849-0.57-0.63-0.26176-0.17848-0.57332-0.2695-0.89-0.26-0.52766-0.0165-1.0252 0.2455-1.31 0.69-0.14 0.22-0.24 0.47-0.31 0.75s-0.1 0.57-0.1 0.88zm10.5 3.1c-0.04925-0.0949-0.08621-0.19574-0.11-0.3-0.02331-0.13242-0.04-0.26592-0.05-0.4-0.23566 0.23727-0.50946 0.43332-0.81 0.58-0.35007 0.15392-0.72762 0.23555-1.11 0.24-0.30985 5e-3 -0.61803-0.0462-0.91-0.15-0.27-0.1-0.5-0.23-0.69-0.4-0.38745-0.33234-0.60726-0.8196-0.6-1.33 0-0.34 0.07-0.65 0.2-0.91 0.15-0.26 0.35-0.48 0.6-0.66 0.25-0.17 0.56-0.3 0.91-0.38 0.36-0.1 0.76-0.13 1.2-0.13h1.19v-0.5c0-0.2-0.04-0.37-0.1-0.52-0.06985-0.15063-0.17233-0.28384-0.3-0.39-0.14222-0.11376-0.30526-0.19868-0.48-0.25-0.18-0.06-0.4-0.08-0.62-0.08s-0.41 0.02-0.58 0.08c-0.29635 0.0839-0.54998 0.27683-0.71 0.54-0.06016 0.11757-0.09104 0.24793-0.09 0.38h-1.09c0.03357-0.50417 0.28102-0.96995 0.68-1.28 0.22-0.18 0.48-0.32 0.79-0.43 0.6687-0.21282 1.3854-0.22325 2.06-0.03 0.92816 0.20435 1.5716 1.051 1.52 2v2.94c5e-3 0.4389 0.07923 0.87426 0.22 1.29v0.09h-1.13zm-1.92-0.83c0.55331 4e-3 1.0855-0.21197 1.48-0.6 0.1-0.12 0.2-0.24 0.26-0.36v-1.29h-1.01c-0.37 0-0.7 0.04-0.98 0.1-0.28 0.07-0.5 0.16-0.67 0.3-0.11 0.09-0.2 0.2-0.27 0.33-0.05 0.13-0.08 0.28-0.08 0.44s0.02 0.3 0.07 0.43c0.05234 0.13053 0.13454 0.24697 0.24 0.34 0.1 0.1 0.24 0.18 0.4 0.23 0.16 0.06 0.35 0.08 0.56 0.08zm7.52-7.04v1.53h2.42v0.84h-2.42v3.44c0 0.25 0.03 0.45 0.1 0.61 0.10196 0.28715 0.33678 0.50707 0.63 0.59 0.14 0.04 0.3 0.06 0.45 0.06 0.3608 3e-3 0.7205-0.0403 1.07-0.13l0.25-0.06 0.16 0.77c-0.1 0.05-0.2 0.1-0.33 0.14-0.71412 0.21621-1.4721 0.24377-2.2 0.08-0.24042-0.0792-0.45941-0.21263-0.64-0.39-0.19154-0.18844-0.33847-0.41737-0.43-0.67-0.1-0.27-0.15-0.6-0.15-1v-3.44h-1.66v-0.84h1.66v-1.53h1.1zm8.8 7.87c-0.0458-0.0954-0.0794-0.1962-0.1-0.3-0.02338-0.13241-0.04007-0.26591-0.05-0.4-0.23253 0.23651-0.50292 0.43253-0.8 0.58-0.35316 0.15524-0.73424 0.2369-1.12 0.24-0.33 0-0.64-0.05-0.91-0.15s-0.5-0.23-0.69-0.4c-0.38745-0.33234-0.60726-0.8196-0.6-1.33 0-0.34 0.07-0.65 0.21-0.91s0.34-0.48 0.6-0.66c0.25-0.17 0.55-0.3 0.9-0.38 0.37-0.1 0.77-0.13 1.2-0.13h1.2v-0.5c0-0.2-0.04-0.37-0.11-0.52-0.06986-0.15063-0.17233-0.28384-0.3-0.39-0.14222-0.11376-0.30526-0.19868-0.48-0.25-0.20113-0.0593-0.4104-0.0863-0.62-0.08-0.21 0-0.4 0.02-0.58 0.08-0.17 0.05-0.3 0.13-0.43 0.22-0.11 0.09-0.2 0.2-0.27 0.32-0.06364 0.11669-0.09796 0.2471-0.1 0.38h-1.07c0-0.23 0.06-0.46 0.17-0.68 0.12-0.22 0.29-0.43 0.5-0.6 0.22-0.18 0.48-0.32 0.79-0.43 0.6688-0.21222 1.3853-0.22266 2.06-0.03 0.92816 0.20435 1.5716 1.051 1.52 2v2.94c0.0084 0.43942 0.08599 0.87477 0.23 1.29v0.09h-1.13zm-1.9-0.83c0.54985 1e-3 1.078-0.21442 1.47-0.6 0.11-0.12 0.2-0.24 0.26-0.36v-1.29h-1c-0.38 0-0.7 0.04-0.99 0.1-0.28 0.07-0.5 0.16-0.66 0.3-0.12 0.09-0.2 0.2-0.27 0.33-0.11205 0.27854-0.11562 0.58896-0.01 0.87 0.05234 0.13053 0.13454 0.24697 0.24 0.34 0.1 0.1 0.23 0.18 0.4 0.23 0.16 0.06 0.34 0.08 0.55 0.08zm6.89-7.53-0.13 2.17h-0.76v-2.81h0.89zm2.09 0-0.12 2.17h-0.76v-2.81h0.89zm5.36 7.66c0-0.23 0.07-0.43 0.2-0.6 0.15-0.16 0.36-0.24 0.64-0.24 0.29 0 0.5 0.08 0.64 0.25 0.15 0.16 0.23 0.35 0.23 0.59 0 0.23-0.08 0.42-0.23 0.58-0.15 0.15-0.36 0.23-0.64 0.23s-0.49-0.08-0.63-0.23c-0.14016-0.16022-0.2151-0.36719-0.21-0.58zm0-5.14c0-0.23 0.07-0.42 0.2-0.59 0.15-0.16 0.36-0.24 0.64-0.24 0.29 0 0.5 0.08 0.64 0.24 0.15 0.16 0.23 0.36 0.23 0.6 0 0.23-0.08 0.42-0.23 0.57-0.15 0.16-0.36 0.24-0.64 0.24s-0.49-0.08-0.63-0.24c-0.14016-0.16022-0.2151-0.36719-0.21-0.58zm14.17-2.52-0.12 2.17h-0.77l0.01-2.08v-0.73h0.88zm2.1 0-0.13 2.17h-0.76v-2.81h0.89zm7.24 6.15h-2.85l-0.68 2.21h-1.09l2.76-8.53h0.9l2.71 8.53h-1.08l-0.67-2.2zm-2.56-0.94h2.27l-1.12-3.7zm5.68 3.15v-8.53h2.54c0.35 0 0.7 0.05 1.03 0.14 0.34 0.08 0.63 0.22 0.9 0.4 0.26 0.19 0.47 0.42 0.62 0.7 0.26591 0.50631 0.30938 1.1004 0.12 1.64-0.0613 0.18063-0.15259 0.34966-0.27 0.5-0.13 0.14-0.26 0.27-0.4 0.37-0.15 0.1-0.33 0.2-0.54 0.29v0.01c0.4362 0.11798 0.82442 0.3698 1.11 0.72 0.28455 0.37312 0.43593 0.8308 0.43 1.3 0.0222 0.70227-0.28935 1.3736-0.84 1.81-0.27 0.21-0.57 0.37-0.91 0.48-0.34 0.1-0.7 0.17-1.06 0.17zm1.1-3.99v3.07h1.66c0.43064 4e-3 0.84875-0.1448 1.18-0.42 0.16-0.13 0.28-0.28 0.38-0.47 0.09-0.19 0.13-0.4 0.13-0.64 0.0147-0.42208-0.1529-0.83008-0.46-1.12-0.15285-0.13191-0.32929-0.23371-0.52-0.3-0.2-0.07-0.42-0.11-0.65-0.12h-1.73zm0-0.9h1.5c0.2 0 0.4-0.04 0.6-0.1s0.37-0.15 0.52-0.27c0.16-0.1 0.28-0.25 0.37-0.42 0.1-0.17 0.14-0.36 0.14-0.58 0.013-0.4047-0.17396-0.7899-0.5-1.03-0.16-0.1-0.34-0.18-0.54-0.23-0.20251-0.0525-0.4108-0.0794-0.62-0.08h-1.48v2.7zm11.65 2.32c-0.05 0.4-0.16 0.76-0.3 1.1-0.2815 0.642-0.80676 1.1457-1.46 1.4-0.34 0.12-0.72 0.19-1.13 0.19-0.91823 0.0268-1.7862-0.41848-2.3-1.18-0.48976-0.77778-0.74335-1.681-0.73-2.6v-1.2c-0.0128-0.91897 0.24077-1.822 0.73-2.6 0.51528-0.76101 1.3812-1.209 2.3-1.19 0.43 0 0.81 0.07 1.15 0.2 0.65996 0.24723 1.1836 0.76356 1.44 1.42 0.15 0.34 0.25 0.7 0.3 1.11h-1.09c-0.03-0.26-0.1-0.5-0.18-0.72-0.09-0.22-0.2-0.42-0.34-0.59-0.1485-0.16883-0.33305-0.30211-0.54-0.39-0.2-0.1-0.45-0.14-0.74-0.14-0.44029-7e-3 -0.86514 0.16215-1.18 0.47-0.15 0.14-0.27 0.3-0.37 0.5-0.20039 0.39631-0.32261 0.82749-0.36 1.27l-0.03 0.65v1.2l0.03 0.66c0.0613 0.43781 0.18244 0.86514 0.36 1.27 0.1 0.2 0.21 0.36 0.36 0.5 0.14 0.15 0.31 0.27 0.5 0.36 0.2 0.08 0.43 0.12 0.7 0.12 0.28 0 0.52-0.05 0.73-0.14s0.39-0.21 0.53-0.38c0.15-0.16 0.26-0.35 0.35-0.57s0.15-0.46 0.18-0.72zm5.2 2.57h-1.09v-7.15l-2.23 0.85v-0.99l3.23-1.24h0.08v8.53zm8.92 0h-5.6v-0.78l2.8-3.1 0.63-0.74c0.17-0.22 0.3-0.42 0.4-0.6 0.18236-0.3054 0.27908-0.65429 0.28-1.01 7.1e-4 -0.39636-0.14128-0.77973-0.4-1.08-0.2904-0.29307-0.68746-0.45551-1.1-0.45-0.29 0-0.53 0.04-0.75 0.13-0.40188 0.15414-0.70883 0.48698-0.83 0.9-0.06 0.2-0.1 0.45-0.1 0.71h-1.09c0-0.36 0.07-0.7 0.2-1.01 0.2508-0.6439 0.7579-1.1546 1.4-1.41 0.34-0.14 0.73-0.2 1.17-0.2 0.4 0 0.76 0.05 1.08 0.17 0.33 0.12 0.6 0.28 0.82 0.5 0.23 0.2 0.4 0.46 0.51 0.75 0.22506 0.54073 0.24638 1.1447 0.06 1.7-0.09 0.24-0.2 0.49-0.35 0.73s-0.32 0.48-0.52 0.72l-0.6 0.7-2.3 2.49h4.29zm3.24-4.79h0.77c0.28 0 0.51-0.03 0.72-0.1 0.21-0.08 0.39-0.18 0.53-0.31 0.15-0.13 0.25-0.29 0.33-0.47 0.1368-0.4049 0.14031-0.84297 0.01-1.25-0.0603-0.18163-0.16315-0.34621-0.3-0.48-0.13129-0.1209-0.28871-0.20987-0.46-0.26-0.41298-0.1324-0.85702-0.1324-1.27 0-0.36629 0.12198-0.65941 0.40045-0.8 0.76-0.07 0.18-0.1 0.38-0.1 0.6h-1.1c-3e-4 -0.63124 0.26458-1.2336 0.73-1.66 0.23-0.21 0.5-0.38 0.83-0.5 0.68703-0.24594 1.4363-0.25649 2.13-0.03 0.60904 0.17569 1.1033 0.62199 1.34 1.21 0.12 0.3 0.18 0.65 0.18 1.05-3e-3 0.3627-0.11093 0.71679-0.31 1.02-0.24215 0.37105-0.59069 0.66034-1 0.83 0.28 0.1 0.5 0.21 0.7 0.35 0.34234 0.25984 0.58292 0.63132 0.68 1.05 0.10828 0.5556 0.0598 1.1304-0.14 1.66-0.14 0.31-0.33 0.57-0.57 0.78-0.24 0.22-0.53 0.38-0.86 0.5-0.69276 0.22129-1.4372 0.22129-2.13 0-0.63045-0.17389-1.1553-0.61124-1.44-1.2-0.14213-0.31723-0.21051-0.66255-0.2-1.01h1.08c-0.0274 0.40854 0.13491 0.80692 0.44 1.08 0.14 0.13 0.3 0.23 0.5 0.3 0.21 0.07 0.43 0.1 0.68 0.1 0.22739 5e-3 0.45398-0.0288 0.67-0.1 0.2-0.06 0.37-0.16 0.5-0.29 0.15-0.13 0.26-0.3 0.33-0.5 0.17056-0.44554 0.1634-0.93959-0.02-1.38-0.0796-0.18949-0.20295-0.35742-0.36-0.49-0.17191-0.13241-0.36939-0.22775-0.58-0.28-0.24084-0.0675-0.48989-0.1011-0.74-0.1h-0.77zm7.88-3.57-0.13 2.17h-0.76l0.01-2.08v-0.73h0.88zm2.09 0-0.12 2.17h-0.76v-2.81h0.89zm-125.68 29.83c0.21637 0 0.4269-0.0702 0.6-0.2 0.16-0.12 0.29-0.28 0.39-0.48 0.1-0.19 0.16-0.4 0.2-0.65 0.04-0.24 0.06-0.48 0.06-0.72v-0.99c0-0.3 0.05-0.6 0.14-0.86 0.1354-0.39528 0.40409-0.73114 0.76-0.95 0.13-0.08 0.27-0.16 0.42-0.22-0.56029-0.18979-1.0002-0.62971-1.19-1.19-0.09021-0.27415-0.13414-0.56142-0.13-0.85v-1c0-0.23-0.01-0.47-0.04-0.71-0.01963-0.22683-0.07358-0.44936-0.16-0.66-0.16934-0.42142-0.58627-0.69002-1.04-0.67l0.12-0.68c0.64989-8e-3 1.2639 0.29714 1.65 0.82 0.2 0.27 0.33 0.57 0.42 0.91s0.13 0.67 0.13 1v1c0 0.23 0.03 0.44 0.07 0.61 0.05 0.18 0.11 0.33 0.2 0.46 0.13 0.19 0.31 0.32 0.54 0.4 0.23 0.09 0.5 0.13 0.82 0.13v0.85c-0.28 0-0.52 0.04-0.73 0.1-0.38745 0.10973-0.69027 0.41255-0.8 0.8-0.06 0.2-0.1 0.44-0.1 0.71v0.99c0 0.31-0.04 0.63-0.12 0.94-0.08131 0.3143-0.21666 0.61207-0.4 0.88-0.19 0.26-0.42 0.47-0.7 0.64-0.27 0.17-0.6 0.26-0.98 0.27zm268.76-144.82c-0.19057 0.19442-0.19057 0.50558 0 0.7l3.18 3.19c0.47156 0.39833 1.105-0.24414 0.7-0.71l-2.82-2.83 2.83-2.83c0.39833-0.47156-0.24414-1.105-0.71-0.7zm0.35 0.85h48v-1h-48zm-0.35 47.15c-0.19057 0.19442-0.19057 0.50558 0 0.7l3.18 3.19c0.47156 0.39833 1.105-0.24414 0.7-0.71l-2.82-2.83 2.83-2.83c0.39833-0.47156-0.24414-1.105-0.71-0.7zm0.35 0.85h48v-1h-48z" fill="#000"/>
 <g fill="#000000" font-family="'Noto Sans JP'" font-size="13.333px" text-anchor="middle">
  <text x="174.00368" y="39.791542" text-align="center" style="font-variation-settings:'wght' 700" xml:space="preserve"><tspan x="174.00368" y="39.791542" font-family="'Noto Sans JP'" font-size="13.333px" font-weight="500"></tspan></text>
  <text x="369.37521" y="114.78614" text-align="center" style="font-variation-settings:'wght' 700" xml:space="preserve"><tspan x="369.37521" y="114.78614" font-family="'Noto Sans JP'" font-size="13.333px" font-weight="500" text-align="start" text-anchor="start"></tspan></text>
  <text x="369.70456" y="163.00264" text-align="center" style="font-variation-settings:'wght' 700" xml:space="preserve"><tspan x="369.70456" y="163.00264" font-family="'Noto Sans JP'" font-size="13.333px" font-weight="500" text-align="start" text-anchor="start"></tspan></text>
 </g>
</svg>
