<?xml version="1.0" encoding="UTF-8"?>
<svg fill="none" version="1.1" viewBox="0 0 587 330" xmlns="http://www.w3.org/2000/svg">
 <path d="m370.13 113.35a0.5 0.5 0 0 0-0.30273 0.12304l-3.1797 3.1797a0.5 0.5 0 0 0 0 0.69922l3.1797 3.1894a0.5 0.5 0 0 0 0.69922-0.70898l-2.8184-2.8301 2.8281-2.8301a0.5 0.5 0 0 0-0.40625-0.82226zm-1.9219 3.1523-0.5 0.5 0.49804 0.5h46.791v-1zm1.9219 56.848c-0.11184 6e-3 -0.21845 0.0493-0.30273 0.12304l-3.1797 3.1797c-0.19006 0.19433-0.19006 0.50489 0 0.69922l3.1797 3.1894c0.47028 0.38538 1.0911-0.24409 0.69922-0.70898l-2.8184-2.8301 2.8281-2.8301c0.28231-0.33382 0.0304-0.84366-0.40625-0.82226zm-1.9219 3.1523-0.5 0.5 0.49804 0.5h46.791v-1z" stroke="#000"/>
 <rect x="21" y="54" width="337" height="240" rx="3" fill="#D9D9D9"/>
 <rect x="28" y="86" width="327" height="62" rx="5" fill="#DCB9F2" style="mix-blend-mode:darken"/>
 <path d="M38.37 81h-1.03v-3.94h-3.5V81h-1.01v-8.53h1.02v3.67h3.5v-3.67h1.02V81Zm7.61-7.6h-2.64V81H42.3v-7.6h-2.64v-.93h6.33v.92Zm7.2 0h-2.63V81H49.5v-7.6h-2.64v-.93h6.33v.92Zm2.64 4.18V81h-1.08v-8.53h2.77c.38 0 .74.07 1.08.18.34.11.64.28.9.5.26.2.46.47.61.79.15.32.23.68.23 1.09 0 .4-.08.77-.23 1.09a2.3 2.3 0 0 1-.6.79 2.98 2.98 0 0 1-1.99.67h-1.69Zm0-.9h1.69a1.8 1.8 0 0 0 1.24-.44 1.6 1.6 0 0 0 .5-1.2 1.73 1.73 0 0 0-.5-1.22 1.63 1.63 0 0 0-.55-.34 2.07 2.07 0 0 0-.7-.12h-1.68v3.33Zm7.46 5.05h-.98l3.57-9.26h.96l-3.55 9.26Zm9.29-.73h-1.08v-7.15l-2.24.85v-.99l3.23-1.24h.09V81Zm5.58-.7c0-.23.07-.43.2-.6.15-.16.36-.24.65-.24.28 0 .5.08.64.25.15.16.22.35.22.59a.8.8 0 0 1-.22.58c-.15.15-.36.23-.64.23s-.5-.08-.64-.23a.85.85 0 0 1-.21-.58Zm8.83.7H85.9v-7.15l-2.23.85v-.99l3.23-1.24h.08V81Zm16.13 0h-5.58v-.78l2.79-3.1.63-.74c.16-.22.3-.42.4-.6a1.98 1.98 0 0 0 .28-1.01 1.63 1.63 0 0 0-.4-1.08 1.23 1.23 0 0 0-.48-.32 1.9 1.9 0 0 0-1.37 0 1.38 1.38 0 0 0-.83.9c-.07.2-.1.45-.1.71h-1.09a2.6 2.6 0 0 1 1.6-2.42c.34-.14.73-.2 1.17-.2.4 0 .76.05 1.08.17a2.18 2.18 0 0 1 1.33 1.25 2.42 2.42 0 0 1 .05 1.7 4.31 4.31 0 0 1-.86 1.45l-.6.7-2.3 2.49h4.28V81Zm7.33-3.26a5.1 5.1 0 0 1-.18 1.44 3 3 0 0 1-.54 1.06c-.24.29-.52.5-.86.65a3.04 3.04 0 0 1-2.33.01 2.28 2.28 0 0 1-.88-.66 2.94 2.94 0 0 1-.54-1.06 5.1 5.1 0 0 1-.19-1.44v-2c0-.54.06-1.03.19-1.44a3 3 0 0 1 .54-1.07 2.42 2.42 0 0 1 2.03-.88c.44 0 .83.07 1.17.22.34.15.63.37.87.66.23.29.41.64.54 1.07.12.41.18.9.18 1.44v2Zm-4.43-.22 3.32-2.55a3.01 3.01 0 0 0-.17-.74c-.08-.22-.18-.4-.32-.55-.13-.15-.3-.26-.5-.33-.18-.08-.4-.11-.66-.11s-.49.04-.69.12c-.2.08-.36.2-.5.35-.16.19-.28.43-.36.74-.08.3-.12.65-.12 1.05v2.02Zm3.34.44v-1.95l-3.31 2.53c.03.29.1.54.19.76.09.22.2.4.35.53.13.14.3.24.48.3.19.08.4.1.63.1.25 0 .47-.03.66-.1.19-.08.35-.18.48-.33.18-.19.31-.44.4-.75.08-.3.13-.67.13-1.09Zm8.3-.22a5.1 5.1 0 0 1-.19 1.44 3 3 0 0 1-.53 1.06c-.24.29-.53.5-.87.65a3.09 3.09 0 0 1-2.33.01 2.28 2.28 0 0 1-.87-.66 2.94 2.94 0 0 1-.55-1.06 5.1 5.1 0 0 1-.18-1.44v-2c0-.54.06-1.03.18-1.44a3 3 0 0 1 .55-1.07c.23-.29.52-.5.86-.66.34-.15.73-.22 1.17-.22.43 0 .82.07 1.16.22.35.15.64.37.88.66.23.29.41.64.53 1.07.13.41.2.9.2 1.44v2Zm-4.43-.22 3.32-2.55a3.01 3.01 0 0 0-.17-.74c-.08-.22-.19-.4-.32-.55-.14-.15-.3-.26-.5-.33-.19-.08-.4-.11-.66-.11s-.49.04-.69.12c-.2.08-.36.2-.5.35-.16.19-.28.43-.37.74-.07.3-.11.65-.11 1.05v2.02Zm3.34.44v-1.95l-3.31 2.53c.03.29.1.54.18.76.1.22.21.4.35.53a1.58 1.58 0 0 0 1.12.4c.24 0 .46-.03.66-.1.19-.08.35-.18.48-.33.18-.19.31-.44.4-.75.08-.3.12-.67.12-1.09Zm15.7-.73a6.25 6.25 0 0 1-.3 1.82c-.1.29-.24.56-.4.8a2.56 2.56 0 0 1-2.27 1.26c-.35 0-.66-.05-.95-.15a2.58 2.58 0 0 1-.75-.45c-.22-.18-.4-.4-.57-.65a4.85 4.85 0 0 1-.7-2.63v-.98a4.91 4.91 0 0 1 .7-2.63 2.49 2.49 0 0 1 2.27-1.27 2.65 2.65 0 0 1 1.7.6c.22.2.41.41.57.67a4.08 4.08 0 0 1 .62 1.7c.05.32.08.63.08.93v.98Zm-1.07-.99a7.09 7.09 0 0 0-.16-1.3 3.55 3.55 0 0 0-.23-.6 2.5 2.5 0 0 0-.35-.54 1.54 1.54 0 0 0-1.17-.48 1.54 1.54 0 0 0-1.16.5c-.14.14-.26.32-.35.52a4.73 4.73 0 0 0-.4 1.9v.99l.05.63a4.54 4.54 0 0 0 .36 1.28c.1.2.2.38.35.52.14.16.3.28.5.37.19.09.41.13.66.13a1.56 1.56 0 0 0 1.18-.5c.13-.14.25-.32.34-.51a3.76 3.76 0 0 0 .34-1.28l.04-.64v-.99Zm4.77.8-.95 1.08V81h-1.1v-8.53h1.1v4.16l.83-1.03 2.5-3.13h1.32l-2.98 3.73 3.18 4.8h-1.32l-2.58-3.96Zm-98.48 21.8c0-.26-.06-.48-.18-.66a1.6 1.6 0 0 0-.45-.46c-.2-.12-.4-.22-.63-.3-.22-.08-.43-.16-.64-.22-.3-.1-.6-.22-.92-.35a4.3 4.3 0 0 1-.84-.5 2.7 2.7 0 0 1-.64-.71c-.16-.27-.24-.6-.24-.96a2 2 0 0 1 .24-.99c.17-.29.38-.53.64-.73a3.3 3.3 0 0 1 2.96-.42c.35.12.66.3.92.51a2.42 2.42 0 0 1 .9 1.87h-1.12c-.03-.24-.1-.46-.18-.66a1.53 1.53 0 0 0-.9-.86 2.15 2.15 0 0 0-1.3-.04c-.19.06-.36.15-.52.27-.15.12-.28.26-.37.43a1.27 1.27 0 0 0 .05 1.23c.12.17.28.3.46.42.19.12.39.22.6.3l.62.2c.31.1.63.22.95.36.31.14.6.31.86.53.26.2.47.44.63.73.16.29.24.62.24 1a2 2 0 0 1-.92 1.71c-.27.2-.57.34-.91.44a3.85 3.85 0 0 1-2.22-.07 3 3 0 0 1-1.64-1.37c-.15-.3-.23-.63-.24-1h1.1c.04.26.12.5.23.7a1.79 1.79 0 0 0 1.01.84 2.49 2.49 0 0 0 1.36.04c.2-.05.39-.14.55-.25a1.18 1.18 0 0 0 .54-1.03Zm5.55 2.28c-.45 0-.86-.08-1.23-.23a2.8 2.8 0 0 1-1.58-1.61 3.3 3.3 0 0 1-.22-1.23v-.24a3.43 3.43 0 0 1 .9-2.41 2.85 2.85 0 0 1 1.99-.86 2.5 2.5 0 0 1 2.05.89c.22.28.4.61.5 1 .11.37.17.78.17 1.22v.5h-4.53v.03c.03.31.09.58.18.82a2.06 2.06 0 0 0 1.02 1.07 2.2 2.2 0 0 0 2.58-.7l.67.52c-.21.32-.53.6-.95.86a3.1 3.1 0 0 1-1.55.37Zm-.14-5.69c-.22 0-.43.04-.62.13-.2.07-.38.19-.53.34-.16.16-.3.35-.4.58-.1.22-.18.48-.22.77h3.4v-.05c0-.2-.03-.4-.1-.63a1.82 1.82 0 0 0-.31-.59 1.5 1.5 0 0 0-1.22-.55Zm8.7-.89a4.91 4.91 0 0 1 1.11.16l-.15 1.06a5.25 5.25 0 0 0-1.2-.14c-.26 0-.5.03-.71.1a1.65 1.65 0 0 0-.94.69c-.11.15-.2.33-.27.52V101h-1.09v-6.34h1.03l.05.85v.16c.26-.35.57-.62.93-.82.36-.2.78-.3 1.24-.3ZM56.8 101l-2.6-6.34h1.1l1.83 4.78.1.4.1-.4 1.78-4.78h1.1L57.63 101h-.83Zm7.85.12c-.45 0-.86-.08-1.23-.23a2.8 2.8 0 0 1-1.58-1.61 3.3 3.3 0 0 1-.22-1.23v-.24c0-.52.08-.97.25-1.37a2.85 2.85 0 0 1 2.64-1.9 2.5 2.5 0 0 1 2.05.89c.23.28.4.61.5 1 .12.37.17.78.17 1.22v.5H62.7v.03c.03.31.1.58.18.82a2.06 2.06 0 0 0 1.02 1.07 2.2 2.2 0 0 0 2.58-.7l.67.52c-.21.32-.53.6-.95.86-.42.24-.93.37-1.55.37Zm-.14-5.69c-.22 0-.43.04-.62.13-.2.07-.37.19-.53.34-.16.16-.29.35-.4.58-.1.22-.18.48-.22.77h3.4v-.05c0-.2-.03-.4-.1-.63a1.82 1.82 0 0 0-.31-.59 1.5 1.5 0 0 0-1.22-.55Zm8.7-.89a4.91 4.91 0 0 1 1.11.16l-.14 1.06a5.25 5.25 0 0 0-1.2-.14c-.27 0-.5.03-.72.1a1.65 1.65 0 0 0-.94.69c-.1.15-.2.33-.27.52V101h-1.09v-6.34H71l.05.85v.16c.26-.35.57-.62.93-.82.37-.2.78-.3 1.24-.3Zm5.23 5.76c0-.23.07-.43.21-.6.14-.16.36-.24.64-.24s.5.08.64.25c.15.16.22.35.22.59a.8.8 0 0 1-.22.58c-.15.15-.36.23-.64.23s-.5-.08-.64-.23a.85.85 0 0 1-.2-.58Zm0-5.14c0-.23.07-.42.21-.59.14-.16.36-.24.64-.24s.5.08.64.24c.15.16.22.36.22.6 0 .22-.07.42-.22.57-.15.16-.36.24-.64.24s-.5-.08-.64-.24a.85.85 0 0 1-.2-.58Zm16.3 3.63H91.9l-.69 2.21h-1.08l2.75-8.53h.91L96.5 101h-1.08l-.67-2.2Zm-2.55-.94h2.27l-1.12-3.7-1.15 3.7Zm5.69 5.59v-8.78h.99l.05.7a2 2 0 0 1 1.15-.74 2.68 2.68 0 0 1 1.73.16c.31.16.58.39.79.67.2.29.37.63.48 1.03.1.4.16.82.16 1.3v.12c0 .45-.05.88-.16 1.27-.11.4-.27.73-.48 1.02a2.23 2.23 0 0 1-1.85.93 2.9 2.9 0 0 1-.68-.08 2.25 2.25 0 0 1-.85-.4 2.41 2.41 0 0 1-.25-.25v3.05h-1.08Zm4.27-5.66c0-.31-.04-.6-.1-.88a2.3 2.3 0 0 0-.32-.75 1.64 1.64 0 0 0-.54-.5 1.79 1.79 0 0 0-1.25-.13c-.15.04-.27.1-.39.17a1.4 1.4 0 0 0-.33.28c-.1.1-.18.23-.26.36v3.05c.07.12.14.23.23.33s.18.19.3.26a1.62 1.62 0 0 0 .92.26 1.5 1.5 0 0 0 1.32-.7c.14-.22.25-.46.31-.74.07-.29.1-.58.1-.89v-.12Zm7.1 3.22a1.29 1.29 0 0 1-.1-.3 3.94 3.94 0 0 1-.05-.4 3.08 3.08 0 0 1-.81.58 2.85 2.85 0 0 1-1.1.24c-.34 0-.65-.05-.92-.15-.27-.1-.5-.23-.69-.4a1.71 1.71 0 0 1-.6-1.33 2 2 0 0 1 .2-.91c.15-.26.35-.48.6-.66.25-.17.56-.3.91-.38.37-.1.77-.13 1.2-.13h1.19v-.5c0-.2-.03-.37-.1-.52a1.14 1.14 0 0 0-.3-.39 1.4 1.4 0 0 0-.48-.25 2.03 2.03 0 0 0-.62-.08 1.77 1.77 0 0 0-1.01.29c-.11.1-.2.2-.27.33a.81.81 0 0 0-.1.38h-1.09c0-.23.07-.46.18-.68.12-.22.28-.43.5-.6.22-.18.48-.32.79-.43a3.58 3.58 0 0 1 2.06-.03 1.93 1.93 0 0 1 1.52 2v2.94a4.18 4.18 0 0 0 .23 1.29v.09h-1.13Zm-1.91-.83a2.1 2.1 0 0 0 1.48-.6c.11-.12.2-.24.26-.36v-1.29h-1c-.38 0-.71.04-1 .1-.27.07-.49.16-.65.3a.86.86 0 0 0-.27.33c-.06.13-.1.28-.1.44 0 .16.03.3.08.43a.9.9 0 0 0 .25.34c.1.1.23.18.4.23.15.06.34.08.55.08Zm7.66.07a1.76 1.76 0 0 0 1.06-.36c.15-.1.26-.24.35-.39a1 1 0 0 0 .14-.49h1.03c0 .28-.08.55-.23.81-.14.25-.33.48-.56.67a2.92 2.92 0 0 1-3.05.38 2.5 2.5 0 0 1-.9-.7 2.93 2.93 0 0 1-.54-1 3.98 3.98 0 0 1-.19-1.2v-.25c0-.42.07-.82.19-1.2.12-.39.3-.72.54-1.02.24-.29.54-.52.9-.69a2.9 2.9 0 0 1 1.26-.26 2.83 2.83 0 0 1 1.85.67 2.26 2.26 0 0 1 .73 1.63h-1.03a1.43 1.43 0 0 0-.94-1.3 1.64 1.64 0 0 0-.61-.1 1.6 1.6 0 0 0-1.4.72c-.14.22-.24.46-.3.73a3.8 3.8 0 0 0-.1.82v.24c0 .28.03.56.1.83.06.27.16.51.3.73.13.21.32.4.54.53.23.13.52.2.86.2Zm5.59-4.64a2.33 2.33 0 0 1 .62-.64c.19-.13.4-.24.61-.3a2.56 2.56 0 0 1 1.63.03c.27.1.5.24.7.44.19.2.33.47.43.78.1.3.16.67.16 1.1V101h-1.08v-4c0-.25-.03-.47-.09-.66a1.13 1.13 0 0 0-.26-.47 1.1 1.1 0 0 0-.45-.3c-.19-.08-.4-.11-.64-.1a1.86 1.86 0 0 0-1.37.58c-.1.1-.18.22-.26.34V101h-1.09v-9h1.09v3.6Zm8.92 5.52c-.44 0-.85-.08-1.23-.23a2.81 2.81 0 0 1-1.58-1.61 3.3 3.3 0 0 1-.22-1.23v-.24a3.45 3.45 0 0 1 .91-2.41 2.84 2.84 0 0 1 1.98-.86c.46 0 .86.08 1.2.24a2.41 2.41 0 0 1 1.35 1.65c.12.37.18.78.18 1.22v.5h-4.53v.03c.02.31.08.58.18.82a2.09 2.09 0 0 0 1.02 1.07 2.21 2.21 0 0 0 2.58-.7l.66.52c-.2.32-.52.6-.95.86-.41.24-.93.37-1.55.37Zm-.14-5.69c-.22 0-.43.04-.62.13-.2.07-.37.19-.53.34a2.29 2.29 0 0 0-.62 1.35h3.41v-.05c0-.2-.03-.4-.11-.63a1.81 1.81 0 0 0-.31-.59 1.5 1.5 0 0 0-1.22-.55ZM32.91 121v-8.53h1.97a4.5 4.5 0 0 1 1.76.37 3.2 3.2 0 0 1 1.57 1.53 5.2 5.2 0 0 1 .45 2.05v.63a4.93 4.93 0 0 1-.43 2 3.34 3.34 0 0 1-2.2 1.8c-.36.1-.74.15-1.15.15h-1.97Zm1.1-7.64v6.75h.87c.32 0 .6-.04.85-.11a2.36 2.36 0 0 0 1.6-1.53c.08-.2.14-.42.18-.66.04-.25.06-.5.06-.76v-.64a4.77 4.77 0 0 0-.25-1.44c-.1-.28-.25-.53-.43-.74a1.9 1.9 0 0 0-.65-.54c-.18-.1-.39-.18-.61-.24a3.19 3.19 0 0 0-.75-.1h-.87ZM44.39 121a1.26 1.26 0 0 1-.1-.3 4.04 4.04 0 0 1-.06-.4 2.98 2.98 0 0 1-.8.58 2.84 2.84 0 0 1-1.11.24c-.34 0-.64-.05-.92-.15-.27-.1-.5-.23-.68-.4a1.71 1.71 0 0 1-.6-1.33c0-.34.07-.65.2-.91.15-.26.34-.48.6-.66.25-.17.56-.3.91-.39.36-.08.76-.12 1.2-.12h1.19v-.5c0-.2-.04-.36-.1-.52a1.12 1.12 0 0 0-.3-.39 1.4 1.4 0 0 0-.48-.25c-.19-.06-.4-.08-.62-.08-.22 0-.41.02-.58.08-.17.05-.31.13-.43.22s-.21.2-.28.32a.82.82 0 0 0-.09.38h-1.09a1.77 1.77 0 0 1 .68-1.28c.21-.18.48-.32.78-.43a3.56 3.56 0 0 1 2.06-.03 1.94 1.94 0 0 1 1.52 2v2.94a4.17 4.17 0 0 0 .23 1.29v.09H44.4Zm-1.91-.83a2.09 2.09 0 0 0 1.48-.6c.1-.12.2-.24.26-.36v-1.29H43.2c-.38 0-.7.04-.99.1-.27.07-.5.16-.66.3-.11.09-.2.2-.27.33-.06.13-.08.28-.08.44 0 .16.02.3.07.43a.9.9 0 0 0 .24.34c.1.1.24.18.4.23.16.06.35.08.56.08Zm7.52-7.05v1.54h2.41v.84H50v3.44c0 .25.03.45.1.61a.94.94 0 0 0 .63.59c.14.04.3.06.45.06a4.15 4.15 0 0 0 1.06-.13l.26-.06.15.77c-.09.05-.2.1-.32.14a4.32 4.32 0 0 1-2.2.08 1.65 1.65 0 0 1-.64-.39 1.8 1.8 0 0 1-.43-.67c-.1-.27-.15-.6-.15-1v-3.44h-1.66v-.84h1.66v-1.53H50Zm7.44 8c-.44 0-.85-.08-1.23-.23a2.8 2.8 0 0 1-1.58-1.61 3.3 3.3 0 0 1-.22-1.23v-.24c0-.52.08-.97.25-1.37a2.84 2.84 0 0 1 3.84-1.65c.34.15.63.37.85.64.23.28.4.61.5 1 .12.37.18.78.18 1.22v.5H55.5v.03c.02.31.08.58.18.82a2.06 2.06 0 0 0 1.02 1.07 2.2 2.2 0 0 0 2.58-.7l.66.52c-.2.32-.52.6-.95.86-.41.24-.93.37-1.55.37Zm-.14-5.69c-.22 0-.42.04-.62.13-.2.08-.37.19-.53.34a2.1 2.1 0 0 0-.4.58c-.1.22-.18.48-.22.77h3.41v-.05a2 2 0 0 0-.11-.63 1.83 1.83 0 0 0-.31-.59 1.5 1.5 0 0 0-1.22-.55Zm6.73 4.87c0-.23.07-.43.2-.6.15-.16.36-.24.65-.24.28 0 .5.08.64.25.14.16.22.35.22.59 0 .23-.08.42-.22.58a.88.88 0 0 1-.64.23c-.28 0-.5-.08-.64-.23a.85.85 0 0 1-.21-.58Zm0-5.14c0-.23.07-.42.2-.59.15-.16.36-.24.65-.24.28 0 .5.08.64.24.14.16.22.36.22.6a.8.8 0 0 1-.22.57.84.84 0 0 1-.64.24c-.28 0-.5-.08-.64-.24a.85.85 0 0 1-.21-.58ZM81 117.23h-3.55V121h-1.1v-8.53h5.24v.92h-4.14v2.92H81v.92Zm6.61-2.69a4.99 4.99 0 0 1 1.12.15l-.15 1.07a5.32 5.32 0 0 0-1.2-.14c-.26 0-.5.03-.72.1a1.65 1.65 0 0 0-.94.69c-.1.15-.2.33-.26.52V121h-1.1v-6.34h1.04l.05.85v.16c.26-.35.57-.62.93-.82.36-.2.77-.3 1.23-.3Zm3.23.12h3.24v5.4h2.06v.94h-5.3v-.94H93v-4.46h-2.15v-.94Zm2.01-1.66c0-.1.02-.19.04-.27a.56.56 0 0 1 .34-.33.77.77 0 0 1 .27-.04c.1 0 .2.01.27.04.08.03.14.07.2.12.06.06.1.13.14.2.03.09.04.18.04.28 0 .17-.05.32-.16.44-.11.11-.27.17-.49.17a.7.7 0 0 1-.5-.17.64.64 0 0 1-.15-.44Zm7.77 7.75c0 .39-.1.79-.27 1.2a3 3 0 0 1-.75 1.02l-.67-.37c.19-.27.32-.56.4-.87.07-.31.11-.63.11-.96v-1.05h1.18v1.03Zm16.9.25h-5.6v-.78l2.8-3.1.63-.74c.17-.22.3-.42.4-.6a1.99 1.99 0 0 0 .28-1.01 1.62 1.62 0 0 0-.4-1.08 1.25 1.25 0 0 0-.47-.33 2.05 2.05 0 0 0-1.37 0 1.38 1.38 0 0 0-.84.9c-.06.22-.1.46-.1.72h-1.08c0-.36.06-.7.18-1.01a2.57 2.57 0 0 1 1.4-1.4c.35-.15.74-.22 1.18-.22.4 0 .77.06 1.08.18.33.12.6.28.82.5.23.2.4.46.52.75a2.42 2.42 0 0 1 .05 1.7 4.4 4.4 0 0 1-.86 1.45l-.61.7-2.3 2.48h4.29v.89Zm5.49 0h-1.08v-7.15l-2.24.85v-.99l3.23-1.24h.09V121Zm14.9-8.53h1.1v5.93a2.84 2.84 0 0 1-.8 1.95 2.66 2.66 0 0 1-1.96.77c-.4 0-.77-.06-1.1-.18a2.47 2.47 0 0 1-1.42-1.33 3.3 3.3 0 0 1-.27-1.08h1.1a2 2 0 0 0 .15.66c.08.2.2.38.34.53a1.65 1.65 0 0 0 1.2.48c.25 0 .48-.05.69-.14a1.64 1.64 0 0 0 .84-.96c.08-.22.12-.45.13-.7v-5.93Zm7.38 8.53-.06-.87c-.21.3-.48.55-.8.73a2.56 2.56 0 0 1-2 .1c-.26-.1-.5-.26-.68-.48-.2-.22-.34-.5-.45-.83a4.3 4.3 0 0 1-.15-1.22v-3.77h1.08v3.78c0 .34.03.63.09.86.05.22.13.4.24.53a.9.9 0 0 0 .4.3 2.36 2.36 0 0 0 1.2 0c.2-.07.36-.15.5-.25a1.77 1.77 0 0 0 .53-.67v-4.55h1.09V121h-.99Zm3.03 0v-6.34h.97l.08.94a2.79 2.79 0 0 1 .66-.66 2.47 2.47 0 0 1 1.31-.4c.34 0 .64.05.9.14.28.1.51.24.7.44.2.2.34.46.45.77.1.3.15.66.15 1.08V121h-1.08v-4c0-.28-.03-.52-.1-.72-.06-.2-.15-.35-.27-.47a1.24 1.24 0 0 0-.46-.27 2.05 2.05 0 0 0-1.16.01c-.17.06-.33.13-.48.23a2.14 2.14 0 0 0-.58.67V121h-1.09Zm19.65 0h-5.6v-.78l2.8-3.1.63-.74c.17-.22.3-.42.4-.6a1.98 1.98 0 0 0 .28-1.01 1.65 1.65 0 0 0-.4-1.08 1.33 1.33 0 0 0-.47-.33 2.05 2.05 0 0 0-1.37 0 1.38 1.38 0 0 0-.84.9c-.06.22-.1.46-.1.72h-1.09c0-.36.07-.7.2-1.01a2.49 2.49 0 0 1 1.4-1.41c.34-.14.73-.2 1.17-.2.4 0 .76.05 1.08.17.33.12.6.28.83.5a2.42 2.42 0 0 1 .56 2.45 4.4 4.4 0 0 1-.86 1.45l-.61.7-2.3 2.48h4.29v.89Zm7.33-3.26a5.1 5.1 0 0 1-.19 1.44c-.12.42-.3.77-.54 1.06-.23.29-.52.5-.86.66a2.9 2.9 0 0 1-1.16.22c-.44 0-.83-.08-1.17-.22a2.26 2.26 0 0 1-.87-.66 2.92 2.92 0 0 1-.55-1.06 5.1 5.1 0 0 1-.19-1.44v-2c0-.55.07-1.02.2-1.44.12-.42.3-.78.54-1.07.23-.29.52-.5.86-.66.34-.15.73-.22 1.16-.22.44 0 .83.07 1.17.22.34.15.63.37.87.66.24.29.42.64.54 1.07.13.42.19.9.19 1.44v2Zm-4.44-.22 3.32-2.55a3 3 0 0 0-.16-.74c-.08-.22-.19-.4-.33-.55-.13-.15-.3-.26-.49-.33a1.71 1.71 0 0 0-.67-.11c-.25 0-.48.04-.68.12-.2.08-.36.2-.5.34-.17.2-.29.44-.37.75-.08.3-.12.65-.12 1.05v2.02Zm3.35.45V116l-3.32 2.53c.04.29.1.54.19.76.09.22.2.4.35.53.13.14.3.24.48.3.19.08.4.1.64.1s.46-.03.65-.1c.2-.08.35-.19.49-.32.18-.2.3-.45.39-.75a4 4 0 0 0 .13-1.1Zm8.17 3.03h-5.59v-.78l2.8-3.1.63-.74c.16-.22.3-.42.4-.6a1.98 1.98 0 0 0 .28-1.01 1.65 1.65 0 0 0-.4-1.08 1.52 1.52 0 0 0-1.1-.45c-.3 0-.54.04-.75.13a1.36 1.36 0 0 0-.83.9c-.07.2-.1.45-.1.71h-1.1c0-.36.07-.7.2-1.01a2.49 2.49 0 0 1 1.4-1.41c.35-.14.74-.2 1.17-.2.4 0 .77.05 1.09.17.32.12.6.28.82.5a2.42 2.42 0 0 1 .56 2.45c-.09.24-.2.48-.34.73-.15.24-.32.48-.52.72l-.61.7-2.3 2.48h4.3v.89Zm6.37-2.86h1.2v.88h-1.2V121h-1.08v-1.98h-3.9v-.64l3.83-5.91h1.15v5.67Zm-3.77 0h2.69v-4.23l-.18.33-2.51 3.9Zm17.3 2.86h-1.08v-7.15l-2.23.85v-.99l3.23-1.24h.09V121Zm8.93 0h-5.59v-.78l2.8-3.1c.25-.28.45-.53.62-.74.17-.22.3-.42.4-.6a1.98 1.98 0 0 0 .28-1.01 1.65 1.65 0 0 0-.39-1.08 1.52 1.52 0 0 0-1.1-.45c-.3 0-.54.04-.75.13a1.36 1.36 0 0 0-.83.9c-.07.2-.1.45-.1.71h-1.1c0-.36.07-.7.2-1.01a2.49 2.49 0 0 1 1.4-1.41c.34-.14.73-.2 1.17-.2.4 0 .77.05 1.09.17.32.12.6.28.82.5a2.4 2.4 0 0 1 .56 2.45c-.09.24-.2.48-.35.73a6.7 6.7 0 0 1-.51.72l-.61.7-2.3 2.48h4.3v.89Zm4.16-.7a.9.9 0 0 1 .2-.6c.15-.16.36-.24.64-.24.29 0 .5.08.64.25.15.16.23.35.23.59a.8.8 0 0 1-.23.58c-.15.15-.36.23-.64.23s-.49-.08-.63-.23a.85.85 0 0 1-.22-.58Zm0-5.14c0-.23.06-.42.2-.59.15-.16.36-.24.64-.24.29 0 .5.08.64.24.15.16.23.36.23.6a.8.8 0 0 1-.23.57c-.15.16-.36.24-.64.24s-.49-.08-.63-.24a.85.85 0 0 1-.22-.58Zm5.4 1.56.44-4.25h4.37v1.05h-3.46l-.24 2.28a2.71 2.71 0 0 1 1.42-.37c.4 0 .75.07 1.06.2a2.27 2.27 0 0 1 1.3 1.48 3.76 3.76 0 0 1 .01 2.3 2.3 2.3 0 0 1-1.33 1.5c-.33.14-.73.2-1.18.2a3.2 3.2 0 0 1-.99-.14 2.44 2.44 0 0 1-1.41-1.18c-.16-.3-.25-.64-.3-1.03h1.04c.07.48.24.85.53 1.1.3.25.67.37 1.13.37a1.39 1.39 0 0 0 1.19-.53c.13-.17.23-.37.3-.61a2.79 2.79 0 0 0-.01-1.54 1.55 1.55 0 0 0-.86-1 1.7 1.7 0 0 0-.73-.15 2.38 2.38 0 0 0-.82.15c-.1.04-.2.1-.3.17-.1.06-.19.14-.28.22l-.87-.22Zm12.06 4.28h-5.59v-.78l2.8-3.1c.25-.28.46-.53.62-.74.17-.22.3-.42.4-.6a1.98 1.98 0 0 0 .28-1.01 1.65 1.65 0 0 0-.39-1.08 1.52 1.52 0 0 0-1.1-.45c-.3 0-.54.04-.75.13a1.36 1.36 0 0 0-.83.9c-.07.2-.1.45-.1.71h-1.1c0-.36.07-.7.2-1.01.12-.32.3-.6.54-.84.24-.24.52-.43.86-.57.34-.14.74-.2 1.17-.2.4 0 .77.05 1.09.17.32.12.6.28.82.5a2.42 2.42 0 0 1 .56 2.45c-.09.24-.2.48-.34.73a6.7 6.7 0 0 1-.52.72l-.61.7-2.3 2.48h4.3v.89Zm4.16-.7c0-.23.07-.43.2-.6.15-.16.36-.24.65-.24.28 0 .49.08.63.25.15.16.23.35.23.59a.8.8 0 0 1-.23.58c-.14.15-.36.23-.63.23-.29 0-.5-.08-.64-.23a.85.85 0 0 1-.21-.58Zm0-5.14c0-.23.07-.42.2-.59.15-.16.36-.24.65-.24.28 0 .49.08.63.24.15.16.23.36.23.6a.8.8 0 0 1-.23.57c-.14.16-.36.24-.63.24-.29 0-.5-.08-.64-.24a.85.85 0 0 1-.21-.58Zm6.29 1.05h.77c.28 0 .52-.03.72-.1.21-.08.4-.18.54-.31s.24-.29.32-.47a1.97 1.97 0 0 0 .01-1.25 1.2 1.2 0 0 0-.3-.47 1.16 1.16 0 0 0-.46-.27 2.15 2.15 0 0 0-1.27 0 1.31 1.31 0 0 0-.8.76c-.07.18-.1.38-.1.6h-1.1a2.27 2.27 0 0 1 1.56-2.16 3.29 3.29 0 0 1 2.13-.03c.31.1.58.25.8.46.24.2.41.45.54.75.12.3.18.65.18 1.05a1.82 1.82 0 0 1-.3 1.02 2.2 2.2 0 0 1-1 .83c.27.1.5.21.68.35a1.84 1.84 0 0 1 .68 1.05 2.63 2.63 0 0 1-.13 1.66c-.14.31-.33.57-.57.78-.24.22-.53.38-.86.5a3.5 3.5 0 0 1-2.13 0 2.5 2.5 0 0 1-.85-.46c-.25-.2-.44-.45-.58-.75a2.2 2.2 0 0 1-.22-1h1.09c0 .22.04.43.11.6a1.34 1.34 0 0 0 .84.78 2.25 2.25 0 0 0 1.34.01 1.3 1.3 0 0 0 .83-.8 1.86 1.86 0 0 0-.02-1.38 1.3 1.3 0 0 0-.36-.49 1.58 1.58 0 0 0-.58-.28c-.22-.07-.47-.1-.74-.1h-.77v-.88Zm7.1 3.83c.55 0 1-.07 1.37-.2a2.22 2.22 0 0 0 1.43-1.5c.1-.33.15-.68.17-1.04l-.32.33a2.22 2.22 0 0 1-1.52.52 2.3 2.3 0 0 1-1.1-.25 2.3 2.3 0 0 1-.76-.66c-.2-.27-.34-.57-.44-.91a3.83 3.83 0 0 1 .03-2.16c.11-.36.28-.68.5-.95.22-.26.5-.47.82-.63.33-.16.72-.24 1.16-.24a2.46 2.46 0 0 1 1.95.89c.26.3.45.7.58 1.17.13.46.2.93.2 1.4v.38c0 .67-.08 1.33-.22 2a3.79 3.79 0 0 1-.9 1.77c-.28.31-.66.56-1.16.76-.49.19-1.08.29-1.78.29h-.12v-.97h.12Zm1.3-2.79a1.63 1.63 0 0 0 1.02-.35 2.05 2.05 0 0 0 .66-.9v-.34c0-.38-.04-.72-.13-1.02-.09-.3-.2-.55-.35-.75a1.8 1.8 0 0 0-.53-.47c-.2-.11-.4-.17-.63-.17a1.45 1.45 0 0 0-1.17.57c-.13.18-.23.4-.3.64a2.82 2.82 0 0 0 .27 2.16 1.34 1.34 0 0 0 1.16.63Zm17.47 2.63a3.97 3.97 0 0 1-.88.76 3.79 3.79 0 0 1-2.85.32 2.93 2.93 0 0 1-1.4-1.07 4.56 4.56 0 0 1-.8-2.66v-.99a4.97 4.97 0 0 1 .74-2.65 2.76 2.76 0 0 1 1.34-1.08 3.14 3.14 0 0 1 2.07.03 2.6 2.6 0 0 1 1.5 1.35c.14.32.24.68.27 1.08h-1.07a3 3 0 0 0-.2-.68 1.57 1.57 0 0 0-.88-.88 1.8 1.8 0 0 0-.7-.13 1.65 1.65 0 0 0-1.21.48 1.9 1.9 0 0 0-.37.52 3.54 3.54 0 0 0-.38 1.3c-.03.22-.04.44-.04.65v1a5.6 5.6 0 0 0 .21 1.34c.07.22.16.42.27.62a1.95 1.95 0 0 0 .93.87c.2.09.44.13.7.14a3.85 3.85 0 0 0 .93-.11c.15-.05.3-.11.43-.2.13-.07.24-.18.33-.3l.01-1.92h-1.73v-.92h2.77l.01 3.13Zm2.88-7.41 1.39 4.26 1.5-4.26h1.35V121h-1.06v-3.4l.1-3.57-1.59 4.6h-.62l-1.44-4.47.08 3.44v3.4h-1.05v-8.53h1.34Zm11.77.92h-2.63V121h-1.06v-7.6h-2.64v-.93h6.33v.92ZM38.54 138.44c-.05.4-.15.76-.3 1.1a2.64 2.64 0 0 1-1.46 1.4c-.34.12-.7.19-1.12.19a2.69 2.69 0 0 1-2.3-1.18 4.7 4.7 0 0 1-.73-2.6v-1.2a4.7 4.7 0 0 1 .73-2.6 2.72 2.72 0 0 1 2.3-1.19c.43 0 .8.07 1.14.2a2.49 2.49 0 0 1 1.45 1.42c.15.34.25.7.3 1.11h-1.09a3.2 3.2 0 0 0-.18-.72 2 2 0 0 0-.35-.59 1.5 1.5 0 0 0-.53-.39c-.2-.1-.45-.14-.74-.14a1.62 1.62 0 0 0-1.18.47 2 2 0 0 0-.37.5 4.63 4.63 0 0 0-.4 1.92v1.2a6.35 6.35 0 0 0 .17 1.31c.06.22.14.43.23.62.1.2.21.36.36.5.14.15.31.27.5.36.2.08.43.12.7.12.28 0 .52-.05.73-.14.21-.09.39-.21.53-.38.15-.16.26-.35.35-.57.09-.22.15-.46.18-.72h1.08ZM44.4 141a1.26 1.26 0 0 1-.1-.3 4.04 4.04 0 0 1-.06-.4 2.98 2.98 0 0 1-.8.58 2.84 2.84 0 0 1-1.11.24c-.34 0-.64-.05-.92-.15-.27-.1-.5-.23-.68-.4a1.71 1.71 0 0 1-.6-1.33c0-.34.07-.65.2-.91.15-.26.34-.48.6-.66.25-.17.56-.3.91-.38.36-.1.76-.13 1.2-.13h1.19v-.5c0-.2-.04-.37-.1-.52a1.12 1.12 0 0 0-.3-.39 1.4 1.4 0 0 0-.48-.25c-.19-.06-.4-.08-.62-.08-.22 0-.41.02-.58.08-.17.05-.31.13-.43.22s-.21.2-.28.32a.82.82 0 0 0-.09.38h-1.09a1.77 1.77 0 0 1 .68-1.28c.21-.18.48-.32.78-.43a3.56 3.56 0 0 1 2.06-.03 1.94 1.94 0 0 1 1.52 2v2.94a4.17 4.17 0 0 0 .23 1.29v.09H44.4Zm-1.91-.83a2.09 2.09 0 0 0 1.48-.6c.1-.12.2-.24.26-.36v-1.29H43.2c-.38 0-.7.04-.99.1-.27.07-.5.16-.66.3-.11.09-.2.2-.27.33-.06.13-.08.28-.08.44 0 .16.02.3.07.43a.9.9 0 0 0 .24.34c.1.1.24.18.4.23.16.06.35.08.56.08Zm7.65.07a1.76 1.76 0 0 0 1.07-.36c.15-.1.26-.24.35-.39a1 1 0 0 0 .14-.49h1.02c0 .28-.08.55-.22.81-.14.25-.33.48-.57.67a2.92 2.92 0 0 1-3.05.38c-.35-.17-.65-.4-.9-.7a2.93 2.93 0 0 1-.54-1 3.98 3.98 0 0 1-.18-1.2v-.25c0-.42.06-.82.18-1.2.12-.39.3-.72.55-1.02.24-.29.54-.52.9-.69.35-.17.77-.26 1.25-.26a2.83 2.83 0 0 1 1.86.67 2.25 2.25 0 0 1 .72 1.63H51.7c0-.2-.05-.37-.13-.54a1.42 1.42 0 0 0-.82-.76c-.18-.07-.39-.1-.6-.1a1.6 1.6 0 0 0-1.41.72 2.3 2.3 0 0 0-.3.73c-.06.27-.09.54-.09.82v.24c0 .28.03.56.09.83.06.27.16.51.3.73.14.22.32.4.55.53.23.13.51.2.85.2Zm5.6-4.64a2.27 2.27 0 0 1 .62-.63c.18-.14.39-.25.61-.32a2.57 2.57 0 0 1 1.62.04 1.74 1.74 0 0 1 1.14 1.22c.1.3.16.67.16 1.1V141H58.8v-4c0-.25-.02-.47-.08-.66a1.25 1.25 0 0 0-.26-.47 1.1 1.1 0 0 0-.46-.3c-.18-.08-.4-.11-.63-.1a1.85 1.85 0 0 0-1.37.59c-.1.1-.19.21-.27.34v4.6h-1.08v-9h1.08v3.6Zm8.92 5.52c-.45 0-.86-.08-1.23-.23a2.8 2.8 0 0 1-1.58-1.61 3.3 3.3 0 0 1-.22-1.23v-.24c0-.52.08-.97.25-1.37a2.84 2.84 0 0 1 2.64-1.9 2.5 2.5 0 0 1 2.05.89c.23.28.4.61.5 1 .12.37.17.78.17 1.22v.5H62.7v.03c.03.31.1.58.18.82a2.06 2.06 0 0 0 1.02 1.07 2.2 2.2 0 0 0 2.58-.7l.67.52c-.21.32-.53.6-.95.86-.42.24-.93.37-1.55.37Zm-.14-5.69c-.22 0-.43.04-.62.13-.2.07-.37.19-.53.34a2.1 2.1 0 0 0-.4.58c-.1.22-.18.48-.22.77h3.4v-.05a2 2 0 0 0-.1-.63 1.83 1.83 0 0 0-.31-.59 1.5 1.5 0 0 0-1.22-.55Zm9.28 2.28h-4.48v-.89h4.48v.9Zm8 .72c-.05.4-.16.76-.3 1.1a2.64 2.64 0 0 1-1.46 1.4c-.34.12-.72.19-1.13.19a2.69 2.69 0 0 1-2.3-1.18 4.7 4.7 0 0 1-.73-2.6v-1.2a4.7 4.7 0 0 1 .73-2.6 2.72 2.72 0 0 1 2.3-1.19c.43 0 .81.07 1.15.2a2.49 2.49 0 0 1 1.44 1.42c.15.34.25.7.3 1.11h-1.1a3.2 3.2 0 0 0-.18-.72 2 2 0 0 0-.34-.59 1.5 1.5 0 0 0-.54-.39c-.2-.1-.45-.14-.74-.14a1.65 1.65 0 0 0-1.18.47 2 2 0 0 0-.37.5 4.65 4.65 0 0 0-.4 1.92v1.2a6.38 6.38 0 0 0 .17 1.31c.06.22.14.43.23.62.1.2.21.36.36.5.14.15.31.27.5.36.2.08.43.12.7.12.28 0 .53-.05.73-.14.21-.09.4-.21.54-.38.14-.16.26-.35.34-.57.09-.22.15-.46.18-.72h1.09Zm1.37-.66c0-.46.07-.88.2-1.27.14-.4.33-.74.58-1.03a2.68 2.68 0 0 1 2.1-.93 2.8 2.8 0 0 1 2.12.94c.25.28.44.63.57 1.02.13.4.2.81.2 1.27v.13c0 .46-.07.88-.2 1.27-.13.4-.32.73-.57 1.02a2.66 2.66 0 0 1-2.1.93c-.46 0-.86-.09-1.22-.25a2.6 2.6 0 0 1-.9-.68 3.03 3.03 0 0 1-.58-1.02c-.13-.39-.2-.81-.2-1.27v-.13Zm1.09.13c0 .31.04.61.1.9.08.28.2.53.35.74a1.6 1.6 0 0 0 1.36.7 1.57 1.57 0 0 0 1.34-.7c.15-.21.26-.46.33-.74.08-.29.12-.59.12-.9v-.13c0-.3-.04-.6-.12-.88a2.35 2.35 0 0 0-.34-.75 1.69 1.69 0 0 0-.56-.51c-.23-.13-.49-.2-.79-.2-.3 0-.56.07-.78.2-.23.12-.41.3-.56.5a2.3 2.3 0 0 0-.34.76 3.6 3.6 0 0 0-.11.88v.13Zm6.43 3.1v-6.34h.97l.07.94a2.82 2.82 0 0 1 .67-.66 2.47 2.47 0 0 1 1.31-.4c.33 0 .63.05.9.14.28.1.5.24.7.44.19.2.34.46.44.76.1.3.16.67.16 1.1V141H94.8v-4c0-.28-.03-.52-.1-.72a1 1 0 0 0-.27-.47 1.13 1.13 0 0 0-.45-.27 2.04 2.04 0 0 0-1.17.01c-.17.05-.33.13-.47.23a2.16 2.16 0 0 0-.59.67V141h-1.08Zm9.77-7.88v1.54h2.41v.84h-2.41v3.44c0 .25.03.45.1.61a.93.93 0 0 0 .63.59c.14.04.3.06.45.06a4.15 4.15 0 0 0 1.06-.13l.26-.06.15.77c-.09.05-.2.1-.32.14a4.35 4.35 0 0 1-2.2.08 1.65 1.65 0 0 1-.64-.39 1.8 1.8 0 0 1-.43-.67c-.1-.27-.15-.6-.15-1v-3.44H97.7v-.84h1.66v-1.53h1.09Zm8.8 1.42a4.99 4.99 0 0 1 1.1.16l-.14 1.06a5.3 5.3 0 0 0-1.2-.14c-.26 0-.5.03-.72.1a1.65 1.65 0 0 0-.94.69c-.1.15-.2.33-.26.52V141H106v-6.34h1.04l.05.85v.16c.26-.35.57-.62.93-.82.36-.2.77-.3 1.23-.3Zm2.74 3.23c0-.46.07-.88.2-1.27.13-.4.33-.74.58-1.03a2.68 2.68 0 0 1 2.1-.93 2.79 2.79 0 0 1 2.12.94c.25.28.44.63.57 1.02.13.4.2.81.2 1.27v.13c0 .46-.07.88-.2 1.27a3.1 3.1 0 0 1-.57 1.02 2.65 2.65 0 0 1-2.1.93c-.46 0-.86-.09-1.22-.25a2.6 2.6 0 0 1-.9-.68 3.04 3.04 0 0 1-.58-1.02c-.13-.39-.2-.81-.2-1.27v-.13Zm1.09.13c0 .31.03.61.1.9.08.28.2.53.35.74a1.58 1.58 0 0 0 1.36.7c.29 0 .55-.06.77-.19.23-.12.42-.3.57-.5.15-.22.26-.47.33-.75.08-.29.11-.59.11-.9v-.13c0-.3-.03-.6-.11-.88a2.38 2.38 0 0 0-.34-.75 1.7 1.7 0 0 0-.57-.51 1.5 1.5 0 0 0-.78-.2c-.3 0-.56.07-.79.2-.22.12-.4.3-.55.5a2.1 2.1 0 0 0-.34.76c-.08.28-.11.57-.11.88v.13Zm6.6-5.9h3.23v8.06h2.07v.94h-5.3v-.94h2.15v-7.12h-2.16V132Zm9.21 8.3c0-.23.07-.43.21-.6.14-.16.36-.24.64-.24s.5.08.64.25c.15.16.22.35.22.59a.8.8 0 0 1-.22.58c-.15.15-.36.23-.64.23s-.5-.08-.64-.23a.85.85 0 0 1-.2-.58Zm0-5.14c0-.23.07-.42.21-.59.14-.16.36-.24.64-.24s.5.08.64.24c.15.16.22.36.22.6 0 .23-.07.42-.22.57-.15.16-.36.24-.64.24s-.5-.08-.64-.24a.85.85 0 0 1-.2-.58Zm12.23 8.28v-8.78h.99l.05.7a2 2 0 0 1 1.16-.74 2.67 2.67 0 0 1 1.72.16c.32.16.58.39.79.67.21.29.37.63.48 1.03.11.4.16.83.16 1.3v.12c0 .45-.05.88-.16 1.27-.1.4-.27.73-.48 1.02a2.23 2.23 0 0 1-1.85.93c-.24 0-.46-.03-.67-.08a2.25 2.25 0 0 1-.85-.4 2.38 2.38 0 0 1-.26-.25v3.05h-1.08Zm4.27-5.66c0-.31-.03-.6-.1-.88a2.33 2.33 0 0 0-.31-.75 1.65 1.65 0 0 0-.55-.5 1.8 1.8 0 0 0-1.25-.13 1.53 1.53 0 0 0-.72.45c-.1.1-.18.23-.26.36v3.05c.07.12.15.23.23.33a1.62 1.62 0 0 0 1.22.52c.3 0 .57-.06.79-.19.21-.12.4-.3.53-.51.15-.22.25-.46.31-.75.07-.28.11-.57.11-.88v-.12Zm7.12 3.22-.06-.87c-.22.3-.48.55-.8.73a2.56 2.56 0 0 1-2 .1c-.26-.1-.5-.26-.69-.48-.19-.22-.34-.5-.44-.83-.1-.34-.15-.75-.15-1.22v-3.77h1.08v3.78c0 .34.03.63.08.85.06.23.14.41.25.54.1.14.24.24.4.3a2.35 2.35 0 0 0 1.2 0c.19-.07.36-.15.5-.25a1.77 1.77 0 0 0 .53-.67v-4.55h1.08V141h-.98Zm8.4-3.1a4.87 4.87 0 0 1-.24 1.52c-.1.3-.24.56-.41.79a2.2 2.2 0 0 1-1.18.82 2.68 2.68 0 0 1-1.41-.01 2.12 2.12 0 0 1-1.08-.74l-.05.72h-1v-9h1.09v3.34a2 2 0 0 1 .65-.55 2.72 2.72 0 0 1 1.88-.14c.23.08.44.18.63.31.17.13.31.28.45.46a3.26 3.26 0 0 1 .59 1.41c.05.3.08.61.08.95v.12Zm-1.08-.12a4.07 4.07 0 0 0-.15-1.12c-.08-.2-.17-.4-.28-.57a1.47 1.47 0 0 0-.8-.57 1.76 1.76 0 0 0-.98.02 1.42 1.42 0 0 0-.75.52c-.1.11-.18.24-.24.38v2.77a1.8 1.8 0 0 0 .58.7 1.53 1.53 0 0 0 .94.29c.18 0 .34-.02.49-.07a1.45 1.45 0 0 0 .8-.62 2.82 2.82 0 0 0 .36-1.07c.02-.17.03-.35.03-.54v-.12Zm3.09-5.78h3.24v8.06h2.06v.94h-5.3v-.94h2.15v-7.12h-2.15V132Zm7.2 2.66h3.24v5.4h2.07v.94h-5.3v-.94h2.15v-4.46h-2.16v-.94Zm2.02-1.66c0-.1.01-.19.04-.27a.56.56 0 0 1 .33-.33.77.77 0 0 1 .28-.04c.1 0 .19.01.27.04.08.03.14.07.2.12.05.06.1.13.13.2.03.09.05.18.05.28 0 .17-.06.32-.16.44-.11.11-.28.17-.5.17a.65.65 0 0 1-.48-.17.63.63 0 0 1-.16-.44Zm7.72 7.24a1.77 1.77 0 0 0 1.07-.36c.14-.1.26-.24.34-.39a1 1 0 0 0 .14-.49h1.03c0 .28-.08.55-.22.81-.14.25-.33.48-.57.67a2.9 2.9 0 0 1-3.05.38 2.5 2.5 0 0 1-.9-.7 2.93 2.93 0 0 1-.54-1 3.98 3.98 0 0 1-.18-1.2v-.25c0-.42.06-.82.18-1.2.12-.39.3-.72.55-1.02.23-.29.53-.52.9-.69.35-.17.77-.26 1.25-.26a2.84 2.84 0 0 1 1.85.67 2.26 2.26 0 0 1 .73 1.63h-1.03c0-.2-.04-.37-.13-.54a1.42 1.42 0 0 0-.8-.76c-.2-.07-.4-.1-.62-.1-.34 0-.62.06-.85.2-.22.13-.4.3-.55.52-.14.22-.24.46-.3.73-.06.27-.1.54-.1.82v.24c0 .28.04.56.1.83.06.27.16.51.3.73.14.22.32.4.55.53.23.13.51.2.85.2Zm7.25.5a3.02 3.02 0 0 1-1.02 2.22l-.67-.36c.19-.27.32-.56.4-.87.08-.31.12-.63.12-.96v-1.05h1.18v1.03Zm12.17-6.08.03.6c.13-.22.3-.4.5-.52.21-.13.47-.2.76-.2a1.56 1.56 0 0 1 .81.22c.08.05.14.12.2.2.06.08.12.16.16.26a1.46 1.46 0 0 1 .43-.45 1.49 1.49 0 0 1 .81-.23c.22 0 .42.04.6.1.17.07.32.16.44.28.13.14.23.33.3.56.08.22.11.48.11.79V141h-1.03v-4.75c0-.13-.02-.25-.05-.35a.7.7 0 0 0-.13-.25.6.6 0 0 0-.24-.14.96.96 0 0 0-.31-.05.93.93 0 0 0-.34.06.7.7 0 0 0-.23.14.68.68 0 0 0-.15.21.91.91 0 0 0-.07.27V141h-1.03v-4.75c0-.13-.02-.25-.05-.35a.59.59 0 0 0-.13-.25.5.5 0 0 0-.22-.14 1.12 1.12 0 0 0-.64 0 .65.65 0 0 0-.38.27.93.93 0 0 0-.1.18V141h-1.02v-6.34h.97Zm10.87 6.34a1.25 1.25 0 0 1-.1-.3 3.94 3.94 0 0 1-.05-.4 2.93 2.93 0 0 1-1.33.75 2.72 2.72 0 0 1-1.5-.08c-.27-.1-.5-.23-.69-.4-.2-.16-.34-.36-.44-.58a1.95 1.95 0 0 1 .05-1.66c.14-.26.34-.48.59-.66.25-.17.56-.3.91-.38.36-.1.76-.13 1.2-.13h1.19v-.5c0-.2-.04-.37-.1-.52a1.12 1.12 0 0 0-.3-.39 1.4 1.4 0 0 0-.48-.25c-.18-.06-.4-.08-.62-.08-.22 0-.41.02-.58.08-.17.05-.31.13-.43.22a1 1 0 0 0-.28.32.82.82 0 0 0-.09.38h-1.09c0-.23.06-.46.18-.68.12-.22.28-.43.5-.6.22-.18.48-.32.79-.43a3.57 3.57 0 0 1 2.06-.03 1.94 1.94 0 0 1 1.52 2v2.94a4.18 4.18 0 0 0 .22 1.29v.09h-1.13Zm-1.91-.83a2.1 2.1 0 0 0 1.48-.6c.11-.12.2-.24.26-.36v-1.29h-1c-.38 0-.71.04-1 .1-.27.07-.5.16-.66.3-.11.09-.2.2-.26.33s-.1.28-.1.44c0 .16.03.3.08.43.06.14.14.25.24.34.1.1.24.18.4.23.16.06.35.08.56.08Zm7.57-3.16 1.7-2.35h1.27l-2.36 3.13 2.42 3.21h-1.25l-1.75-2.41-1.75 2.41h-1.27l2.43-3.2-2.37-3.14h1.26l1.67 2.35Zm9.33.7h-4.48v-.89h4.48v.9Zm6.64 3.29a1.25 1.25 0 0 1-.11-.3 3.94 3.94 0 0 1-.05-.4 2.93 2.93 0 0 1-1.33.75 2.72 2.72 0 0 1-1.5-.08c-.27-.1-.5-.23-.69-.4a1.72 1.72 0 0 1-.6-1.33c0-.34.07-.65.2-.91.15-.26.35-.48.6-.66.25-.17.56-.3.91-.38.36-.1.76-.13 1.2-.13h1.19v-.5c0-.2-.04-.37-.1-.52a1.12 1.12 0 0 0-.3-.39 1.4 1.4 0 0 0-.48-.25 1.98 1.98 0 0 0-.62-.08c-.22 0-.4.02-.58.08-.17.05-.31.13-.43.22a1 1 0 0 0-.27.32.82.82 0 0 0-.1.38h-1.09c0-.23.06-.46.18-.68.12-.22.28-.43.5-.6.22-.18.48-.32.79-.43a3.56 3.56 0 0 1 2.06-.03 1.93 1.93 0 0 1 1.52 2v2.94a4.18 4.18 0 0 0 .23 1.29v.09h-1.13Zm-1.92-.83a2.09 2.09 0 0 0 1.48-.6c.11-.12.2-.24.26-.36v-1.29h-1c-.38 0-.71.04-1 .1-.27.07-.5.16-.66.3-.11.09-.2.2-.26.33s-.1.28-.1.44c0 .16.03.3.08.43.06.14.14.25.24.34.11.1.24.18.4.23.16.06.35.08.56.08Zm4.76-2.4c0-.47.05-.9.17-1.3.11-.4.28-.73.5-1.02a2.3 2.3 0 0 1 1.86-.9c.25 0 .48.02.7.08a1.97 1.97 0 0 1 1.08.72l.05-.69h.99v6.2c0 .42-.07.8-.2 1.12-.13.32-.31.6-.55.83-.24.22-.52.4-.85.51a3.2 3.2 0 0 1-2.29-.06c-.22-.09-.43-.2-.63-.34s-.37-.31-.52-.52l.57-.65a2.68 2.68 0 0 0 .83.67c.15.07.3.12.44.14a2.06 2.06 0 0 0 1.13-.06 1.42 1.42 0 0 0 .87-.85c.07-.22.11-.46.11-.73v-.55a2.3 2.3 0 0 1-.55.47 2.59 2.59 0 0 1-1.19.28 2.22 2.22 0 0 1-1.84-.93 3.19 3.19 0 0 1-.5-1.02c-.12-.4-.18-.82-.18-1.27v-.12Zm1.08.13c0 .3.03.6.1.88.06.28.16.52.3.73a1.48 1.48 0 0 0 1.31.69 1.54 1.54 0 0 0 1.48-.93v-2.9a2.03 2.03 0 0 0-.25-.37c-.1-.1-.2-.2-.33-.28a1.62 1.62 0 0 0-.9-.25c-.3 0-.56.06-.78.18-.21.13-.39.3-.53.5a2.5 2.5 0 0 0-.3.75c-.07.28-.1.57-.1.88v.12Zm9.12 3.22c-.44 0-.85-.08-1.23-.23a2.8 2.8 0 0 1-1.57-1.61 3.29 3.29 0 0 1-.23-1.23v-.24c0-.52.09-.97.25-1.37.17-.41.38-.75.66-1.04a2.85 2.85 0 0 1 1.98-.86c.46 0 .86.08 1.2.24a2.41 2.41 0 0 1 1.35 1.65c.12.37.18.78.18 1.22v.5h-4.53v.03c.03.31.09.58.18.82a2.04 2.04 0 0 0 1.02 1.07 2.2 2.2 0 0 0 2.58-.7l.67.52c-.22.32-.53.6-.95.86a3.1 3.1 0 0 1-1.56.37Zm-.14-5.69c-.22 0-.42.04-.62.13-.2.07-.37.19-.53.34-.15.16-.28.35-.4.58-.1.22-.17.48-.22.77h3.41v-.05a2 2 0 0 0-.42-1.22 1.5 1.5 0 0 0-1.22-.55Zm9.78 1h-5.24v-.94h5.24v.94Zm0 2.43h-5.24v-.94h5.24v.94Zm3.24-2.65h.78c.27 0 .51-.03.72-.1.2-.08.39-.18.53-.31s.25-.29.32-.47a1.97 1.97 0 0 0 .01-1.25 1.2 1.2 0 0 0-.29-.48 1.16 1.16 0 0 0-.47-.26 2.08 2.08 0 0 0-1.26 0 1.31 1.31 0 0 0-.8.76c-.07.18-.11.38-.11.6h-1.1a2.25 2.25 0 0 1 .74-1.66c.23-.21.5-.38.82-.5a3.29 3.29 0 0 1 2.13-.03 2.05 2.05 0 0 1 1.34 1.21c.13.3.19.65.19 1.05a1.82 1.82 0 0 1-.31 1.01 2.23 2.23 0 0 1-1 .84c.27.1.5.21.69.35a1.82 1.82 0 0 1 .68 1.05 2.6 2.6 0 0 1-.13 1.65c-.14.32-.33.58-.58.8a2.5 2.5 0 0 1-.86.48 3.5 3.5 0 0 1-2.13 0 2.5 2.5 0 0 1-.85-.45c-.24-.2-.44-.46-.58-.75-.14-.3-.21-.63-.21-1h1.08c0 .22.04.43.11.6a1.34 1.34 0 0 0 .84.78c.2.07.43.1.68.1.24 0 .46-.03.66-.1a1.28 1.28 0 0 0 .84-.79 2.1 2.1 0 0 0-.02-1.38 1.3 1.3 0 0 0-.37-.49 1.58 1.58 0 0 0-.58-.28c-.22-.07-.46-.1-.73-.1h-.78v-.88Zm9.94-3.75v.98h-.1c-.5 0-.95.07-1.3.22a2.5 2.5 0 0 0-1.46 1.5c-.12.36-.2.72-.22 1.1a2.52 2.52 0 0 1 1.28-.78 2.32 2.32 0 0 1 1.66.18c.3.15.56.36.76.63.2.27.35.56.44.9a3.8 3.8 0 0 1-.03 2.15c-.1.35-.27.66-.5.92-.22.27-.5.48-.83.63-.33.15-.7.23-1.14.23a2.44 2.44 0 0 1-2-.95 3.1 3.1 0 0 1-.56-1.08 4.28 4.28 0 0 1-.19-1.24v-.51c0-.71.09-1.41.25-2.1.17-.69.5-1.28.99-1.76.33-.34.74-.6 1.22-.76a4.84 4.84 0 0 1 1.64-.26h.1Zm-1.42 3.85a1.83 1.83 0 0 0-1.68 1.2v.37c0 .37.05.7.14 1 .1.29.21.53.37.73.15.2.32.35.52.46a1.48 1.48 0 0 0 1.3 0 1.5 1.5 0 0 0 .8-1.01 2.82 2.82 0 0 0 .01-1.52 1.99 1.99 0 0 0-.29-.63 1.37 1.37 0 0 0-1.17-.6Zm9.99 1.43a5.1 5.1 0 0 1-.19 1.44c-.13.42-.3.77-.54 1.06-.23.29-.52.5-.86.66a2.9 2.9 0 0 1-1.17.22c-.43 0-.82-.08-1.16-.22a2.26 2.26 0 0 1-.88-.66 2.93 2.93 0 0 1-.54-1.06 5.1 5.1 0 0 1-.19-1.44v-2c0-.55.06-1.03.19-1.44a3 3 0 0 1 .54-1.07c.24-.29.53-.5.86-.66.35-.15.74-.22 1.17-.22.44 0 .83.07 1.17.22.34.15.63.37.87.66.23.29.41.65.54 1.07.13.41.19.9.19 1.44v2Zm-4.44-.22 3.32-2.55a3.04 3.04 0 0 0-.17-.74c-.07-.22-.18-.4-.32-.55-.13-.15-.3-.26-.5-.33-.18-.08-.4-.11-.66-.11s-.49.04-.68.12c-.2.08-.37.2-.5.34-.17.2-.29.45-.37.75-.08.3-.12.65-.12 1.05v2.02Zm3.35.44v-1.95l-3.32 2.53c.04.29.1.54.19.76.09.22.2.4.35.53.13.14.3.24.48.3.19.08.4.1.63.1.25 0 .47-.03.66-.1.2-.08.35-.19.49-.32.17-.2.3-.45.39-.75.08-.31.13-.68.13-1.1Zm8.3-.22a5.1 5.1 0 0 1-.2 1.44c-.12.42-.3.77-.53 1.06-.24.29-.52.5-.86.66a2.9 2.9 0 0 1-1.17.22c-.43 0-.82-.08-1.17-.22a2.26 2.26 0 0 1-.87-.66 2.93 2.93 0 0 1-.54-1.06 5.1 5.1 0 0 1-.2-1.44v-2c0-.55.07-1.03.2-1.44a3 3 0 0 1 .54-1.07 2.42 2.42 0 0 1 2.03-.88c.44 0 .83.07 1.16.22.35.15.64.37.88.66.23.29.41.65.54 1.07.12.41.18.9.18 1.44v2Zm-4.44-.22 3.32-2.55a3 3 0 0 0-.17-.74c-.08-.22-.19-.4-.32-.55-.13-.15-.3-.26-.5-.33-.19-.08-.4-.11-.66-.11s-.49.04-.69.12c-.2.08-.36.2-.5.34-.16.2-.28.45-.36.75-.08.3-.12.65-.12 1.05v2.02Zm3.34.44v-1.95l-3.31 2.53c.03.29.1.54.19.76.09.22.2.4.35.53.13.14.29.24.48.3.19.08.4.1.63.1.25 0 .46-.03.66-.1.19-.08.35-.19.48-.32.18-.2.31-.45.4-.75.08-.31.12-.68.12-1.1ZM38.54 158.44c-.05.4-.15.76-.3 1.1a2.64 2.64 0 0 1-1.46 1.4c-.34.12-.7.19-1.12.19a2.69 2.69 0 0 1-2.3-1.18 4.7 4.7 0 0 1-.73-2.6v-1.2a4.7 4.7 0 0 1 .73-2.6 2.72 2.72 0 0 1 2.3-1.19c.43 0 .8.07 1.14.2a2.49 2.49 0 0 1 1.45 1.42c.15.34.25.7.3 1.11h-1.09a3.2 3.2 0 0 0-.18-.72 2 2 0 0 0-.35-.59 1.5 1.5 0 0 0-.53-.39c-.2-.1-.45-.14-.74-.14a1.62 1.62 0 0 0-1.18.47 2 2 0 0 0-.37.5 4.63 4.63 0 0 0-.4 1.92v1.2a6.35 6.35 0 0 0 .17 1.31c.06.22.14.43.23.62.1.2.21.36.36.5.14.15.31.27.5.36.2.08.43.12.7.12.28 0 .52-.05.73-.14.21-.09.39-.21.53-.38.15-.16.26-.35.35-.57.09-.22.15-.46.18-.72h1.08Zm1.38-.66c0-.46.07-.88.2-1.27.13-.4.33-.74.58-1.03a2.68 2.68 0 0 1 2.1-.93 2.8 2.8 0 0 1 2.12.94c.25.28.44.63.57 1.02.13.4.2.81.2 1.27v.13c0 .46-.07.88-.2 1.27-.13.4-.32.73-.57 1.02a2.66 2.66 0 0 1-2.11.93c-.45 0-.85-.09-1.21-.25a2.6 2.6 0 0 1-.9-.68 3.03 3.03 0 0 1-.58-1.02c-.13-.39-.2-.81-.2-1.27v-.13Zm1.09.13c0 .31.03.61.1.9.08.28.2.53.35.74a1.57 1.57 0 0 0 1.35.7 1.57 1.57 0 0 0 1.35-.7c.15-.21.26-.46.33-.74.08-.29.11-.59.11-.9v-.13c0-.3-.04-.6-.11-.88a2.35 2.35 0 0 0-.34-.75 1.69 1.69 0 0 0-.57-.51 1.5 1.5 0 0 0-.78-.2c-.3 0-.56.07-.79.2-.22.12-.4.3-.55.5a2.1 2.1 0 0 0-.34.76c-.08.28-.11.57-.11.88v.13Zm6.42 3.1v-6.34h.98l.07.94a2.82 2.82 0 0 1 .66-.66 2.47 2.47 0 0 1 1.31-.4c.34 0 .64.05.9.14.28.1.52.24.7.44.2.2.34.46.45.76.1.3.15.67.15 1.1V161h-1.08v-4c0-.28-.03-.52-.1-.72-.06-.2-.15-.35-.27-.47a1.17 1.17 0 0 0-.46-.27 2.04 2.04 0 0 0-1.16.01c-.17.05-.33.13-.48.23a2.16 2.16 0 0 0-.58.67V161h-1.09Zm9.78-7.88v1.54h2.41v.84h-2.41v3.44c0 .25.03.45.1.61a.94.94 0 0 0 .62.59c.15.04.3.06.46.06a4.15 4.15 0 0 0 1.06-.13l.26-.06.15.77c-.09.05-.2.1-.33.14a4.31 4.31 0 0 1-2.2.08 1.65 1.65 0 0 1-.63-.39 1.8 1.8 0 0 1-.43-.67c-.1-.27-.15-.6-.15-1v-3.44h-1.67v-.84h1.67v-1.53h1.09Zm7.44 8c-.45 0-.86-.08-1.23-.23a2.8 2.8 0 0 1-1.58-1.61 3.3 3.3 0 0 1-.22-1.23v-.24c0-.52.08-.97.25-1.37a2.84 2.84 0 0 1 2.64-1.9 2.5 2.5 0 0 1 2.05.89c.23.28.4.61.5 1 .12.37.17.78.17 1.22v.5H62.7v.03c.03.31.1.58.18.82a2.06 2.06 0 0 0 1.02 1.07 2.2 2.2 0 0 0 2.58-.7l.67.52c-.21.32-.53.6-.95.86-.42.24-.93.37-1.55.37Zm-.14-5.69c-.22 0-.43.04-.62.13-.2.07-.37.19-.53.34a2.1 2.1 0 0 0-.4.58c-.1.22-.18.48-.22.77h3.4v-.05a2 2 0 0 0-.1-.63 1.83 1.83 0 0 0-.31-.59 1.5 1.5 0 0 0-1.22-.55Zm4.54 5.57v-6.34h.98l.07.94a2.82 2.82 0 0 1 .67-.66 2.47 2.47 0 0 1 1.31-.4c.33 0 .63.05.9.14.27.1.5.24.7.44.19.2.34.46.44.76.1.3.16.67.16 1.1V161h-1.09v-4c0-.28-.03-.52-.1-.72a1 1 0 0 0-.27-.47 1.2 1.2 0 0 0-.45-.27 2.04 2.04 0 0 0-1.17.01c-.17.05-.33.13-.48.23a2.16 2.16 0 0 0-.58.67V161h-1.09Zm9.78-7.88v1.54h2.41v.84h-2.41v3.44c0 .25.03.45.1.61a.94.94 0 0 0 .62.59c.15.04.3.06.46.06a4.15 4.15 0 0 0 1.06-.13l.26-.06.15.77c-.09.05-.2.1-.33.14a4.31 4.31 0 0 1-2.2.08 1.65 1.65 0 0 1-.63-.39 1.8 1.8 0 0 1-.43-.67c-.1-.27-.15-.6-.15-1v-3.44h-1.67v-.84h1.67v-1.53h1.09Zm9.38 4.6h-4.48v-.9h4.48v.9Zm8.22-4.32h-2.64v7.6h-1.05v-7.6H90.1v-.93h6.33v.93Zm1.96 10.16-.35-.03a7.47 7.47 0 0 1-.32-.06l.18-.89a7.36 7.36 0 0 0 .52.03.7.7 0 0 0 .4-.12c.13-.08.24-.18.33-.3a5.74 5.74 0 0 0 .4-.65l.44-.84-2.73-6.04h1.21l1.75 4.09.28.77.3-.75 1.63-4.11h1.21l-3.21 7.32a4.2 4.2 0 0 1-.7 1.03 1.8 1.8 0 0 1-1.34.55Zm6.7-.12v-8.78h.98l.06.7a2 2 0 0 1 1.15-.74 2.66 2.66 0 0 1 1.73.16c.31.16.57.39.78.67.22.29.38.63.48 1.03.12.4.17.83.17 1.3v.12c0 .45-.05.88-.16 1.27-.11.4-.27.73-.48 1.02a2.23 2.23 0 0 1-1.85.93c-.24 0-.47-.03-.68-.08a2.23 2.23 0 0 1-.85-.4 2.38 2.38 0 0 1-.25-.25v3.05h-1.09Zm4.27-5.66c0-.31-.04-.6-.11-.88a2.3 2.3 0 0 0-.31-.75 1.64 1.64 0 0 0-.55-.5 1.56 1.56 0 0 0-.78-.19 1.46 1.46 0 0 0-.85.23 1.4 1.4 0 0 0-.33.28c-.1.1-.19.23-.26.36v3.05c.06.12.14.23.23.33.08.1.18.19.29.26a1.63 1.63 0 0 0 .93.26 1.5 1.5 0 0 0 1.32-.7c.14-.22.24-.46.31-.75.07-.28.1-.57.1-.88v-.12Zm5.74 3.34c-.45 0-.86-.08-1.23-.23a2.81 2.81 0 0 1-1.58-1.61 3.3 3.3 0 0 1-.22-1.23v-.24a3.43 3.43 0 0 1 .9-2.41 2.84 2.84 0 0 1 3.18-.62 2.45 2.45 0 0 1 1.36 1.65c.11.37.17.78.17 1.22v.5h-4.53v.03c.03.31.09.58.18.82a2.06 2.06 0 0 0 1.02 1.07 2.21 2.21 0 0 0 2.58-.7l.67.52c-.21.32-.53.6-.95.86a3.1 3.1 0 0 1-1.55.37Zm-.14-5.69c-.22 0-.43.04-.62.13-.2.07-.38.19-.53.34a2.1 2.1 0 0 0-.4.58c-.1.22-.18.48-.22.77h3.4v-.05c0-.2-.03-.4-.1-.63a1.82 1.82 0 0 0-.31-.59 1.51 1.51 0 0 0-1.22-.55Zm6.72 4.87c0-.23.07-.43.21-.6.14-.16.36-.24.64-.24s.5.08.64.25c.15.16.22.35.22.59a.8.8 0 0 1-.22.58c-.15.15-.36.23-.64.23s-.5-.08-.64-.23a.85.85 0 0 1-.2-.58Zm0-5.14c0-.23.07-.42.21-.59.14-.16.36-.24.64-.24s.5.08.64.24c.15.16.22.36.22.6 0 .23-.07.42-.22.57-.15.16-.36.24-.64.24s-.5-.08-.64-.24a.85.85 0 0 1-.2-.58Zm14.8-2.03v1.53h2.42v.84h-2.42v3.44c0 .25.04.45.1.61a.95.95 0 0 0 .63.59c.14.04.3.06.46.06a4.15 4.15 0 0 0 1.06-.13l.26-.06.15.77c-.1.05-.2.1-.33.14a4.35 4.35 0 0 1-2.2.08 1.64 1.64 0 0 1-.63-.39 1.8 1.8 0 0 1-.43-.67c-.1-.27-.16-.6-.16-1v-3.44h-1.66v-.84h1.67v-1.53h1.08Zm7.45 7.99c-.45 0-.86-.08-1.24-.23a2.81 2.81 0 0 1-1.57-1.61 3.3 3.3 0 0 1-.22-1.23v-.24a3.43 3.43 0 0 1 .9-2.41 2.84 2.84 0 0 1 3.18-.62c.34.16.63.38.86.65.22.28.39.61.5 1 .11.37.17.78.17 1.22v.5h-4.53v.03c.03.31.09.58.18.82a2.07 2.07 0 0 0 1.02 1.07 2.21 2.21 0 0 0 2.58-.7l.67.52c-.21.32-.53.6-.95.86a3.1 3.1 0 0 1-1.55.37Zm-.15-5.69c-.21 0-.42.04-.62.13-.2.07-.37.19-.52.34a2.1 2.1 0 0 0-.4.58c-.1.22-.18.48-.22.77h3.4v-.05c0-.2-.03-.4-.1-.63a1.82 1.82 0 0 0-.32-.59 1.51 1.51 0 0 0-1.22-.55Zm7.17 1.58 1.7-2.35h1.27l-2.36 3.13 2.42 3.21h-1.25l-1.75-2.41-1.76 2.41h-1.26l2.42-3.2-2.36-3.14h1.25l1.68 2.35Zm7.16-3.88v1.53h2.41v.84h-2.42v3.44c0 .25.04.45.1.61a.95.95 0 0 0 .63.59c.15.04.3.06.46.06a4.15 4.15 0 0 0 1.06-.13l.26-.06.15.77c-.09.05-.2.1-.33.14a4.35 4.35 0 0 1-2.2.08 1.64 1.64 0 0 1-.63-.39 1.8 1.8 0 0 1-.43-.67c-.1-.27-.15-.6-.15-1v-3.44h-1.67v-.84h1.67v-1.53h1.08Zm6.07 8.6h-.98l3.57-9.26h.96l-3.55 9.26Zm6.86-6.13a2.3 2.3 0 0 1 .62-.63c.19-.14.4-.25.61-.32a2.57 2.57 0 0 1 1.63.04c.27.1.5.24.7.44.19.2.33.47.43.78.1.3.16.67.16 1.1V161h-1.08v-4c0-.25-.03-.47-.09-.66a1.25 1.25 0 0 0-.26-.47 1.1 1.1 0 0 0-.45-.3 1.7 1.7 0 0 0-.64-.1 1.86 1.86 0 0 0-1.37.59c-.1.1-.19.21-.26.34v4.6h-1.09v-9h1.09v3.6Zm8.69-2.47v1.53h2.41v.84h-2.41v3.44c0 .25.03.45.09.61a.95.95 0 0 0 .63.59c.15.04.3.06.46.06a4.15 4.15 0 0 0 1.06-.13l.26-.06.15.77c-.09.05-.2.1-.33.14a4.33 4.33 0 0 1-2.2.08 1.64 1.64 0 0 1-.63-.39 1.8 1.8 0 0 1-.43-.67c-.1-.27-.15-.6-.15-1v-3.44h-1.67v-.84h1.67v-1.53h1.09Zm5.14 1.53.03.6a1.39 1.39 0 0 1 1.26-.72 1.56 1.56 0 0 1 .8.22c.08.05.15.12.2.2.07.08.12.16.17.26a1.46 1.46 0 0 1 .43-.45 1.49 1.49 0 0 1 .8-.23c.23 0 .42.04.6.1.18.07.32.16.44.28.14.14.24.33.31.56.07.22.1.48.1.79V161h-1.03v-4.75c0-.13-.01-.25-.04-.35a.7.7 0 0 0-.14-.25.6.6 0 0 0-.23-.14.96.96 0 0 0-.32-.05.93.93 0 0 0-.33.06.7.7 0 0 0-.24.14.68.68 0 0 0-.14.21.91.91 0 0 0-.07.27V161h-1.03v-4.75c0-.13-.02-.25-.05-.35a.59.59 0 0 0-.14-.25.5.5 0 0 0-.22-.14 1.12 1.12 0 0 0-.64 0 .66.66 0 0 0-.38.27.93.93 0 0 0-.09.18V161h-1.03v-6.34h.98Zm6.87-2.66h3.24v8.06h2.07v.94h-5.3v-.94h2.15v-7.12h-2.16V152ZM37.71 177.06h-3.56v3.02h4.15v.92h-5.23v-8.53h5.18v.93h-4.1v2.74h3.56v.92Zm8.27-3.66h-2.64v7.6H42.3v-7.6h-2.64v-.93h6.33v.93Zm5.62 7.6a1.26 1.26 0 0 1-.1-.3 4.04 4.04 0 0 1-.06-.4 2.98 2.98 0 0 1-.8.58 2.84 2.84 0 0 1-1.11.24c-.34 0-.65-.05-.92-.15-.27-.1-.5-.23-.68-.4a1.71 1.71 0 0 1-.6-1.33c0-.34.07-.65.2-.91.14-.26.34-.48.6-.66.25-.17.55-.3.9-.38.37-.1.77-.13 1.21-.13h1.18v-.5a1.12 1.12 0 0 0-.4-.9 1.4 1.4 0 0 0-.48-.26 1.98 1.98 0 0 0-.62-.08c-.21 0-.4.02-.58.08-.16.05-.3.13-.42.22s-.21.2-.28.32a.82.82 0 0 0-.1.38h-1.08c0-.23.06-.46.17-.68.12-.22.29-.43.5-.6.22-.18.48-.32.8-.43a3.57 3.57 0 0 1 2.06-.03 1.94 1.94 0 0 1 1.52 2v2.94a4.17 4.17 0 0 0 .22 1.29v.09H51.6Zm-1.92-.83a2.09 2.09 0 0 0 1.49-.6c.1-.12.2-.24.25-.36v-1.29h-1c-.38 0-.7.04-.99.1-.28.07-.5.16-.66.3-.12.09-.2.2-.27.33a1.2 1.2 0 0 0-.01.87.9.9 0 0 0 .24.34c.1.1.24.18.4.23.16.06.34.08.55.08Zm4.76-2.4c0-.47.06-.9.17-1.3.12-.4.29-.73.5-1.02a2.3 2.3 0 0 1 1.86-.9c.26 0 .49.02.7.08a1.97 1.97 0 0 1 1.08.72l.06-.69h.98v6.2c0 .42-.07.8-.2 1.12-.13.32-.3.6-.54.83-.24.22-.52.4-.85.51a3.2 3.2 0 0 1-2.3-.06c-.21-.09-.42-.2-.63-.34-.2-.14-.37-.31-.51-.52l.56-.65a2.64 2.64 0 0 0 .84.67 2 2 0 0 0 .87.19c.25 0 .49-.04.7-.11a1.41 1.41 0 0 0 .87-.85c.07-.22.1-.46.1-.73v-.55a2.32 2.32 0 0 1-.55.47 2.6 2.6 0 0 1-1.19.28 2.22 2.22 0 0 1-1.84-.93 3.2 3.2 0 0 1-.5-1.02c-.12-.4-.18-.82-.18-1.27v-.12Zm1.09.13c0 .3.03.6.09.88.07.28.17.52.31.73.14.21.31.38.53.5a1.81 1.81 0 0 0 1.28.12 1.53 1.53 0 0 0 .97-.86v-2.9a1.95 1.95 0 0 0-.25-.37c-.1-.1-.2-.2-.32-.28a1.63 1.63 0 0 0-.9-.25c-.3 0-.56.06-.78.18-.22.13-.4.3-.53.5-.14.22-.24.47-.31.75a4 4 0 0 0-.1.88v.12Zm8.5 2.4c0-.23.07-.43.2-.6.15-.16.36-.24.65-.24.28 0 .5.08.64.25.14.16.22.35.22.59 0 .23-.08.42-.22.58a.88.88 0 0 1-.64.23c-.28 0-.5-.08-.64-.23a.85.85 0 0 1-.21-.58Zm0-5.14c0-.23.07-.42.2-.59.15-.16.36-.24.65-.24.28 0 .5.08.64.24.14.16.22.36.22.6a.8.8 0 0 1-.22.57.84.84 0 0 1-.64.24c-.28 0-.5-.08-.64-.24a.85.85 0 0 1-.21-.58Zm14.17-2.52-.12 2.17h-.76V172h.88v.64Zm2.1 0-.13 2.17h-.76l.01-2.08V172h.88v.64Zm7.33 8.36a1.26 1.26 0 0 1-.1-.3 4.04 4.04 0 0 1-.05-.4 2.99 2.99 0 0 1-.81.58 2.84 2.84 0 0 1-1.1.24c-.35 0-.65-.05-.92-.15-.27-.1-.5-.23-.69-.4a1.72 1.72 0 0 1-.6-1.33c0-.34.07-.65.2-.91.15-.26.35-.48.6-.66.25-.17.56-.3.91-.38.36-.1.76-.13 1.2-.13h1.19v-.5c0-.2-.04-.37-.1-.52a1.12 1.12 0 0 0-.3-.39 1.4 1.4 0 0 0-.48-.25c-.18-.06-.4-.08-.62-.08-.22 0-.4.02-.58.08-.17.05-.31.13-.43.22s-.2.2-.27.32a.82.82 0 0 0-.1.38H83.5c0-.23.06-.46.18-.68.12-.22.28-.43.5-.6.22-.18.48-.32.79-.43a3.56 3.56 0 0 1 2.06-.03 1.94 1.94 0 0 1 1.52 2v2.94a4.17 4.17 0 0 0 .23 1.29v.09h-1.14Zm-1.91-.83a2.09 2.09 0 0 0 1.48-.6c.11-.12.2-.24.26-.36v-1.29h-1c-.38 0-.71.04-1 .1-.27.07-.5.16-.66.3-.11.09-.2.2-.26.33s-.1.28-.1.44c0 .16.03.3.08.43a.9.9 0 0 0 .24.34c.1.1.24.18.4.23.16.06.35.08.56.08Zm10.33-2.27a4.88 4.88 0 0 1-.24 1.52c-.1.3-.25.56-.42.79-.17.23-.37.42-.6.57a2.21 2.21 0 0 1-1.24.34c-.27 0-.52-.04-.75-.1a2.12 2.12 0 0 1-1.07-.74l-.05.72h-1v-9h1.09v3.34a2.03 2.03 0 0 1 1.16-.73 2.73 2.73 0 0 1 1.37.04c.23.08.44.18.62.31.17.13.32.28.45.46a3.25 3.25 0 0 1 .6 1.41c.05.3.08.61.08.95v.12Zm-1.09-.12a4.01 4.01 0 0 0-.15-1.12c-.07-.2-.16-.4-.27-.57a1.47 1.47 0 0 0-.8-.57 1.75 1.75 0 0 0-.98.02 1.42 1.42 0 0 0-.75.52c-.1.11-.18.24-.24.38v2.77c.07.14.15.27.24.4.1.11.21.22.34.3a1.53 1.53 0 0 0 .93.29c.18 0 .35-.02.5-.07a1.44 1.44 0 0 0 .8-.62 2.8 2.8 0 0 0 .36-1.07l.02-.54v-.12Zm5.62 2.46a1.76 1.76 0 0 0 1.07-.36c.14-.1.26-.24.35-.39a1 1 0 0 0 .14-.49h1.02c0 .28-.08.55-.22.81-.14.25-.33.48-.57.67a2.92 2.92 0 0 1-3.05.38c-.36-.17-.65-.4-.9-.7a2.93 2.93 0 0 1-.54-1 3.98 3.98 0 0 1-.18-1.2v-.25c0-.42.06-.82.18-1.2.12-.39.3-.72.55-1.02.24-.29.53-.52.9-.69.35-.17.77-.26 1.25-.26a2.83 2.83 0 0 1 1.86.67 2.26 2.26 0 0 1 .72 1.63h-1.02a1.43 1.43 0 0 0-.94-1.3 1.64 1.64 0 0 0-.62-.1c-.33 0-.62.06-.85.2-.22.13-.4.3-.55.52a2.3 2.3 0 0 0-.3.73c-.06.27-.09.54-.09.82v.24c0 .28.03.56.09.83.06.27.16.51.3.73.14.22.32.4.55.53.23.13.51.2.85.2Zm8.03.76h-1.09v-7.15l-2.23.85v-.99l3.23-1.24h.09V181Zm8.92 0h-5.6v-.78l2.8-3.1.63-.74c.17-.22.3-.42.4-.6a1.99 1.99 0 0 0 .28-1.01 1.62 1.62 0 0 0-.4-1.08 1.13 1.13 0 0 0-.47-.32 1.88 1.88 0 0 0-1.37 0 1.38 1.38 0 0 0-.83.9c-.07.2-.1.45-.1.71h-1.1c0-.36.07-.7.2-1.01a2.49 2.49 0 0 1 1.4-1.41c.34-.14.73-.2 1.17-.2.4 0 .77.05 1.08.17.33.12.6.28.82.5.23.2.4.46.52.75a2.42 2.42 0 0 1 .05 1.7c-.09.24-.2.49-.35.73-.15.24-.32.48-.51.72l-.61.7-2.3 2.49h4.29v.88Zm3.24-4.79h.77c.28 0 .52-.03.72-.1.21-.08.4-.18.54-.31s.25-.29.32-.47.11-.37.11-.59a2 2 0 0 0-.1-.66 1.2 1.2 0 0 0-.3-.48 1.16 1.16 0 0 0-.46-.26c-.18-.07-.4-.1-.63-.1-.23 0-.44.04-.64.1a1.3 1.3 0 0 0-.8.76c-.07.18-.1.38-.1.6h-1.1a2.25 2.25 0 0 1 .73-1.66c.23-.21.5-.38.83-.5a3.29 3.29 0 0 1 2.13-.03 2.06 2.06 0 0 1 1.34 1.21c.12.3.18.65.18 1.05a1.82 1.82 0 0 1-.3 1.01 2.22 2.22 0 0 1-1 .84c.27.1.5.21.68.35a1.84 1.84 0 0 1 .68 1.05 2.6 2.6 0 0 1-.14 1.65 2.18 2.18 0 0 1-1.42 1.28 3.5 3.5 0 0 1-2.13 0 2.27 2.27 0 0 1-1.44-1.2c-.13-.3-.2-.63-.2-1h1.08c0 .22.04.43.11.6a1.34 1.34 0 0 0 .84.78c.2.07.43.1.67.1a2 2 0 0 0 .67-.1 1.23 1.23 0 0 0 .83-.79 1.86 1.86 0 0 0-.02-1.38 1.3 1.3 0 0 0-.36-.49 1.57 1.57 0 0 0-.58-.28 2.7 2.7 0 0 0-.74-.1h-.77v-.88Zm7.88-3.57-.12 2.17h-.76V172h.88v.64Zm2.1 0-.13 2.17h-.76V172h.89v.64Zm-96.5 27.44h4.17v.92h-5.26v-8.53h1.08v7.61Zm10.14.92a1.26 1.26 0 0 1-.1-.3 4.04 4.04 0 0 1-.06-.4 2.98 2.98 0 0 1-.8.58 2.84 2.84 0 0 1-1.11.24c-.34 0-.64-.05-.92-.15-.27-.1-.5-.23-.68-.4a1.71 1.71 0 0 1-.6-1.33c0-.34.07-.65.2-.91.15-.26.34-.48.6-.66.25-.17.56-.3.91-.38.36-.1.76-.13 1.2-.13h1.19v-.5c0-.2-.04-.37-.1-.52a1.12 1.12 0 0 0-.3-.39 1.4 1.4 0 0 0-.48-.25c-.19-.06-.4-.08-.62-.08-.22 0-.41.02-.58.08-.17.05-.31.13-.43.22s-.21.2-.28.32a.82.82 0 0 0-.09.38h-1.09a1.77 1.77 0 0 1 .68-1.28c.21-.18.48-.32.78-.43a3.56 3.56 0 0 1 2.06-.03 1.94 1.94 0 0 1 1.52 2v2.94a4.17 4.17 0 0 0 .23 1.29v.09H44.4Zm-1.91-.83a2.09 2.09 0 0 0 1.48-.6c.1-.12.2-.24.26-.36v-1.29H43.2c-.38 0-.7.04-.99.1-.27.07-.5.16-.66.3-.11.09-.2.2-.27.33-.06.13-.08.28-.08.44 0 .16.02.3.07.43a.9.9 0 0 0 .24.34c.1.1.24.18.4.23.16.06.35.08.56.08Zm9.17-.85a.76.76 0 0 0-.08-.35.76.76 0 0 0-.26-.28 1.95 1.95 0 0 0-.48-.24c-.2-.07-.45-.14-.74-.2-.37-.07-.7-.16-1-.27-.3-.1-.55-.23-.76-.38a1.63 1.63 0 0 1-.5-.5c-.12-.2-.17-.44-.17-.7 0-.26.06-.5.18-.72.12-.23.29-.42.5-.6.23-.16.49-.3.79-.4a3.5 3.5 0 0 1 2.05.02c.32.1.58.24.8.42a1.87 1.87 0 0 1 .69 1.4h-1.09a.82.82 0 0 0-.1-.4 1.14 1.14 0 0 0-.3-.35c-.12-.1-.27-.18-.45-.24s-.38-.1-.6-.1c-.23 0-.43.03-.61.08-.17.05-.31.12-.43.2a.86.86 0 0 0-.26.3.75.75 0 0 0-.09.36c0 .12.02.23.07.33s.13.19.25.26c.11.08.26.15.45.21.2.07.45.13.74.19.4.08.74.17 1.05.28.3.1.57.24.78.38.21.16.37.33.48.53.11.2.17.43.17.7 0 .27-.06.53-.2.76-.12.23-.3.43-.52.6a3.49 3.49 0 0 1-1.85.51 3.7 3.7 0 0 1-1.15-.17 2.7 2.7 0 0 1-.85-.47 1.77 1.77 0 0 1-.72-1.44h1.08c.02.23.08.42.18.57.1.15.24.28.4.37.14.1.31.16.5.2a2.73 2.73 0 0 0 1.31-.04c.22-.07.39-.17.5-.29a.8.8 0 0 0 .18-.25.7.7 0 0 0 .06-.28Zm5.56-6.2v1.54h2.41v.84h-2.41v3.44c0 .25.03.45.1.61a.94.94 0 0 0 .62.59c.15.04.3.06.46.06a4.15 4.15 0 0 0 1.06-.13l.26-.06.15.77c-.09.05-.2.1-.33.14a4.31 4.31 0 0 1-2.2.08 1.65 1.65 0 0 1-.63-.39 1.8 1.8 0 0 1-.43-.67c-.1-.27-.15-.6-.15-1v-3.44h-1.67v-.84h1.67v-1.53h1.09Zm9.38 4.6H62.1v-.9h4.48v.9Zm3.65-5.25 1.4 4.26 1.5-4.26h1.34V201h-1.05v-3.4l.08-3.57-1.57 4.6h-.62l-1.45-4.47.09 3.44v3.4H68.9v-8.53h1.34Zm5.72 5.3c0-.46.06-.88.2-1.27.13-.4.32-.74.57-1.03.25-.28.55-.51.9-.68.36-.16.76-.25 1.2-.25a2.8 2.8 0 0 1 2.13.94c.24.28.43.63.56 1.02.14.4.2.81.2 1.27v.13c0 .46-.06.88-.2 1.27a2.66 2.66 0 0 1-2.68 1.94 2.6 2.6 0 0 1-2.12-.93 3.04 3.04 0 0 1-.56-1c-.14-.4-.2-.82-.2-1.28v-.13Zm1.08.13c0 .31.04.61.11.9.08.28.19.53.34.74a1.6 1.6 0 0 0 1.36.7 1.57 1.57 0 0 0 1.34-.7c.15-.21.26-.46.34-.74.07-.29.1-.59.1-.9v-.13c0-.3-.03-.6-.1-.88a2.35 2.35 0 0 0-.34-.75 1.69 1.69 0 0 0-.57-.51c-.22-.13-.49-.2-.79-.2-.3 0-.56.07-.78.2-.22.12-.4.3-.56.5-.15.22-.26.47-.34.76-.07.28-.1.57-.1.88v.13Zm6.22-.12c0-.47.06-.9.18-1.3s.3-.74.52-1.03a2.27 2.27 0 0 1 1.85-.9c.37 0 .7.06.98.19.29.12.53.3.74.55V192h1.08v9h-1l-.04-.67c-.21.26-.46.45-.76.59-.29.13-.63.2-1.02.2a2.21 2.21 0 0 1-1.83-.93 3.29 3.29 0 0 1-.51-1.02c-.13-.4-.19-.82-.19-1.27v-.12Zm1.09.12c0 .3.03.6.1.88.06.28.17.52.3.73a1.52 1.52 0 0 0 1.31.69c.36 0 .66-.08.9-.25.24-.16.43-.38.57-.66v-2.94a1.8 1.8 0 0 0-.57-.63 1.5 1.5 0 0 0-.89-.26 1.48 1.48 0 0 0-1.31.69c-.14.22-.25.47-.31.75-.07.28-.1.57-.1.88v.12Zm6.5-3.24h3.24v5.4h2.06v.94h-5.3v-.94H93v-4.46h-2.15v-.94Zm2.01-1.66c0-.1.02-.19.04-.27a.56.56 0 0 1 .34-.33.77.77 0 0 1 .27-.04c.1 0 .2.01.27.04.08.03.14.07.2.12.06.06.1.13.14.2.03.09.04.18.04.28 0 .17-.05.32-.16.44-.11.11-.27.17-.49.17a.7.7 0 0 1-.5-.17.64.64 0 0 1-.15-.44Zm6.64 8v-5.5h-1.75v-.84h1.75v-.44c0-.41.06-.77.18-1.07a2.1 2.1 0 0 1 1.28-1.24 3.11 3.11 0 0 1 1.49-.13 5.5 5.5 0 0 1 1.04.2l-.13.9a3.86 3.86 0 0 0-1.24-.21c-.25 0-.47.03-.66.1a1.15 1.15 0 0 0-.77.75c-.07.2-.1.43-.1.7v.44h2.44v.84h-2.44v5.5H99.5Zm5.76-6.34h3.24v5.4h2.07v.94h-5.31v-.94h2.16v-4.46h-2.16v-.94Zm2.02-1.66c0-.1 0-.19.04-.27a.58.58 0 0 1 .14-.2.52.52 0 0 1 .19-.13.78.78 0 0 1 .28-.04c.1 0 .19.01.26.04.08.03.15.07.2.12.06.06.1.13.14.2.03.09.05.18.05.28 0 .17-.06.32-.17.44-.1.11-.27.17-.48.17-.22 0-.39-.06-.5-.17a.63.63 0 0 1-.16-.44Zm7.82 8.12c-.45 0-.86-.08-1.23-.23a2.81 2.81 0 0 1-1.58-1.61 3.3 3.3 0 0 1-.22-1.23v-.24a3.43 3.43 0 0 1 .9-2.41 2.84 2.84 0 0 1 3.18-.62 2.45 2.45 0 0 1 1.36 1.65c.11.37.17.78.17 1.22v.5h-4.53v.03c.03.31.09.58.18.82a2.06 2.06 0 0 0 1.02 1.07 2.21 2.21 0 0 0 2.58-.7l.67.52c-.21.32-.53.6-.95.86a3.1 3.1 0 0 1-1.55.37Zm-.14-5.69c-.22 0-.43.04-.62.13-.2.07-.38.19-.53.34a2.1 2.1 0 0 0-.4.58c-.1.22-.18.48-.22.77h3.4v-.05c0-.2-.03-.4-.1-.63a1.82 1.82 0 0 0-.31-.59 1.51 1.51 0 0 0-1.22-.55Zm4.34 2.35c0-.47.06-.9.17-1.3.13-.4.3-.74.52-1.03a2.27 2.27 0 0 1 1.85-.9c.38 0 .7.06.99.19.28.12.53.3.73.55V192h1.09v9h-1l-.05-.67c-.2.26-.46.45-.75.59-.3.13-.63.2-1.03.2a2.21 2.21 0 0 1-1.83-.93 3.3 3.3 0 0 1-.51-1.02c-.12-.4-.18-.82-.18-1.27v-.12Zm1.08.12c0 .3.04.6.1.88.07.28.17.52.31.73a1.5 1.5 0 0 0 1.3.69c.37 0 .67-.08.9-.25.24-.16.43-.38.57-.66v-2.94a1.8 1.8 0 0 0-.56-.63 1.5 1.5 0 0 0-.9-.26c-.3 0-.56.06-.78.19-.21.13-.39.3-.53.5-.14.22-.24.47-.3.75-.07.28-.1.57-.1.88v.12Zm8.51 2.4c0-.23.07-.43.21-.6.14-.16.36-.24.64-.24s.5.08.64.25c.15.16.22.35.22.59a.8.8 0 0 1-.22.58c-.15.15-.36.23-.64.23s-.5-.08-.64-.23a.85.85 0 0 1-.2-.58Zm0-5.14c0-.23.07-.42.21-.59.14-.16.36-.24.64-.24s.5.08.64.24c.15.16.22.36.22.6 0 .23-.07.42-.22.57-.15.16-.36.24-.64.24s-.5-.08-.64-.24a.85.85 0 0 1-.2-.58Zm17.99-1.76h-2.64v7.6h-1.05v-7.6h-2.64v-.93h6.33v.93Zm2.54 2.2a2.3 2.3 0 0 1 .62-.63c.19-.14.39-.25.61-.32a2.57 2.57 0 0 1 1.63.04c.27.1.5.24.7.44.18.2.33.47.43.78.1.3.16.67.16 1.1V201h-1.08v-4c0-.25-.03-.47-.1-.66a1.1 1.1 0 0 0-.71-.78 1.7 1.7 0 0 0-.63-.1 1.85 1.85 0 0 0-1.37.6c-.1.1-.19.21-.26.34v4.6h-1.09v-9h1.09v3.6Zm10.3 5.4-.07-.87c-.2.3-.47.55-.79.73a2.56 2.56 0 0 1-2 .1c-.27-.1-.5-.26-.69-.48-.19-.22-.34-.5-.44-.83-.1-.34-.16-.75-.16-1.22v-3.77h1.09v3.78c0 .34.03.63.08.85.05.23.14.41.25.54.1.14.24.24.4.3a2.35 2.35 0 0 0 1.2 0c.19-.07.35-.15.5-.25a1.73 1.73 0 0 0 .53-.67v-4.55h1.08V201h-.98Zm5.77-.25a3.02 3.02 0 0 1-1.02 2.22l-.67-.37c.19-.27.32-.56.4-.87.08-.31.12-.63.12-.96v-1.05h1.17v1.03Zm16.9.25h-5.59v-.78l2.8-3.1.63-.74c.16-.22.3-.42.4-.6a1.98 1.98 0 0 0 .28-1.01 1.65 1.65 0 0 0-.4-1.08 1.3 1.3 0 0 0-.48-.32 1.88 1.88 0 0 0-1.37 0 1.36 1.36 0 0 0-.83.9c-.07.2-.1.45-.1.71h-1.1c0-.36.07-.7.2-1.01a2.49 2.49 0 0 1 1.4-1.41c.35-.14.74-.2 1.17-.2.4 0 .77.05 1.09.17.32.12.6.28.82.5a2.42 2.42 0 0 1 .56 2.45 4.78 4.78 0 0 1-.86 1.45l-.61.7-2.3 2.49h4.3v.88Zm7.33-3.26a5.1 5.1 0 0 1-.19 1.44 2.45 2.45 0 0 1-1.4 1.72 2.9 2.9 0 0 1-1.16.22c-.44 0-.82-.08-1.17-.22a2.26 2.26 0 0 1-.87-.66 2.92 2.92 0 0 1-.55-1.06 5.1 5.1 0 0 1-.18-1.44v-2c0-.55.06-1.03.19-1.44.12-.43.3-.78.54-1.07.23-.29.52-.5.86-.66.34-.15.73-.22 1.17-.22.44 0 .82.07 1.16.22.35.15.64.37.88.66.23.29.41.65.53 1.07.13.41.2.9.2 1.44v2Zm-4.43-.22 3.32-2.55a3 3 0 0 0-.17-.74c-.08-.22-.19-.4-.32-.55-.14-.15-.3-.26-.5-.33-.19-.08-.4-.11-.66-.11s-.49.04-.69.12c-.2.08-.36.2-.5.34-.16.2-.28.45-.37.75-.07.3-.11.65-.11 1.05v2.02Zm3.34.44v-1.95l-3.31 2.53c.03.29.1.54.18.76.1.22.21.4.35.53a1.58 1.58 0 0 0 1.12.4c.25 0 .46-.03.66-.1.19-.08.35-.19.48-.32.18-.2.31-.45.4-.75.08-.31.12-.68.12-1.1Zm14.15-5.5h1.11v5.94a2.84 2.84 0 0 1-.8 1.95 2.66 2.66 0 0 1-1.97.77 2.56 2.56 0 0 1-1.93-.71 2.48 2.48 0 0 1-.59-.8 3.3 3.3 0 0 1-.26-1.08h1.1a2 2 0 0 0 .14.66c.08.2.2.38.34.53a1.65 1.65 0 0 0 1.2.48c.26 0 .49-.05.7-.14a1.63 1.63 0 0 0 .83-.96c.08-.22.13-.45.13-.7v-5.93Zm7.39 8.54-.07-.87c-.2.3-.47.55-.79.73a2.56 2.56 0 0 1-2 .1c-.27-.1-.5-.26-.69-.48-.19-.22-.34-.5-.44-.83-.1-.34-.16-.75-.16-1.22v-3.77h1.09v3.78c0 .34.02.63.08.85.05.23.14.41.25.54.1.14.24.24.4.3a2.35 2.35 0 0 0 1.2 0c.19-.07.35-.15.5-.25a1.77 1.77 0 0 0 .53-.67v-4.55h1.08V201h-.98Zm3.03 0v-6.34h.97l.07.94a2.79 2.79 0 0 1 .67-.66 2.46 2.46 0 0 1 1.31-.4c.33 0 .63.05.9.14.28.1.5.24.7.44.19.2.34.46.44.76.1.3.16.67.16 1.1V201h-1.09v-4c0-.28-.03-.52-.1-.72a1 1 0 0 0-.27-.47 1.13 1.13 0 0 0-.45-.27 2.05 2.05 0 0 0-1.17.01c-.17.05-.33.13-.47.23a2.19 2.19 0 0 0-.6.67V201h-1.08Zm19.64 0h-5.59v-.78l2.8-3.1c.25-.28.46-.53.62-.74.17-.22.3-.42.4-.6a1.98 1.98 0 0 0 .28-1.01 1.65 1.65 0 0 0-.39-1.08 1.3 1.3 0 0 0-.48-.32 1.88 1.88 0 0 0-1.37 0 1.36 1.36 0 0 0-.83.9c-.07.2-.1.45-.1.71h-1.1c0-.36.07-.7.2-1.01.12-.32.3-.6.54-.84.24-.24.52-.43.86-.57.34-.14.74-.2 1.17-.2.4 0 .77.05 1.09.17.32.12.6.28.82.5a2.42 2.42 0 0 1 .56 2.45c-.09.24-.2.49-.34.73a6.7 6.7 0 0 1-.52.72l-.61.7-2.3 2.49h4.3v.88Zm7.33-3.26a5.1 5.1 0 0 1-.19 1.44 2.45 2.45 0 0 1-1.4 1.72 2.9 2.9 0 0 1-1.16.22c-.44 0-.82-.08-1.17-.22a2.26 2.26 0 0 1-.87-.66 2.93 2.93 0 0 1-.55-1.06 5.1 5.1 0 0 1-.18-1.44v-2c0-.55.06-1.03.18-1.44a3 3 0 0 1 .55-1.07c.23-.29.52-.5.86-.66.34-.15.73-.22 1.17-.22.43 0 .82.07 1.16.22.35.15.64.37.88.66.23.29.4.65.53 1.07.13.41.2.9.2 1.44v2Zm-4.43-.22 3.32-2.55a3.04 3.04 0 0 0-.17-.74c-.08-.22-.19-.4-.32-.55-.14-.15-.3-.26-.5-.33a1.7 1.7 0 0 0-.66-.11c-.26 0-.49.04-.69.12-.2.08-.36.2-.5.34-.16.2-.28.45-.37.75-.07.3-.11.65-.11 1.05v2.02Zm3.34.44v-1.95l-3.31 2.53c.03.29.1.54.18.76.1.22.21.4.36.53.13.14.29.24.47.3.2.08.4.1.64.1s.46-.03.65-.1c.2-.08.36-.19.5-.32.17-.2.3-.45.38-.75a4 4 0 0 0 .13-1.1Zm8.18 3.04h-5.6v-.78l2.8-3.1.63-.74c.17-.22.3-.42.4-.6a1.98 1.98 0 0 0 .28-1.01 1.65 1.65 0 0 0-.4-1.08 1.53 1.53 0 0 0-1.1-.45c-.29 0-.54.04-.75.13a1.37 1.37 0 0 0-.83.9c-.06.2-.1.45-.1.71h-1.09a2.6 2.6 0 0 1 1.6-2.42c.34-.14.73-.2 1.17-.2.4 0 .76.05 1.08.17.33.12.6.28.82.5.23.2.4.46.51.75a2.42 2.42 0 0 1 .05 1.7c-.08.24-.2.49-.34.73a6.7 6.7 0 0 1-.52.72l-.6.7-2.3 2.49h4.29v.88Zm6.37-2.87h1.18v.89h-1.19V201h-1.08v-1.98h-3.89v-.64l3.82-5.91h1.16v5.66Zm-3.78 0h2.7v-4.22l-.19.33-2.5 3.9Zm17.31 2.87h-1.08v-7.15l-2.24.85v-.99l3.23-1.24h.09V201Zm7.2 0h-1.08v-7.15l-2.23.85v-.99l3.23-1.24h.09V201Zm5.88-.7c0-.23.07-.43.2-.6.15-.16.36-.24.65-.24.28 0 .5.08.64.25.14.16.22.35.22.59a.8.8 0 0 1-.22.58.88.88 0 0 1-.64.23c-.28 0-.5-.08-.64-.23a.85.85 0 0 1-.21-.58Zm0-5.14c0-.23.07-.42.2-.59.15-.16.36-.24.65-.24.28 0 .5.08.64.24.14.16.22.36.22.6 0 .23-.07.42-.22.57a.84.84 0 0 1-.64.24c-.28 0-.5-.08-.64-.24a.85.85 0 0 1-.21-.58Zm6.3 1.05h.76c.28 0 .52-.03.72-.1.22-.08.4-.18.54-.31s.25-.29.32-.47.11-.37.11-.59a2 2 0 0 0-.1-.66 1.2 1.2 0 0 0-.29-.48 1.17 1.17 0 0 0-.47-.26 2.08 2.08 0 0 0-1.26 0 1.33 1.33 0 0 0-.8.76c-.08.18-.11.38-.11.6h-1.1a2.25 2.25 0 0 1 .73-1.66c.23-.21.51-.38.83-.5a3.29 3.29 0 0 1 2.13-.03 2.05 2.05 0 0 1 1.34 1.21c.12.3.19.65.19 1.05a1.82 1.82 0 0 1-.31 1.01 2.23 2.23 0 0 1-1 .84c.27.1.5.21.69.35a1.82 1.82 0 0 1 .68 1.05 3.05 3.05 0 0 1-.14 1.66c-.14.31-.33.57-.57.78a2.5 2.5 0 0 1-.86.5 3.5 3.5 0 0 1-2.13 0 2.5 2.5 0 0 1-.85-.46c-.24-.2-.44-.46-.58-.75-.14-.3-.21-.63-.21-1h1.08c0 .22.04.43.11.6a1.34 1.34 0 0 0 .84.78c.2.07.43.1.67.1a2 2 0 0 0 .67-.1 1.23 1.23 0 0 0 .83-.79c.08-.2.12-.43.12-.7 0-.26-.04-.49-.13-.68a1.3 1.3 0 0 0-.37-.49 1.57 1.57 0 0 0-.58-.28c-.22-.07-.47-.1-.74-.1h-.77v-.88Zm11.29 1.53a5.1 5.1 0 0 1-.19 1.44c-.12.42-.3.77-.54 1.06-.23.29-.52.5-.86.66a2.9 2.9 0 0 1-1.17.22c-.43 0-.82-.08-1.16-.22a2.26 2.26 0 0 1-.88-.66 2.93 2.93 0 0 1-.54-1.06 5.1 5.1 0 0 1-.19-1.44v-2c0-.55.06-1.03.19-1.44a3 3 0 0 1 .55-1.07c.23-.29.52-.5.86-.66.34-.15.73-.22 1.16-.22.44 0 .83.07 1.17.22.34.15.63.37.87.66.24.29.42.65.54 1.07.13.41.19.9.19 1.44v2Zm-4.44-.22 3.32-2.55a3 3 0 0 0-.16-.74c-.08-.22-.2-.4-.33-.55-.13-.15-.3-.26-.49-.33-.2-.08-.41-.11-.67-.11-.25 0-.48.04-.68.12-.2.08-.36.2-.5.34-.17.2-.29.45-.37.75-.08.3-.12.65-.12 1.05v2.02Zm3.35.44v-1.95l-3.32 2.53c.04.29.1.54.19.76.09.22.2.4.35.53.13.14.3.24.48.3.19.08.4.1.63.1.25 0 .47-.03.66-.1.2-.08.35-.19.49-.32.18-.2.3-.45.39-.75.08-.31.13-.68.13-1.1Zm5.12 2.34c0-.23.07-.43.21-.6.14-.16.35-.24.64-.24.28 0 .5.08.64.25.15.16.22.35.22.59a.8.8 0 0 1-.22.58c-.15.15-.36.23-.64.23s-.5-.08-.64-.23a.85.85 0 0 1-.21-.58Zm0-5.14c0-.23.07-.42.21-.59.14-.16.35-.24.64-.24.28 0 .5.08.64.24.15.16.22.36.22.6 0 .23-.07.42-.22.57-.15.16-.36.24-.64.24s-.5-.08-.64-.24a.85.85 0 0 1-.21-.58Zm10.38 2.58a5.1 5.1 0 0 1-.19 1.44 2.45 2.45 0 0 1-1.4 1.72 2.9 2.9 0 0 1-1.16.22c-.44 0-.82-.08-1.17-.22a2.28 2.28 0 0 1-.87-.66 2.93 2.93 0 0 1-.55-1.06 5.1 5.1 0 0 1-.18-1.44v-2c0-.55.06-1.03.18-1.44a3 3 0 0 1 .55-1.07c.23-.29.52-.5.86-.66.34-.15.73-.22 1.17-.22.43 0 .82.07 1.16.22.35.15.64.37.88.66.23.29.41.65.54 1.07.12.41.18.9.18 1.44v2Zm-4.43-.22 3.32-2.55a3 3 0 0 0-.17-.74c-.08-.22-.19-.4-.32-.55-.14-.15-.3-.26-.5-.33a1.7 1.7 0 0 0-.66-.11c-.26 0-.49.04-.69.12-.2.08-.36.2-.5.34-.16.2-.28.45-.37.75-.07.3-.11.65-.11 1.05v2.02Zm3.34.44v-1.95l-3.31 2.53c.03.29.1.54.18.76a1.5 1.5 0 0 0 .84.83c.18.08.4.1.63.1.24 0 .46-.03.65-.1.2-.08.36-.19.5-.32.17-.2.3-.45.38-.75a4 4 0 0 0 .13-1.1Zm8.3-.22a5.1 5.1 0 0 1-.19 1.44c-.12.42-.3.77-.54 1.06-.23.29-.52.5-.86.66a2.9 2.9 0 0 1-1.17.22c-.43 0-.82-.08-1.16-.22a2.28 2.28 0 0 1-.87-.66 2.93 2.93 0 0 1-.55-1.06 5.1 5.1 0 0 1-.19-1.44v-2c0-.55.07-1.03.2-1.44a3 3 0 0 1 .54-1.07c.23-.29.52-.5.86-.66.34-.15.73-.22 1.16-.22.44 0 .83.07 1.17.22.34.15.63.37.87.66.24.29.42.65.54 1.07.13.41.19.9.19 1.44v2Zm-4.44-.22 3.33-2.55a3 3 0 0 0-.17-.74c-.08-.22-.19-.4-.33-.55-.13-.15-.3-.26-.49-.33a1.71 1.71 0 0 0-.67-.11c-.25 0-.48.04-.68.12-.2.08-.36.2-.5.34-.16.2-.29.45-.37.75-.08.3-.12.65-.12 1.05v2.02Zm3.35.44v-1.95l-3.32 2.53c.04.29.1.54.19.76.09.22.2.4.35.53.13.14.3.24.48.3.19.08.4.1.63.1.25 0 .47-.03.66-.1.2-.08.35-.19.49-.32.18-.2.3-.45.39-.75a4 4 0 0 0 .13-1.1Zm15.67 1.92a3.88 3.88 0 0 1-.89.76 3.79 3.79 0 0 1-2.85.32 2.98 2.98 0 0 1-1.4-1.07 4.56 4.56 0 0 1-.8-2.66v-.99a4.97 4.97 0 0 1 .74-2.65 2.78 2.78 0 0 1 1.35-1.08 3.14 3.14 0 0 1 2.07.03 2.6 2.6 0 0 1 1.48 1.35c.16.32.25.68.29 1.08h-1.08a3 3 0 0 0-.2-.68 1.58 1.58 0 0 0-.88-.88 1.8 1.8 0 0 0-.7-.13 1.65 1.65 0 0 0-1.21.48c-.15.15-.27.33-.37.53a3.54 3.54 0 0 0-.38 1.28c-.02.23-.04.45-.04.66v1c0 .22.03.44.06.67a4.35 4.35 0 0 0 .42 1.29c.11.2.25.37.4.52a1.83 1.83 0 0 0 1.22.5 3.84 3.84 0 0 0 .94-.12c.16-.05.3-.11.43-.2a.98.98 0 0 0 .34-.3v-1.92h-1.73v-.92h2.77l.02 3.13Zm2.87-7.41 1.4 4.26 1.5-4.26h1.34V201h-1.05v-3.4l.08-3.57-1.57 4.6h-.62l-1.45-4.47.09 3.44v3.4h-1.06v-8.53h1.34Zm11.78.93h-2.64v7.6h-1.06v-7.6h-2.63v-.93h6.33v.93ZM37.96 239.85 33 237.63v-.85l4.96-2.22v1.15l-3.58 1.4-.31.1.3.11 3.6 1.38v1.15Zm5.29-1.61h-1.09v-5.77h1.09v5.77Zm-1.2 2.2c0-.2.06-.35.17-.48a.65.65 0 0 1 .5-.19c.23 0 .4.07.5.2.12.12.18.27.18.46 0 .18-.06.33-.17.45-.12.12-.28.18-.5.18-.23 0-.4-.06-.51-.18a.65.65 0 0 1-.17-.45Zm5.27.56v-8.53h1.98a4.5 4.5 0 0 1 1.75.37 3.2 3.2 0 0 1 1.57 1.53 5.2 5.2 0 0 1 .45 2.05v.63a4.93 4.93 0 0 1-.42 2 3.34 3.34 0 0 1-2.21 1.8c-.35.1-.73.15-1.14.15h-1.98Zm1.1-7.64v6.75h.88c.3 0 .6-.04.85-.11a2.36 2.36 0 0 0 1.6-1.53 5.26 5.26 0 0 0 .24-1.42v-.64a4.76 4.76 0 0 0-.26-1.44 2.34 2.34 0 0 0-1.07-1.28 3.19 3.19 0 0 0-1.36-.33h-.88Zm11.77 3.87a6.27 6.27 0 0 1-.3 1.82c-.1.29-.24.56-.4.8a2.56 2.56 0 0 1-2.27 1.26c-.35 0-.67-.05-.95-.15a2.58 2.58 0 0 1-.75-.45c-.22-.18-.4-.4-.57-.65a4.95 4.95 0 0 1-.7-2.63v-.98a4.92 4.92 0 0 1 .7-2.63 2.48 2.48 0 0 1 1.32-1.1c.27-.11.6-.17.94-.17a2.64 2.64 0 0 1 1.71.6c.22.2.41.41.57.67a4.1 4.1 0 0 1 .62 1.7c.05.32.08.63.08.93v.98Zm-1.07-.99a7.28 7.28 0 0 0-.16-1.3 3.6 3.6 0 0 0-.23-.6c-.1-.2-.21-.38-.35-.53a1.55 1.55 0 0 0-1.17-.5 1.54 1.54 0 0 0-1.16.5c-.14.15-.26.33-.35.53a4.87 4.87 0 0 0-.4 1.9v.99l.05.63a4.65 4.65 0 0 0 .36 1.28c.1.2.2.38.35.52.14.16.3.28.5.37.19.09.41.13.66.13a1.55 1.55 0 0 0 1.18-.5c.13-.14.25-.32.34-.51a3.73 3.73 0 0 0 .34-1.28l.04-.64v-.99Zm8.25 2.2c-.05.39-.15.75-.3 1.08a2.64 2.64 0 0 1-1.46 1.4c-.34.13-.71.2-1.12.2a2.69 2.69 0 0 1-2.3-1.18 4.7 4.7 0 0 1-.73-2.6v-1.2a4.7 4.7 0 0 1 .73-2.6 2.72 2.72 0 0 1 2.3-1.19c.43 0 .8.07 1.14.2a2.48 2.48 0 0 1 1.45 1.42c.15.34.25.7.3 1.11h-1.1a3.2 3.2 0 0 0-.17-.72 2 2 0 0 0-.35-.59 1.5 1.5 0 0 0-.53-.39c-.2-.1-.45-.14-.74-.14-.26 0-.49.04-.69.13-.2.08-.36.2-.5.34a2 2 0 0 0-.36.5 3.45 3.45 0 0 0-.36 1.27c-.02.22-.04.44-.04.65v1.2a6.35 6.35 0 0 0 .17 1.31c.06.22.13.43.23.62a1.86 1.86 0 0 0 .86.86c.2.08.43.12.69.12.29 0 .53-.05.74-.14.2-.09.39-.21.53-.38.15-.16.26-.35.35-.57.08-.22.14-.46.18-.72h1.08Zm7.44-5.04h-2.64v7.6h-1.05v-7.6h-2.64v-.93h6.33v.93Zm3.97 3.35 1.94-4.28h1.23l-2.65 5.35-.02 3.18h-1l-.03-3.18-2.65-5.35h1.24l1.94 4.28Zm5.87.83V241h-1.08v-8.53h2.76c.39 0 .75.07 1.09.18.34.11.64.28.9.5.26.2.46.47.61.79.15.32.23.68.23 1.09 0 .4-.08.77-.23 1.09a2.3 2.3 0 0 1-.61.79c-.26.22-.56.38-.9.5-.34.1-.7.16-1.09.17h-1.68Zm0-.9h1.68c.25 0 .48-.03.7-.11a1.53 1.53 0 0 0 1.04-1.53 1.73 1.73 0 0 0-.49-1.22 1.65 1.65 0 0 0-.55-.34 2.08 2.08 0 0 0-.7-.12h-1.68v3.33Zm10.72.38H91.8v3.02h4.15v.92h-5.24v-8.53h5.19v.93h-4.1v2.74h3.56v.92Zm10.8-1.46a2.25 2.25 0 0 1 .63-.63c.18-.14.39-.25.61-.32a2.57 2.57 0 0 1 1.62.04c.28.1.5.24.7.44.2.2.34.47.44.78.1.3.16.67.16 1.1V241h-1.09v-4c0-.25-.02-.47-.08-.66a1.25 1.25 0 0 0-.26-.47 1.1 1.1 0 0 0-.46-.3c-.18-.08-.4-.11-.63-.1a1.85 1.85 0 0 0-1.37.59c-.1.1-.19.21-.27.34v4.6h-1.08v-9h1.08v3.6Zm8.7-2.47v1.53h2.4v.84h-2.4v3.44c0 .25.02.45.09.61a.94.94 0 0 0 .63.59c.14.04.3.06.46.06a4.15 4.15 0 0 0 1.06-.13l.25-.06.16.77c-.1.05-.2.1-.33.14a4.35 4.35 0 0 1-2.2.08 1.64 1.64 0 0 1-.64-.39 1.8 1.8 0 0 1-.42-.67 2.9 2.9 0 0 1-.16-1v-3.44h-1.66v-.84h1.66v-1.53h1.1Zm5.13 1.53.03.6c.13-.22.3-.4.5-.52.22-.13.47-.2.77-.2a1.56 1.56 0 0 1 .8.22c.08.05.15.12.2.2.07.08.12.16.16.26a1.5 1.5 0 0 1 .44-.45 1.51 1.51 0 0 1 .8-.23c.22 0 .42.04.6.1.17.07.32.16.44.28.14.14.24.33.3.56.08.22.11.48.11.79V241h-1.03v-4.75c0-.13-.02-.25-.05-.35a.68.68 0 0 0-.13-.25.58.58 0 0 0-.23-.14.97.97 0 0 0-.32-.05.93.93 0 0 0-.33.06.7.7 0 0 0-.24.14.7.7 0 0 0-.15.21.88.88 0 0 0-.07.27V241h-1.03v-4.75c0-.13-.01-.25-.04-.35a.58.58 0 0 0-.14-.25.5.5 0 0 0-.22-.14 1.13 1.13 0 0 0-.65 0 .67.67 0 0 0-.46.44V241h-1.03v-6.34h.97Zm6.88-2.66h3.24v8.06h2.07v.94h-5.3v-.94h2.15v-7.12h-2.16V232Zm7.06 7.85v-1.13l3.8-1.43.34-.1-.35-.11-3.79-1.4v-1.13l5.18 2.22v.85l-5.18 2.23Zm-95.98 20L33 257.63v-.86l4.96-2.2v1.14l-3.58 1.4-.31.1.3.11 3.6 1.38v1.15Zm3.35-4.25a2.28 2.28 0 0 1 .62-.63c.19-.14.4-.25.62-.32a2.57 2.57 0 0 1 1.62.04c.27.1.5.24.7.44.19.2.34.47.44.78.1.3.15.67.15 1.1V261h-1.08v-4c0-.25-.03-.47-.09-.66a1.1 1.1 0 0 0-.71-.78c-.19-.07-.4-.1-.63-.1a1.85 1.85 0 0 0-1.38.6c-.1.1-.18.21-.26.33V261h-1.08v-9h1.08v3.6Zm8.69-2.47v1.53h2.41v.84H50v3.44c0 .25.03.45.1.61a.94.94 0 0 0 .63.59c.14.04.3.06.45.06a4.15 4.15 0 0 0 1.06-.13l.26-.06.15.77c-.09.05-.2.1-.32.14a4.32 4.32 0 0 1-2.2.08 1.65 1.65 0 0 1-.64-.39 1.8 1.8 0 0 1-.43-.67c-.1-.27-.15-.6-.15-1v-3.44h-1.66v-.84h1.66v-1.53H50Zm5.14 1.53.03.6c.13-.22.3-.4.5-.52.21-.13.47-.2.76-.2a1.57 1.57 0 0 1 .81.22c.08.05.14.12.2.2.06.08.12.16.16.26a1.48 1.48 0 0 1 .43-.45 1.5 1.5 0 0 1 .81-.23c.22 0 .42.04.6.1.17.07.32.16.44.28.13.14.23.33.3.56.07.22.1.48.1.79V261h-1.02v-4.75c0-.13-.02-.25-.05-.35a.68.68 0 0 0-.13-.25.6.6 0 0 0-.24-.14.97.97 0 0 0-.31-.05.93.93 0 0 0-.34.06.7.7 0 0 0-.23.14.7.7 0 0 0-.15.21.9.9 0 0 0-.07.27V261h-1.03v-4.75c0-.13-.02-.25-.05-.35a.58.58 0 0 0-.13-.25.49.49 0 0 0-.23-.14 1.12 1.12 0 0 0-.64 0 .66.66 0 0 0-.37.27.95.95 0 0 0-.1.18V261h-1.02v-6.34h.97Zm6.88-2.66h3.24v8.06h2.07v.94h-5.31v-.94h2.15v-7.12h-2.15V252Zm14.41 0h3.24v8.06h2.07v.94h-5.3v-.94h2.15v-7.12h-2.16V252Zm11.2 9a1.26 1.26 0 0 1-.1-.3 4.04 4.04 0 0 1-.05-.4 2.99 2.99 0 0 1-.81.58 2.84 2.84 0 0 1-1.1.24c-.35 0-.65-.05-.92-.15-.27-.1-.5-.23-.69-.4a1.72 1.72 0 0 1-.6-1.33 2 2 0 0 1 .2-.91c.15-.26.35-.48.6-.66.25-.17.56-.3.91-.38.36-.1.76-.13 1.2-.13h1.19v-.5c0-.2-.04-.37-.1-.52a1.12 1.12 0 0 0-.3-.39 1.4 1.4 0 0 0-.48-.25c-.18-.06-.4-.08-.62-.08-.22 0-.4.02-.58.08-.17.05-.31.13-.43.22s-.2.2-.27.32a.82.82 0 0 0-.1.38H83.5c0-.23.06-.46.18-.68.12-.22.28-.43.5-.6.22-.18.48-.32.79-.43a3.56 3.56 0 0 1 2.06-.03 1.94 1.94 0 0 1 1.52 2v2.94a4.17 4.17 0 0 0 .23 1.29v.09h-1.14Zm-1.91-.83a2.09 2.09 0 0 0 1.48-.6c.11-.12.2-.24.26-.36v-1.29h-1c-.38 0-.71.04-1 .1-.27.07-.5.16-.66.3-.11.09-.2.2-.26.33s-.1.28-.1.44c0 .16.03.3.08.43a.9.9 0 0 0 .24.34c.1.1.24.18.4.23.16.06.35.08.56.08Zm4.96.83v-6.34h.97l.07.94a2.82 2.82 0 0 1 .67-.66 2.47 2.47 0 0 1 1.31-.4c.33 0 .63.05.9.14.28.1.5.24.7.44.19.2.34.46.44.76.1.3.16.67.16 1.1V261h-1.1v-4c0-.28-.03-.52-.1-.72a1 1 0 0 0-.27-.47 1.13 1.13 0 0 0-.45-.27 2.04 2.04 0 0 0-1.17.01c-.17.05-.33.13-.47.23a2.16 2.16 0 0 0-.59.67V261h-1.08Zm7-3.22c0-.47.06-.9.17-1.3.12-.4.29-.74.5-1.03.23-.28.5-.5.8-.67a2.58 2.58 0 0 1 1.76-.15 1.97 1.97 0 0 1 1.09.72l.05-.69h.98v6.2c0 .42-.06.8-.2 1.12a2.21 2.21 0 0 1-1.39 1.34 3.2 3.2 0 0 1-2.3-.06c-.21-.09-.42-.2-.62-.34s-.38-.31-.52-.52l.56-.65a2.64 2.64 0 0 0 .84.67 2 2 0 0 0 .87.19c.26 0 .49-.04.7-.11a1.4 1.4 0 0 0 .87-.86c.07-.2.1-.45.1-.72v-.55a2.37 2.37 0 0 1-.55.47 2.6 2.6 0 0 1-1.19.28 2.22 2.22 0 0 1-1.84-.93 3.2 3.2 0 0 1-.5-1.02c-.12-.4-.18-.82-.18-1.27v-.12Zm1.09.12c0 .3.03.6.1.88.06.28.16.52.3.73.14.21.31.38.53.5a1.82 1.82 0 0 0 1.28.12 1.54 1.54 0 0 0 .97-.86v-2.9a1.93 1.93 0 0 0-.57-.66 1.63 1.63 0 0 0-.9-.25 1.5 1.5 0 0 0-1.31.69c-.14.22-.24.47-.3.75a4 4 0 0 0-.1.88v.12Zm11.55-1.47h-5.24v-.94h5.24v.94Zm0 2.43h-5.24v-.94h5.24v.94Zm3.92-6.22-.13 2.17h-.76V252h.89v.64Zm2.09 0-.13 2.17h-.75V252h.88v.64Zm5.98 8.48c-.45 0-.86-.08-1.24-.23a2.81 2.81 0 0 1-1.57-1.61 3.3 3.3 0 0 1-.22-1.23v-.24c0-.51.08-.97.24-1.37.17-.41.38-.75.66-1.04a2.84 2.84 0 0 1 3.18-.62c.34.16.63.38.86.65.22.28.39.62.5 1 .11.37.17.78.17 1.22v.5h-4.53v.03c.03.31.09.58.18.82a2.06 2.06 0 0 0 1.02 1.07 2.21 2.21 0 0 0 2.58-.7l.67.52c-.21.32-.53.6-.95.86a3.1 3.1 0 0 1-1.55.37Zm-.15-5.69c-.22 0-.42.04-.62.13-.2.07-.37.19-.52.34a2.1 2.1 0 0 0-.4.58c-.1.22-.18.48-.23.77h3.42v-.05c0-.2-.04-.4-.12-.63a1.82 1.82 0 0 0-.3-.59 1.51 1.51 0 0 0-1.23-.55Zm4.55 5.57v-6.34h.97l.08.94a2.86 2.86 0 0 1 .66-.66 2.47 2.47 0 0 1 1.31-.4c.34 0 .64.05.9.14a1.74 1.74 0 0 1 1.14 1.2c.1.3.16.67.16 1.1V261h-1.08v-4c0-.28-.03-.52-.1-.72-.06-.2-.15-.35-.27-.47a1.24 1.24 0 0 0-.46-.27 2.04 2.04 0 0 0-1.17.01c-.17.05-.32.13-.47.23a2.14 2.14 0 0 0-.58.67V261h-1.09Zm9.15-8.36-.13 2.17h-.76V252h.89v.64Zm2.09 0-.12 2.17h-.76V252h.89l-.01.64Zm-103.86 24.9a9.17 9.17 0 0 1 .49-2.95 7.8 7.8 0 0 1 1.12-2.07 5.3 5.3 0 0 1 1.26-1.15l.23.72a3.28 3.28 0 0 0-.75.78 6.12 6.12 0 0 0-.93 2.02 10.83 10.83 0 0 0-.33 2.64v.08a10.79 10.79 0 0 0 .3 2.55 7.97 7.97 0 0 0 .77 1.84 5.18 5.18 0 0 0 .94 1.1l-.23.65a4.83 4.83 0 0 1-1.26-1.14 6.91 6.91 0 0 1-1.12-2.07 8.8 8.8 0 0 1-.49-2.94v-.06Zm6.63-2.88.03.6c.13-.22.3-.4.5-.52.22-.13.47-.2.77-.2a1.57 1.57 0 0 1 .8.22c.08.05.15.12.2.2.07.08.12.17.17.26a1.48 1.48 0 0 1 .43-.45 1.5 1.5 0 0 1 .8-.23c.23 0 .42.04.6.1.18.06.32.16.44.28.14.14.24.33.3.56.08.22.12.48.12.79V281h-1.04v-4.75c0-.13-.01-.25-.04-.35a.68.68 0 0 0-.14-.25.59.59 0 0 0-.23-.14.97.97 0 0 0-.32-.05.93.93 0 0 0-.33.06.7.7 0 0 0-.24.14.7.7 0 0 0-.14.21.9.9 0 0 0-.07.27V281h-1.04v-4.75c0-.13-.01-.25-.04-.35a.58.58 0 0 0-.14-.25.49.49 0 0 0-.22-.14 1.12 1.12 0 0 0-.64 0 .66.66 0 0 0-.38.27.95.95 0 0 0-.09.18V281h-1.03v-6.34h.97Zm6.4 3.11c0-.46.08-.88.2-1.27a2.99 2.99 0 0 1 1.48-1.71c.36-.16.76-.25 1.2-.25a2.8 2.8 0 0 1 2.13.94c.24.28.43.63.57 1.02.13.4.2.81.2 1.27v.13c0 .46-.07.88-.2 1.27a3.1 3.1 0 0 1-.57 1.02 2.66 2.66 0 0 1-2.11.93c-.45 0-.86-.08-1.22-.25a2.6 2.6 0 0 1-.9-.68 3.03 3.03 0 0 1-.57-1.02c-.13-.39-.2-.81-.2-1.27v-.13Zm1.1.13a2.65 2.65 0 0 0 .44 1.64 1.61 1.61 0 0 0 1.35.7 1.57 1.57 0 0 0 1.36-.7c.14-.21.26-.46.33-.74.07-.29.11-.59.11-.9v-.13c0-.3-.04-.6-.12-.88a2.35 2.35 0 0 0-.33-.75 1.69 1.69 0 0 0-.57-.51 1.5 1.5 0 0 0-.78-.2c-.3 0-.57.07-.79.2-.22.12-.4.3-.56.5-.15.22-.26.47-.34.76-.07.28-.1.57-.1.88v.13Zm10.57-3.36a4.99 4.99 0 0 1 1.12.15l-.15 1.07a5.32 5.32 0 0 0-1.2-.14c-.26 0-.5.03-.71.1a1.65 1.65 0 0 0-.95.69c-.1.15-.2.33-.26.52V281h-1.1v-6.34h1.04l.05.85v.16c.26-.35.57-.62.93-.82.36-.2.77-.3 1.23-.3Zm5.86 6.58c-.45 0-.86-.08-1.23-.23a2.8 2.8 0 0 1-1.58-1.61 3.3 3.3 0 0 1-.22-1.23v-.24c0-.51.08-.97.25-1.37a2.84 2.84 0 0 1 2.64-1.9 2.5 2.5 0 0 1 2.05.89c.23.28.4.62.5 1 .12.37.17.78.17 1.22v.5H62.7v.03c.03.31.1.58.18.82a2.06 2.06 0 0 0 1.02 1.07 2.2 2.2 0 0 0 2.58-.7l.67.52c-.21.32-.53.6-.95.86-.42.24-.93.37-1.55.37Zm-.14-5.69c-.22 0-.43.05-.62.13-.2.07-.37.19-.53.34a2.1 2.1 0 0 0-.4.58c-.1.22-.18.48-.22.77h3.4v-.05a2 2 0 0 0-.1-.63 1.83 1.83 0 0 0-.31-.59 1.5 1.5 0 0 0-1.22-.55Zm11.55 2.35c0-.47.06-.9.17-1.3.12-.4.3-.74.52-1.03a2.27 2.27 0 0 1 1.85-.9c.37 0 .7.06.98.19.29.12.54.3.74.55V272h1.09v9h-1l-.05-.67c-.2.26-.46.46-.75.59-.3.13-.64.2-1.03.2a2.2 2.2 0 0 1-1.83-.93 3.29 3.29 0 0 1-.51-1.02c-.12-.4-.18-.82-.18-1.27v-.12Zm1.08.12c0 .3.03.6.1.88s.17.52.31.73a1.5 1.5 0 0 0 1.3.69c.36 0 .67-.08.9-.25.24-.16.43-.38.57-.66v-2.94a1.8 1.8 0 0 0-.57-.64 1.5 1.5 0 0 0-.89-.25 1.5 1.5 0 0 0-1.31.69c-.14.22-.24.47-.31.75s-.1.57-.1.88v.12Zm10.5 3.1a1.26 1.26 0 0 1-.11-.3 4.04 4.04 0 0 1-.05-.4 2.99 2.99 0 0 1-.81.58 2.84 2.84 0 0 1-1.1.24c-.35 0-.65-.05-.92-.15-.27-.1-.5-.23-.69-.4a1.72 1.72 0 0 1-.6-1.33 2 2 0 0 1 .2-.91c.15-.26.35-.48.6-.66.25-.17.56-.3.91-.38.36-.1.76-.13 1.2-.13h1.19v-.5c0-.2-.04-.37-.1-.52a1.12 1.12 0 0 0-.3-.39 1.4 1.4 0 0 0-.48-.25c-.18-.06-.4-.08-.62-.08a1.77 1.77 0 0 0-1.01.29c-.12.1-.2.2-.27.33a.82.82 0 0 0-.1.38H83.5c0-.23.06-.46.18-.68.12-.22.28-.43.5-.6.22-.18.48-.32.79-.43a3.56 3.56 0 0 1 2.06-.03 1.94 1.94 0 0 1 1.52 2v2.94a4.17 4.17 0 0 0 .23 1.29v.09h-1.14Zm-1.92-.83a2.09 2.09 0 0 0 1.48-.6c.11-.12.2-.24.26-.36v-1.29h-1c-.38 0-.71.04-1 .1-.27.07-.5.16-.66.3-.11.09-.2.2-.26.33s-.1.28-.1.44c0 .16.03.3.08.43a.9.9 0 0 0 .24.34c.1.1.24.18.4.23.16.06.35.08.56.08Zm7.52-7.05v1.54h2.42v.84h-2.42v3.44c0 .25.03.45.1.61a.94.94 0 0 0 .63.59c.14.04.3.06.46.06a4.15 4.15 0 0 0 1.06-.13l.25-.06.16.77c-.1.05-.2.1-.33.14a4.32 4.32 0 0 1-2.2.08 1.65 1.65 0 0 1-.64-.39 1.8 1.8 0 0 1-.43-.67c-.1-.27-.15-.6-.15-1v-3.44H90.5v-.84h1.66v-1.54h1.1Zm8.8 7.88a1.29 1.29 0 0 1-.1-.3 3.94 3.94 0 0 1-.05-.4 3.02 3.02 0 0 1-.8.58 2.85 2.85 0 0 1-1.12.24 2.54 2.54 0 0 1-1.6-.55 1.72 1.72 0 0 1-.6-1.33 2 2 0 0 1 .21-.91c.14-.26.34-.48.6-.66.25-.17.55-.3.9-.38.37-.1.77-.13 1.2-.13h1.2v-.5c0-.2-.04-.37-.11-.52a1.13 1.13 0 0 0-.3-.39 1.4 1.4 0 0 0-.48-.25 2.02 2.02 0 0 0-.62-.08c-.21 0-.4.02-.58.08a1.1 1.1 0 0 0-.7.54.82.82 0 0 0-.1.38h-1.08c0-.23.06-.46.17-.68.12-.22.29-.43.5-.6.22-.18.48-.32.8-.43a3.57 3.57 0 0 1 2.06-.03 1.93 1.93 0 0 1 1.52 2v2.94a4.18 4.18 0 0 0 .22 1.29v.09h-1.13Zm-1.9-.83a2.1 2.1 0 0 0 1.47-.6c.11-.12.2-.24.26-.36v-1.29h-1c-.38 0-.7.04-.99.1-.28.07-.5.16-.66.3-.12.09-.2.2-.27.33a1.2 1.2 0 0 0-.01.87.9.9 0 0 0 .24.34c.1.1.24.18.4.23.16.06.34.08.55.08Zm8.9-2.57a8.76 8.76 0 0 1-1 4.09 6.85 6.85 0 0 1-1.25 1.61c-.22.2-.42.34-.62.45l-.23-.66a4.77 4.77 0 0 0 1.4-2 8.58 8.58 0 0 0 .54-2.18c.05-.4.08-.84.08-1.3v-.09a9.37 9.37 0 0 0-.73-3.68 6.93 6.93 0 0 0-.89-1.42 3.75 3.75 0 0 0-.4-.38l.23-.67a4.99 4.99 0 0 1 1.26 1.14 7.25 7.25 0 0 1 1.47 3.42c.1.47.14 1 .14 1.6v.07Z" fill="#000"/>
 <rect x="28" y="148" width="327" height="58" rx="5" fill="#B9DAF2" style="mix-blend-mode:darken"/>
 <g fill="#000000" font-family="'Noto Sans JP'" font-size="13.333px" font-weight="500">
  <text x="189.18352" y="42.828327" text-align="center" text-anchor="middle" xml:space="preserve"><tspan x="189.18352" y="42.828327"></tspan></text>
  <text x="420.73999" y="121.9737" xml:space="preserve"><tspan x="420.73999" y="121.9737"></tspan></text>
  <text x="419.51392" y="181.67879" xml:space="preserve"><tspan x="419.51392" y="181.67879"></tspan></text>
 </g>
</svg>
