<?xml version="1.0" encoding="UTF-8"?>
<svg clip-rule="evenodd" stroke-linecap="round" stroke-linejoin="round" stroke-miterlimit="10" version="1.1" viewBox="0 0 567.66 536.1" xml:space="preserve" xmlns="http://www.w3.org/2000/svg">
  <path d="M0 0h567.658v536.105H0V0Z" fill="#fff"/>
  <path d="m137.08 389.54c0-35.62 62.296-64.495 139.14-64.495s139.14 28.875 139.14 64.495c0 35.619-62.296 64.494-139.14 64.494s-139.14-28.875-139.14-64.494z" fill="#d6d2d2"/>
  <path d="m256.25 386.88c0-7.118 13.28-12.889 29.661-12.889s29.66 5.771 29.66 12.889-13.279 12.888-29.66 12.888-29.661-5.77-29.661-12.888z" fill="none" stroke="#1ec94b" stroke-dasharray="2" stroke-linecap="butt" stroke-width="2"/>
  <path d="m110.84 200.98c0-4.917 2.955-8.903 6.6-8.903h291.78c3.645 0 6.6 3.986 6.6 8.903s-2.955 8.902-6.6 8.902h-291.78c-3.645 0-6.6-3.985-6.6-8.902z" fill="#e2e2e2"/>
  <path d="m327.422 95.13 7.909-7.948c3.775-3.793 3.943-8.298.27-11.953l-3.492-3.595c-3.613-3.655-8.237-3.283-12.012.39l-7.909 7.888 15.234 15.218Zm-79.864 80.324 72.435-72.917-15.294-15.158-72.435 72.918-6.025 16.412c-1.193 3.246 2.057 6.061 4.878 5.033l16.441-6.288Z" fill="#726a6a"/>
  <path d="m357.38 180.29c2.869-13.723 9.024-55.293-12.9-87.22" fill="none" stroke="#1e23c9" stroke-dasharray="2.711" stroke-linecap="butt" stroke-width="1.355"/>
  <path d="m345.181 94.031 5.929.068-9.432-4.852 1.778 10.457 1.725-5.673Zm12.471 85.109-3.807-4.547 2.453 10.319 6.784-8.153-5.43 2.381Z" fill="#1e23c9"/><g fill="none" stroke-linecap="butt">
  <path d="m275.29 156.37-27.63 28.549h39.949" stroke="#1e23c9" stroke-width="1.228"/>
  <path d="m261.65 170.64c7.947 5.031 4.432 14.097 4.432 14.097" stroke="#1e23c9" stroke-width="1.228"/>
  
  <path d="m94.298 200.98h334.7m-78.739 135.79-152.26 104.66" stroke="#c91e3e" stroke-dasharray="2" stroke-width="2"/>
  <path d="m163.39 350.82 238.49 65.255" stroke="#1ec9c7" stroke-dasharray="2" stroke-width="2"/>
  </g><path d="m379.1 321.83 7.903-6.262c3.772-2.989 4.372-7.029 1.432-10.74l-2.784-3.637c-2.887-3.704-7.083-3.895-10.843-1.015l-7.898 6.208 12.19 15.446zm-79.819 63.292 72.4-57.463-12.249-15.399-72.401 57.464-7.051 14.103c-1.396 2.789 1.248 5.696 3.887 5.09l15.414-3.795z" fill="#726a6a" opacity=".667"/>
  <path d="m251.62 425.82c25.527 3.681 122.45 13.608 117.38-48.87" fill="none" stroke="#1ec94b" stroke-dasharray="3.521" stroke-linecap="butt" stroke-width="1.761"/>
  <path d="m369.19 378.48 6.701 3.799-7.683-11.439-4.541 13.01 5.523-5.37zm-116.06 47.584 5.534-5.358-13.141 4.146 11.201 8.025-3.594-6.813z" fill="#1ec94b"/><g fill="#726a6a" font-family="Sans" text-anchor="middle">
<text x="441.33179" y="124.00669" font-size="18.667px" text-align="center" style="font-variant-caps:normal;font-variant-east-asian:normal;font-variant-ligatures:normal;font-variant-numeric:normal" xml:space="preserve"><tspan x="441.33179" y="124.00669" style="font-variant-caps:normal;font-variant-east-asian:normal;font-variant-ligatures:normal;font-variant-numeric:normal">高度角</tspan><tspan x="441.33179" y="147.34007" style="font-variant-caps:normal;font-variant-east-asian:normal;font-variant-ligatures:normal;font-variant-numeric:normal">(Altitude angle)</tspan></text><text x="425.94598" y="444.20673" font-size="18.667px" text-align="center" style="font-variant-caps:normal;font-variant-east-asian:normal;font-variant-ligatures:normal;font-variant-numeric:normal" xml:space="preserve"><tspan x="425.94598" y="444.20673" style="font-variant-caps:normal;font-variant-east-asian:normal;font-variant-ligatures:normal;font-variant-numeric:normal">方位角</tspan><tspan x="425.94598" y="467.5401" style="font-variant-caps:normal;font-variant-east-asian:normal;font-variant-ligatures:normal;font-variant-numeric:normal">(Azimuth angle)</tspan></text><text x="462.24237" y="208.61484" font-size="18.667px" text-align="center" style="font-variant-caps:normal;font-variant-east-asian:normal;font-variant-ligatures:normal;font-variant-numeric:normal" xml:space="preserve"><tspan x="462.24237" y="208.61484" fill="#726a6a" font-family="Sans" font-size="18.667px" style="font-variant-caps:normal;font-variant-east-asian:normal;font-variant-ligatures:normal;font-variant-numeric:normal">X 軸</tspan></text><text x="164.24571" y="465.02307" font-size="18.667px" text-align="center" style="font-variant-caps:normal;font-variant-east-asian:normal;font-variant-ligatures:normal;font-variant-numeric:normal" xml:space="preserve"><tspan x="164.24571" y="465.02307" fill="#726a6a" font-family="Sans" font-size="18.667px" style="font-variant-caps:normal;font-variant-east-asian:normal;font-variant-ligatures:normal;font-variant-numeric:normal">X 軸</tspan></text><text x="130.58543" y="336.59485" font-size="18.667px" text-align="center" style="font-variant-caps:normal;font-variant-east-asian:normal;font-variant-ligatures:normal;font-variant-numeric:normal" xml:space="preserve"><tspan x="130.58543" y="336.59485" fill="#726a6a" font-family="Sans" font-size="18.667px" style="font-variant-caps:normal;font-variant-east-asian:normal;font-variant-ligatures:normal;font-variant-numeric:normal">Y 軸</tspan></text></g></svg>
