<svg baseProfile="full" xmlns="http://www.w3.org/2000/svg" width="420" height="130" style="background: #ffffff; background-color: light-dark(#ffffff, #121212); color-scheme: light dark;"><defs><pattern id="a" patternUnits="userSpaceOnUse" x="0" y="0" width="105" height="105"><path d="m0 90 15 15M0 75l30 30M0 60l45 45M0 45l60 60M0 30l75 75M0 15l90 90M0 0l105 105M15 0l90 90M30 0l75 75M45 0l60 60M60 0l45 45M75 0l30 30M90 0l15 15"/></pattern></defs><path fill="azure" style="fill: light-dark(azure, rgb(36, 84, 84));" d="M130 40h140v90H130z"/><path stroke="#000" stroke-dasharray="3 2" fill="#fff" d="M150 60h100v50H150z" style="fill: light-dark(#ffffff, #121212);stroke: light-dark(rgb(0, 0, 0), rgb(237, 237, 237));"/><path fill="beige" style="fill: light-dark(beige, rgb(84, 84, 24));" d="M160 70h80v30h-80z"/><text x="290" y="124" font-family="sans-serif" font-size="10pt" style="fill: light-dark(#000000, #ededed);">Zone de remplissage</text><path stroke="#000" style="stroke: light-dark(rgb(0, 0, 0), rgb(237, 237, 237));" d="m288 120-53-15"/><text x="290" y="78" font-family="sans-serif" font-size="10pt" style="fill: light-dark(#000000, #ededed);">Bordure</text><path stroke="#000" style="stroke: light-dark(rgb(0, 0, 0), rgb(237, 237, 237));" d="M278 74h-28"/><text x="290" y="101" font-family="sans-serif" font-size="10pt" style="fill: light-dark(#000000, #ededed);">Zone de contenu</text><path stroke="#000" style="stroke: light-dark(rgb(0, 0, 0), rgb(237, 237, 237));" d="m288 97-58-7"/><text x="290" y="55" font-family="sans-serif" font-size="10pt" style="fill: light-dark(#000000, #ededed);">Zone de marge</text><path stroke="#000" style="stroke: light-dark(rgb(0, 0, 0), rgb(237, 237, 237));" d="M288 50h-53"/><path fill="url(#a)" stroke="#000" style="stroke: light-dark(rgb(0, 0, 0), rgb(237, 237, 237));" d="M150 60h100v10H150z"/><path stroke="#000" style="stroke: light-dark(rgb(0, 0, 0), rgb(237, 237, 237));" d="M200 27v40"/><text x="20" y="20" font-family="sans-serif" font-size="10pt" style="fill: light-dark(#000000, #ededed);">La hauteur de cette zone est définie par la valeur de padding-top</text><path stroke="#000" style="stroke: light-dark(rgb(0, 0, 0), rgb(237, 237, 237));" d="M136 60h8m-8 10h8m-4-10v10"/><text x="35" y="67" font-family="'courier new',monospace" font-size="10pt" style="fill: light-dark(#000000, #ededed);">padding-top</text></svg>
