<?xml version="1.0" encoding="UTF-8" standalone="no"?>
<!-- Created with Inkscape (http://www.inkscape.org/) -->
<svg xmlns:dc="http://purl.org/dc/elements/1.1/" xmlns:cc="http://creativecommons.org/ns#" xmlns:rdf="http://www.w3.org/1999/02/22-rdf-syntax-ns#" xmlns:svg="http://www.w3.org/2000/svg" xmlns="http://www.w3.org/2000/svg" xmlns:sodipodi="http://sodipodi.sourceforge.net/DTD/sodipodi-0.dtd" xmlns:inkscape="http://www.inkscape.org/namespaces/inkscape" width="9.0311108mm" height="11.288889mm" viewBox="0 0 31.999999 40" id="svg88670" version="1.1" inkscape:version="0.91 r13725" sodipodi:docname="discoverable.svg">
  <defs id="defs88672">
    <symbol id="symbol93423">
      <title id="title93425">Find In Page</title>
      <path d="M 40,39.17 40,16 28,4 12,4 C 9.79,4 8.02,5.79 8.02,8 L 8,40 c 0,2.21 1.77,4 3.98,4 L 36,44 c 0.89,0 1.71,-0.3 2.37,-0.8 L 29.5,34.33 C 27.93,35.38 26.04,36 24,36 18.48,36 14,31.52 14,26 c 0,-5.52 4.48,-10 10,-10 5.52,0 10,4.48 10,10 0,2.04 -0.62,3.93 -1.66,5.51 L 40,39.17 Z M 18,26 c 0,3.31 2.69,6 6,6 3.31,0 6,-2.69 6,-6 0,-3.31 -2.69,-6 -6,-6 -3.31,0 -6,2.69 -6,6 z" style="stroke:none" id="path93427" inkscape:connector-curvature="0"/>
    </symbol>
  </defs>
  <sodipodi:namedview id="base" pagecolor="#ffffff" bordercolor="#666666" borderopacity="1.0" inkscape:pageopacity="0.0" inkscape:pageshadow="2" inkscape:zoom="0.35" inkscape:cx="-650.42857" inkscape:cy="-80.000005" inkscape:document-units="px" inkscape:current-layer="layer1" showgrid="false" fit-margin-top="0" fit-margin-left="0" fit-margin-right="0" fit-margin-bottom="0" inkscape:window-width="2560" inkscape:window-height="1391" inkscape:window-x="1280" inkscape:window-y="1" inkscape:window-maximized="1"/>
  <metadata id="metadata88675">
    <rdf:RDF>
      <cc:Work rdf:about="">
        <dc:format>image/svg+xml</dc:format>
        <dc:type rdf:resource="http://purl.org/dc/dcmitype/StillImage"/>
        <dc:title/>
      </cc:Work>
    </rdf:RDF>
  </metadata>
  <g inkscape:label="Capa 1" inkscape:groupmode="layer" id="layer1" transform="translate(-346.85714,-412.3622)">
    <g id="use107404" style="fill:#000000;stroke:#000000" transform="translate(338.85714,408.3622)">
      <title id="title107420">Find In Page</title>
      <path id="path107422" style="stroke:none" d="M 40,39.17 40,16 28,4 12,4 C 9.79,4 8.02,5.79 8.02,8 L 8,40 c 0,2.21 1.77,4 3.98,4 L 36,44 c 0.89,0 1.71,-0.3 2.37,-0.8 L 29.5,34.33 C 27.93,35.38 26.04,36 24,36 18.48,36 14,31.52 14,26 c 0,-5.52 4.48,-10 10,-10 5.52,0 10,4.48 10,10 0,2.04 -0.62,3.93 -1.66,5.51 L 40,39.17 Z M 18,26 c 0,3.31 2.69,6 6,6 3.31,0 6,-2.69 6,-6 0,-3.31 -2.69,-6 -6,-6 -3.31,0 -6,2.69 -6,6 z" inkscape:connector-curvature="0"/>
    </g>
  </g>
</svg>