<?xml version="1.0" encoding="UTF-8" standalone="no"?>
<!-- Created with Inkscape (http://www.inkscape.org/) -->
<svg xmlns:dc="http://purl.org/dc/elements/1.1/" xmlns:cc="http://creativecommons.org/ns#" xmlns:rdf="http://www.w3.org/1999/02/22-rdf-syntax-ns#" xmlns:svg="http://www.w3.org/2000/svg" xmlns="http://www.w3.org/2000/svg" xmlns:sodipodi="http://sodipodi.sourceforge.net/DTD/sodipodi-0.dtd" xmlns:inkscape="http://www.inkscape.org/namespaces/inkscape" width="11.288889mm" height="11.288889mm" viewBox="0 0 40 40" id="svg47569" version="1.1" inkscape:version="0.91 r13725" sodipodi:docname="re-engagement.svg">
  <defs id="defs47571">
    <symbol id="symbol60226">
      <title id="title60228">SMS</title>
      <path d="M 40,4 8,4 C 5.79,4 4.02,5.79 4.02,8 L 4,44 l 8,-8 28,0 c 2.21,0 4,-1.79 4,-4 L 44,8 C 44,5.79 42.21,4 40,4 Z m -22,18 -4,0 0,-4 4,0 0,4 z m 8,0 -4,0 0,-4 4,0 0,4 z m 8,0 -4,0 0,-4 4,0 0,4 z" style="stroke:none" id="path60230" inkscape:connector-curvature="0"/>
    </symbol>
  </defs>
  <sodipodi:namedview id="base" pagecolor="#ffffff" bordercolor="#666666" borderopacity="1.0" inkscape:pageopacity="0.0" inkscape:pageshadow="2" inkscape:zoom="0.35" inkscape:cx="-677.85714" inkscape:cy="-120" inkscape:document-units="px" inkscape:current-layer="layer1" showgrid="false" fit-margin-top="0" fit-margin-left="0" fit-margin-right="0" fit-margin-bottom="0" inkscape:window-width="2560" inkscape:window-height="1391" inkscape:window-x="1280" inkscape:window-y="1" inkscape:window-maximized="1"/>
  <metadata id="metadata47574">
    <rdf:RDF>
      <cc:Work rdf:about="">
        <dc:format>image/svg+xml</dc:format>
        <dc:type rdf:resource="http://purl.org/dc/dcmitype/StillImage"/>
        <dc:title/>
      </cc:Work>
    </rdf:RDF>
  </metadata>
  <g inkscape:label="Capa 1" inkscape:groupmode="layer" id="layer1" transform="translate(-374.28571,-372.3622)">
    <g id="use66038" style="fill:#000000;stroke:#000000" transform="translate(370.28571,368.3622)">
      <title id="title66054">SMS</title>
      <path id="path66056" style="stroke:none" d="M 40,4 8,4 C 5.79,4 4.02,5.79 4.02,8 L 4,44 l 8,-8 28,0 c 2.21,0 4,-1.79 4,-4 L 44,8 C 44,5.79 42.21,4 40,4 Z m -22,18 -4,0 0,-4 4,0 0,4 z m 8,0 -4,0 0,-4 4,0 0,4 z m 8,0 -4,0 0,-4 4,0 0,4 z" inkscape:connector-curvature="0"/>
    </g>
  </g>
</svg>