<?xml version="1.0" encoding="UTF-8" standalone="no"?>
<!-- Created with Inkscape (http://www.inkscape.org/) -->
<svg xmlns:dc="http://purl.org/dc/elements/1.1/" xmlns:cc="http://creativecommons.org/ns#" xmlns:rdf="http://www.w3.org/1999/02/22-rdf-syntax-ns#" xmlns:svg="http://www.w3.org/2000/svg" xmlns="http://www.w3.org/2000/svg" xmlns:sodipodi="http://sodipodi.sourceforge.net/DTD/sodipodi-0.dtd" xmlns:inkscape="http://www.inkscape.org/namespaces/inkscape" width="11.288889mm" height="11.288889mm" viewBox="0 0 40 40" id="svg2" version="1.1" inkscape:version="0.91 r13725" sodipodi:docname="network-independent.svg">
  <defs id="defs4">
    <symbol id="symbol10189">
      <title id="title10191">Signal Cellular Connected No Internet 0 Bar</title>
      <path d="m 40,44 4,0 0,-4 -4,0 0,4 z m 0,-24 0,16 4,0 0,-16 -4,0 z" style="stroke:none" id="path10193" inkscape:connector-curvature="0"/>
      <path d="M 44,16 44,4 4,44 36,44 36,16 Z" style="fill-opacity:0.3;stroke:none" id="path10195" inkscape:connector-curvature="0"/>
    </symbol>
  </defs>
  <sodipodi:namedview id="base" pagecolor="#ffffff" bordercolor="#666666" borderopacity="1.0" inkscape:pageopacity="0.0" inkscape:pageshadow="2" inkscape:zoom="3.959798" inkscape:cx="16.164371" inkscape:cy="-39.731293" inkscape:document-units="px" inkscape:current-layer="use24725" showgrid="false" inkscape:window-width="2560" inkscape:window-height="1391" inkscape:window-x="1280" inkscape:window-y="1" inkscape:window-maximized="1" fit-margin-top="0" fit-margin-left="0" fit-margin-right="0" fit-margin-bottom="0"/>
  <metadata id="metadata7">
    <rdf:RDF>
      <cc:Work rdf:about="">
        <dc:format>image/svg+xml</dc:format>
        <dc:type rdf:resource="http://purl.org/dc/dcmitype/StillImage"/>
        <dc:title/>
      </cc:Work>
    </rdf:RDF>
  </metadata>
  <g inkscape:label="Capa 1" inkscape:groupmode="layer" id="layer1" transform="translate(-348.57143,-85.219343)">
    <g id="use24725" style="fill:#000000;stroke:#000000" transform="translate(344.57143,81.219343)">
      <title id="title24794">Signal Cellular Connected No Internet 0 Bar</title>
      <path inkscape:connector-curvature="0" id="path24796" style="stroke:none" d="m 40,44 4,0 0,-4 -4,0 0,4 z m 0,-24 0,16 4,0 0,-16 -4,0 z"/>
      <path inkscape:connector-curvature="0" id="path24798" style="fill-opacity:0.3;stroke:none" d="M 44,16 44,4 4,44 36,44 36,16 Z"/>
    </g>
  </g>
</svg>