<svg xmlns="http://www.w3.org/2000/svg" width="46.933" height="47.733" viewBox="0 0 44 44.749"><g style="fill:#000;stroke:#000"><path style="fill:#b2b2b2;fill-opacity:1;fill-rule:nonzero;stroke:none" d="M427.678 579.648c-2.21 0-4 1.79-4 4v36a3.98 3.98 0 0 0 4 3.979l20 .021c2.21 0 4-1.79 4-4v-36c0-2.21-1.79-4-4-4h-20zm0 8h20v28h-20v-28z" transform="translate(-423.678 -579.648)" stroke="none"/></g><path style="fill:#000;stroke:none" d="m423.698 600.398-.02 20c0 2.21 1.79 4 4 4h36c2.21 0 4-1.79 4-4v-20c0-2.21-1.79-4-4-4h-36c-2.21 0-3.98 1.79-3.98 4zm35.98 0v20h-28v-20h28z" transform="translate(-423.678 -579.648)"/></svg>