<?xml version="1.0" encoding="UTF-8" standalone="no"?>
<svg
   width="2560"
   height="1440"
   viewBox="0 0 2560 1440"
   fill="none"
   version="1.1"
   id="svg54"
   xmlns="http://www.w3.org/2000/svg"
   xmlns:svg="http://www.w3.org/2000/svg">
  <defs
     id="defs54" />
  <rect
     width="2560"
     height="1440"
     fill="white"
     id="rect1" />
  <path
     d="M486 822H226V632H486V822Z"
     fill="white"
     stroke="#616161"
     stroke-width="2"
     id="path1" />
  <path
     fill-rule="evenodd"
     clip-rule="evenodd"
     d="M226 660H486V674H226V660Z"
     fill="#616161"
     id="path2" />
  <rect
     x="267"
     y="639"
     width="198"
     height="14"
     rx="3.04571"
     stroke="#616161"
     stroke-width="2"
     id="rect2" />
  <circle
     cx="246"
     cy="646"
     r="5"
     stroke="#616161"
     stroke-width="2"
     id="circle2" />
  <mask
     id="path-5-inside-1_4140_2373"
     fill="white">
    <path
       d="M266 674H448V821H266V674Z"
       id="path3" />
  </mask>
  <path
     d="M266 674H448V821H266V674Z"
     fill="#F5F7F9"
     id="path4" />
  <path
     d="M446 674V821H450V674H446ZM268 821V674H264V821H268Z"
     fill="#616161"
     mask="url(#path-5-inside-1_4140_2373)"
     id="path5" />
  <path
     d="M1223 760V803.765C1223 810.695 1232.57 816.61 1251.7 821.51C1270.84 826.409 1293.94 828.859 1321 828.859C1348.06 828.859 1371.16 826.409 1390.3 821.51C1409.43 816.61 1419 810.695 1419 803.765V760C1419 766.93 1409.43 772.845 1390.3 777.744C1371.16 782.644 1348.06 785.094 1321 785.094C1293.94 785.094 1270.84 782.644 1251.7 777.744C1232.57 772.844 1223 766.93 1223 760Z"
     fill="white"
     stroke="#1A76D2"
     stroke-width="4"
     id="path6" />
  <path
     d="M1419 760.101C1419 767.031 1409.43 772.946 1390.3 777.845C1371.16 782.745 1348.06 785.195 1321 785.195C1293.94 785.195 1270.84 782.745 1251.7 777.845C1232.57 772.945 1223 767.031 1223 760.101C1223 753.171 1232.57 747.255 1251.7 742.353C1270.84 737.451 1293.94 735 1321 735C1348.06 735 1371.16 737.451 1390.3 742.353C1409.43 747.255 1419 753.171 1419 760.101Z"
     fill="white"
     stroke="#1A76D2"
     stroke-width="4"
     id="path7" />
  <path
     fill-rule="evenodd"
     clip-rule="evenodd"
     d="M1236.69 766.94C1232.14 764.57 1228 761.096 1228 756L1236.69 761C1240.5 762.5 1248.71 765.085 1257.31 766.94C1274.38 770.621 1296.82 773.525 1321.29 773.525C1345.76 773.525 1368.2 770.621 1385.27 766.94C1393.87 765.085 1402 763.021 1405.89 761L1414.58 756C1414.58 761.096 1410.44 764.57 1405.89 766.94C1401.05 769.456 1394.1 771.621 1385.27 773.525C1367.48 777.362 1346.13 779.254 1321.29 779.254C1296.45 779.254 1275.1 777.362 1257.31 773.525C1248.48 771.62 1241.53 769.456 1236.69 766.94Z"
     fill="#1A76D2"
     id="path8" />
  <path
     d="M1223 705V748.765C1223 755.695 1232.57 761.61 1251.7 766.51C1270.84 771.409 1293.94 773.859 1321 773.859C1348.06 773.859 1371.16 771.409 1390.3 766.51C1409.43 761.61 1419 755.695 1419 748.765V705C1419 711.93 1409.43 717.845 1390.3 722.744C1371.16 727.644 1348.06 730.094 1321 730.094C1293.94 730.094 1270.84 727.644 1251.7 722.744C1232.57 717.844 1223 711.93 1223 705Z"
     fill="white"
     stroke="#1A76D2"
     stroke-width="4"
     id="path9" />
  <path
     d="M1419 705.101C1419 712.031 1409.43 717.946 1390.3 722.845C1371.16 727.745 1348.06 730.195 1321 730.195C1293.94 730.195 1270.84 727.745 1251.7 722.845C1232.57 717.945 1223 712.031 1223 705.101C1223 698.171 1232.57 692.255 1251.7 687.353C1270.84 682.451 1293.94 680 1321 680C1348.06 680 1371.16 682.451 1390.3 687.353C1409.43 692.255 1419 698.171 1419 705.101Z"
     fill="white"
     stroke="#1A76D2"
     stroke-width="4"
     id="path10" />
  <path
     fill-rule="evenodd"
     clip-rule="evenodd"
     d="M1236.69 712.94C1232.14 710.57 1228 707.096 1228 702L1236.69 707C1240.5 708.5 1248.71 711.085 1257.31 712.94C1274.38 716.621 1296.82 719.525 1321.29 719.525C1345.76 719.525 1368.2 716.621 1385.27 712.94C1393.87 711.085 1402 709.021 1405.89 707L1414.58 702C1414.58 707.096 1410.44 710.57 1405.89 712.94C1401.05 715.456 1394.1 717.621 1385.27 719.525C1367.48 723.362 1346.13 725.254 1321.29 725.254C1296.45 725.254 1275.1 723.362 1257.31 719.525C1248.48 717.62 1241.53 715.456 1236.69 712.94Z"
     fill="#1A76D2"
     id="path11" />
  <path
     d="M1223 650V693.765C1223 700.695 1232.57 706.61 1251.7 711.51C1270.84 716.409 1293.94 718.859 1321 718.859C1348.06 718.859 1371.16 716.409 1390.3 711.51C1409.43 706.61 1419 700.695 1419 693.765V650C1419 656.93 1409.43 662.845 1390.3 667.744C1371.16 672.644 1348.06 675.094 1321 675.094C1293.94 675.094 1270.84 672.644 1251.7 667.744C1232.57 662.844 1223 656.93 1223 650Z"
     fill="white"
     stroke="#1A76D2"
     stroke-width="4"
     id="path12" />
  <path
     d="M1419 650.101C1419 657.031 1409.43 662.946 1390.3 667.845C1371.16 672.745 1348.06 675.195 1321 675.195C1293.94 675.195 1270.84 672.745 1251.7 667.845C1232.57 662.945 1223 657.031 1223 650.101C1223 643.171 1232.57 637.255 1251.7 632.353C1270.84 627.451 1293.94 625 1321 625C1348.06 625 1371.16 627.451 1390.3 632.353C1409.43 637.255 1419 643.171 1419 650.101Z"
     fill="white"
     stroke="#1A76D2"
     stroke-width="4"
     id="path13" />
  <rect
     x="2087.27"
     y="768.229"
     width="185.455"
     height="4.53886"
     fill="#333333"
     id="rect13" />
  <rect
     x="2087.27"
     y="721.933"
     width="185.455"
     height="4.53886"
     fill="#333333"
     id="rect14" />
  <rect
     x="2087.27"
     y="676.544"
     width="185.455"
     height="4.53886"
     fill="#333333"
     id="rect15" />
  <rect
     x="2082"
     y="772.771"
     width="196"
     height="41.3886"
     rx="6.8"
     fill="white"
     stroke="#616161"
     stroke-width="4"
     id="rect16" />
  <rect
     x="2082"
     y="726.837"
     width="196"
     height="41.3886"
     rx="6.8"
     fill="white"
     stroke="#616161"
     stroke-width="4"
     id="rect17" />
  <rect
     x="2082"
     y="680.904"
     width="196"
     height="41.3886"
     rx="6.8"
     fill="white"
     stroke="#616161"
     stroke-width="4"
     id="rect18" />
  <rect
     x="2082"
     y="634.971"
     width="196"
     height="41.3886"
     rx="6.8"
     fill="white"
     stroke="#616161"
     stroke-width="4"
     id="rect19" />
  <path
     d="M2230.73 793.411C2230.73 798.822 2226.33 803.212 2220.91 803.212C2215.48 803.212 2211.09 798.822 2211.09 793.411C2211.09 788.001 2215.48 783.61 2220.91 783.61C2226.33 783.61 2230.73 788.001 2230.73 793.411Z"
     fill="white"
     stroke="#616161"
     stroke-width="4"
     id="path19" />
  <path
     d="M2262.55 793.411C2262.55 798.822 2258.15 803.212 2252.73 803.212C2247.3 803.212 2242.91 798.822 2242.91 793.411C2242.91 788.001 2247.3 783.61 2252.73 783.61C2258.15 783.61 2262.55 788.001 2262.55 793.411Z"
     fill="white"
     stroke="#616161"
     stroke-width="4"
     id="path20" />
  <path
     d="M2117.65 622.264L2084.55 636.063H2274.55L2241.59 622.279C2237.56 620.592 2233.23 619.723 2228.86 619.723H2130.35C2125.99 619.723 2121.67 620.587 2117.65 622.264Z"
     fill="white"
     stroke="#616161"
     stroke-width="4"
     id="path21" />
  <path
     d="M2013.06 677.061C2013.65 676.475 2013.65 675.525 2013.06 674.939L2003.51 665.393C2002.93 664.808 2001.98 664.808 2001.39 665.393C2000.81 665.979 2000.81 666.929 2001.39 667.515L2009.88 676L2001.39 684.485C2000.81 685.071 2000.81 686.021 2001.39 686.607C2001.98 687.192 2002.93 687.192 2003.51 686.607L2013.06 677.061ZM1568 677.5H2012V674.5H1568V677.5Z"
     fill="#616161"
     id="path22" />
  <path
     d="M1566.94 776.939C1566.35 777.525 1566.35 778.475 1566.94 779.061L1576.49 788.607C1577.07 789.192 1578.02 789.192 1578.61 788.607C1579.19 788.021 1579.19 787.071 1578.61 786.485L1570.12 778L1578.61 769.515C1579.19 768.929 1579.19 767.979 1578.61 767.393C1578.02 766.808 1577.07 766.808 1576.49 767.393L1566.94 776.939ZM1568 779.5H2012V776.5H1568V779.5Z"
     fill="#616161"
     id="path23" />
  <path
     d="M1591.81 629.191C1589.98 630.314 1587.74 630.876 1585.07 630.876C1580.68 630.876 1577.09 629.356 1574.29 626.316C1571.37 623.262 1569.91 619.084 1569.91 613.783C1569.91 608.423 1571.38 604.125 1574.33 600.891C1577.28 597.656 1581.18 596.039 1586.04 596.039C1590.24 596.039 1593.62 597.11 1596.17 599.251C1598.73 601.377 1600.19 604.035 1600.57 607.225H1593.76C1593.24 604.964 1591.96 603.384 1589.92 602.485C1588.78 601.991 1587.52 601.744 1586.13 601.744C1583.46 601.744 1581.27 602.755 1579.54 604.776C1577.84 606.783 1576.98 609.808 1576.98 613.851C1576.98 617.924 1577.91 620.806 1579.77 622.498C1581.63 624.19 1583.74 625.036 1586.1 625.036C1588.42 625.036 1590.33 624.37 1591.81 623.037C1593.29 621.689 1594.2 619.93 1594.55 617.759H1586.89V612.233H1600.68V630H1596.1L1595.4 625.867C1594.07 627.439 1592.87 628.548 1591.81 629.191ZM1630.35 615.535H1614.27V624.048H1632.6V630H1607.51V596.893H1631.79V602.755H1614.27V609.785H1630.35V615.535ZM1662.04 596.893V602.755H1652.14V630H1645.18V602.755H1635.23V596.893H1662.04Z"
     fill="#333333"
     id="path27" />
  <path
     d="M1089.06 669.061C1089.65 668.475 1089.65 667.525 1089.06 666.939L1079.51 657.393C1078.93 656.808 1077.98 656.808 1077.39 657.393C1076.81 657.979 1076.81 658.929 1077.39 659.515L1085.88 668L1077.39 676.485C1076.81 677.071 1076.81 678.021 1077.39 678.607C1077.98 679.192 1078.93 679.192 1079.51 678.607L1089.06 669.061ZM563 669.5H1088V666.5H563V669.5Z"
     fill="#616161"
     id="path28" />
  <path
     d="M561.939 768.939C561.354 769.525 561.354 770.475 561.939 771.061L571.485 780.607C572.071 781.192 573.021 781.192 573.607 780.607C574.192 780.021 574.192 779.071 573.607 778.485L565.121 770L573.607 761.515C574.192 760.929 574.192 759.979 573.607 759.393C573.021 758.808 572.071 758.808 571.485 759.393L561.939 768.939ZM563 771.5H1088V768.5H563V771.5Z"
     fill="#616161"
     id="path29" />
  <path
     d="M587.006 636.191C585.179 637.314 582.933 637.876 580.268 637.876C575.88 637.876 572.286 636.356 569.486 633.316C566.566 630.262 565.106 626.084 565.106 620.783C565.106 615.423 566.581 611.125 569.531 607.891C572.481 604.656 576.382 603.039 581.233 603.039C585.441 603.039 588.818 604.11 591.363 606.251C593.924 608.377 595.391 611.035 595.766 614.225H588.96C588.436 611.964 587.156 610.384 585.119 609.485C583.981 608.991 582.716 608.744 581.323 608.744C578.658 608.744 576.464 609.755 574.742 611.776C573.035 613.783 572.182 616.808 572.182 620.851C572.182 624.924 573.11 627.806 574.967 629.498C576.824 631.19 578.935 632.036 581.301 632.036C583.622 632.036 585.523 631.37 587.006 630.037C588.488 628.689 589.402 626.93 589.746 624.759H582.087V619.233H595.878V637H591.296L590.6 632.867C589.267 634.439 588.069 635.548 587.006 636.191ZM625.549 622.535H609.467V631.048H627.795V637H602.706V603.893H626.986V609.755H609.467V616.785H625.549V622.535ZM657.241 603.893V609.755H647.336V637H640.373V609.755H630.423V603.893H657.241Z"
     fill="#333333"
     id="path30" />
  <path
     d="M579.16 719.058C578.396 718.144 577.303 717.688 575.881 717.688C573.934 717.688 572.609 718.414 571.905 719.866C571.501 720.705 571.261 722.037 571.187 723.864H564.965C565.07 721.094 565.571 718.855 566.47 717.148C568.177 713.899 571.209 712.274 575.566 712.274C579.01 712.274 581.751 713.233 583.787 715.149C585.824 717.051 586.842 719.574 586.842 722.719C586.842 725.13 586.123 727.271 584.686 729.143C583.742 730.385 582.192 731.771 580.036 733.298L577.476 735.117C575.873 736.255 574.773 737.079 574.174 737.588C573.59 738.097 573.096 738.688 572.691 739.362H586.909V745H564.605C564.665 742.664 565.167 740.53 566.11 738.599C567.024 736.427 569.18 734.129 572.579 731.703C575.529 729.592 577.438 728.079 578.307 727.166C579.639 725.743 580.306 724.186 580.306 722.494C580.306 721.117 579.924 719.971 579.16 719.058ZM601.441 745.809C597.294 745.809 594.381 744.356 592.704 741.451C591.042 738.546 590.211 734.406 590.211 729.03C590.211 723.655 591.042 719.507 592.704 716.587C594.381 713.667 597.294 712.207 601.441 712.207C605.589 712.207 608.502 713.667 610.179 716.587C611.841 719.507 612.672 723.655 612.672 729.03C612.672 734.406 611.833 738.546 610.156 741.451C608.494 744.356 605.589 745.809 601.441 745.809ZM605.192 737.61C605.776 735.634 606.068 732.774 606.068 729.03C606.068 725.107 605.769 722.202 605.17 720.315C604.586 718.429 603.343 717.485 601.441 717.485C599.54 717.485 598.282 718.429 597.668 720.315C597.054 722.202 596.747 725.107 596.747 729.03C596.747 732.774 597.054 735.641 597.668 737.633C598.282 739.609 599.54 740.598 601.441 740.598C603.343 740.598 604.593 739.602 605.192 737.61ZM627.047 745.809C622.899 745.809 619.987 744.356 618.31 741.451C616.647 738.546 615.816 734.406 615.816 729.03C615.816 723.655 616.647 719.507 618.31 716.587C619.987 713.667 622.899 712.207 627.047 712.207C631.195 712.207 634.107 713.667 635.784 716.587C637.446 719.507 638.277 723.655 638.277 729.03C638.277 734.406 637.439 738.546 635.762 741.451C634.1 744.356 631.195 745.809 627.047 745.809ZM630.798 737.61C631.382 735.634 631.674 732.774 631.674 729.03C631.674 725.107 631.374 722.202 630.775 720.315C630.191 718.429 628.949 717.485 627.047 717.485C625.145 717.485 623.887 718.429 623.273 720.315C622.66 722.202 622.353 725.107 622.353 729.03C622.353 732.774 622.66 735.641 623.273 737.633C623.887 739.609 625.145 740.598 627.047 740.598C628.949 740.598 630.199 739.602 630.798 737.61ZM670.936 745.921C666.204 745.921 662.588 744.633 660.087 742.058C656.733 738.898 655.056 734.346 655.056 728.401C655.056 722.337 656.733 717.785 660.087 714.745C662.588 712.17 666.204 710.882 670.936 710.882C675.667 710.882 679.284 712.17 681.784 714.745C685.123 717.785 686.793 722.337 686.793 728.401C686.793 734.346 685.123 738.898 681.784 742.058C679.284 744.633 675.667 745.921 670.936 745.921ZM677.472 737.026C679.074 735.005 679.875 732.13 679.875 728.401C679.875 724.688 679.066 721.82 677.449 719.799C675.847 717.762 673.676 716.744 670.936 716.744C668.195 716.744 666.009 717.755 664.377 719.776C662.745 721.798 661.929 724.673 661.929 728.401C661.929 732.13 662.745 735.005 664.377 737.026C666.009 739.048 668.195 740.059 670.936 740.059C673.676 740.059 675.854 739.048 677.472 737.026ZM721.428 745H712.533L702.313 730.535L699.012 733.927V745H692.206V711.893H699.012V725.526L711.792 711.893H720.731L707.165 725.526L721.428 745Z"
     fill="#333333"
     id="path31" />
  <path
     d="M480 1293H220V1103H480V1293Z"
     fill="white"
     stroke="#616161"
     stroke-width="2"
     id="path32" />
  <path
     fill-rule="evenodd"
     clip-rule="evenodd"
     d="M220 1131H480V1145H220V1131Z"
     fill="#616161"
     id="path33" />
  <rect
     x="261"
     y="1110"
     width="198"
     height="14"
     rx="3.04571"
     stroke="#616161"
     stroke-width="2"
     id="rect33" />
  <circle
     cx="240"
     cy="1117"
     r="5"
     stroke="#616161"
     stroke-width="2"
     id="circle33" />
  <mask
     id="path-39-inside-2_4140_2373"
     fill="white">
    <path
       d="M260 1145H442V1292H260V1145Z"
       id="path34" />
  </mask>
  <path
     d="M260 1145H442V1292H260V1145Z"
     fill="#F5F7F9"
     id="path35" />
  <path
     d="M440 1145V1292H444V1145H440ZM262 1292V1145H258V1292H262Z"
     fill="#616161"
     mask="url(#path-39-inside-2_4140_2373)"
     id="path36" />
  <path
     d="M1082.67 941.671C1083.02 940.92 1082.69 940.028 1081.94 939.678L1069.71 933.972C1068.96 933.622 1068.06 933.947 1067.71 934.698C1067.36 935.449 1067.69 936.341 1068.44 936.691L1079.31 941.763L1074.24 952.638C1073.89 953.389 1074.22 954.282 1074.97 954.632C1075.72 954.982 1076.61 954.657 1076.96 953.906L1082.67 941.671ZM588.482 1122.01L1081.82 942.447L1080.79 939.628L587.456 1119.19L588.482 1122.01Z"
     fill="#616161"
     id="path38" />
  <path
     d="M621.496 1215.81C621.146 1216.56 621.471 1217.46 622.222 1217.81L634.457 1223.51C635.208 1223.86 636.1 1223.54 636.45 1222.79C636.8 1222.03 636.475 1221.14 635.725 1220.79L624.849 1215.72L629.92 1204.85C630.27 1204.09 629.946 1203.2 629.195 1202.85C628.444 1202.5 627.551 1202.83 627.201 1203.58L621.496 1215.81ZM623.368 1217.86L1116.71 1038.3L1115.68 1035.48L622.342 1215.04L623.368 1217.86Z"
     fill="#616161"
     id="path39" />
  <path
     d="M599.92 1085.66C598.587 1087.34 596.669 1088.64 594.164 1089.55C590.041 1091.05 586.144 1090.85 582.474 1088.95C578.685 1087.08 575.884 1083.65 574.071 1078.67C572.238 1073.63 572.154 1069.09 573.82 1065.04C575.485 1060.99 578.598 1058.14 583.157 1056.48C587.111 1055.04 590.65 1054.89 593.774 1056.04C596.908 1057.16 599.196 1059.15 600.638 1062.02L594.243 1064.35C592.977 1062.4 591.234 1061.36 589.013 1061.21C587.775 1061.14 586.501 1061.34 585.192 1061.81C582.688 1062.72 580.972 1064.42 580.045 1066.91C579.128 1069.38 579.36 1072.52 580.743 1076.31C582.136 1080.14 583.994 1082.53 586.318 1083.49C588.641 1084.44 590.914 1084.52 593.138 1083.71C595.319 1082.91 596.878 1081.64 597.815 1079.88C598.747 1078.1 599.004 1076.14 598.585 1073.98L591.387 1076.6L589.498 1071.41L602.457 1066.69L608.533 1083.39L604.228 1084.95L602.16 1081.31C601.445 1083.24 600.699 1084.69 599.92 1085.66ZM631.468 1059.65L616.356 1065.15L619.267 1073.14L636.49 1066.88L638.526 1072.47L614.95 1081.05L603.626 1049.94L626.442 1041.64L628.447 1047.14L611.984 1053.14L614.389 1059.74L629.501 1054.24L631.468 1059.65ZM654.873 1031.29L656.878 1036.8L647.57 1040.18L656.888 1065.79L650.345 1068.17L641.027 1042.57L631.677 1045.97L629.672 1040.46L654.873 1031.29Z"
     fill="#333333"
     id="path40" />
  <path
     d="M620.619 1163.05C619.589 1162.45 618.406 1162.4 617.069 1162.88C615.24 1163.55 614.243 1164.68 614.078 1166.29C613.985 1167.22 614.216 1168.55 614.77 1170.29L608.924 1172.42C608.075 1169.78 607.781 1167.51 608.041 1165.59C608.534 1161.96 610.827 1159.39 614.922 1157.9C618.158 1156.73 621.061 1156.69 623.63 1157.79C626.194 1158.88 628.014 1160.91 629.09 1163.86C629.914 1166.13 629.971 1168.38 629.26 1170.64C628.799 1172.13 627.816 1173.96 626.313 1176.13L624.529 1178.72C623.412 1180.33 622.66 1181.48 622.271 1182.17C621.896 1182.84 621.634 1183.57 621.485 1184.34L634.845 1179.48L636.774 1184.78L615.815 1192.4C615.072 1190.19 614.814 1188.01 615.04 1185.87C615.155 1183.52 616.395 1180.62 618.76 1177.18C620.81 1174.19 622.086 1172.12 622.59 1170.96C623.356 1169.17 623.45 1167.48 622.871 1165.89C622.4 1164.59 621.649 1163.65 620.619 1163.05ZM650.706 1180.57C646.808 1181.98 643.575 1181.62 641.005 1179.46C638.45 1177.3 636.253 1173.69 634.414 1168.64C632.576 1163.59 631.938 1159.41 632.501 1156.09C633.078 1152.78 635.316 1150.41 639.214 1148.99C643.111 1147.57 646.347 1147.95 648.922 1150.12C651.482 1152.29 653.682 1155.91 655.521 1160.96C657.359 1166.01 657.987 1170.19 657.405 1173.49C656.837 1176.79 654.604 1179.15 650.706 1180.57ZM651.427 1171.58C651.299 1169.52 650.596 1166.73 649.315 1163.22C647.973 1159.53 646.699 1156.9 645.49 1155.33C644.296 1153.76 642.806 1153.3 641.019 1153.95C639.232 1154.6 638.372 1155.92 638.441 1157.9C638.509 1159.88 639.214 1162.72 640.556 1166.4C641.837 1169.92 643.106 1172.51 644.364 1174.17C645.617 1175.82 647.137 1176.32 648.924 1175.67C650.711 1175.02 651.545 1173.66 651.427 1171.58ZM674.767 1171.81C670.87 1173.23 667.636 1172.86 665.066 1170.7C662.511 1168.54 660.314 1164.93 658.475 1159.88C656.637 1154.83 655.999 1150.65 656.562 1147.34C657.14 1144.02 659.377 1141.65 663.275 1140.23C667.172 1138.81 670.409 1139.19 672.983 1141.36C675.544 1143.54 677.743 1147.15 679.582 1152.2C681.42 1157.25 682.049 1161.43 681.466 1164.73C680.898 1168.03 678.665 1170.39 674.767 1171.81ZM675.488 1162.82C675.361 1160.76 674.657 1157.98 673.377 1154.46C672.035 1150.77 670.76 1148.15 669.552 1146.58C668.358 1145 666.867 1144.54 665.08 1145.19C663.293 1145.84 662.434 1147.16 662.502 1149.14C662.571 1151.13 663.276 1153.96 664.617 1157.65C665.898 1161.16 667.167 1163.75 668.425 1165.42C669.678 1167.06 671.198 1167.56 672.985 1166.91C674.772 1166.26 675.606 1164.9 675.488 1162.82ZM716.047 1156.9C711.601 1158.52 707.762 1158.55 704.532 1156.98C700.299 1155.16 697.166 1151.46 695.133 1145.87C693.059 1140.17 693.078 1135.32 695.19 1131.32C696.659 1128.04 699.617 1125.6 704.063 1123.98C708.51 1122.36 712.348 1122.33 715.579 1123.9C719.757 1125.61 722.882 1129.32 724.957 1135.02C726.99 1140.6 726.978 1145.45 724.921 1149.56C723.452 1152.84 720.494 1155.28 716.047 1156.9ZM719.147 1146.31C719.962 1143.86 719.731 1140.89 718.456 1137.38C717.186 1133.89 715.445 1131.47 713.234 1130.13C711.032 1128.76 708.643 1128.55 706.068 1129.49C703.493 1130.42 701.785 1132.12 700.942 1134.58C700.1 1137.04 700.317 1140.02 701.592 1143.52C702.867 1147.02 704.617 1149.45 706.842 1150.79C709.067 1152.13 711.467 1152.33 714.042 1151.39C716.617 1150.46 718.319 1148.76 719.147 1146.31ZM763.18 1138.77L754.821 1141.81L740.271 1131.71L738.328 1136.03L742.115 1146.43L735.72 1148.76L724.397 1117.65L730.792 1115.32L735.455 1128.14L742.802 1110.95L751.202 1107.9L743.117 1125.35L763.18 1138.77Z"
     fill="#333333"
     id="path41" />
  <path
     d="M482 409H222V219H482V409Z"
     fill="white"
     stroke="#616161"
     stroke-width="2"
     id="path42" />
  <path
     fill-rule="evenodd"
     clip-rule="evenodd"
     d="M222 247H482V261H222V247Z"
     fill="#616161"
     id="path43" />
  <rect
     x="263"
     y="226"
     width="198"
     height="14"
     rx="3.04571"
     stroke="#616161"
     stroke-width="2"
     id="rect43" />
  <circle
     cx="242"
     cy="233"
     r="5"
     stroke="#616161"
     stroke-width="2"
     id="circle43" />
  <mask
     id="path-50-inside-3_4140_2373"
     fill="white">
    <path
       d="M262 261H444V408H262V261Z"
       id="path44" />
  </mask>
  <path
     d="M262 261H444V408H262V261Z"
     fill="#F5F7F9"
     id="path45" />
  <path
     d="M442 261V408H446V261H442ZM264 408V261H260V408H264Z"
     fill="#616161"
     mask="url(#path-50-inside-3_4140_2373)"
     id="path46" />
  <path
     d="M1092.01 398.518C1092.76 398.168 1093.08 397.275 1092.73 396.524L1087.03 384.289C1086.68 383.538 1085.79 383.213 1085.03 383.564C1084.28 383.914 1083.96 384.806 1084.31 385.557L1089.38 396.433L1078.5 401.504C1077.75 401.854 1077.43 402.747 1077.78 403.497C1078.13 404.248 1079.02 404.573 1079.77 404.223L1092.01 398.518ZM597.522 219.007L1090.86 398.568L1091.89 395.749L598.548 216.188L597.522 219.007Z"
     fill="#616161"
     id="path48" />
  <path
     d="M562.515 312.087C561.764 312.437 561.439 313.329 561.789 314.08L567.494 326.315C567.844 327.066 568.737 327.391 569.488 327.041C570.239 326.691 570.563 325.798 570.213 325.048L565.142 314.172L576.018 309.1C576.768 308.75 577.093 307.858 576.743 307.107C576.393 306.356 575.5 306.031 574.75 306.381L562.515 312.087ZM562.635 314.856L1055.97 494.416L1057 491.597L563.661 312.037L562.635 314.856Z"
     fill="#616161"
     id="path49" />
  <path
     d="M631.599 191.918C629.498 192.348 627.195 192.108 624.691 191.196C620.568 189.696 617.711 187.038 616.119 183.224C614.42 179.355 614.477 174.93 616.29 169.949C618.123 164.911 620.979 161.377 624.857 159.347C628.736 157.317 632.954 157.131 637.513 158.79C641.467 160.23 644.274 162.39 645.934 165.273C647.613 168.147 648.082 171.147 647.343 174.272L640.948 171.944C641.229 169.64 640.566 167.718 638.96 166.177C638.059 165.323 636.955 164.658 635.646 164.182C633.142 163.271 630.735 163.47 628.425 164.781C626.135 166.082 624.298 168.633 622.915 172.432C621.522 176.259 621.409 179.285 622.575 181.51C623.741 183.736 625.436 185.253 627.659 186.062C629.84 186.856 631.855 186.88 633.704 186.135C635.558 185.375 637.018 184.034 638.084 182.112L630.887 179.492L632.776 174.3L645.736 179.017L639.659 195.712L635.354 194.145L636.113 190.023C634.323 191.045 632.818 191.676 631.599 191.918ZM672.488 192.268L657.376 186.767L654.464 194.766L671.687 201.035L669.651 206.628L646.076 198.047L657.399 166.937L680.215 175.241L678.21 180.75L661.747 174.758L659.342 181.364L674.455 186.864L672.488 192.268ZM708.645 185.589L706.64 191.097L697.332 187.71L688.014 213.312L681.471 210.93L690.789 185.328L681.439 181.925L683.444 176.416L708.645 185.589Z"
     fill="#333333"
     id="path50" />
  <path
     d="M595.756 271.103C595.351 269.984 594.48 269.181 593.143 268.694C591.314 268.028 589.82 268.257 588.662 269.382C587.995 270.031 587.314 271.202 586.619 272.893L580.773 270.765C581.819 268.198 583.056 266.266 584.484 264.969C587.199 262.499 590.604 262.01 594.699 263.5C597.935 264.678 600.183 266.516 601.441 269.013C602.704 271.497 602.798 274.216 601.722 277.171C600.898 279.436 599.49 281.202 597.499 282.47C596.187 283.315 594.257 284.086 591.709 284.784L588.68 285.618C586.786 286.139 585.47 286.537 584.733 286.81C584.01 287.089 583.343 287.476 582.733 287.971L596.093 292.834L594.165 298.131L573.206 290.503C574.062 288.328 575.263 286.495 576.81 285.002C578.411 283.275 581.223 281.852 585.247 280.735C588.741 279.76 591.052 278.992 592.181 278.431C593.92 277.55 595.078 276.314 595.657 274.724C596.128 273.43 596.161 272.223 595.756 271.103ZM607.544 303.861C603.647 302.443 601.407 300.082 600.824 296.778C600.256 293.48 600.891 289.305 602.73 284.254C604.568 279.203 606.768 275.589 609.328 273.414C611.903 271.244 615.139 270.868 619.037 272.286C622.934 273.705 625.172 276.073 625.749 279.39C626.312 282.703 625.674 286.885 623.836 291.936C621.997 296.988 619.793 300.591 617.224 302.747C614.668 304.909 611.442 305.28 607.544 303.861ZM613.873 297.441C615.098 295.783 616.35 293.195 617.631 289.678C618.972 285.991 619.685 283.159 619.767 281.181C619.864 279.208 619.018 277.897 617.231 277.246C615.444 276.596 613.94 277.052 612.718 278.615C611.495 280.178 610.213 282.803 608.871 286.489C607.591 290.007 606.899 292.807 606.795 294.888C606.695 296.955 607.539 298.314 609.326 298.965C611.113 299.615 612.629 299.107 613.873 297.441ZM631.605 312.619C627.708 311.2 625.468 308.839 624.885 305.536C624.317 302.238 624.952 298.063 626.791 293.012C628.629 287.96 630.829 284.347 633.389 282.171C635.964 280.001 639.2 279.625 643.098 281.044C646.996 282.463 649.233 284.831 649.81 288.148C650.373 291.46 649.736 295.642 647.897 300.694C646.059 305.745 643.855 309.349 641.285 311.505C638.73 313.666 635.503 314.038 631.605 312.619ZM637.934 306.198C639.159 304.541 640.412 301.953 641.692 298.435C643.034 294.749 643.746 291.916 643.828 289.939C643.925 287.966 643.08 286.654 641.293 286.004C639.506 285.353 638.001 285.81 636.779 287.373C635.557 288.936 634.275 291.56 632.933 295.247C631.652 298.765 630.96 301.564 630.856 303.646C630.757 305.713 631.601 307.072 633.388 307.722C635.175 308.373 636.69 307.865 637.934 306.198ZM672.809 327.735C668.363 326.117 665.405 323.67 663.936 320.395C661.865 316.278 661.846 311.427 663.879 305.841C665.953 300.142 669.086 296.438 673.277 294.729C676.508 293.164 680.347 293.191 684.793 294.809C689.239 296.428 692.197 298.875 693.666 302.15C695.764 306.149 695.776 310.997 693.702 316.696C691.669 322.282 688.543 325.989 684.325 327.816C681.094 329.38 677.255 329.354 672.809 327.735ZM681.993 321.613C684.19 320.261 685.926 317.834 687.201 314.33C688.471 310.84 688.692 307.869 687.864 305.416C687.055 302.955 685.363 301.255 682.788 300.318C680.213 299.381 677.813 299.583 675.588 300.924C673.363 302.266 671.613 304.688 670.337 308.192C669.062 311.696 668.846 314.676 669.688 317.134C670.53 319.592 672.239 321.289 674.814 322.227C677.389 323.164 679.782 322.959 681.993 321.613ZM720.571 344.139L712.213 341.097L707.557 324.009L703.294 326.067L699.507 336.473L693.112 334.145L704.435 303.034L710.83 305.362L706.167 318.173L722.84 309.733L731.24 312.79L713.829 320.962L720.571 344.139Z"
     fill="#333333"
     id="path51" />
  <path
     d="M1583.99 727.058C1583.23 726.144 1582.14 725.688 1580.71 725.688C1578.77 725.688 1577.44 726.414 1576.74 727.866C1576.33 728.705 1576.09 730.037 1576.02 731.864H1569.8C1569.9 729.094 1570.4 726.855 1571.3 725.148C1573.01 721.899 1576.04 720.274 1580.4 720.274C1583.84 720.274 1586.58 721.233 1588.62 723.149C1590.66 725.051 1591.67 727.574 1591.67 730.719C1591.67 733.13 1590.96 735.271 1589.52 737.143C1588.57 738.385 1587.02 739.771 1584.87 741.298L1582.31 743.117C1580.71 744.255 1579.6 745.079 1579.01 745.588C1578.42 746.097 1577.93 746.688 1577.52 747.362H1591.74V753H1569.44C1569.5 750.664 1570 748.53 1570.94 746.599C1571.86 744.427 1574.01 742.129 1577.41 739.703C1580.36 737.592 1582.27 736.079 1583.14 735.166C1584.47 733.743 1585.14 732.186 1585.14 730.494C1585.14 729.117 1584.76 727.971 1583.99 727.058ZM1606.27 753.809C1602.13 753.809 1599.21 752.356 1597.54 749.451C1595.87 746.546 1595.04 742.406 1595.04 737.03C1595.04 731.655 1595.87 727.507 1597.54 724.587C1599.21 721.667 1602.13 720.207 1606.27 720.207C1610.42 720.207 1613.33 721.667 1615.01 724.587C1616.67 727.507 1617.5 731.655 1617.5 737.03C1617.5 742.406 1616.67 746.546 1614.99 749.451C1613.33 752.356 1610.42 753.809 1606.27 753.809ZM1610.02 745.61C1610.61 743.634 1610.9 740.774 1610.9 737.03C1610.9 733.107 1610.6 730.202 1610 728.315C1609.42 726.429 1608.18 725.485 1606.27 725.485C1604.37 725.485 1603.11 726.429 1602.5 728.315C1601.89 730.202 1601.58 733.107 1601.58 737.03C1601.58 740.774 1601.89 743.641 1602.5 745.633C1603.11 747.609 1604.37 748.598 1606.27 748.598C1608.18 748.598 1609.43 747.602 1610.02 745.61ZM1631.88 753.809C1627.73 753.809 1624.82 752.356 1623.14 749.451C1621.48 746.546 1620.65 742.406 1620.65 737.03C1620.65 731.655 1621.48 727.507 1623.14 724.587C1624.82 721.667 1627.73 720.207 1631.88 720.207C1636.03 720.207 1638.94 721.667 1640.62 724.587C1642.28 727.507 1643.11 731.655 1643.11 737.03C1643.11 742.406 1642.27 746.546 1640.59 749.451C1638.93 752.356 1636.03 753.809 1631.88 753.809ZM1635.63 745.61C1636.21 743.634 1636.51 740.774 1636.51 737.03C1636.51 733.107 1636.21 730.202 1635.61 728.315C1635.02 726.429 1633.78 725.485 1631.88 725.485C1629.98 725.485 1628.72 726.429 1628.11 728.315C1627.49 730.202 1627.18 733.107 1627.18 737.03C1627.18 740.774 1627.49 743.641 1628.11 745.633C1628.72 747.609 1629.98 748.598 1631.88 748.598C1633.78 748.598 1635.03 747.602 1635.63 745.61ZM1675.77 753.921C1671.04 753.921 1667.42 752.633 1664.92 750.058C1661.56 746.898 1659.89 742.346 1659.89 736.401C1659.89 730.337 1661.56 725.785 1664.92 722.745C1667.42 720.17 1671.04 718.882 1675.77 718.882C1680.5 718.882 1684.12 720.17 1686.62 722.745C1689.96 725.785 1691.62 730.337 1691.62 736.401C1691.62 742.346 1689.96 746.898 1686.62 750.058C1684.12 752.633 1680.5 753.921 1675.77 753.921ZM1682.3 745.026C1683.91 743.005 1684.71 740.13 1684.71 736.401C1684.71 732.688 1683.9 729.82 1682.28 727.799C1680.68 725.762 1678.51 724.744 1675.77 724.744C1673.03 724.744 1670.84 725.755 1669.21 727.776C1667.58 729.798 1666.76 732.673 1666.76 736.401C1666.76 740.13 1667.58 743.005 1669.21 745.026C1670.84 747.048 1673.03 748.059 1675.77 748.059C1678.51 748.059 1680.69 747.048 1682.3 745.026ZM1726.26 753H1717.37L1707.15 738.535L1703.84 741.927V753H1697.04V719.893H1703.84V733.526L1716.62 719.893H1725.56L1712 733.526L1726.26 753Z"
     fill="#333333"
     id="path52" />
  <path
     d="M1498.08 766.979L1512.32 696.899L1442.65 700.927L1455.83 716.628C1437.11 744.307 1384 739.991 1384 739.991C1405.81 765.979 1446.66 776.032 1483.09 749.112L1498.08 766.979Z"
     fill="white"
     stroke="#F54337"
     stroke-width="4"
     id="path53" />
  <text
     xml:space="preserve"
     style="font-style:normal;font-variant:normal;font-weight:bold;font-stretch:normal;font-size:42.66666794px;font-family:'Noto Sans CJK JP';-inkscape-font-specification:'Noto Sans CJK JP, Bold';font-variant-ligatures:normal;font-variant-caps:normal;font-variant-numeric:normal;font-variant-east-asian:normal;fill:#000000;text-anchor:middle;text-align:center"
     x="351.42676"
     y="188.78169"
     id="text54"><tspan
       id="tspan54"
       x="258.81879"
       y="188.78169">クライアント</tspan></text>
  <text
     xml:space="preserve"
     style="font-style:normal;font-variant:normal;font-weight:bold;font-stretch:normal;font-size:42.66666794px;font-family:'Noto Sans CJK JP';-inkscape-font-specification:'Noto Sans CJK JP, Bold';font-variant-ligatures:normal;font-variant-caps:normal;font-variant-numeric:normal;font-variant-east-asian:normal;fill:#000000;text-anchor:middle;text-align:center"
     x="2176.5242"
     y="602.53424"
     id="text54-66"><tspan
       id="tspan54-8"
       x="2114.9082"
       y="602.53424">サーバー</tspan></text>
  <text
     xml:space="preserve"
     style="font-style:normal;font-variant:normal;font-weight:bold;font-stretch:normal;font-size:42.66666794px;font-family:'Noto Sans CJK JP';-inkscape-font-specification:'Noto Sans CJK JP, Bold';font-variant-ligatures:normal;font-variant-caps:normal;font-variant-numeric:normal;font-variant-east-asian:normal;fill:#1a76d2;fill-opacity:1;text-anchor:middle;text-align:center"
     x="1319.3048"
     y="600.50842"
     id="text54-6"><tspan
       id="tspan54-3"
       x="1242.7448"
       y="600.50842">キャッシュ</tspan></text>
  <text
     xml:space="preserve"
     style="font-style:normal;font-variant:normal;font-weight:bold;font-stretch:normal;font-size:42.66666794px;font-family:'Noto Sans CJK JP';-inkscape-font-specification:'Noto Sans CJK JP, Bold';font-variant-ligatures:normal;font-variant-caps:normal;font-variant-numeric:normal;font-variant-east-asian:normal;fill:#f54337;fill-opacity:1;text-anchor:middle;text-align:center"
     x="1555.5646"
     y="853.74097"
     id="text54-6-7"><tspan
       id="tspan54-3-0"
       x="1476.4446"
       y="853.74097">折りたたみ</tspan></text>
  <text
     xml:space="preserve"
     style="font-style:normal;font-variant:normal;font-weight:bold;font-stretch:normal;font-size:42.66666794px;font-family:'Noto Sans CJK JP';-inkscape-font-specification:'Noto Sans CJK JP, Bold';font-variant-ligatures:normal;font-variant-caps:normal;font-variant-numeric:normal;font-variant-east-asian:normal;fill:#000000;text-anchor:middle;text-align:center"
     x="351.35327"
     y="601.41693"
     id="text54-3"><tspan
       id="tspan54-7"
       x="258.7453"
       y="601.41693">クライアント</tspan></text>
  <text
     xml:space="preserve"
     style="font-style:normal;font-variant:normal;font-weight:bold;font-stretch:normal;font-size:42.66666794px;font-family:'Noto Sans CJK JP';-inkscape-font-specification:'Noto Sans CJK JP, Bold';font-variant-ligatures:normal;font-variant-caps:normal;font-variant-numeric:normal;font-variant-east-asian:normal;fill:#000000;text-anchor:middle;text-align:center"
     x="347.48904"
     y="1073.9697"
     id="text54-3-3"><tspan
       id="tspan54-7-6"
       x="254.88107"
       y="1073.9697">クライアント</tspan></text>
</svg>
