<svg xmlns="http://www.w3.org/2000/svg" width="2560" height="1440" fill="none"><path fill="#fff" d="M0 0h2560v1440H0z"/><path fill="#fff" stroke="#616161" stroke-width="2" d="M486 822H226V632h260v190Z"/><path fill="#616161" fill-rule="evenodd" d="M226 660h260v14H226v-14Z" clip-rule="evenodd"/><rect width="198" height="14" x="267" y="639" stroke="#616161" stroke-width="2" rx="3.046"/><circle cx="246" cy="646" r="5" stroke="#616161" stroke-width="2"/><mask id="a" fill="#fff"><path d="M266 674h182v147H266V674Z"/></mask><path fill="#F5F7F9" d="M266 674h182v147H266V674Z"/><path fill="#616161" d="M446 674v147h4V674h-4ZM268 821V674h-4v147h4Z" mask="url(#a)"/><path fill="#fff" stroke="#1A76D2" stroke-width="4" d="M1223 760v43.765c0 6.93 9.57 12.845 28.7 17.745 19.14 4.899 42.24 7.349 69.3 7.349 27.06 0 50.16-2.45 69.3-7.349 19.13-4.9 28.7-10.815 28.7-17.745V760c0 6.93-9.57 12.845-28.7 17.744-19.14 4.9-42.24 7.35-69.3 7.35-27.06 0-50.16-2.45-69.3-7.35-19.13-4.9-28.7-10.814-28.7-17.744Z"/><path fill="#fff" stroke="#1A76D2" stroke-width="4" d="M1419 760.101c0 6.93-9.57 12.845-28.7 17.744-19.14 4.9-42.24 7.35-69.3 7.35-27.06 0-50.16-2.45-69.3-7.35-19.13-4.9-28.7-10.814-28.7-17.744s9.57-12.846 28.7-17.748c19.14-4.902 42.24-7.353 69.3-7.353 27.06 0 50.16 2.451 69.3 7.353 19.13 4.902 28.7 10.818 28.7 17.748Z"/><path fill="#1A76D2" fill-rule="evenodd" d="M1236.69 766.94c-4.55-2.37-8.69-5.844-8.69-10.94l8.69 5c3.81 1.5 12.02 4.085 20.62 5.94 17.07 3.681 39.51 6.585 63.98 6.585s46.91-2.904 63.98-6.585c8.6-1.855 16.73-3.919 20.62-5.94l8.69-5c0 5.096-4.14 8.57-8.69 10.94-4.84 2.516-11.79 4.681-20.62 6.585-17.79 3.837-39.14 5.729-63.98 5.729-24.84 0-46.19-1.892-63.98-5.729-8.83-1.905-15.78-4.069-20.62-6.585Z" clip-rule="evenodd"/><path fill="#fff" stroke="#1A76D2" stroke-width="4" d="M1223 705v43.765c0 6.93 9.57 12.845 28.7 17.745 19.14 4.899 42.24 7.349 69.3 7.349 27.06 0 50.16-2.45 69.3-7.349 19.13-4.9 28.7-10.815 28.7-17.745V705c0 6.93-9.57 12.845-28.7 17.744-19.14 4.9-42.24 7.35-69.3 7.35-27.06 0-50.16-2.45-69.3-7.35-19.13-4.9-28.7-10.814-28.7-17.744Z"/><path fill="#fff" stroke="#1A76D2" stroke-width="4" d="M1419 705.101c0 6.93-9.57 12.845-28.7 17.744-19.14 4.9-42.24 7.35-69.3 7.35-27.06 0-50.16-2.45-69.3-7.35-19.13-4.9-28.7-10.814-28.7-17.744s9.57-12.846 28.7-17.748c19.14-4.902 42.24-7.353 69.3-7.353 27.06 0 50.16 2.451 69.3 7.353 19.13 4.902 28.7 10.818 28.7 17.748Z"/><path fill="#1A76D2" fill-rule="evenodd" d="M1236.69 712.94c-4.55-2.37-8.69-5.844-8.69-10.94l8.69 5c3.81 1.5 12.02 4.085 20.62 5.94 17.07 3.681 39.51 6.585 63.98 6.585s46.91-2.904 63.98-6.585c8.6-1.855 16.73-3.919 20.62-5.94l8.69-5c0 5.096-4.14 8.57-8.69 10.94-4.84 2.516-11.79 4.681-20.62 6.585-17.79 3.837-39.14 5.729-63.98 5.729-24.84 0-46.19-1.892-63.98-5.729-8.83-1.905-15.78-4.069-20.62-6.585Z" clip-rule="evenodd"/><path fill="#fff" stroke="#1A76D2" stroke-width="4" d="M1223 650v43.765c0 6.93 9.57 12.845 28.7 17.745 19.14 4.899 42.24 7.349 69.3 7.349 27.06 0 50.16-2.45 69.3-7.349 19.13-4.9 28.7-10.815 28.7-17.745V650c0 6.93-9.57 12.845-28.7 17.744-19.14 4.9-42.24 7.35-69.3 7.35-27.06 0-50.16-2.45-69.3-7.35-19.13-4.9-28.7-10.814-28.7-17.744Z"/><path fill="#fff" stroke="#1A76D2" stroke-width="4" d="M1419 650.101c0 6.93-9.57 12.845-28.7 17.744-19.14 4.9-42.24 7.35-69.3 7.35-27.06 0-50.16-2.45-69.3-7.35-19.13-4.9-28.7-10.814-28.7-17.744s9.57-12.846 28.7-17.748c19.14-4.902 42.24-7.353 69.3-7.353 27.06 0 50.16 2.451 69.3 7.353 19.13 4.902 28.7 10.818 28.7 17.748Z"/><path fill="#333" d="M2087.27 768.229h185.455v4.539H2087.27zM2087.27 721.933h185.455v4.539H2087.27zM2087.27 676.544h185.455v4.539H2087.27z"/><rect width="196" height="41.389" x="2082" y="772.771" fill="#fff" stroke="#616161" stroke-width="4" rx="6.8"/><rect width="196" height="41.389" x="2082" y="726.837" fill="#fff" stroke="#616161" stroke-width="4" rx="6.8"/><rect width="196" height="41.389" x="2082" y="680.904" fill="#fff" stroke="#616161" stroke-width="4" rx="6.8"/><rect width="196" height="41.389" x="2082" y="634.971" fill="#fff" stroke="#616161" stroke-width="4" rx="6.8"/><path fill="#fff" stroke="#616161" stroke-width="4" d="M2230.73 793.411c0 5.411-4.4 9.801-9.82 9.801-5.43 0-9.82-4.39-9.82-9.801 0-5.41 4.39-9.801 9.82-9.801 5.42 0 9.82 4.391 9.82 9.801ZM2262.55 793.411c0 5.411-4.4 9.801-9.82 9.801-5.43 0-9.82-4.39-9.82-9.801 0-5.41 4.39-9.801 9.82-9.801 5.42 0 9.82 4.391 9.82 9.801ZM2117.65 622.264l-33.1 13.799h190l-32.96-13.784a32.977 32.977 0 0 0-12.73-2.556h-98.51c-4.36 0-8.68.864-12.7 2.541Z"/><path fill="#616161" d="M2013.06 677.061c.59-.586.59-1.536 0-2.122l-9.55-9.546a1.5 1.5 0 0 0-2.12 0 1.511 1.511 0 0 0 0 2.122l8.49 8.485-8.49 8.485a1.511 1.511 0 0 0 0 2.122 1.5 1.5 0 0 0 2.12 0l9.55-9.546ZM1568 677.5h444v-3h-444v3ZM1566.94 776.939a1.493 1.493 0 0 0 0 2.122l9.55 9.546a1.5 1.5 0 0 0 2.12 0c.58-.586.58-1.536 0-2.122l-8.49-8.485 8.49-8.485c.58-.586.58-1.536 0-2.122a1.5 1.5 0 0 0-2.12 0l-9.55 9.546Zm1.06 2.561h444v-3h-444v3Z"/><path fill="#333" d="M1591.81 629.191c-1.83 1.123-4.07 1.685-6.74 1.685-4.39 0-7.98-1.52-10.78-4.56-2.92-3.054-4.38-7.232-4.38-12.533 0-5.36 1.47-9.658 4.42-12.892 2.95-3.235 6.85-4.852 11.71-4.852 4.2 0 7.58 1.071 10.13 3.212 2.56 2.126 4.02 4.784 4.4 7.974h-6.81c-.52-2.261-1.8-3.841-3.84-4.74-1.14-.494-2.4-.741-3.79-.741-2.67 0-4.86 1.011-6.59 3.032-1.7 2.007-2.56 5.032-2.56 9.075 0 4.073.93 6.955 2.79 8.647 1.86 1.692 3.97 2.538 6.33 2.538 2.32 0 4.23-.666 5.71-1.999 1.48-1.348 2.39-3.107 2.74-5.278h-7.66v-5.526h13.79V630h-4.58l-.7-4.133c-1.33 1.572-2.53 2.681-3.59 3.324Zm38.54-13.656h-16.08v8.513h18.33V630h-25.09v-33.107h24.28v5.862h-17.52v7.03h16.08v5.75Zm31.69-18.642v5.862h-9.9V630h-6.96v-27.245h-9.95v-5.862h26.81Z"/><path fill="#616161" d="M1089.06 669.061c.59-.586.59-1.536 0-2.122l-9.55-9.546a1.5 1.5 0 0 0-2.12 0 1.511 1.511 0 0 0 0 2.122l8.49 8.485-8.49 8.485a1.511 1.511 0 0 0 0 2.122 1.5 1.5 0 0 0 2.12 0l9.55-9.546ZM563 669.5h525v-3H563v3ZM561.939 768.939a1.502 1.502 0 0 0 0 2.122l9.546 9.546a1.502 1.502 0 0 0 2.122 0 1.502 1.502 0 0 0 0-2.122L565.121 770l8.486-8.485a1.502 1.502 0 0 0 0-2.122 1.502 1.502 0 0 0-2.122 0l-9.546 9.546ZM563 771.5h525v-3H563v3Z"/><path fill="#333" d="M587.006 636.191c-1.827 1.123-4.073 1.685-6.738 1.685-4.388 0-7.982-1.52-10.782-4.56-2.92-3.054-4.38-7.232-4.38-12.533 0-5.36 1.475-9.658 4.425-12.892 2.95-3.235 6.851-4.852 11.702-4.852 4.208 0 7.585 1.071 10.13 3.212 2.561 2.126 4.028 4.784 4.403 7.974h-6.806c-.524-2.261-1.804-3.841-3.841-4.74-1.138-.494-2.403-.741-3.796-.741-2.665 0-4.859 1.011-6.581 3.032-1.707 2.007-2.56 5.032-2.56 9.075 0 4.073.928 6.955 2.785 8.647 1.857 1.692 3.968 2.538 6.334 2.538 2.321 0 4.222-.666 5.705-1.999 1.482-1.348 2.396-3.107 2.74-5.278h-7.659v-5.526h13.791V637h-4.582l-.696-4.133c-1.333 1.572-2.531 2.681-3.594 3.324Zm38.543-13.656h-16.082v8.513h18.328V637h-25.089v-33.107h24.28v5.862h-17.519v7.03h16.082v5.75Zm31.692-18.642v5.862h-9.905V637h-6.963v-27.245h-9.95v-5.862h26.818ZM579.16 719.058c-.764-.914-1.857-1.37-3.279-1.37-1.947 0-3.272.726-3.976 2.178-.404.839-.644 2.171-.718 3.998h-6.222c.105-2.77.606-5.009 1.505-6.716 1.707-3.249 4.739-4.874 9.096-4.874 3.444 0 6.185.959 8.221 2.875 2.037 1.902 3.055 4.425 3.055 7.57 0 2.411-.719 4.552-2.156 6.424-.944 1.242-2.494 2.628-4.65 4.155l-2.56 1.819c-1.603 1.138-2.703 1.962-3.302 2.471a7.374 7.374 0 0 0-1.483 1.774h14.218V745h-22.304c.06-2.336.562-4.47 1.505-6.401.914-2.172 3.07-4.47 6.469-6.896 2.95-2.111 4.859-3.624 5.728-4.537 1.332-1.423 1.999-2.98 1.999-4.672 0-1.377-.382-2.523-1.146-3.436Zm22.281 26.751c-4.147 0-7.06-1.453-8.737-4.358-1.662-2.905-2.493-7.045-2.493-12.421 0-5.375.831-9.523 2.493-12.443 1.677-2.92 4.59-4.38 8.737-4.38 4.148 0 7.061 1.46 8.738 4.38 1.662 2.92 2.493 7.068 2.493 12.443 0 5.376-.839 9.516-2.516 12.421-1.662 2.905-4.567 4.358-8.715 4.358Zm3.751-8.199c.584-1.976.876-4.836.876-8.58 0-3.923-.299-6.828-.898-8.715-.584-1.886-1.827-2.83-3.729-2.83-1.901 0-3.159.944-3.773 2.83-.614 1.887-.921 4.792-.921 8.715 0 3.744.307 6.611.921 8.603.614 1.976 1.872 2.965 3.773 2.965 1.902 0 3.152-.996 3.751-2.988Zm21.855 8.199c-4.148 0-7.06-1.453-8.737-4.358-1.663-2.905-2.494-7.045-2.494-12.421 0-5.375.831-9.523 2.494-12.443 1.677-2.92 4.589-4.38 8.737-4.38s7.06 1.46 8.737 4.38c1.662 2.92 2.493 7.068 2.493 12.443 0 5.376-.838 9.516-2.515 12.421-1.662 2.905-4.567 4.358-8.715 4.358Zm3.751-8.199c.584-1.976.876-4.836.876-8.58 0-3.923-.3-6.828-.899-8.715-.584-1.886-1.826-2.83-3.728-2.83-1.902 0-3.16.944-3.774 2.83-.613 1.887-.92 4.792-.92 8.715 0 3.744.307 6.611.92 8.603.614 1.976 1.872 2.965 3.774 2.965s3.152-.996 3.751-2.988Zm40.138 8.311c-4.732 0-8.348-1.288-10.849-3.863-3.354-3.16-5.031-7.712-5.031-13.657 0-6.064 1.677-10.616 5.031-13.656 2.501-2.575 6.117-3.863 10.849-3.863 4.731 0 8.348 1.288 10.848 3.863 3.339 3.04 5.009 7.592 5.009 13.656 0 5.945-1.67 10.497-5.009 13.657-2.5 2.575-6.117 3.863-10.848 3.863Zm6.536-8.895c1.602-2.021 2.403-4.896 2.403-8.625 0-3.713-.809-6.581-2.426-8.602-1.602-2.037-3.773-3.055-6.513-3.055-2.741 0-4.927 1.011-6.559 3.032-1.632 2.022-2.448 4.897-2.448 8.625 0 3.729.816 6.604 2.448 8.625 1.632 2.022 3.818 3.033 6.559 3.033 2.74 0 4.918-1.011 6.536-3.033ZM721.428 745h-8.895l-10.22-14.465-3.301 3.392V745h-6.806v-33.107h6.806v13.633l12.78-13.633h8.939l-13.566 13.633L721.428 745Z"/><path fill="#fff" stroke="#616161" stroke-width="2" d="M480 1293H220v-190h260v190Z"/><path fill="#616161" fill-rule="evenodd" d="M220 1131h260v14H220v-14Z" clip-rule="evenodd"/><rect width="198" height="14" x="261" y="1110" stroke="#616161" stroke-width="2" rx="3.046"/><circle cx="240" cy="1117" r="5" stroke="#616161" stroke-width="2"/><mask id="b" fill="#fff"><path d="M260 1145h182v147H260v-147Z"/></mask><path fill="#F5F7F9" d="M260 1145h182v147H260v-147Z"/><path fill="#616161" d="M440 1145v147h4v-147h-4Zm-178 147v-147h-4v147h4Z" mask="url(#b)"/><path fill="#616161" d="M1082.67 941.671c.35-.751.02-1.643-.73-1.993l-12.23-5.706a1.508 1.508 0 0 0-2 .726c-.35.751-.02 1.643.73 1.993l10.87 5.072-5.07 10.875c-.35.751-.02 1.644.73 1.994.75.35 1.64.025 1.99-.726l5.71-12.235ZM588.482 1122.01l493.338-179.563-1.03-2.819-493.334 179.562 1.026 2.82ZM621.496 1215.81c-.35.75-.025 1.65.726 2l12.235 5.7c.751.35 1.643.03 1.993-.72.35-.76.025-1.65-.725-2l-10.876-5.07 5.071-10.87c.35-.76.026-1.65-.725-2a1.503 1.503 0 0 0-1.994.73l-5.705 12.23Zm1.872 2.05 493.342-179.56-1.03-2.82-493.338 179.56 1.026 2.82Z"/><path fill="#333" d="M599.92 1085.66c-1.333 1.68-3.251 2.98-5.756 3.89-4.123 1.5-8.02 1.3-11.69-.6-3.789-1.87-6.59-5.3-8.403-10.28-1.833-5.04-1.917-9.58-.251-13.63 1.665-4.05 4.778-6.9 9.337-8.56 3.954-1.44 7.493-1.59 10.617-.44 3.134 1.12 5.422 3.11 6.864 5.98l-6.395 2.33c-1.266-1.95-3.009-2.99-5.23-3.14-1.238-.07-2.512.13-3.821.6-2.504.91-4.22 2.61-5.147 5.1-.917 2.47-.685 5.61.698 9.4 1.393 3.83 3.251 6.22 5.575 7.18 2.323.95 4.596 1.03 6.82.22 2.181-.8 3.74-2.07 4.677-3.83.932-1.78 1.189-3.74.77-5.9l-7.198 2.62-1.889-5.19 12.959-4.72 6.076 16.7-4.305 1.56-2.068-3.64c-.715 1.93-1.461 3.38-2.24 4.35Zm31.548-26.01-15.112 5.5 2.911 7.99 17.223-6.26 2.036 5.59-23.576 8.58-11.324-31.11 22.816-8.3 2.005 5.5-16.463 6 2.405 6.6 15.112-5.5 1.967 5.41Zm23.405-28.36 2.005 5.51-9.308 3.38 9.318 25.61-6.543 2.38-9.318-25.6-9.35 3.4-2.005-5.51 25.201-9.17ZM620.619 1163.05c-1.03-.6-2.213-.65-3.55-.17-1.829.67-2.826 1.8-2.991 3.41-.093.93.138 2.26.692 4l-5.846 2.13c-.849-2.64-1.143-4.91-.883-6.83.493-3.63 2.786-6.2 6.881-7.69 3.236-1.17 6.139-1.21 8.708-.11 2.564 1.09 4.384 3.12 5.46 6.07.824 2.27.881 4.52.17 6.78-.461 1.49-1.444 3.32-2.947 5.49l-1.784 2.59c-1.117 1.61-1.869 2.76-2.258 3.45-.375.67-.637 1.4-.786 2.17l13.36-4.86 1.929 5.3-20.959 7.62c-.743-2.21-1.001-4.39-.775-6.53.115-2.35 1.355-5.25 3.72-8.69 2.05-2.99 3.326-5.06 3.83-6.22.766-1.79.86-3.48.281-5.07-.471-1.3-1.222-2.24-2.252-2.84Zm30.087 17.52c-3.898 1.41-7.131 1.05-9.701-1.11-2.555-2.16-4.752-5.77-6.591-10.82-1.838-5.05-2.476-9.23-1.913-12.55.577-3.31 2.815-5.68 6.713-7.1 3.897-1.42 7.133-1.04 9.708 1.13 2.56 2.17 4.76 5.79 6.599 10.84 1.838 5.05 2.466 9.23 1.884 12.53-.568 3.3-2.801 5.66-6.699 7.08Zm.721-8.99c-.128-2.06-.831-4.85-2.112-8.36-1.342-3.69-2.616-6.32-3.825-7.89-1.194-1.57-2.684-2.03-4.471-1.38-1.787.65-2.647 1.97-2.578 3.95.068 1.98.773 4.82 2.115 8.5 1.281 3.52 2.55 6.11 3.808 7.77 1.253 1.65 2.773 2.15 4.56 1.5 1.787-.65 2.621-2.01 2.503-4.09Zm23.34.23c-3.897 1.42-7.131 1.05-9.701-1.11-2.555-2.16-4.752-5.77-6.591-10.82-1.838-5.05-2.476-9.23-1.913-12.54.578-3.32 2.815-5.69 6.713-7.11 3.897-1.42 7.134-1.04 9.708 1.13 2.561 2.18 4.76 5.79 6.599 10.84 1.838 5.05 2.467 9.23 1.884 12.53-.568 3.3-2.801 5.66-6.699 7.08Zm.721-8.99c-.127-2.06-.831-4.84-2.111-8.36-1.342-3.69-2.617-6.31-3.825-7.88-1.194-1.58-2.685-2.04-4.472-1.39-1.787.65-2.646 1.97-2.578 3.95.069 1.99.774 4.82 2.115 8.51 1.281 3.51 2.55 6.1 3.808 7.77 1.253 1.64 2.773 2.14 4.56 1.49 1.787-.65 2.621-2.01 2.503-4.09Zm40.559-5.92c-4.446 1.62-8.285 1.65-11.515.08-4.233-1.82-7.366-5.52-9.399-11.11-2.074-5.7-2.055-10.55.057-14.55 1.469-3.28 4.427-5.72 8.873-7.34 4.447-1.62 8.285-1.65 11.516-.08 4.178 1.71 7.303 5.42 9.378 11.12 2.033 5.58 2.021 10.43-.036 14.54-1.469 3.28-4.427 5.72-8.874 7.34Zm3.1-10.59c.815-2.45.584-5.42-.691-8.93-1.27-3.49-3.011-5.91-5.222-7.25-2.202-1.37-4.591-1.58-7.166-.64-2.575.93-4.283 2.63-5.126 5.09-.842 2.46-.625 5.44.65 8.94 1.275 3.5 3.025 5.93 5.25 7.27 2.225 1.34 4.625 1.54 7.2.6 2.575-.93 4.277-2.63 5.105-5.08Zm44.033-7.54-8.359 3.04-14.55-10.1-1.943 4.32 3.787 10.4-6.395 2.33-11.323-31.11 6.395-2.33 4.663 12.82 7.347-17.19 8.4-3.05-8.085 17.45 20.063 13.42Z"/><path fill="#fff" stroke="#616161" stroke-width="2" d="M482 409H222V219h260v190Z"/><path fill="#616161" fill-rule="evenodd" d="M222 247h260v14H222v-14Z" clip-rule="evenodd"/><rect width="198" height="14" x="263" y="226" stroke="#616161" stroke-width="2" rx="3.046"/><circle cx="242" cy="233" r="5" stroke="#616161" stroke-width="2"/><mask id="c" fill="#fff"><path d="M262 261h182v147H262V261Z"/></mask><path fill="#F5F7F9" d="M262 261h182v147H262V261Z"/><path fill="#616161" d="M442 261v147h4V261h-4ZM264 408V261h-4v147h4Z" mask="url(#c)"/><path fill="#616161" d="M1092.01 398.518a1.5 1.5 0 0 0 .72-1.994l-5.7-12.235a1.503 1.503 0 0 0-2-.725 1.498 1.498 0 0 0-.72 1.993l5.07 10.876-10.88 5.071a1.498 1.498 0 0 0-.72 1.993 1.496 1.496 0 0 0 1.99.726l12.24-5.705ZM597.522 219.007l493.338 179.561 1.03-2.819-493.342-179.561-1.026 2.819ZM562.515 312.087a1.5 1.5 0 0 0-.726 1.993l5.705 12.235a1.5 1.5 0 0 0 2.719-1.267l-5.071-10.876 10.876-5.072a1.5 1.5 0 0 0-1.268-2.719l-12.235 5.706Zm.12 2.769 493.335 179.56 1.03-2.819-493.339-179.56-1.026 2.819Z"/><path fill="#333" d="M631.599 191.918c-2.101.43-4.404.19-6.908-.722-4.123-1.5-6.98-4.158-8.572-7.972-1.699-3.869-1.642-8.294.171-13.275 1.833-5.038 4.689-8.572 8.567-10.602 3.879-2.03 8.097-2.216 12.656-.557 3.954 1.44 6.761 3.6 8.421 6.483 1.679 2.874 2.148 5.874 1.409 8.999l-6.395-2.328c.281-2.304-.382-4.226-1.988-5.767-.901-.854-2.005-1.519-3.314-1.995-2.504-.911-4.911-.712-7.221.599-2.29 1.301-4.127 3.852-5.51 7.651-1.393 3.827-1.506 6.853-.34 9.078 1.166 2.226 2.861 3.743 5.084 4.552 2.181.794 4.196.818 6.045.073 1.854-.76 3.314-2.101 4.38-4.023l-7.197-2.62 1.889-5.192 12.96 4.717-6.077 16.695-4.305-1.567.759-4.122c-1.79 1.022-3.295 1.653-4.514 1.895Zm40.889.35-15.112-5.501-2.912 7.999 17.223 6.269-2.036 5.593-23.575-8.581 11.323-31.11 22.816 8.304-2.005 5.509-16.463-5.992-2.405 6.606 15.113 5.5-1.967 5.404Zm36.157-6.679-2.005 5.508-9.308-3.387-9.318 25.602-6.543-2.382 9.318-25.602-9.35-3.403 2.005-5.509 25.201 9.173ZM595.756 271.103c-.405-1.119-1.276-1.922-2.613-2.409-1.829-.666-3.323-.437-4.481.688-.667.649-1.348 1.82-2.043 3.511l-5.846-2.128c1.046-2.567 2.283-4.499 3.711-5.796 2.715-2.47 6.12-2.959 10.215-1.469 3.236 1.178 5.484 3.016 6.742 5.513 1.263 2.484 1.357 5.203.281 8.158-.824 2.265-2.232 4.031-4.223 5.299-1.312.845-3.242 1.616-5.79 2.314l-3.029.834c-1.894.521-3.21.919-3.947 1.192a7.365 7.365 0 0 0-2 1.161l13.36 4.863-1.928 5.297-20.959-7.628c.856-2.175 2.057-4.008 3.604-5.501 1.601-1.727 4.413-3.15 8.437-4.267 3.494-.975 5.805-1.743 6.934-2.304 1.739-.881 2.897-2.117 3.476-3.707.471-1.294.504-2.501.099-3.621Zm11.788 32.758c-3.897-1.418-6.137-3.779-6.72-7.083-.568-3.298.067-7.473 1.906-12.524 1.838-5.051 4.038-8.665 6.598-10.84 2.575-2.17 5.811-2.546 9.709-1.128 3.897 1.419 6.135 3.787 6.712 7.104.563 3.313-.075 7.495-1.913 12.546-1.839 5.052-4.043 8.655-6.612 10.811-2.556 2.162-5.782 2.533-9.68 1.114Zm6.329-6.42c1.225-1.658 2.477-4.246 3.758-7.763 1.341-3.687 2.054-6.519 2.136-8.497.097-1.973-.749-3.284-2.536-3.935-1.787-.65-3.291-.194-4.513 1.369-1.223 1.563-2.505 4.188-3.847 7.874-1.28 3.518-1.972 6.318-2.076 8.399-.1 2.067.744 3.426 2.531 4.077 1.787.65 3.303.142 4.547-1.524Zm17.732 15.178c-3.897-1.419-6.137-3.78-6.72-7.083-.568-3.298.067-7.473 1.906-12.524 1.838-5.052 4.038-8.665 6.598-10.841 2.575-2.17 5.811-2.546 9.709-1.127 3.898 1.419 6.135 3.787 6.712 7.104.563 3.312-.074 7.494-1.913 12.546-1.838 5.051-4.042 8.655-6.612 10.811-2.555 2.161-5.782 2.533-9.68 1.114Zm6.329-6.421c1.225-1.657 2.478-4.245 3.758-7.763 1.342-3.686 2.054-6.519 2.136-8.496.097-1.973-.748-3.285-2.535-3.935-1.787-.651-3.292-.194-4.514 1.369-1.222 1.563-2.504 4.187-3.846 7.874-1.281 3.518-1.973 6.317-2.077 8.399-.099 2.067.745 3.426 2.532 4.076 1.787.651 3.302.143 4.546-1.524Zm34.875 21.537c-4.446-1.618-7.404-4.065-8.873-7.34-2.071-4.117-2.09-8.968-.057-14.554 2.074-5.699 5.207-9.403 9.398-11.112 3.231-1.565 7.07-1.538 11.516.08 4.446 1.619 7.404 4.066 8.873 7.341 2.098 3.999 2.11 8.847.036 14.546-2.033 5.586-5.159 9.293-9.377 11.12-3.231 1.564-7.07 1.538-11.516-.081Zm9.184-6.122c2.197-1.352 3.933-3.779 5.208-7.283 1.27-3.49 1.491-6.461.663-8.914-.809-2.461-2.501-4.161-5.076-5.098-2.575-.937-4.975-.735-7.2.606-2.225 1.342-3.975 3.764-5.251 7.268-1.275 3.504-1.491 6.484-.649 8.942.842 2.458 2.551 4.155 5.126 5.093 2.575.937 4.968.732 7.179-.614Zm38.578 22.526-8.358-3.042-4.656-17.088-4.263 2.058-3.787 10.406-6.395-2.328 11.323-31.111 6.395 2.328-4.663 12.811 16.673-8.44 8.4 3.057-17.411 8.172 6.742 23.177ZM1583.99 727.058c-.76-.914-1.85-1.37-3.28-1.37-1.94 0-3.27.726-3.97 2.178-.41.839-.65 2.171-.72 3.998h-6.22c.1-2.77.6-5.009 1.5-6.716 1.71-3.249 4.74-4.874 9.1-4.874 3.44 0 6.18.959 8.22 2.875 2.04 1.902 3.05 4.425 3.05 7.57 0 2.411-.71 4.552-2.15 6.424-.95 1.242-2.5 2.628-4.65 4.155l-2.56 1.819c-1.6 1.138-2.71 1.962-3.3 2.471a7.38 7.38 0 0 0-1.49 1.774h14.22V753h-22.3c.06-2.336.56-4.47 1.5-6.401.92-2.172 3.07-4.47 6.47-6.896 2.95-2.111 4.86-3.624 5.73-4.537 1.33-1.423 2-2.98 2-4.672 0-1.377-.38-2.523-1.15-3.436Zm22.28 26.751c-4.14 0-7.06-1.453-8.73-4.358-1.67-2.905-2.5-7.045-2.5-12.421 0-5.375.83-9.523 2.5-12.443s4.59-4.38 8.73-4.38c4.15 0 7.06 1.46 8.74 4.38 1.66 2.92 2.49 7.068 2.49 12.443 0 5.376-.83 9.516-2.51 12.421-1.66 2.905-4.57 4.358-8.72 4.358Zm3.75-8.199c.59-1.976.88-4.836.88-8.58 0-3.923-.3-6.828-.9-8.715-.58-1.886-1.82-2.83-3.73-2.83-1.9 0-3.16.944-3.77 2.83-.61 1.887-.92 4.792-.92 8.715 0 3.744.31 6.611.92 8.603.61 1.976 1.87 2.965 3.77 2.965 1.91 0 3.16-.996 3.75-2.988Zm21.86 8.199c-4.15 0-7.06-1.453-8.74-4.358-1.66-2.905-2.49-7.045-2.49-12.421 0-5.375.83-9.523 2.49-12.443 1.68-2.92 4.59-4.38 8.74-4.38s7.06 1.46 8.74 4.38c1.66 2.92 2.49 7.068 2.49 12.443 0 5.376-.84 9.516-2.52 12.421-1.66 2.905-4.56 4.358-8.71 4.358Zm3.75-8.199c.58-1.976.88-4.836.88-8.58 0-3.923-.3-6.828-.9-8.715-.59-1.886-1.83-2.83-3.73-2.83s-3.16.944-3.77 2.83c-.62 1.887-.93 4.792-.93 8.715 0 3.744.31 6.611.93 8.603.61 1.976 1.87 2.965 3.77 2.965s3.15-.996 3.75-2.988Zm40.14 8.311c-4.73 0-8.35-1.288-10.85-3.863-3.36-3.16-5.03-7.712-5.03-13.657 0-6.064 1.67-10.616 5.03-13.656 2.5-2.575 6.12-3.863 10.85-3.863 4.73 0 8.35 1.288 10.85 3.863 3.34 3.04 5 7.592 5 13.656 0 5.945-1.66 10.497-5 13.657-2.5 2.575-6.12 3.863-10.85 3.863Zm6.53-8.895c1.61-2.021 2.41-4.896 2.41-8.625 0-3.713-.81-6.581-2.43-8.602-1.6-2.037-3.77-3.055-6.51-3.055-2.74 0-4.93 1.011-6.56 3.032-1.63 2.022-2.45 4.897-2.45 8.625 0 3.729.82 6.604 2.45 8.625 1.63 2.022 3.82 3.033 6.56 3.033 2.74 0 4.92-1.011 6.53-3.033Zm43.96 7.974h-8.89l-10.22-14.465-3.31 3.392V753h-6.8v-33.107h6.8v13.633l12.78-13.633h8.94L1712 733.526 1726.26 753Z"/><path fill="#fff" stroke="#F54337" stroke-width="4" d="m1498.08 766.979 14.24-70.08-69.67 4.028 13.18 15.701c-18.72 27.679-71.83 23.363-71.83 23.363 21.81 25.988 62.66 36.041 99.09 9.121l14.99 17.867Z"/><text xml:space="preserve" x="351.427" y="188.782" style="font-style:normal;font-variant:normal;font-weight:700;font-stretch:normal;font-size:42.66666794px;font-family:&quot;Noto Sans CJK JP&quot;;-inkscape-font-specification:&quot;Noto Sans CJK JP, Bold&quot;;font-variant-ligatures:normal;font-variant-caps:normal;font-variant-numeric:normal;font-variant-east-asian:normal;fill:#000;text-anchor:middle;text-align:center"><tspan x="258.819" y="188.782">クライアント</tspan></text><text xml:space="preserve" x="2176.524" y="602.534" style="font-style:normal;font-variant:normal;font-weight:700;font-stretch:normal;font-size:42.66666794px;font-family:&quot;Noto Sans CJK JP&quot;;-inkscape-font-specification:&quot;Noto Sans CJK JP, Bold&quot;;font-variant-ligatures:normal;font-variant-caps:normal;font-variant-numeric:normal;font-variant-east-asian:normal;fill:#000;text-anchor:middle;text-align:center"><tspan x="2114.908" y="602.534">サーバー</tspan></text><text xml:space="preserve" x="1319.305" y="600.508" style="font-style:normal;font-variant:normal;font-weight:700;font-stretch:normal;font-size:42.66666794px;font-family:&quot;Noto Sans CJK JP&quot;;-inkscape-font-specification:&quot;Noto Sans CJK JP, Bold&quot;;font-variant-ligatures:normal;font-variant-caps:normal;font-variant-numeric:normal;font-variant-east-asian:normal;fill:#1a76d2;fill-opacity:1;text-anchor:middle;text-align:center"><tspan x="1242.745" y="600.508">キャッシュ</tspan></text><text xml:space="preserve" x="1555.565" y="853.741" style="font-style:normal;font-variant:normal;font-weight:700;font-stretch:normal;font-size:42.66666794px;font-family:&quot;Noto Sans CJK JP&quot;;-inkscape-font-specification:&quot;Noto Sans CJK JP, Bold&quot;;font-variant-ligatures:normal;font-variant-caps:normal;font-variant-numeric:normal;font-variant-east-asian:normal;fill:#f54337;fill-opacity:1;text-anchor:middle;text-align:center"><tspan x="1476.445" y="853.741">折りたたみ</tspan></text><text xml:space="preserve" x="351.353" y="601.417" style="font-style:normal;font-variant:normal;font-weight:700;font-stretch:normal;font-size:42.66666794px;font-family:&quot;Noto Sans CJK JP&quot;;-inkscape-font-specification:&quot;Noto Sans CJK JP, Bold&quot;;font-variant-ligatures:normal;font-variant-caps:normal;font-variant-numeric:normal;font-variant-east-asian:normal;fill:#000;text-anchor:middle;text-align:center"><tspan x="258.745" y="601.417">クライアント</tspan></text><text xml:space="preserve" x="347.489" y="1073.97" style="font-style:normal;font-variant:normal;font-weight:700;font-stretch:normal;font-size:42.66666794px;font-family:&quot;Noto Sans CJK JP&quot;;-inkscape-font-specification:&quot;Noto Sans CJK JP, Bold&quot;;font-variant-ligatures:normal;font-variant-caps:normal;font-variant-numeric:normal;font-variant-east-asian:normal;fill:#000;text-anchor:middle;text-align:center"><tspan x="254.881" y="1073.97">クライアント</tspan></text></svg>