<svg width="2560" height="1440" viewBox="0 0 2560 1440" fill="none" xmlns="http://www.w3.org/2000/svg">
<rect width="2560" height="1440" fill="white"/>
<path d="M486 822H226V632H486V822Z" fill="white" stroke="#616161" stroke-width="2"/>
<path fill-rule="evenodd" clip-rule="evenodd" d="M226 660H486V674H226V660Z" fill="#616161"/>
<rect x="267" y="639" width="198" height="14" rx="3.04571" stroke="#616161" stroke-width="2"/>
<circle cx="246" cy="646" r="5" stroke="#616161" stroke-width="2"/>
<mask id="path-5-inside-1_4140_2373" fill="white">
<path d="M266 674H448V821H266V674Z"/>
</mask>
<path d="M266 674H448V821H266V674Z" fill="#F5F7F9"/>
<path d="M446 674V821H450V674H446ZM268 821V674H264V821H268Z" fill="#616161" mask="url(#path-5-inside-1_4140_2373)"/>
<path d="M1223 760V803.765C1223 810.695 1232.57 816.61 1251.7 821.51C1270.84 826.409 1293.94 828.859 1321 828.859C1348.06 828.859 1371.16 826.409 1390.3 821.51C1409.43 816.61 1419 810.695 1419 803.765V760C1419 766.93 1409.43 772.845 1390.3 777.744C1371.16 782.644 1348.06 785.094 1321 785.094C1293.94 785.094 1270.84 782.644 1251.7 777.744C1232.57 772.844 1223 766.93 1223 760Z" fill="white" stroke="#1A76D2" stroke-width="4"/>
<path d="M1419 760.101C1419 767.031 1409.43 772.946 1390.3 777.845C1371.16 782.745 1348.06 785.195 1321 785.195C1293.94 785.195 1270.84 782.745 1251.7 777.845C1232.57 772.945 1223 767.031 1223 760.101C1223 753.171 1232.57 747.255 1251.7 742.353C1270.84 737.451 1293.94 735 1321 735C1348.06 735 1371.16 737.451 1390.3 742.353C1409.43 747.255 1419 753.171 1419 760.101Z" fill="white" stroke="#1A76D2" stroke-width="4"/>
<path fill-rule="evenodd" clip-rule="evenodd" d="M1236.69 766.94C1232.14 764.57 1228 761.096 1228 756L1236.69 761C1240.5 762.5 1248.71 765.085 1257.31 766.94C1274.38 770.621 1296.82 773.525 1321.29 773.525C1345.76 773.525 1368.2 770.621 1385.27 766.94C1393.87 765.085 1402 763.021 1405.89 761L1414.58 756C1414.58 761.096 1410.44 764.57 1405.89 766.94C1401.05 769.456 1394.1 771.621 1385.27 773.525C1367.48 777.362 1346.13 779.254 1321.29 779.254C1296.45 779.254 1275.1 777.362 1257.31 773.525C1248.48 771.62 1241.53 769.456 1236.69 766.94Z" fill="#1A76D2"/>
<path d="M1223 705V748.765C1223 755.695 1232.57 761.61 1251.7 766.51C1270.84 771.409 1293.94 773.859 1321 773.859C1348.06 773.859 1371.16 771.409 1390.3 766.51C1409.43 761.61 1419 755.695 1419 748.765V705C1419 711.93 1409.43 717.845 1390.3 722.744C1371.16 727.644 1348.06 730.094 1321 730.094C1293.94 730.094 1270.84 727.644 1251.7 722.744C1232.57 717.844 1223 711.93 1223 705Z" fill="white" stroke="#1A76D2" stroke-width="4"/>
<path d="M1419 705.101C1419 712.031 1409.43 717.946 1390.3 722.845C1371.16 727.745 1348.06 730.195 1321 730.195C1293.94 730.195 1270.84 727.745 1251.7 722.845C1232.57 717.945 1223 712.031 1223 705.101C1223 698.171 1232.57 692.255 1251.7 687.353C1270.84 682.451 1293.94 680 1321 680C1348.06 680 1371.16 682.451 1390.3 687.353C1409.43 692.255 1419 698.171 1419 705.101Z" fill="white" stroke="#1A76D2" stroke-width="4"/>
<path fill-rule="evenodd" clip-rule="evenodd" d="M1236.69 712.94C1232.14 710.57 1228 707.096 1228 702L1236.69 707C1240.5 708.5 1248.71 711.085 1257.31 712.94C1274.38 716.621 1296.82 719.525 1321.29 719.525C1345.76 719.525 1368.2 716.621 1385.27 712.94C1393.87 711.085 1402 709.021 1405.89 707L1414.58 702C1414.58 707.096 1410.44 710.57 1405.89 712.94C1401.05 715.456 1394.1 717.621 1385.27 719.525C1367.48 723.362 1346.13 725.254 1321.29 725.254C1296.45 725.254 1275.1 723.362 1257.31 719.525C1248.48 717.62 1241.53 715.456 1236.69 712.94Z" fill="#1A76D2"/>
<path d="M1223 650V693.765C1223 700.695 1232.57 706.61 1251.7 711.51C1270.84 716.409 1293.94 718.859 1321 718.859C1348.06 718.859 1371.16 716.409 1390.3 711.51C1409.43 706.61 1419 700.695 1419 693.765V650C1419 656.93 1409.43 662.845 1390.3 667.744C1371.16 672.644 1348.06 675.094 1321 675.094C1293.94 675.094 1270.84 672.644 1251.7 667.744C1232.57 662.844 1223 656.93 1223 650Z" fill="white" stroke="#1A76D2" stroke-width="4"/>
<path d="M1419 650.101C1419 657.031 1409.43 662.946 1390.3 667.845C1371.16 672.745 1348.06 675.195 1321 675.195C1293.94 675.195 1270.84 672.745 1251.7 667.845C1232.57 662.945 1223 657.031 1223 650.101C1223 643.171 1232.57 637.255 1251.7 632.353C1270.84 627.451 1293.94 625 1321 625C1348.06 625 1371.16 627.451 1390.3 632.353C1409.43 637.255 1419 643.171 1419 650.101Z" fill="white" stroke="#1A76D2" stroke-width="4"/>
<rect x="2087.27" y="768.229" width="185.455" height="4.53886" fill="#333333"/>
<rect x="2087.27" y="721.933" width="185.455" height="4.53886" fill="#333333"/>
<rect x="2087.27" y="676.544" width="185.455" height="4.53886" fill="#333333"/>
<rect x="2082" y="772.771" width="196" height="41.3886" rx="6.8" fill="white" stroke="#616161" stroke-width="4"/>
<rect x="2082" y="726.837" width="196" height="41.3886" rx="6.8" fill="white" stroke="#616161" stroke-width="4"/>
<rect x="2082" y="680.904" width="196" height="41.3886" rx="6.8" fill="white" stroke="#616161" stroke-width="4"/>
<rect x="2082" y="634.971" width="196" height="41.3886" rx="6.8" fill="white" stroke="#616161" stroke-width="4"/>
<path d="M2230.73 793.411C2230.73 798.822 2226.33 803.212 2220.91 803.212C2215.48 803.212 2211.09 798.822 2211.09 793.411C2211.09 788.001 2215.48 783.61 2220.91 783.61C2226.33 783.61 2230.73 788.001 2230.73 793.411Z" fill="white" stroke="#616161" stroke-width="4"/>
<path d="M2262.55 793.411C2262.55 798.822 2258.15 803.212 2252.73 803.212C2247.3 803.212 2242.91 798.822 2242.91 793.411C2242.91 788.001 2247.3 783.61 2252.73 783.61C2258.15 783.61 2262.55 788.001 2262.55 793.411Z" fill="white" stroke="#616161" stroke-width="4"/>
<path d="M2117.65 622.264L2084.55 636.063H2274.55L2241.59 622.279C2237.56 620.592 2233.23 619.723 2228.86 619.723H2130.35C2125.99 619.723 2121.67 620.587 2117.65 622.264Z" fill="white" stroke="#616161" stroke-width="4"/>
<path d="M2013.06 677.061C2013.65 676.475 2013.65 675.525 2013.06 674.939L2003.51 665.393C2002.93 664.808 2001.98 664.808 2001.39 665.393C2000.81 665.979 2000.81 666.929 2001.39 667.515L2009.88 676L2001.39 684.485C2000.81 685.071 2000.81 686.021 2001.39 686.607C2001.98 687.192 2002.93 687.192 2003.51 686.607L2013.06 677.061ZM1568 677.5H2012V674.5H1568V677.5Z" fill="#616161"/>
<path d="M1566.94 776.939C1566.35 777.525 1566.35 778.475 1566.94 779.061L1576.49 788.607C1577.07 789.192 1578.02 789.192 1578.61 788.607C1579.19 788.021 1579.19 787.071 1578.61 786.485L1570.12 778L1578.61 769.515C1579.19 768.929 1579.19 767.979 1578.61 767.393C1578.02 766.808 1577.07 766.808 1576.49 767.393L1566.94 776.939ZM1568 779.5H2012V776.5H1568V779.5Z" fill="#616161"/>
<path d="M329.54 586.3H322.981C322.862 585.386 322.555 584.563 322.061 583.829C321.342 582.841 320.226 582.347 318.714 582.347C316.558 582.347 315.083 583.417 314.289 585.559C313.87 586.697 313.66 588.209 313.66 590.096C313.66 591.893 313.87 593.338 314.289 594.431C315.053 596.467 316.49 597.485 318.602 597.485C320.099 597.485 321.162 597.081 321.791 596.272C322.42 595.464 322.802 594.416 322.937 593.128H329.473C329.323 595.075 328.619 596.916 327.361 598.653C325.355 601.453 322.382 602.854 318.444 602.854C314.506 602.854 311.609 601.686 309.752 599.35C307.895 597.014 306.967 593.981 306.967 590.253C306.967 586.045 307.993 582.773 310.044 580.438C312.095 578.102 314.925 576.934 318.534 576.934C321.604 576.934 324.112 577.622 326.059 579C328.02 580.378 329.181 582.811 329.54 586.3ZM334.1 568.893H340.501V602H334.1V568.893ZM353.349 577.518V602H346.857V577.518H353.349ZM353.349 568.69V574.598H346.857V568.69H353.349ZM380.526 594.812C380.362 596.265 379.605 597.74 378.258 599.237C376.161 601.618 373.227 602.809 369.453 602.809C366.339 602.809 363.591 601.805 361.21 599.799C358.829 597.792 357.639 594.528 357.639 590.006C357.639 585.768 358.709 582.519 360.851 580.258C363.007 577.997 365.799 576.866 369.229 576.866C371.265 576.866 373.099 577.248 374.731 578.012C376.364 578.775 377.711 579.981 378.774 581.628C379.733 583.08 380.354 584.765 380.639 586.682C380.803 587.805 380.871 589.422 380.841 591.533H364.085C364.175 593.989 364.946 595.711 366.398 596.699C367.282 597.313 368.345 597.62 369.588 597.62C370.906 597.62 371.976 597.246 372.8 596.497C373.249 596.093 373.646 595.531 373.99 594.812H380.526ZM374.192 587.311C374.088 585.618 373.571 584.338 372.643 583.47C371.729 582.586 370.591 582.145 369.229 582.145C367.746 582.145 366.593 582.609 365.77 583.537C364.961 584.465 364.452 585.723 364.242 587.311H374.192ZM396.698 582.257C394.527 582.257 393.037 583.178 392.229 585.02C391.809 585.993 391.6 587.236 391.6 588.748V602H385.221V577.562H391.397V581.134C392.221 579.876 393 578.97 393.733 578.416C395.051 577.428 396.721 576.934 398.742 576.934C401.273 576.934 403.339 577.6 404.941 578.933C406.559 580.25 407.367 582.444 407.367 585.514V602H400.809V587.108C400.809 585.821 400.636 584.832 400.292 584.144C399.663 582.886 398.465 582.257 396.698 582.257ZM424.505 597.44V602.225L421.473 602.337C418.448 602.442 416.382 601.918 415.273 600.765C414.555 600.031 414.195 598.9 414.195 597.373V582.302H410.781V577.742H414.195V570.914H420.529V577.742H424.505V582.302H420.529V595.239C420.529 596.243 420.657 596.871 420.911 597.126C421.166 597.366 421.944 597.485 423.247 597.485C423.442 597.485 423.644 597.485 423.854 597.485C424.078 597.47 424.295 597.455 424.505 597.44Z" fill="#333333"/>
<path d="M1277.4 586.3H1270.84C1270.72 585.386 1270.41 584.563 1269.92 583.829C1269.2 582.841 1268.08 582.347 1266.57 582.347C1264.41 582.347 1262.94 583.417 1262.15 585.559C1261.73 586.697 1261.52 588.209 1261.52 590.096C1261.52 591.893 1261.73 593.338 1262.15 594.431C1262.91 596.467 1264.35 597.485 1266.46 597.485C1267.96 597.485 1269.02 597.081 1269.65 596.272C1270.28 595.464 1270.66 594.416 1270.79 593.128H1277.33C1277.18 595.075 1276.48 596.916 1275.22 598.653C1273.21 601.453 1270.24 602.854 1266.3 602.854C1262.36 602.854 1259.47 601.686 1257.61 599.35C1255.75 597.014 1254.82 593.981 1254.82 590.253C1254.82 586.045 1255.85 582.773 1257.9 580.438C1259.95 578.102 1262.78 576.934 1266.39 576.934C1269.46 576.934 1271.97 577.622 1273.92 579C1275.88 580.378 1277.04 582.811 1277.4 586.3ZM1282.74 580.168C1284.43 578.012 1287.34 576.934 1291.46 576.934C1294.14 576.934 1296.52 577.465 1298.6 578.528C1300.68 579.591 1301.72 581.598 1301.72 584.548V595.778C1301.72 596.557 1301.74 597.5 1301.77 598.608C1301.81 599.447 1301.94 600.016 1302.15 600.315C1302.36 600.615 1302.67 600.862 1303.09 601.057V602H1296.13C1295.93 601.506 1295.8 601.042 1295.72 600.607C1295.65 600.173 1295.59 599.679 1295.54 599.125C1294.66 600.083 1293.64 600.899 1292.49 601.573C1291.11 602.367 1289.56 602.764 1287.82 602.764C1285.6 602.764 1283.77 602.135 1282.32 600.877C1280.88 599.604 1280.16 597.807 1280.16 595.486C1280.16 592.477 1281.32 590.298 1283.64 588.95C1284.91 588.216 1286.79 587.692 1289.26 587.378L1291.43 587.108C1292.62 586.959 1293.46 586.771 1293.97 586.547C1294.89 586.158 1295.34 585.551 1295.34 584.728C1295.34 583.724 1294.99 583.035 1294.29 582.661C1293.6 582.272 1292.58 582.077 1291.23 582.077C1289.72 582.077 1288.65 582.451 1288.02 583.2C1287.57 583.754 1287.27 584.503 1287.12 585.446H1280.95C1281.08 583.305 1281.68 581.546 1282.74 580.168ZM1287.5 597.373C1288.1 597.867 1288.84 598.114 1289.71 598.114C1291.08 598.114 1292.35 597.71 1293.5 596.901C1294.67 596.093 1295.28 594.618 1295.32 592.477V590.096C1294.92 590.35 1294.5 590.56 1294.08 590.725C1293.68 590.874 1293.12 591.017 1292.4 591.151L1290.96 591.421C1289.62 591.66 1288.65 591.952 1288.07 592.297C1287.08 592.881 1286.58 593.787 1286.58 595.015C1286.58 596.108 1286.89 596.894 1287.5 597.373ZM1328.61 586.3H1322.05C1321.93 585.386 1321.62 584.563 1321.13 583.829C1320.41 582.841 1319.29 582.347 1317.78 582.347C1315.62 582.347 1314.15 583.417 1313.36 585.559C1312.94 586.697 1312.73 588.209 1312.73 590.096C1312.73 591.893 1312.94 593.338 1313.36 594.431C1314.12 596.467 1315.56 597.485 1317.67 597.485C1319.17 597.485 1320.23 597.081 1320.86 596.272C1321.49 595.464 1321.87 594.416 1322 593.128H1328.54C1328.39 595.075 1327.69 596.916 1326.43 598.653C1324.42 601.453 1321.45 602.854 1317.51 602.854C1313.57 602.854 1310.68 601.686 1308.82 599.35C1306.96 597.014 1306.03 593.981 1306.03 590.253C1306.03 586.045 1307.06 582.773 1309.11 580.438C1311.16 578.102 1313.99 576.934 1317.6 576.934C1320.67 576.934 1323.18 577.622 1325.13 579C1327.09 580.378 1328.25 582.811 1328.61 586.3ZM1355.16 587.625V602H1348.62V587.108C1348.62 585.791 1348.4 584.728 1347.95 583.919C1347.36 582.781 1346.25 582.212 1344.62 582.212C1342.93 582.212 1341.64 582.781 1340.76 583.919C1339.89 585.042 1339.46 586.652 1339.46 588.748V602H1333.08V569.005H1339.46V580.707C1340.38 579.285 1341.46 578.296 1342.67 577.742C1343.9 577.173 1345.18 576.889 1346.53 576.889C1348.04 576.889 1349.41 577.151 1350.64 577.675C1351.88 578.199 1352.9 579 1353.7 580.078C1354.37 580.992 1354.78 581.935 1354.93 582.908C1355.08 583.867 1355.16 585.439 1355.16 587.625ZM1382.11 594.812C1381.94 596.265 1381.19 597.74 1379.84 599.237C1377.74 601.618 1374.81 602.809 1371.04 602.809C1367.92 602.809 1365.17 601.805 1362.79 599.799C1360.41 597.792 1359.22 594.528 1359.22 590.006C1359.22 585.768 1360.29 582.519 1362.43 580.258C1364.59 577.997 1367.38 576.866 1370.81 576.866C1372.85 576.866 1374.68 577.248 1376.31 578.012C1377.95 578.775 1379.29 579.981 1380.36 581.628C1381.32 583.08 1381.94 584.765 1382.22 586.682C1382.39 587.805 1382.45 589.422 1382.42 591.533H1365.67C1365.76 593.989 1366.53 595.711 1367.98 596.699C1368.86 597.313 1369.93 597.62 1371.17 597.62C1372.49 597.62 1373.56 597.246 1374.38 596.497C1374.83 596.093 1375.23 595.531 1375.57 594.812H1382.11ZM1375.78 587.311C1375.67 585.618 1375.15 584.338 1374.23 583.47C1373.31 582.586 1372.17 582.145 1370.81 582.145C1369.33 582.145 1368.18 582.609 1367.35 583.537C1366.54 584.465 1366.03 585.723 1365.83 587.311H1375.78Z" fill="#1A76D2"/>
<path d="M2138.22 578.641C2140.14 579.868 2141.24 581.98 2141.52 584.975H2135.12C2135.03 584.151 2134.8 583.5 2134.42 583.021C2133.72 582.152 2132.52 581.718 2130.83 581.718C2129.44 581.718 2128.44 581.935 2127.84 582.369C2127.26 582.803 2126.97 583.312 2126.97 583.896C2126.97 584.63 2127.28 585.162 2127.91 585.491C2128.54 585.836 2130.76 586.427 2134.58 587.266C2137.13 587.865 2139.04 588.771 2140.31 589.983C2141.57 591.211 2142.2 592.746 2142.2 594.588C2142.2 597.014 2141.29 598.998 2139.48 600.54C2137.68 602.067 2134.9 602.831 2131.12 602.831C2127.27 602.831 2124.43 602.022 2122.59 600.405C2120.76 598.773 2119.85 596.699 2119.85 594.184H2126.34C2126.47 595.322 2126.77 596.13 2127.21 596.609C2128.01 597.463 2129.48 597.89 2131.62 597.89C2132.88 597.89 2133.87 597.702 2134.6 597.328C2135.35 596.954 2135.73 596.392 2135.73 595.644C2135.73 594.925 2135.43 594.378 2134.83 594.004C2134.23 593.63 2132.01 592.986 2128.16 592.072C2125.39 591.383 2123.43 590.522 2122.3 589.489C2121.16 588.471 2120.59 587.004 2120.59 585.087C2120.59 582.826 2121.47 580.887 2123.24 579.27C2125.02 577.637 2127.52 576.821 2130.74 576.821C2133.8 576.821 2136.29 577.428 2138.22 578.641ZM2167.91 594.812C2167.75 596.265 2166.99 597.74 2165.65 599.237C2163.55 601.618 2160.61 602.809 2156.84 602.809C2153.73 602.809 2150.98 601.805 2148.6 599.799C2146.22 597.792 2145.03 594.528 2145.03 590.006C2145.03 585.768 2146.1 582.519 2148.24 580.258C2150.39 577.997 2153.19 576.866 2156.62 576.866C2158.65 576.866 2160.49 577.248 2162.12 578.012C2163.75 578.775 2165.1 579.981 2166.16 581.628C2167.12 583.08 2167.74 584.765 2168.03 586.682C2168.19 587.805 2168.26 589.422 2168.23 591.533H2151.47C2151.56 593.989 2152.33 595.711 2153.79 596.699C2154.67 597.313 2155.73 597.62 2156.98 597.62C2158.29 597.62 2159.36 597.246 2160.19 596.497C2160.64 596.093 2161.03 595.531 2161.38 594.812H2167.91ZM2161.58 587.311C2161.48 585.618 2160.96 584.338 2160.03 583.47C2159.12 582.586 2157.98 582.145 2156.62 582.145C2155.13 582.145 2153.98 582.609 2153.16 583.537C2152.35 584.465 2151.84 585.723 2151.63 587.311H2161.58ZM2184.87 583.425C2182.3 583.425 2180.57 584.263 2179.68 585.94C2179.19 586.884 2178.94 588.336 2178.94 590.298V602H2172.5V577.518H2178.61V581.785C2179.59 580.153 2180.45 579.037 2181.19 578.438C2182.39 577.435 2183.94 576.934 2185.86 576.934C2185.98 576.934 2186.08 576.941 2186.15 576.956C2186.24 576.956 2186.43 576.964 2186.71 576.979V583.537C2186.31 583.492 2185.95 583.462 2185.64 583.447C2185.32 583.432 2185.07 583.425 2184.87 583.425ZM2188.08 577.518H2195.27L2200.37 595.576L2205.58 577.518H2212.45L2203.63 602H2196.87L2188.08 577.518ZM2237.05 594.812C2236.88 596.265 2236.13 597.74 2234.78 599.237C2232.68 601.618 2229.75 602.809 2225.98 602.809C2222.86 602.809 2220.11 601.805 2217.73 599.799C2215.35 597.792 2214.16 594.528 2214.16 590.006C2214.16 585.768 2215.23 582.519 2217.37 580.258C2219.53 577.997 2222.32 576.866 2225.75 576.866C2227.79 576.866 2229.62 577.248 2231.25 578.012C2232.89 578.775 2234.23 579.981 2235.3 581.628C2236.26 583.08 2236.88 584.765 2237.16 586.682C2237.33 587.805 2237.39 589.422 2237.36 591.533H2220.61C2220.7 593.989 2221.47 595.711 2222.92 596.699C2223.8 597.313 2224.87 597.62 2226.11 597.62C2227.43 597.62 2228.5 597.246 2229.32 596.497C2229.77 596.093 2230.17 595.531 2230.51 594.812H2237.05ZM2230.71 587.311C2230.61 585.618 2230.09 584.338 2229.17 583.47C2228.25 582.586 2227.11 582.145 2225.75 582.145C2224.27 582.145 2223.12 582.609 2222.29 583.537C2221.48 584.465 2220.97 585.723 2220.76 587.311H2230.71ZM2254.01 583.425C2251.43 583.425 2249.7 584.263 2248.82 585.94C2248.32 586.884 2248.08 588.336 2248.08 590.298V602H2241.63V577.518H2247.74V581.785C2248.73 580.153 2249.59 579.037 2250.32 578.438C2251.52 577.435 2253.08 576.934 2255 576.934C2255.11 576.934 2255.21 576.941 2255.29 576.956C2255.38 576.956 2255.56 576.964 2255.85 576.979V583.537C2255.44 583.492 2255.08 583.462 2254.77 583.447C2254.46 583.432 2254.2 583.425 2254.01 583.425Z" fill="#333333"/>
<path d="M1591.81 629.191C1589.98 630.314 1587.74 630.876 1585.07 630.876C1580.68 630.876 1577.09 629.356 1574.29 626.316C1571.37 623.262 1569.91 619.084 1569.91 613.783C1569.91 608.423 1571.38 604.125 1574.33 600.891C1577.28 597.656 1581.18 596.039 1586.04 596.039C1590.24 596.039 1593.62 597.11 1596.17 599.251C1598.73 601.377 1600.19 604.035 1600.57 607.225H1593.76C1593.24 604.964 1591.96 603.384 1589.92 602.485C1588.78 601.991 1587.52 601.744 1586.13 601.744C1583.46 601.744 1581.27 602.755 1579.54 604.776C1577.84 606.783 1576.98 609.808 1576.98 613.851C1576.98 617.924 1577.91 620.806 1579.77 622.498C1581.63 624.19 1583.74 625.036 1586.1 625.036C1588.42 625.036 1590.33 624.37 1591.81 623.037C1593.29 621.689 1594.2 619.93 1594.55 617.759H1586.89V612.233H1600.68V630H1596.1L1595.4 625.867C1594.07 627.439 1592.87 628.548 1591.81 629.191ZM1630.35 615.535H1614.27V624.048H1632.6V630H1607.51V596.893H1631.79V602.755H1614.27V609.785H1630.35V615.535ZM1662.04 596.893V602.755H1652.14V630H1645.18V602.755H1635.23V596.893H1662.04Z" fill="#333333"/>
<path d="M1089.06 669.061C1089.65 668.475 1089.65 667.525 1089.06 666.939L1079.51 657.393C1078.93 656.808 1077.98 656.808 1077.39 657.393C1076.81 657.979 1076.81 658.929 1077.39 659.515L1085.88 668L1077.39 676.485C1076.81 677.071 1076.81 678.021 1077.39 678.607C1077.98 679.192 1078.93 679.192 1079.51 678.607L1089.06 669.061ZM563 669.5H1088V666.5H563V669.5Z" fill="#616161"/>
<path d="M561.939 768.939C561.354 769.525 561.354 770.475 561.939 771.061L571.485 780.607C572.071 781.192 573.021 781.192 573.607 780.607C574.192 780.021 574.192 779.071 573.607 778.485L565.121 770L573.607 761.515C574.192 760.929 574.192 759.979 573.607 759.393C573.021 758.808 572.071 758.808 571.485 759.393L561.939 768.939ZM563 771.5H1088V768.5H563V771.5Z" fill="#616161"/>
<path d="M587.006 636.191C585.179 637.314 582.933 637.876 580.268 637.876C575.88 637.876 572.286 636.356 569.486 633.316C566.566 630.262 565.106 626.084 565.106 620.783C565.106 615.423 566.581 611.125 569.531 607.891C572.481 604.656 576.382 603.039 581.233 603.039C585.441 603.039 588.818 604.11 591.363 606.251C593.924 608.377 595.391 611.035 595.766 614.225H588.96C588.436 611.964 587.156 610.384 585.119 609.485C583.981 608.991 582.716 608.744 581.323 608.744C578.658 608.744 576.464 609.755 574.742 611.776C573.035 613.783 572.182 616.808 572.182 620.851C572.182 624.924 573.11 627.806 574.967 629.498C576.824 631.19 578.935 632.036 581.301 632.036C583.622 632.036 585.523 631.37 587.006 630.037C588.488 628.689 589.402 626.93 589.746 624.759H582.087V619.233H595.878V637H591.296L590.6 632.867C589.267 634.439 588.069 635.548 587.006 636.191ZM625.549 622.535H609.467V631.048H627.795V637H602.706V603.893H626.986V609.755H609.467V616.785H625.549V622.535ZM657.241 603.893V609.755H647.336V637H640.373V609.755H630.423V603.893H657.241Z" fill="#333333"/>
<path d="M579.16 719.058C578.396 718.144 577.303 717.688 575.881 717.688C573.934 717.688 572.609 718.414 571.905 719.866C571.501 720.705 571.261 722.037 571.187 723.864H564.965C565.07 721.094 565.571 718.855 566.47 717.148C568.177 713.899 571.209 712.274 575.566 712.274C579.01 712.274 581.751 713.233 583.787 715.149C585.824 717.051 586.842 719.574 586.842 722.719C586.842 725.13 586.123 727.271 584.686 729.143C583.742 730.385 582.192 731.771 580.036 733.298L577.476 735.117C575.873 736.255 574.773 737.079 574.174 737.588C573.59 738.097 573.096 738.688 572.691 739.362H586.909V745H564.605C564.665 742.664 565.167 740.53 566.11 738.599C567.024 736.427 569.18 734.129 572.579 731.703C575.529 729.592 577.438 728.079 578.307 727.166C579.639 725.743 580.306 724.186 580.306 722.494C580.306 721.117 579.924 719.971 579.16 719.058ZM601.441 745.809C597.294 745.809 594.381 744.356 592.704 741.451C591.042 738.546 590.211 734.406 590.211 729.03C590.211 723.655 591.042 719.507 592.704 716.587C594.381 713.667 597.294 712.207 601.441 712.207C605.589 712.207 608.502 713.667 610.179 716.587C611.841 719.507 612.672 723.655 612.672 729.03C612.672 734.406 611.833 738.546 610.156 741.451C608.494 744.356 605.589 745.809 601.441 745.809ZM605.192 737.61C605.776 735.634 606.068 732.774 606.068 729.03C606.068 725.107 605.769 722.202 605.17 720.315C604.586 718.429 603.343 717.485 601.441 717.485C599.54 717.485 598.282 718.429 597.668 720.315C597.054 722.202 596.747 725.107 596.747 729.03C596.747 732.774 597.054 735.641 597.668 737.633C598.282 739.609 599.54 740.598 601.441 740.598C603.343 740.598 604.593 739.602 605.192 737.61ZM627.047 745.809C622.899 745.809 619.987 744.356 618.31 741.451C616.647 738.546 615.816 734.406 615.816 729.03C615.816 723.655 616.647 719.507 618.31 716.587C619.987 713.667 622.899 712.207 627.047 712.207C631.195 712.207 634.107 713.667 635.784 716.587C637.446 719.507 638.277 723.655 638.277 729.03C638.277 734.406 637.439 738.546 635.762 741.451C634.1 744.356 631.195 745.809 627.047 745.809ZM630.798 737.61C631.382 735.634 631.674 732.774 631.674 729.03C631.674 725.107 631.374 722.202 630.775 720.315C630.191 718.429 628.949 717.485 627.047 717.485C625.145 717.485 623.887 718.429 623.273 720.315C622.66 722.202 622.353 725.107 622.353 729.03C622.353 732.774 622.66 735.641 623.273 737.633C623.887 739.609 625.145 740.598 627.047 740.598C628.949 740.598 630.199 739.602 630.798 737.61ZM670.936 745.921C666.204 745.921 662.588 744.633 660.087 742.058C656.733 738.898 655.056 734.346 655.056 728.401C655.056 722.337 656.733 717.785 660.087 714.745C662.588 712.17 666.204 710.882 670.936 710.882C675.667 710.882 679.284 712.17 681.784 714.745C685.123 717.785 686.793 722.337 686.793 728.401C686.793 734.346 685.123 738.898 681.784 742.058C679.284 744.633 675.667 745.921 670.936 745.921ZM677.472 737.026C679.074 735.005 679.875 732.13 679.875 728.401C679.875 724.688 679.066 721.82 677.449 719.799C675.847 717.762 673.676 716.744 670.936 716.744C668.195 716.744 666.009 717.755 664.377 719.776C662.745 721.798 661.929 724.673 661.929 728.401C661.929 732.13 662.745 735.005 664.377 737.026C666.009 739.048 668.195 740.059 670.936 740.059C673.676 740.059 675.854 739.048 677.472 737.026ZM721.428 745H712.533L702.313 730.535L699.012 733.927V745H692.206V711.893H699.012V725.526L711.792 711.893H720.731L707.165 725.526L721.428 745Z" fill="#333333"/>
<path d="M480 1293H220V1103H480V1293Z" fill="white" stroke="#616161" stroke-width="2"/>
<path fill-rule="evenodd" clip-rule="evenodd" d="M220 1131H480V1145H220V1131Z" fill="#616161"/>
<rect x="261" y="1110" width="198" height="14" rx="3.04571" stroke="#616161" stroke-width="2"/>
<circle cx="240" cy="1117" r="5" stroke="#616161" stroke-width="2"/>
<mask id="path-39-inside-2_4140_2373" fill="white">
<path d="M260 1145H442V1292H260V1145Z"/>
</mask>
<path d="M260 1145H442V1292H260V1145Z" fill="#F5F7F9"/>
<path d="M440 1145V1292H444V1145H440ZM262 1292V1145H258V1292H262Z" fill="#616161" mask="url(#path-39-inside-2_4140_2373)"/>
<path d="M323.54 1057.3H316.981C316.862 1056.39 316.555 1055.56 316.061 1054.83C315.342 1053.84 314.226 1053.35 312.714 1053.35C310.558 1053.35 309.083 1054.42 308.289 1056.56C307.87 1057.7 307.66 1059.21 307.66 1061.1C307.66 1062.89 307.87 1064.34 308.289 1065.43C309.053 1067.47 310.49 1068.49 312.602 1068.49C314.099 1068.49 315.162 1068.08 315.791 1067.27C316.42 1066.46 316.802 1065.42 316.937 1064.13H323.473C323.323 1066.07 322.619 1067.92 321.361 1069.65C319.355 1072.45 316.382 1073.85 312.444 1073.85C308.506 1073.85 305.609 1072.69 303.752 1070.35C301.895 1068.01 300.967 1064.98 300.967 1061.25C300.967 1057.05 301.993 1053.77 304.044 1051.44C306.095 1049.1 308.925 1047.93 312.534 1047.93C315.604 1047.93 318.112 1048.62 320.059 1050C322.02 1051.38 323.181 1053.81 323.54 1057.3ZM328.1 1039.89H334.501V1073H328.1V1039.89ZM347.349 1048.52V1073H340.857V1048.52H347.349ZM347.349 1039.69V1045.6H340.857V1039.69H347.349ZM374.526 1065.81C374.362 1067.26 373.605 1068.74 372.258 1070.24C370.161 1072.62 367.227 1073.81 363.453 1073.81C360.339 1073.81 357.591 1072.81 355.21 1070.8C352.829 1068.79 351.639 1065.53 351.639 1061.01C351.639 1056.77 352.709 1053.52 354.851 1051.26C357.007 1049 359.799 1047.87 363.229 1047.87C365.265 1047.87 367.099 1048.25 368.731 1049.01C370.364 1049.78 371.711 1050.98 372.774 1052.63C373.733 1054.08 374.354 1055.76 374.639 1057.68C374.803 1058.8 374.871 1060.42 374.841 1062.53H358.085C358.175 1064.99 358.946 1066.71 360.398 1067.7C361.282 1068.31 362.345 1068.62 363.588 1068.62C364.906 1068.62 365.976 1068.25 366.8 1067.5C367.249 1067.09 367.646 1066.53 367.99 1065.81H374.526ZM368.192 1058.31C368.088 1056.62 367.571 1055.34 366.643 1054.47C365.729 1053.59 364.591 1053.14 363.229 1053.14C361.746 1053.14 360.593 1053.61 359.77 1054.54C358.961 1055.47 358.452 1056.72 358.242 1058.31H368.192ZM390.698 1053.26C388.527 1053.26 387.037 1054.18 386.229 1056.02C385.809 1056.99 385.6 1058.24 385.6 1059.75V1073H379.221V1048.56H385.397V1052.13C386.221 1050.88 387 1049.97 387.733 1049.42C389.051 1048.43 390.721 1047.93 392.742 1047.93C395.273 1047.93 397.339 1048.6 398.941 1049.93C400.559 1051.25 401.367 1053.44 401.367 1056.51V1073H394.809V1058.11C394.809 1056.82 394.636 1055.83 394.292 1055.14C393.663 1053.89 392.465 1053.26 390.698 1053.26ZM418.505 1068.44V1073.22L415.473 1073.34C412.448 1073.44 410.382 1072.92 409.273 1071.76C408.555 1071.03 408.195 1069.9 408.195 1068.37V1053.3H404.781V1048.74H408.195V1041.91H414.529V1048.74H418.505V1053.3H414.529V1066.24C414.529 1067.24 414.657 1067.87 414.911 1068.13C415.166 1068.37 415.944 1068.49 417.247 1068.49C417.442 1068.49 417.644 1068.49 417.854 1068.49C418.078 1068.47 418.295 1068.46 418.505 1068.44Z" fill="#333333"/>
<path d="M1082.67 941.671C1083.02 940.92 1082.69 940.028 1081.94 939.678L1069.71 933.972C1068.96 933.622 1068.06 933.947 1067.71 934.698C1067.36 935.449 1067.69 936.341 1068.44 936.691L1079.31 941.763L1074.24 952.638C1073.89 953.389 1074.22 954.282 1074.97 954.632C1075.72 954.982 1076.61 954.657 1076.96 953.906L1082.67 941.671ZM588.482 1122.01L1081.82 942.447L1080.79 939.628L587.456 1119.19L588.482 1122.01Z" fill="#616161"/>
<path d="M621.496 1215.81C621.146 1216.56 621.471 1217.46 622.222 1217.81L634.457 1223.51C635.208 1223.86 636.1 1223.54 636.45 1222.79C636.8 1222.03 636.475 1221.14 635.725 1220.79L624.849 1215.72L629.92 1204.85C630.27 1204.09 629.946 1203.2 629.195 1202.85C628.444 1202.5 627.551 1202.83 627.201 1203.58L621.496 1215.81ZM623.368 1217.86L1116.71 1038.3L1115.68 1035.48L622.342 1215.04L623.368 1217.86Z" fill="#616161"/>
<path d="M599.92 1085.66C598.587 1087.34 596.669 1088.64 594.164 1089.55C590.041 1091.05 586.144 1090.85 582.474 1088.95C578.685 1087.08 575.884 1083.65 574.071 1078.67C572.238 1073.63 572.154 1069.09 573.82 1065.04C575.485 1060.99 578.598 1058.14 583.157 1056.48C587.111 1055.04 590.65 1054.89 593.774 1056.04C596.908 1057.16 599.196 1059.15 600.638 1062.02L594.243 1064.35C592.977 1062.4 591.234 1061.36 589.013 1061.21C587.775 1061.14 586.501 1061.34 585.192 1061.81C582.688 1062.72 580.972 1064.42 580.045 1066.91C579.128 1069.38 579.36 1072.52 580.743 1076.31C582.136 1080.14 583.994 1082.53 586.318 1083.49C588.641 1084.44 590.914 1084.52 593.138 1083.71C595.319 1082.91 596.878 1081.64 597.815 1079.88C598.747 1078.1 599.004 1076.14 598.585 1073.98L591.387 1076.6L589.498 1071.41L602.457 1066.69L608.533 1083.39L604.228 1084.95L602.16 1081.31C601.445 1083.24 600.699 1084.69 599.92 1085.66ZM631.468 1059.65L616.356 1065.15L619.267 1073.14L636.49 1066.88L638.526 1072.47L614.95 1081.05L603.626 1049.94L626.442 1041.64L628.447 1047.14L611.984 1053.14L614.389 1059.74L629.501 1054.24L631.468 1059.65ZM654.873 1031.29L656.878 1036.8L647.57 1040.18L656.888 1065.79L650.345 1068.17L641.027 1042.57L631.677 1045.97L629.672 1040.46L654.873 1031.29Z" fill="#333333"/>
<path d="M620.619 1163.05C619.589 1162.45 618.406 1162.4 617.069 1162.88C615.24 1163.55 614.243 1164.68 614.078 1166.29C613.985 1167.22 614.216 1168.55 614.77 1170.29L608.924 1172.42C608.075 1169.78 607.781 1167.51 608.041 1165.59C608.534 1161.96 610.827 1159.39 614.922 1157.9C618.158 1156.73 621.061 1156.69 623.63 1157.79C626.194 1158.88 628.014 1160.91 629.09 1163.86C629.914 1166.13 629.971 1168.38 629.26 1170.64C628.799 1172.13 627.816 1173.96 626.313 1176.13L624.529 1178.72C623.412 1180.33 622.66 1181.48 622.271 1182.17C621.896 1182.84 621.634 1183.57 621.485 1184.34L634.845 1179.48L636.774 1184.78L615.815 1192.4C615.072 1190.19 614.814 1188.01 615.04 1185.87C615.155 1183.52 616.395 1180.62 618.76 1177.18C620.81 1174.19 622.086 1172.12 622.59 1170.96C623.356 1169.17 623.45 1167.48 622.871 1165.89C622.4 1164.59 621.649 1163.65 620.619 1163.05ZM650.706 1180.57C646.808 1181.98 643.575 1181.62 641.005 1179.46C638.45 1177.3 636.253 1173.69 634.414 1168.64C632.576 1163.59 631.938 1159.41 632.501 1156.09C633.078 1152.78 635.316 1150.41 639.214 1148.99C643.111 1147.57 646.347 1147.95 648.922 1150.12C651.482 1152.29 653.682 1155.91 655.521 1160.96C657.359 1166.01 657.987 1170.19 657.405 1173.49C656.837 1176.79 654.604 1179.15 650.706 1180.57ZM651.427 1171.58C651.299 1169.52 650.596 1166.73 649.315 1163.22C647.973 1159.53 646.699 1156.9 645.49 1155.33C644.296 1153.76 642.806 1153.3 641.019 1153.95C639.232 1154.6 638.372 1155.92 638.441 1157.9C638.509 1159.88 639.214 1162.72 640.556 1166.4C641.837 1169.92 643.106 1172.51 644.364 1174.17C645.617 1175.82 647.137 1176.32 648.924 1175.67C650.711 1175.02 651.545 1173.66 651.427 1171.58ZM674.767 1171.81C670.87 1173.23 667.636 1172.86 665.066 1170.7C662.511 1168.54 660.314 1164.93 658.475 1159.88C656.637 1154.83 655.999 1150.65 656.562 1147.34C657.14 1144.02 659.377 1141.65 663.275 1140.23C667.172 1138.81 670.409 1139.19 672.983 1141.36C675.544 1143.54 677.743 1147.15 679.582 1152.2C681.42 1157.25 682.049 1161.43 681.466 1164.73C680.898 1168.03 678.665 1170.39 674.767 1171.81ZM675.488 1162.82C675.361 1160.76 674.657 1157.98 673.377 1154.46C672.035 1150.77 670.76 1148.15 669.552 1146.58C668.358 1145 666.867 1144.54 665.08 1145.19C663.293 1145.84 662.434 1147.16 662.502 1149.14C662.571 1151.13 663.276 1153.96 664.617 1157.65C665.898 1161.16 667.167 1163.75 668.425 1165.42C669.678 1167.06 671.198 1167.56 672.985 1166.91C674.772 1166.26 675.606 1164.9 675.488 1162.82ZM716.047 1156.9C711.601 1158.52 707.762 1158.55 704.532 1156.98C700.299 1155.16 697.166 1151.46 695.133 1145.87C693.059 1140.17 693.078 1135.32 695.19 1131.32C696.659 1128.04 699.617 1125.6 704.063 1123.98C708.51 1122.36 712.348 1122.33 715.579 1123.9C719.757 1125.61 722.882 1129.32 724.957 1135.02C726.99 1140.6 726.978 1145.45 724.921 1149.56C723.452 1152.84 720.494 1155.28 716.047 1156.9ZM719.147 1146.31C719.962 1143.86 719.731 1140.89 718.456 1137.38C717.186 1133.89 715.445 1131.47 713.234 1130.13C711.032 1128.76 708.643 1128.55 706.068 1129.49C703.493 1130.42 701.785 1132.12 700.942 1134.58C700.1 1137.04 700.317 1140.02 701.592 1143.52C702.867 1147.02 704.617 1149.45 706.842 1150.79C709.067 1152.13 711.467 1152.33 714.042 1151.39C716.617 1150.46 718.319 1148.76 719.147 1146.31ZM763.18 1138.77L754.821 1141.81L740.271 1131.71L738.328 1136.03L742.115 1146.43L735.72 1148.76L724.397 1117.65L730.792 1115.32L735.455 1128.14L742.802 1110.95L751.202 1107.9L743.117 1125.35L763.18 1138.77Z" fill="#333333"/>
<path d="M482 409H222V219H482V409Z" fill="white" stroke="#616161" stroke-width="2"/>
<path fill-rule="evenodd" clip-rule="evenodd" d="M222 247H482V261H222V247Z" fill="#616161"/>
<rect x="263" y="226" width="198" height="14" rx="3.04571" stroke="#616161" stroke-width="2"/>
<circle cx="242" cy="233" r="5" stroke="#616161" stroke-width="2"/>
<mask id="path-50-inside-3_4140_2373" fill="white">
<path d="M262 261H444V408H262V261Z"/>
</mask>
<path d="M262 261H444V408H262V261Z" fill="#F5F7F9"/>
<path d="M442 261V408H446V261H442ZM264 408V261H260V408H264Z" fill="#616161" mask="url(#path-50-inside-3_4140_2373)"/>
<path d="M325.54 173.3H318.981C318.862 172.386 318.555 171.563 318.061 170.829C317.342 169.841 316.226 169.347 314.714 169.347C312.558 169.347 311.083 170.417 310.289 172.559C309.87 173.697 309.66 175.209 309.66 177.096C309.66 178.893 309.87 180.338 310.289 181.431C311.053 183.467 312.49 184.485 314.602 184.485C316.099 184.485 317.162 184.081 317.791 183.272C318.42 182.464 318.802 181.416 318.937 180.128H325.473C325.323 182.075 324.619 183.916 323.361 185.653C321.355 188.453 318.382 189.854 314.444 189.854C310.506 189.854 307.609 188.686 305.752 186.35C303.895 184.014 302.967 180.981 302.967 177.253C302.967 173.045 303.993 169.773 306.044 167.438C308.095 165.102 310.925 163.934 314.534 163.934C317.604 163.934 320.112 164.622 322.059 166C324.02 167.378 325.181 169.811 325.54 173.3ZM330.1 155.893H336.501V189H330.1V155.893ZM349.349 164.518V189H342.857V164.518H349.349ZM349.349 155.69V161.598H342.857V155.69H349.349ZM376.526 181.812C376.362 183.265 375.605 184.74 374.258 186.237C372.161 188.618 369.227 189.809 365.453 189.809C362.339 189.809 359.591 188.805 357.21 186.799C354.829 184.792 353.639 181.528 353.639 177.006C353.639 172.768 354.709 169.519 356.851 167.258C359.007 164.997 361.799 163.866 365.229 163.866C367.265 163.866 369.099 164.248 370.731 165.012C372.364 165.775 373.711 166.981 374.774 168.628C375.733 170.08 376.354 171.765 376.639 173.682C376.803 174.805 376.871 176.422 376.841 178.533H360.085C360.175 180.989 360.946 182.711 362.398 183.699C363.282 184.313 364.345 184.62 365.588 184.62C366.906 184.62 367.976 184.246 368.8 183.497C369.249 183.093 369.646 182.531 369.99 181.812H376.526ZM370.192 174.311C370.088 172.618 369.571 171.338 368.643 170.47C367.729 169.586 366.591 169.145 365.229 169.145C363.746 169.145 362.593 169.609 361.77 170.537C360.961 171.465 360.452 172.723 360.242 174.311H370.192ZM392.698 169.257C390.527 169.257 389.037 170.178 388.229 172.02C387.809 172.993 387.6 174.236 387.6 175.748V189H381.221V164.562H387.397V168.134C388.221 166.876 389 165.97 389.733 165.416C391.051 164.428 392.721 163.934 394.742 163.934C397.273 163.934 399.339 164.6 400.941 165.933C402.559 167.25 403.367 169.444 403.367 172.514V189H396.809V174.108C396.809 172.821 396.636 171.832 396.292 171.144C395.663 169.886 394.465 169.257 392.698 169.257ZM420.505 184.44V189.225L417.473 189.337C414.448 189.442 412.382 188.918 411.273 187.765C410.555 187.031 410.195 185.9 410.195 184.373V169.302H406.781V164.742H410.195V157.914H416.529V164.742H420.505V169.302H416.529V182.239C416.529 183.243 416.657 183.871 416.911 184.126C417.166 184.366 417.944 184.485 419.247 184.485C419.442 184.485 419.644 184.485 419.854 184.485C420.078 184.47 420.295 184.455 420.505 184.44Z" fill="#333333"/>
<path d="M1092.01 398.518C1092.76 398.168 1093.08 397.275 1092.73 396.524L1087.03 384.289C1086.68 383.538 1085.79 383.213 1085.03 383.564C1084.28 383.914 1083.96 384.806 1084.31 385.557L1089.38 396.433L1078.5 401.504C1077.75 401.854 1077.43 402.747 1077.78 403.497C1078.13 404.248 1079.02 404.573 1079.77 404.223L1092.01 398.518ZM597.522 219.007L1090.86 398.568L1091.89 395.749L598.548 216.188L597.522 219.007Z" fill="#616161"/>
<path d="M562.515 312.087C561.764 312.437 561.439 313.329 561.789 314.08L567.494 326.315C567.844 327.066 568.737 327.391 569.488 327.041C570.239 326.691 570.563 325.798 570.213 325.048L565.142 314.172L576.018 309.1C576.768 308.75 577.093 307.858 576.743 307.107C576.393 306.356 575.5 306.031 574.75 306.381L562.515 312.087ZM562.635 314.856L1055.97 494.416L1057 491.597L563.661 312.037L562.635 314.856Z" fill="#616161"/>
<path d="M631.599 191.918C629.498 192.348 627.195 192.108 624.691 191.196C620.568 189.696 617.711 187.038 616.119 183.224C614.42 179.355 614.477 174.93 616.29 169.949C618.123 164.911 620.979 161.377 624.857 159.347C628.736 157.317 632.954 157.131 637.513 158.79C641.467 160.23 644.274 162.39 645.934 165.273C647.613 168.147 648.082 171.147 647.343 174.272L640.948 171.944C641.229 169.64 640.566 167.718 638.96 166.177C638.059 165.323 636.955 164.658 635.646 164.182C633.142 163.271 630.735 163.47 628.425 164.781C626.135 166.082 624.298 168.633 622.915 172.432C621.522 176.259 621.409 179.285 622.575 181.51C623.741 183.736 625.436 185.253 627.659 186.062C629.84 186.856 631.855 186.88 633.704 186.135C635.558 185.375 637.018 184.034 638.084 182.112L630.887 179.492L632.776 174.3L645.736 179.017L639.659 195.712L635.354 194.145L636.113 190.023C634.323 191.045 632.818 191.676 631.599 191.918ZM672.488 192.268L657.376 186.767L654.464 194.766L671.687 201.035L669.651 206.628L646.076 198.047L657.399 166.937L680.215 175.241L678.21 180.75L661.747 174.758L659.342 181.364L674.455 186.864L672.488 192.268ZM708.645 185.589L706.64 191.097L697.332 187.71L688.014 213.312L681.471 210.93L690.789 185.328L681.439 181.925L683.444 176.416L708.645 185.589Z" fill="#333333"/>
<path d="M595.756 271.103C595.351 269.984 594.48 269.181 593.143 268.694C591.314 268.028 589.82 268.257 588.662 269.382C587.995 270.031 587.314 271.202 586.619 272.893L580.773 270.765C581.819 268.198 583.056 266.266 584.484 264.969C587.199 262.499 590.604 262.01 594.699 263.5C597.935 264.678 600.183 266.516 601.441 269.013C602.704 271.497 602.798 274.216 601.722 277.171C600.898 279.436 599.49 281.202 597.499 282.47C596.187 283.315 594.257 284.086 591.709 284.784L588.68 285.618C586.786 286.139 585.47 286.537 584.733 286.81C584.01 287.089 583.343 287.476 582.733 287.971L596.093 292.834L594.165 298.131L573.206 290.503C574.062 288.328 575.263 286.495 576.81 285.002C578.411 283.275 581.223 281.852 585.247 280.735C588.741 279.76 591.052 278.992 592.181 278.431C593.92 277.55 595.078 276.314 595.657 274.724C596.128 273.43 596.161 272.223 595.756 271.103ZM607.544 303.861C603.647 302.443 601.407 300.082 600.824 296.778C600.256 293.48 600.891 289.305 602.73 284.254C604.568 279.203 606.768 275.589 609.328 273.414C611.903 271.244 615.139 270.868 619.037 272.286C622.934 273.705 625.172 276.073 625.749 279.39C626.312 282.703 625.674 286.885 623.836 291.936C621.997 296.988 619.793 300.591 617.224 302.747C614.668 304.909 611.442 305.28 607.544 303.861ZM613.873 297.441C615.098 295.783 616.35 293.195 617.631 289.678C618.972 285.991 619.685 283.159 619.767 281.181C619.864 279.208 619.018 277.897 617.231 277.246C615.444 276.596 613.94 277.052 612.718 278.615C611.495 280.178 610.213 282.803 608.871 286.489C607.591 290.007 606.899 292.807 606.795 294.888C606.695 296.955 607.539 298.314 609.326 298.965C611.113 299.615 612.629 299.107 613.873 297.441ZM631.605 312.619C627.708 311.2 625.468 308.839 624.885 305.536C624.317 302.238 624.952 298.063 626.791 293.012C628.629 287.96 630.829 284.347 633.389 282.171C635.964 280.001 639.2 279.625 643.098 281.044C646.996 282.463 649.233 284.831 649.81 288.148C650.373 291.46 649.736 295.642 647.897 300.694C646.059 305.745 643.855 309.349 641.285 311.505C638.73 313.666 635.503 314.038 631.605 312.619ZM637.934 306.198C639.159 304.541 640.412 301.953 641.692 298.435C643.034 294.749 643.746 291.916 643.828 289.939C643.925 287.966 643.08 286.654 641.293 286.004C639.506 285.353 638.001 285.81 636.779 287.373C635.557 288.936 634.275 291.56 632.933 295.247C631.652 298.765 630.96 301.564 630.856 303.646C630.757 305.713 631.601 307.072 633.388 307.722C635.175 308.373 636.69 307.865 637.934 306.198ZM672.809 327.735C668.363 326.117 665.405 323.67 663.936 320.395C661.865 316.278 661.846 311.427 663.879 305.841C665.953 300.142 669.086 296.438 673.277 294.729C676.508 293.164 680.347 293.191 684.793 294.809C689.239 296.428 692.197 298.875 693.666 302.15C695.764 306.149 695.776 310.997 693.702 316.696C691.669 322.282 688.543 325.989 684.325 327.816C681.094 329.38 677.255 329.354 672.809 327.735ZM681.993 321.613C684.19 320.261 685.926 317.834 687.201 314.33C688.471 310.84 688.692 307.869 687.864 305.416C687.055 302.955 685.363 301.255 682.788 300.318C680.213 299.381 677.813 299.583 675.588 300.924C673.363 302.266 671.613 304.688 670.337 308.192C669.062 311.696 668.846 314.676 669.688 317.134C670.53 319.592 672.239 321.289 674.814 322.227C677.389 323.164 679.782 322.959 681.993 321.613ZM720.571 344.139L712.213 341.097L707.557 324.009L703.294 326.067L699.507 336.473L693.112 334.145L704.435 303.034L710.83 305.362L706.167 318.173L722.84 309.733L731.24 312.79L713.829 320.962L720.571 344.139Z" fill="#333333"/>
<path d="M1583.99 727.058C1583.23 726.144 1582.14 725.688 1580.71 725.688C1578.77 725.688 1577.44 726.414 1576.74 727.866C1576.33 728.705 1576.09 730.037 1576.02 731.864H1569.8C1569.9 729.094 1570.4 726.855 1571.3 725.148C1573.01 721.899 1576.04 720.274 1580.4 720.274C1583.84 720.274 1586.58 721.233 1588.62 723.149C1590.66 725.051 1591.67 727.574 1591.67 730.719C1591.67 733.13 1590.96 735.271 1589.52 737.143C1588.57 738.385 1587.02 739.771 1584.87 741.298L1582.31 743.117C1580.71 744.255 1579.6 745.079 1579.01 745.588C1578.42 746.097 1577.93 746.688 1577.52 747.362H1591.74V753H1569.44C1569.5 750.664 1570 748.53 1570.94 746.599C1571.86 744.427 1574.01 742.129 1577.41 739.703C1580.36 737.592 1582.27 736.079 1583.14 735.166C1584.47 733.743 1585.14 732.186 1585.14 730.494C1585.14 729.117 1584.76 727.971 1583.99 727.058ZM1606.27 753.809C1602.13 753.809 1599.21 752.356 1597.54 749.451C1595.87 746.546 1595.04 742.406 1595.04 737.03C1595.04 731.655 1595.87 727.507 1597.54 724.587C1599.21 721.667 1602.13 720.207 1606.27 720.207C1610.42 720.207 1613.33 721.667 1615.01 724.587C1616.67 727.507 1617.5 731.655 1617.5 737.03C1617.5 742.406 1616.67 746.546 1614.99 749.451C1613.33 752.356 1610.42 753.809 1606.27 753.809ZM1610.02 745.61C1610.61 743.634 1610.9 740.774 1610.9 737.03C1610.9 733.107 1610.6 730.202 1610 728.315C1609.42 726.429 1608.18 725.485 1606.27 725.485C1604.37 725.485 1603.11 726.429 1602.5 728.315C1601.89 730.202 1601.58 733.107 1601.58 737.03C1601.58 740.774 1601.89 743.641 1602.5 745.633C1603.11 747.609 1604.37 748.598 1606.27 748.598C1608.18 748.598 1609.43 747.602 1610.02 745.61ZM1631.88 753.809C1627.73 753.809 1624.82 752.356 1623.14 749.451C1621.48 746.546 1620.65 742.406 1620.65 737.03C1620.65 731.655 1621.48 727.507 1623.14 724.587C1624.82 721.667 1627.73 720.207 1631.88 720.207C1636.03 720.207 1638.94 721.667 1640.62 724.587C1642.28 727.507 1643.11 731.655 1643.11 737.03C1643.11 742.406 1642.27 746.546 1640.59 749.451C1638.93 752.356 1636.03 753.809 1631.88 753.809ZM1635.63 745.61C1636.21 743.634 1636.51 740.774 1636.51 737.03C1636.51 733.107 1636.21 730.202 1635.61 728.315C1635.02 726.429 1633.78 725.485 1631.88 725.485C1629.98 725.485 1628.72 726.429 1628.11 728.315C1627.49 730.202 1627.18 733.107 1627.18 737.03C1627.18 740.774 1627.49 743.641 1628.11 745.633C1628.72 747.609 1629.98 748.598 1631.88 748.598C1633.78 748.598 1635.03 747.602 1635.63 745.61ZM1675.77 753.921C1671.04 753.921 1667.42 752.633 1664.92 750.058C1661.56 746.898 1659.89 742.346 1659.89 736.401C1659.89 730.337 1661.56 725.785 1664.92 722.745C1667.42 720.17 1671.04 718.882 1675.77 718.882C1680.5 718.882 1684.12 720.17 1686.62 722.745C1689.96 725.785 1691.62 730.337 1691.62 736.401C1691.62 742.346 1689.96 746.898 1686.62 750.058C1684.12 752.633 1680.5 753.921 1675.77 753.921ZM1682.3 745.026C1683.91 743.005 1684.71 740.13 1684.71 736.401C1684.71 732.688 1683.9 729.82 1682.28 727.799C1680.68 725.762 1678.51 724.744 1675.77 724.744C1673.03 724.744 1670.84 725.755 1669.21 727.776C1667.58 729.798 1666.76 732.673 1666.76 736.401C1666.76 740.13 1667.58 743.005 1669.21 745.026C1670.84 747.048 1673.03 748.059 1675.77 748.059C1678.51 748.059 1680.69 747.048 1682.3 745.026ZM1726.26 753H1717.37L1707.15 738.535L1703.84 741.927V753H1697.04V719.893H1703.84V733.526L1716.62 719.893H1725.56L1712 733.526L1726.26 753Z" fill="#333333"/>
<path d="M1498.08 766.979L1512.32 696.899L1442.65 700.927L1455.83 716.628C1437.11 744.307 1384 739.991 1384 739.991C1405.81 765.979 1446.66 776.032 1483.09 749.112L1498.08 766.979Z" fill="white" stroke="#F54337" stroke-width="4"/>
<path d="M1488.91 851.529C1486.44 853.79 1483.28 854.921 1479.43 854.921C1474.67 854.921 1470.93 853.394 1468.2 850.339C1465.48 847.269 1464.11 843.062 1464.11 837.716C1464.11 831.936 1465.66 827.481 1468.76 824.352C1471.46 821.626 1474.89 820.264 1479.05 820.264C1484.62 820.264 1488.69 822.09 1491.27 825.744C1492.69 827.796 1493.45 829.854 1493.56 831.921H1486.64C1486.19 830.334 1485.62 829.136 1484.91 828.327C1483.65 826.89 1481.79 826.171 1479.32 826.171C1476.8 826.171 1474.82 827.189 1473.37 829.226C1471.91 831.247 1471.19 834.115 1471.19 837.828C1471.19 841.542 1471.95 844.327 1473.48 846.184C1475.02 848.025 1476.98 848.946 1479.34 848.946C1481.77 848.946 1483.62 848.153 1484.89 846.565C1485.59 845.712 1486.18 844.432 1486.64 842.725H1493.49C1492.89 846.333 1491.37 849.268 1488.91 851.529ZM1518.69 832.617C1520.76 835.208 1521.79 838.27 1521.79 841.804C1521.79 845.397 1520.76 848.475 1518.69 851.035C1516.63 853.581 1513.49 854.854 1509.28 854.854C1505.07 854.854 1501.94 853.581 1499.87 851.035C1497.8 848.475 1496.77 845.397 1496.77 841.804C1496.77 838.27 1497.8 835.208 1499.87 832.617C1501.94 830.027 1505.07 828.731 1509.28 828.731C1513.49 828.731 1516.63 830.027 1518.69 832.617ZM1509.26 834.145C1507.39 834.145 1505.94 834.811 1504.92 836.144C1503.92 837.461 1503.42 839.348 1503.42 841.804C1503.42 844.259 1503.92 846.154 1504.92 847.486C1505.94 848.819 1507.39 849.485 1509.26 849.485C1511.13 849.485 1512.57 848.819 1513.57 847.486C1514.58 846.154 1515.08 844.259 1515.08 841.804C1515.08 839.348 1514.58 837.461 1513.57 836.144C1512.57 834.811 1511.13 834.145 1509.26 834.145ZM1526.53 820.893H1532.93V854H1526.53V820.893ZM1539.33 820.893H1545.74V854H1539.33V820.893ZM1552.92 832.168C1554.62 830.012 1557.52 828.934 1561.64 828.934C1564.32 828.934 1566.7 829.465 1568.78 830.528C1570.86 831.591 1571.9 833.598 1571.9 836.548V847.778C1571.9 848.557 1571.92 849.5 1571.95 850.608C1571.99 851.447 1572.12 852.016 1572.33 852.315C1572.54 852.615 1572.85 852.862 1573.27 853.057V854H1566.31C1566.12 853.506 1565.98 853.042 1565.91 852.607C1565.83 852.173 1565.77 851.679 1565.73 851.125C1564.84 852.083 1563.82 852.899 1562.67 853.573C1561.29 854.367 1559.74 854.764 1558 854.764C1555.78 854.764 1553.95 854.135 1552.5 852.877C1551.06 851.604 1550.34 849.807 1550.34 847.486C1550.34 844.477 1551.5 842.298 1553.82 840.95C1555.1 840.216 1556.97 839.692 1559.44 839.378L1561.62 839.108C1562.8 838.959 1563.65 838.771 1564.15 838.547C1565.07 838.158 1565.52 837.551 1565.52 836.728C1565.52 835.724 1565.17 835.035 1564.47 834.661C1563.78 834.272 1562.76 834.077 1561.41 834.077C1559.9 834.077 1558.83 834.451 1558.2 835.2C1557.75 835.754 1557.45 836.503 1557.3 837.446H1551.13C1551.26 835.305 1551.86 833.546 1552.92 832.168ZM1557.69 849.373C1558.28 849.867 1559.02 850.114 1559.89 850.114C1561.26 850.114 1562.53 849.71 1563.68 848.901C1564.85 848.093 1565.46 846.618 1565.5 844.477V842.096C1565.1 842.35 1564.69 842.56 1564.27 842.725C1563.86 842.874 1563.3 843.017 1562.58 843.151L1561.14 843.421C1559.8 843.66 1558.83 843.952 1558.25 844.297C1557.26 844.881 1556.76 845.787 1556.76 847.015C1556.76 848.108 1557.07 848.894 1557.69 849.373ZM1598.12 832.146C1600.09 834.257 1601.08 837.356 1601.08 841.444C1601.08 845.757 1600.11 849.044 1598.16 851.305C1596.23 853.566 1593.74 854.696 1590.68 854.696C1588.73 854.696 1587.12 854.21 1585.83 853.236C1585.13 852.697 1584.44 851.911 1583.76 850.878V863.636H1577.43V829.518H1583.56V833.134C1584.25 832.071 1584.98 831.232 1585.76 830.618C1587.18 829.525 1588.88 828.979 1590.84 828.979C1593.7 828.979 1596.12 830.034 1598.12 832.146ZM1594.48 841.759C1594.48 839.872 1594.04 838.202 1593.17 836.75C1592.32 835.298 1590.93 834.571 1589 834.571C1586.68 834.571 1585.08 835.672 1584.21 837.873C1583.76 839.041 1583.54 840.523 1583.54 842.32C1583.54 845.165 1584.29 847.164 1585.81 848.317C1586.71 848.991 1587.77 849.328 1589 849.328C1590.78 849.328 1592.13 848.639 1593.06 847.262C1594 845.884 1594.48 844.05 1594.48 841.759ZM1622.6 830.641C1624.51 831.868 1625.61 833.98 1625.9 836.975H1619.5C1619.41 836.151 1619.18 835.5 1618.8 835.021C1618.1 834.152 1616.9 833.718 1615.21 833.718C1613.82 833.718 1612.82 833.935 1612.22 834.369C1611.64 834.803 1611.34 835.312 1611.34 835.896C1611.34 836.63 1611.66 837.162 1612.29 837.491C1612.92 837.836 1615.14 838.427 1618.96 839.266C1621.5 839.865 1623.41 840.771 1624.69 841.983C1625.94 843.211 1626.57 844.746 1626.57 846.588C1626.57 849.014 1625.67 850.998 1623.86 852.54C1622.06 854.067 1619.27 854.831 1615.5 854.831C1611.65 854.831 1608.81 854.022 1606.96 852.405C1605.14 850.773 1604.22 848.699 1604.22 846.184H1610.72C1610.85 847.322 1611.14 848.13 1611.59 848.609C1612.39 849.463 1613.85 849.89 1615.99 849.89C1617.25 849.89 1618.25 849.702 1618.98 849.328C1619.73 848.954 1620.1 848.392 1620.1 847.644C1620.1 846.925 1619.81 846.378 1619.21 846.004C1618.61 845.63 1616.38 844.986 1612.54 844.072C1609.76 843.383 1607.81 842.522 1606.67 841.489C1605.53 840.471 1604.97 839.004 1604.97 837.087C1604.97 834.826 1605.85 832.887 1607.62 831.27C1609.4 829.637 1611.9 828.821 1615.12 828.821C1618.17 828.821 1620.67 829.428 1622.6 830.641ZM1652.29 846.812C1652.13 848.265 1651.37 849.74 1650.02 851.237C1647.93 853.618 1644.99 854.809 1641.22 854.809C1638.1 854.809 1635.36 853.805 1632.97 851.799C1630.59 849.792 1629.4 846.528 1629.4 842.006C1629.4 837.768 1630.47 834.519 1632.62 832.258C1634.77 829.997 1637.56 828.866 1640.99 828.866C1643.03 828.866 1644.86 829.248 1646.5 830.012C1648.13 830.775 1649.48 831.981 1650.54 833.628C1651.5 835.08 1652.12 836.765 1652.4 838.682C1652.57 839.805 1652.64 841.422 1652.61 843.533H1635.85C1635.94 845.989 1636.71 847.711 1638.16 848.699C1639.05 849.313 1640.11 849.62 1641.35 849.62C1642.67 849.62 1643.74 849.246 1644.56 848.497C1645.01 848.093 1645.41 847.531 1645.75 846.812H1652.29ZM1645.96 839.311C1645.85 837.618 1645.34 836.338 1644.41 835.47C1643.49 834.586 1642.36 834.145 1640.99 834.145C1639.51 834.145 1638.36 834.609 1637.53 835.537C1636.73 836.465 1636.22 837.723 1636.01 839.311H1645.96Z" fill="#F54337"/>
</svg>
