<svg xmlns="http://www.w3.org/2000/svg" width="2560" height="1440" fill="none"><path fill="#fff" d="M0 0h2560v1440H0z"/><path fill="#333" d="M2220.27 660.494h185.455v4.538H2220.27zM2220.27 614.21h185.455v4.538H2220.27zM2220.27 568.834h185.455v4.538H2220.27z"/><rect width="197.7" height="43.077" x="2214.15" y="664.185" fill="#fff" stroke="#616161" stroke-width="2.3" rx="3.909"/><rect width="197.7" height="43.077" x="2214.15" y="618.264" fill="#fff" stroke="#616161" stroke-width="2.3" rx="3.909"/><rect width="197.7" height="43.077" x="2214.15" y="572.343" fill="#fff" stroke="#616161" stroke-width="2.3" rx="3.909"/><rect width="197.7" height="43.077" x="2214.15" y="526.422" fill="#fff" stroke="#616161" stroke-width="2.3" rx="3.909"/><path fill="#fff" stroke="#616161" stroke-width="2.3" d="M2364.58 685.67c0 5.879-4.78 10.648-10.67 10.648-5.9 0-10.67-4.769-10.67-10.648s4.77-10.648 10.67-10.648c5.89 0 10.67 4.769 10.67 10.648ZM2396.4 685.67c0 5.879-4.78 10.648-10.67 10.648-5.9 0-10.67-4.769-10.67-10.648s4.77-10.648 10.67-10.648c5.89 0 10.67 4.769 10.67 10.648ZM2253.24 513.488l-35.69 14.876h190l-35.56-14.867c-2.32-.97-4.8-1.469-7.32-1.469h-104.13c-2.51 0-4.99.496-7.3 1.46Z"/><path stroke="#333" stroke-width="4.271" d="M2082.12 624.865h-114M1425 621.135h-300M627 621.135H427"/><path fill="#fff" stroke="#616161" stroke-width="1.733" d="M341.19 712.191H115.906V547.56H341.19v164.631Z"/><path fill="#616161" fill-rule="evenodd" d="M115.906 571.822H341.19v12.13H115.906v-12.13Z" clip-rule="evenodd"/><rect width="171.562" height="12.131" x="151.792" y="553.626" stroke="#616161" stroke-width="1.733" rx="2.639"/><circle cx="133.234" cy="559.691" r="4.332" stroke="#616161" stroke-width="1.733"/><mask id="a" fill="#fff"><path d="M150.566 583.952h157.699v127.373H150.566V583.952Z"/></mask><path fill="#F5F7F9" d="M150.566 583.952h157.699v127.373H150.566V583.952Z"/><path fill="#616161" d="M306.532 583.952v127.373h3.466V583.952h-3.466ZM152.299 711.325V583.952h-3.466v127.373h3.466Z" mask="url(#a)"/><rect width="63.65" height="63.65" x="-2.273" y="2.273" fill="#fff" stroke="#616161" stroke-width="4.546" rx="14.154" transform="matrix(-1 0 0 1 793.899 679.763)"/><rect width="63.65" height="63.65" x="-2.273" y="2.273" fill="#fff" stroke="#616161" stroke-width="4.546" rx="14.154" transform="matrix(-1 0 0 1 793.899 593.382)"/><rect width="63.65" height="63.65" x="-2.273" y="2.273" fill="#fff" stroke="#616161" stroke-width="4.546" rx="14.154" transform="matrix(-1 0 0 1 793.899 507)"/><path stroke="#616161" stroke-width="4.546" d="M850.48 651.348h-9.064c-7.56 0-13.689 6.129-13.689 13.689v30.589c0 7.56-6.128 13.689-13.689 13.689h-15.841M851.617 627.48H798.23M850.48 603.611h-9.064c-7.56 0-13.689-6.129-13.689-13.689v-31.725c0-7.56-6.128-13.689-13.689-13.689h-15.841"/><rect width="63.65" height="86.382" x="-2.273" y="2.273" fill="#fff" stroke="#616161" stroke-width="4.546" rx="14.154" transform="matrix(-1 0 0 1 912.993 582.016)"/><path fill="#fff" stroke="#1A76D2" stroke-width="2.453" d="M278 736.777v26.836c0 4.249 5.867 7.876 17.6 10.88 11.734 3.005 25.897 4.507 42.49 4.507 16.595 0 30.759-1.502 42.492-4.507 11.733-3.004 17.599-6.631 17.599-10.88v-26.836c0 4.25-5.866 7.876-17.599 10.881-11.733 3.004-25.897 4.506-42.492 4.506-16.593 0-30.756-1.502-42.49-4.506-11.733-3.005-17.6-6.631-17.6-10.881Z"/><path fill="#fff" stroke="#1A76D2" stroke-width="2.453" d="M398.181 736.84c0 4.249-5.866 7.876-17.599 10.88-11.733 3.004-25.897 4.506-42.492 4.506-16.593 0-30.756-1.502-42.49-4.506-11.733-3.005-17.6-6.631-17.6-10.88 0-4.25 5.867-7.877 17.6-10.883 11.735-3.006 25.898-4.509 42.49-4.509 16.594 0 30.758 1.503 42.492 4.509 11.733 3.006 17.599 6.633 17.599 10.883Z"/><path fill="#1A76D2" fill-rule="evenodd" d="M286.395 741.033c-2.791-1.453-5.329-3.583-5.329-6.708l5.329 3.066c2.336.92 7.368 2.504 12.643 3.642 10.47 2.257 24.225 4.038 39.23 4.038 15.007 0 28.762-1.781 39.231-4.038 5.275-1.138 10.262-2.403 12.642-3.642l5.329-3.066c0 3.125-2.538 5.255-5.329 6.708-2.964 1.543-7.226 2.87-12.642 4.038-10.91 2.353-23.998 3.513-39.231 3.513-15.231 0-28.319-1.16-39.23-3.513-5.416-1.168-9.678-2.495-12.643-4.038Z" clip-rule="evenodd"/><path fill="#fff" stroke="#1A76D2" stroke-width="2.453" d="M278 703.054v26.835c0 4.249 5.867 7.876 17.6 10.88 11.734 3.005 25.897 4.507 42.49 4.507 16.595 0 30.759-1.502 42.492-4.507 11.733-3.004 17.599-6.631 17.599-10.88v-26.835c0 4.249-5.866 7.875-17.599 10.88-11.733 3.004-25.897 4.506-42.492 4.506-16.593 0-30.756-1.502-42.49-4.506-11.733-3.005-17.6-6.631-17.6-10.88Z"/><path fill="#fff" stroke="#1A76D2" stroke-width="2.453" d="M398.181 703.115c0 4.25-5.866 7.876-17.599 10.881-11.733 3.004-25.897 4.506-42.492 4.506-16.593 0-30.756-1.502-42.49-4.506-11.733-3.005-17.6-6.632-17.6-10.881 0-4.249 5.867-7.876 17.6-10.882 11.735-3.006 25.898-4.509 42.49-4.509 16.594 0 30.758 1.503 42.492 4.509 11.733 3.005 17.599 6.633 17.599 10.882Z"/><path fill="#1A76D2" fill-rule="evenodd" d="M286.395 707.922c-2.791-1.453-5.329-3.583-5.329-6.708l5.329 3.066c2.336.92 7.368 2.504 12.643 3.642 10.47 2.257 24.225 4.038 39.23 4.038 15.007 0 28.762-1.781 39.231-4.038 5.275-1.138 10.262-2.403 12.642-3.642l5.329-3.066c0 3.124-2.538 5.255-5.329 6.708-2.964 1.543-7.226 2.87-12.642 4.038-10.91 2.352-23.998 3.513-39.231 3.513-15.231 0-28.319-1.161-39.23-3.513-5.416-1.168-9.678-2.495-12.643-4.038Z" clip-rule="evenodd"/><path fill="#fff" stroke="#1A76D2" stroke-width="2.453" d="M278 669.329v26.836c0 4.249 5.867 7.876 17.6 10.88 11.734 3.004 25.897 4.507 42.49 4.507 16.595 0 30.759-1.503 42.492-4.507 11.733-3.004 17.599-6.631 17.599-10.88v-26.836c0 4.249-5.866 7.876-17.599 10.88-11.733 3.005-25.897 4.507-42.492 4.507-16.593 0-30.756-1.502-42.49-4.507-11.733-3.004-17.6-6.631-17.6-10.88Z"/><path fill="#fff" stroke="#1A76D2" stroke-width="2.453" d="M398.181 669.391c0 4.249-5.866 7.876-17.599 10.88-11.733 3.005-25.897 4.507-42.492 4.507-16.593 0-30.756-1.502-42.49-4.507-11.733-3.004-17.6-6.631-17.6-10.88 0-4.249 5.867-7.877 17.6-10.882 11.735-3.006 25.898-4.509 42.49-4.509 16.594 0 30.758 1.503 42.492 4.509 11.733 3.005 17.599 6.633 17.599 10.882ZM861 771.777v26.836c0 4.249 5.867 7.876 17.6 10.88 11.734 3.005 25.897 4.507 42.49 4.507 16.595 0 30.759-1.502 42.492-4.507 11.733-3.004 17.599-6.631 17.599-10.88v-26.836c0 4.25-5.866 7.876-17.599 10.881-11.733 3.004-25.897 4.506-42.492 4.506-16.593 0-30.756-1.502-42.49-4.506-11.733-3.005-17.6-6.631-17.6-10.881Z"/><path fill="#fff" stroke="#1A76D2" stroke-width="2.453" d="M981.181 771.84c0 4.249-5.866 7.876-17.599 10.88-11.733 3.004-25.897 4.506-42.492 4.506-16.593 0-30.756-1.502-42.49-4.506-11.733-3.005-17.6-6.631-17.6-10.88 0-4.25 5.867-7.877 17.6-10.883 11.735-3.006 25.898-4.509 42.49-4.509 16.594 0 30.758 1.503 42.492 4.509 11.733 3.006 17.599 6.633 17.599 10.883Z"/><path fill="#1A76D2" fill-rule="evenodd" d="M869.395 776.033c-2.791-1.453-5.329-3.583-5.329-6.708l5.329 3.066c2.336.92 7.368 2.504 12.643 3.642 10.47 2.257 24.225 4.038 39.23 4.038 15.007 0 28.762-1.781 39.231-4.038 5.275-1.138 10.262-2.403 12.642-3.642l5.329-3.066c0 3.125-2.538 5.255-5.329 6.708-2.964 1.543-7.226 2.87-12.642 4.038-10.91 2.353-23.998 3.513-39.231 3.513-15.231 0-28.319-1.16-39.23-3.513-5.416-1.168-9.678-2.495-12.643-4.038Z" clip-rule="evenodd"/><path fill="#fff" stroke="#1A76D2" stroke-width="2.453" d="M861 738.054v26.835c0 4.249 5.867 7.876 17.6 10.88 11.734 3.005 25.897 4.507 42.49 4.507 16.595 0 30.759-1.502 42.492-4.507 11.733-3.004 17.599-6.631 17.599-10.88v-26.835c0 4.249-5.866 7.875-17.599 10.88-11.733 3.004-25.897 4.506-42.492 4.506-16.593 0-30.756-1.502-42.49-4.506-11.733-3.005-17.6-6.631-17.6-10.88Z"/><path fill="#fff" stroke="#1A76D2" stroke-width="2.453" d="M981.181 738.115c0 4.25-5.866 7.876-17.599 10.881-11.733 3.004-25.897 4.506-42.492 4.506-16.593 0-30.756-1.502-42.49-4.506-11.733-3.005-17.6-6.632-17.6-10.881 0-4.249 5.867-7.876 17.6-10.882 11.735-3.006 25.898-4.509 42.49-4.509 16.594 0 30.758 1.503 42.492 4.509 11.733 3.005 17.599 6.633 17.599 10.882Z"/><path fill="#1A76D2" fill-rule="evenodd" d="M869.395 742.922c-2.791-1.453-5.329-3.583-5.329-6.708l5.329 3.066c2.336.92 7.368 2.504 12.643 3.642 10.47 2.257 24.225 4.038 39.23 4.038 15.007 0 28.762-1.781 39.231-4.038 5.275-1.138 10.262-2.403 12.642-3.642l5.329-3.066c0 3.124-2.538 5.255-5.329 6.708-2.964 1.543-7.226 2.87-12.642 4.038-10.91 2.352-23.998 3.513-39.231 3.513-15.231 0-28.319-1.161-39.23-3.513-5.416-1.168-9.678-2.495-12.643-4.038Z" clip-rule="evenodd"/><path fill="#fff" stroke="#1A76D2" stroke-width="2.453" d="M861 704.329v26.836c0 4.249 5.867 7.876 17.6 10.88 11.734 3.004 25.897 4.507 42.49 4.507 16.595 0 30.759-1.503 42.492-4.507 11.733-3.004 17.599-6.631 17.599-10.88v-26.836c0 4.249-5.866 7.876-17.599 10.88-11.733 3.005-25.897 4.507-42.492 4.507-16.593 0-30.756-1.502-42.49-4.507-11.733-3.004-17.6-6.631-17.6-10.88Z"/><path fill="#fff" stroke="#1A76D2" stroke-width="2.453" d="M981.181 704.391c0 4.249-5.866 7.876-17.599 10.88-11.733 3.005-25.897 4.507-42.492 4.507-16.593 0-30.756-1.502-42.49-4.507-11.733-3.004-17.6-6.631-17.6-10.88 0-4.249 5.867-7.877 17.6-10.882 11.735-3.006 25.898-4.509 42.49-4.509 16.594 0 30.758 1.503 42.492 4.509 11.733 3.005 17.599 6.633 17.599 10.882Z"/><rect width="63.65" height="63.65" x="1714.8" y="414.036" fill="#fff" stroke="#616161" stroke-width="4.546" rx="14.154"/><rect width="63.65" height="63.65" x="1714.8" y="327.655" fill="#fff" stroke="#616161" stroke-width="4.546" rx="14.154"/><rect width="63.65" height="63.65" x="1714.8" y="241.273" fill="#fff" stroke="#616161" stroke-width="4.546" rx="14.154"/><path stroke="#616161" stroke-width="4.546" d="M1660.49 383.348h9.06c7.56 0 13.69 6.129 13.69 13.689v30.589c0 7.56 6.13 13.689 13.69 13.689h15.84M1659.35 359.479h53.39M1660.49 335.611h9.06c7.56 0 13.69-6.129 13.69-13.689v-31.725c0-7.56 6.13-13.689 13.69-13.689h15.84"/><rect width="63.65" height="86.382" x="1595.7" y="316.289" fill="#fff" stroke="#616161" stroke-width="4.546" rx="14.154"/><path fill="#fff" stroke="#1A76D2" stroke-width="2.453" d="M1556 495.778v26.835c0 4.249 5.87 7.876 17.6 10.881 11.73 3.004 25.9 4.506 42.49 4.506 16.6 0 30.76-1.502 42.49-4.506 11.73-3.005 17.6-6.632 17.6-10.881v-26.835c0 4.249-5.87 7.876-17.6 10.88-11.73 3.004-25.89 4.506-42.49 4.506-16.59 0-30.76-1.502-42.49-4.506-11.73-3.004-17.6-6.631-17.6-10.88Z"/><path fill="#fff" stroke="#1A76D2" stroke-width="2.453" d="M1676.18 495.84c0 4.249-5.87 7.876-17.6 10.88-11.73 3.004-25.89 4.506-42.49 4.506-16.59 0-30.76-1.502-42.49-4.506-11.73-3.005-17.6-6.631-17.6-10.88 0-4.25 5.87-7.877 17.6-10.883 11.73-3.006 25.9-4.509 42.49-4.509 16.59 0 30.76 1.503 42.49 4.509 11.73 3.006 17.6 6.633 17.6 10.883Z"/><path fill="#1A76D2" fill-rule="evenodd" d="M1564.4 500.033c-2.8-1.453-5.33-3.583-5.33-6.708l5.33 3.066c2.33.92 7.36 2.504 12.64 3.642 10.47 2.257 24.22 4.038 39.23 4.038 15 0 28.76-1.781 39.23-4.038 5.27-1.138 10.26-2.403 12.64-3.642l5.33-3.066c0 3.125-2.54 5.255-5.33 6.708-2.96 1.543-7.23 2.87-12.64 4.038-10.91 2.353-24 3.513-39.23 3.513-15.23 0-28.32-1.16-39.23-3.513-5.42-1.168-9.68-2.495-12.64-4.038Z" clip-rule="evenodd"/><path fill="#fff" stroke="#1A76D2" stroke-width="2.453" d="M1556 462.053v26.836c0 4.249 5.87 7.876 17.6 10.88 11.73 3.005 25.9 4.507 42.49 4.507 16.6 0 30.76-1.502 42.49-4.507 11.73-3.004 17.6-6.631 17.6-10.88v-26.836c0 4.25-5.87 7.876-17.6 10.881-11.73 3.004-25.89 4.506-42.49 4.506-16.59 0-30.76-1.502-42.49-4.506-11.73-3.005-17.6-6.631-17.6-10.881Z"/><path fill="#fff" stroke="#1A76D2" stroke-width="2.453" d="M1676.18 462.115c0 4.25-5.87 7.876-17.6 10.881-11.73 3.004-25.89 4.506-42.49 4.506-16.59 0-30.76-1.502-42.49-4.506-11.73-3.005-17.6-6.632-17.6-10.881 0-4.249 5.87-7.876 17.6-10.882 11.73-3.006 25.9-4.509 42.49-4.509 16.59 0 30.76 1.503 42.49 4.509 11.73 3.005 17.6 6.633 17.6 10.882Z"/><path fill="#1A76D2" fill-rule="evenodd" d="M1564.4 466.922c-2.8-1.453-5.33-3.583-5.33-6.708l5.33 3.066c2.33.92 7.36 2.504 12.64 3.642 10.47 2.257 24.22 4.038 39.23 4.038 15 0 28.76-1.781 39.23-4.038 5.27-1.138 10.26-2.403 12.64-3.642l5.33-3.066c0 3.124-2.54 5.255-5.33 6.708-2.96 1.543-7.23 2.87-12.64 4.038-10.91 2.352-24 3.513-39.23 3.513-15.23 0-28.32-1.161-39.23-3.513-5.42-1.168-9.68-2.495-12.64-4.038Z" clip-rule="evenodd"/><path fill="#fff" stroke="#1A76D2" stroke-width="2.453" d="M1556 428.329v26.836c0 4.249 5.87 7.876 17.6 10.88 11.73 3.004 25.9 4.507 42.49 4.507 16.6 0 30.76-1.503 42.49-4.507 11.73-3.004 17.6-6.631 17.6-10.88v-26.836c0 4.249-5.87 7.876-17.6 10.88-11.73 3.005-25.89 4.507-42.49 4.507-16.59 0-30.76-1.502-42.49-4.507-11.73-3.004-17.6-6.631-17.6-10.88Z"/><path fill="#fff" stroke="#1A76D2" stroke-width="2.453" d="M1676.18 428.391c0 4.249-5.87 7.876-17.6 10.88-11.73 3.005-25.89 4.507-42.49 4.507-16.59 0-30.76-1.502-42.49-4.507-11.73-3.004-17.6-6.631-17.6-10.88 0-4.249 5.87-7.877 17.6-10.882 11.73-3.006 25.9-4.509 42.49-4.509 16.59 0 30.76 1.503 42.49 4.509 11.73 3.005 17.6 6.633 17.6 10.882ZM2351 699.777v26.836c0 4.249 5.87 7.876 17.6 10.88 11.73 3.005 25.9 4.507 42.49 4.507 16.6 0 30.76-1.502 42.49-4.507 11.73-3.004 17.6-6.631 17.6-10.88v-26.836c0 4.25-5.87 7.876-17.6 10.881-11.73 3.004-25.89 4.506-42.49 4.506-16.59 0-30.76-1.502-42.49-4.506-11.73-3.005-17.6-6.631-17.6-10.881Z"/><path fill="#fff" stroke="#1A76D2" stroke-width="2.453" d="M2471.18 699.84c0 4.249-5.87 7.876-17.6 10.88-11.73 3.004-25.89 4.506-42.49 4.506-16.59 0-30.76-1.502-42.49-4.506-11.73-3.005-17.6-6.631-17.6-10.88 0-4.25 5.87-7.877 17.6-10.883 11.73-3.006 25.9-4.509 42.49-4.509 16.59 0 30.76 1.503 42.49 4.509 11.73 3.006 17.6 6.633 17.6 10.883Z"/><path fill="#1A76D2" fill-rule="evenodd" d="M2359.4 704.033c-2.8-1.453-5.33-3.583-5.33-6.708l5.33 3.066c2.33.92 7.36 2.504 12.64 3.642 10.47 2.257 24.22 4.038 39.23 4.038 15 0 28.76-1.781 39.23-4.038 5.27-1.138 10.26-2.403 12.64-3.642l5.33-3.066c0 3.125-2.54 5.255-5.33 6.708-2.96 1.543-7.23 2.87-12.64 4.038-10.91 2.353-24 3.513-39.23 3.513-15.23 0-28.32-1.16-39.23-3.513-5.42-1.168-9.68-2.495-12.64-4.038Z" clip-rule="evenodd"/><path fill="#fff" stroke="#1A76D2" stroke-width="2.453" d="M2351 666.054v26.835c0 4.249 5.87 7.876 17.6 10.88 11.73 3.005 25.9 4.507 42.49 4.507 16.6 0 30.76-1.502 42.49-4.507 11.73-3.004 17.6-6.631 17.6-10.88v-26.835c0 4.249-5.87 7.875-17.6 10.88-11.73 3.004-25.89 4.506-42.49 4.506-16.59 0-30.76-1.502-42.49-4.506-11.73-3.005-17.6-6.631-17.6-10.88Z"/><path fill="#fff" stroke="#1A76D2" stroke-width="2.453" d="M2471.18 666.115c0 4.25-5.87 7.876-17.6 10.881-11.73 3.004-25.89 4.506-42.49 4.506-16.59 0-30.76-1.502-42.49-4.506-11.73-3.005-17.6-6.632-17.6-10.881 0-4.249 5.87-7.876 17.6-10.882 11.73-3.006 25.9-4.509 42.49-4.509 16.59 0 30.76 1.503 42.49 4.509 11.73 3.005 17.6 6.633 17.6 10.882Z"/><path fill="#1A76D2" fill-rule="evenodd" d="M2359.4 670.922c-2.8-1.453-5.33-3.583-5.33-6.708l5.33 3.066c2.33.92 7.36 2.504 12.64 3.642 10.47 2.257 24.22 4.038 39.23 4.038 15 0 28.76-1.781 39.23-4.038 5.27-1.138 10.26-2.403 12.64-3.642l5.33-3.066c0 3.124-2.54 5.255-5.33 6.708-2.96 1.543-7.23 2.87-12.64 4.038-10.91 2.352-24 3.513-39.23 3.513-15.23 0-28.32-1.161-39.23-3.513-5.42-1.168-9.68-2.495-12.64-4.038Z" clip-rule="evenodd"/><path fill="#fff" stroke="#1A76D2" stroke-width="2.453" d="M2351 632.329v26.836c0 4.249 5.87 7.876 17.6 10.88 11.73 3.004 25.9 4.507 42.49 4.507 16.6 0 30.76-1.503 42.49-4.507 11.73-3.004 17.6-6.631 17.6-10.88v-26.836c0 4.249-5.87 7.876-17.6 10.88-11.73 3.005-25.89 4.507-42.49 4.507-16.59 0-30.76-1.502-42.49-4.507-11.73-3.004-17.6-6.631-17.6-10.88Z"/><path fill="#fff" stroke="#1A76D2" stroke-width="2.453" d="M2471.18 632.391c0 4.249-5.87 7.876-17.6 10.88-11.73 3.005-25.89 4.507-42.49 4.507-16.59 0-30.76-1.502-42.49-4.507-11.73-3.004-17.6-6.631-17.6-10.88 0-4.249 5.87-7.877 17.6-10.882 11.73-3.006 25.9-4.509 42.49-4.509 16.59 0 30.76 1.503 42.49 4.509 11.73 3.005 17.6 6.633 17.6 10.882Z"/><path fill="#fff" stroke="#616161" stroke-width="6" d="m1526.19 828.007 3.64-.06-.75-3.56A50.022 50.022 0 0 1 1528 814c0-27.614 22.39-50 50-50 11.59 0 22.25 3.941 30.73 10.558l3.27 2.546 1.4-3.893c10.36-28.702 37.84-49.211 70.1-49.211 38.91 0 70.86 29.837 74.21 67.879l.32 3.593 3.47-.965A69.076 69.076 0 0 1 1780 792c38.11 0 69 30.892 69 69 0 33.22-23.48 60.962-54.75 67.527l-1.84.387-.45 1.824C1784.48 960.759 1757.33 983 1725 983c-17.69 0-33.82-6.655-46.04-17.602l-2.14-1.919-2.01 2.057C1661.28 979.399 1642.4 988 1621.5 988c-37.77 0-68.98-28.108-73.84-64.547l-.5-3.717-3.52 1.3A47.846 47.846 0 0 1 1527 924c-26.51 0-48-21.49-48-48 0-26.24 21.06-47.563 47.19-47.993Z"/><path fill="#333" d="M1624 878.703c-4.3 3.932-9.79 5.899-16.48 5.899-8.29 0-14.8-2.657-19.54-7.969-4.74-5.339-7.1-12.656-7.1-21.953 0-10.052 2.69-17.8 8.08-23.242 4.69-4.74 10.65-7.11 17.89-7.11 9.69 0 16.77 3.177 21.25 9.531 2.48 3.568 3.8 7.149 3.99 10.743h-12.04c-.78-2.761-1.78-4.844-3-6.25-2.19-2.5-5.43-3.75-9.73-3.75-4.37 0-7.83 1.77-10.35 5.312-2.53 3.516-3.79 8.503-3.79 14.961s1.33 11.302 3.98 14.531c2.69 3.203 6.08 4.805 10.2 4.805 4.22 0 7.43-1.38 9.65-4.141 1.22-1.484 2.24-3.711 3.04-6.679h11.92c-1.04 6.276-3.7 11.38-7.97 15.312Zm41.99 4.297h-24.8v-57.578h24.8c3.57.052 6.54.469 8.91 1.25 4.03 1.328 7.3 3.763 9.8 7.305 2.01 2.864 3.38 5.963 4.1 9.296.73 3.334 1.1 6.511 1.1 9.532 0 7.656-1.54 14.14-4.61 19.453-4.17 7.161-10.6 10.742-19.3 10.742Zm8.95-42.891c-1.85-3.125-5.51-4.687-10.98-4.687h-11.09V873h11.09c5.68 0 9.64-2.799 11.88-8.398 1.22-3.073 1.83-6.732 1.83-10.977 0-5.859-.91-10.365-2.73-13.516ZM1745.56 883h-12.03l-23.51-40.898V883h-11.22v-57.578h12.62l22.93 40.195v-40.195h11.21V883Z"/><path fill="#fff" stroke="#1A76D2" stroke-width="2.453" d="M1506 1002.78v26.83c0 4.25 5.87 7.88 17.6 10.88 11.73 3.01 25.9 4.51 42.49 4.51 16.6 0 30.76-1.5 42.49-4.51 11.73-3 17.6-6.63 17.6-10.88v-26.83c0 4.25-5.87 7.87-17.6 10.88-11.73 3-25.89 4.5-42.49 4.5-16.59 0-30.76-1.5-42.49-4.5-11.73-3.01-17.6-6.63-17.6-10.88Z"/><path fill="#fff" stroke="#1A76D2" stroke-width="2.453" d="M1626.18 1002.84c0 4.25-5.87 7.88-17.6 10.88-11.73 3-25.89 4.51-42.49 4.51-16.59 0-30.76-1.51-42.49-4.51s-17.6-6.63-17.6-10.88c0-4.25 5.87-7.877 17.6-10.883 11.73-3.006 25.9-4.509 42.49-4.509 16.59 0 30.76 1.503 42.49 4.509 11.73 3.006 17.6 6.633 17.6 10.883Z"/><path fill="#1A76D2" fill-rule="evenodd" d="M1514.4 1007.03c-2.8-1.45-5.33-3.58-5.33-6.7l5.33 3.06c2.33.92 7.36 2.51 12.64 3.64 10.47 2.26 24.22 4.04 39.23 4.04 15 0 28.76-1.78 39.23-4.04 5.27-1.13 10.26-2.4 12.64-3.64l5.33-3.06c0 3.12-2.54 5.25-5.33 6.7-2.96 1.55-7.23 2.87-12.64 4.04-10.91 2.35-24 3.51-39.23 3.51-15.23 0-28.32-1.16-39.23-3.51-5.42-1.17-9.68-2.49-12.64-4.04Z" clip-rule="evenodd"/><path fill="#fff" stroke="#1A76D2" stroke-width="2.453" d="M1506 969.053v26.836c0 4.251 5.87 7.871 17.6 10.881 11.73 3 25.9 4.51 42.49 4.51 16.6 0 30.76-1.51 42.49-4.51 11.73-3.01 17.6-6.63 17.6-10.881v-26.836c0 4.25-5.87 7.876-17.6 10.881-11.73 3.004-25.89 4.506-42.49 4.506-16.59 0-30.76-1.502-42.49-4.506-11.73-3.005-17.6-6.631-17.6-10.881Z"/><path fill="#fff" stroke="#1A76D2" stroke-width="2.453" d="M1626.18 969.115c0 4.25-5.87 7.876-17.6 10.881-11.73 3.004-25.89 4.506-42.49 4.506-16.59 0-30.76-1.502-42.49-4.506-11.73-3.005-17.6-6.632-17.6-10.881 0-4.249 5.87-7.876 17.6-10.882 11.73-3.006 25.9-4.509 42.49-4.509 16.59 0 30.76 1.503 42.49 4.509 11.73 3.005 17.6 6.633 17.6 10.882Z"/><path fill="#1A76D2" fill-rule="evenodd" d="M1514.4 973.922c-2.8-1.453-5.33-3.583-5.33-6.708l5.33 3.066c2.33.92 7.36 2.504 12.64 3.642 10.47 2.257 24.22 4.038 39.23 4.038 15 0 28.76-1.781 39.23-4.038 5.27-1.138 10.26-2.403 12.64-3.642l5.33-3.066c0 3.124-2.54 5.255-5.33 6.708-2.96 1.543-7.23 2.87-12.64 4.038-10.91 2.352-24 3.513-39.23 3.513-15.23 0-28.32-1.161-39.23-3.513-5.42-1.168-9.68-2.495-12.64-4.038Z" clip-rule="evenodd"/><path fill="#fff" stroke="#1A76D2" stroke-width="2.453" d="M1506 935.329v26.836c0 4.249 5.87 7.876 17.6 10.88 11.73 3.004 25.9 4.507 42.49 4.507 16.6 0 30.76-1.503 42.49-4.507 11.73-3.004 17.6-6.631 17.6-10.88v-26.836c0 4.249-5.87 7.876-17.6 10.88-11.73 3.005-25.89 4.507-42.49 4.507-16.59 0-30.76-1.502-42.49-4.507-11.73-3.004-17.6-6.631-17.6-10.88Z"/><path fill="#fff" stroke="#1A76D2" stroke-width="2.453" d="M1626.18 935.391c0 4.249-5.87 7.876-17.6 10.88-11.73 3.005-25.89 4.507-42.49 4.507-16.59 0-30.76-1.502-42.49-4.507-11.73-3.004-17.6-6.631-17.6-10.88 0-4.249 5.87-7.877 17.6-10.882 11.73-3.006 25.9-4.509 42.49-4.509 16.59 0 30.76 1.503 42.49 4.509 11.73 3.005 17.6 6.633 17.6 10.882ZM1642 1029.78v26.83c0 4.25 5.87 7.88 17.6 10.88 11.73 3.01 25.9 4.51 42.49 4.51 16.6 0 30.76-1.5 42.49-4.51 11.73-3 17.6-6.63 17.6-10.88v-26.83c0 4.25-5.87 7.87-17.6 10.88-11.73 3-25.89 4.5-42.49 4.5-16.59 0-30.76-1.5-42.49-4.5-11.73-3.01-17.6-6.63-17.6-10.88Z"/><path fill="#fff" stroke="#1A76D2" stroke-width="2.453" d="M1762.18 1029.84c0 4.25-5.87 7.88-17.6 10.88-11.73 3-25.89 4.51-42.49 4.51-16.59 0-30.76-1.51-42.49-4.51s-17.6-6.63-17.6-10.88c0-4.25 5.87-7.88 17.6-10.88 11.73-3.01 25.9-4.51 42.49-4.51 16.59 0 30.76 1.5 42.49 4.51 11.73 3 17.6 6.63 17.6 10.88Z"/><path fill="#1A76D2" fill-rule="evenodd" d="M1650.4 1034.03c-2.8-1.45-5.33-3.58-5.33-6.7l5.33 3.06c2.33.92 7.36 2.51 12.64 3.64 10.47 2.26 24.22 4.04 39.23 4.04 15 0 28.76-1.78 39.23-4.04 5.27-1.13 10.26-2.4 12.64-3.64l5.33-3.06c0 3.12-2.54 5.25-5.33 6.7-2.96 1.55-7.23 2.87-12.64 4.04-10.91 2.35-24 3.51-39.23 3.51-15.23 0-28.32-1.16-39.23-3.51-5.42-1.17-9.68-2.49-12.64-4.04Z" clip-rule="evenodd"/><path fill="#fff" stroke="#1A76D2" stroke-width="2.453" d="M1642 996.053v26.837c0 4.25 5.87 7.87 17.6 10.88 11.73 3 25.9 4.51 42.49 4.51 16.6 0 30.76-1.51 42.49-4.51 11.73-3.01 17.6-6.63 17.6-10.88v-26.837c0 4.247-5.87 7.877-17.6 10.877-11.73 3.01-25.89 4.51-42.49 4.51-16.59 0-30.76-1.5-42.49-4.51-11.73-3-17.6-6.63-17.6-10.877Z"/><path fill="#fff" stroke="#1A76D2" stroke-width="2.453" d="M1762.18 996.115c0 4.245-5.87 7.875-17.6 10.885-11.73 3-25.89 4.5-42.49 4.5-16.59 0-30.76-1.5-42.49-4.5-11.73-3.01-17.6-6.64-17.6-10.885 0-4.249 5.87-7.876 17.6-10.882 11.73-3.006 25.9-4.509 42.49-4.509 16.59 0 30.76 1.503 42.49 4.509 11.73 3.005 17.6 6.633 17.6 10.882Z"/><path fill="#1A76D2" fill-rule="evenodd" d="M1650.4 1000.92c-2.8-1.451-5.33-3.581-5.33-6.706l5.33 3.066c2.33.92 7.36 2.504 12.64 3.64 10.47 2.26 24.22 4.04 39.23 4.04 15 0 28.76-1.78 39.23-4.04 5.27-1.136 10.26-2.401 12.64-3.64l5.33-3.066c0 3.124-2.54 5.255-5.33 6.706-2.96 1.55-7.23 2.87-12.64 4.04-10.91 2.35-24 3.51-39.23 3.51-15.23 0-28.32-1.16-39.23-3.51-5.42-1.17-9.68-2.49-12.64-4.04Z" clip-rule="evenodd"/><path fill="#fff" stroke="#1A76D2" stroke-width="2.453" d="M1642 962.329v26.836c0 4.249 5.87 7.876 17.6 10.885 11.73 3 25.9 4.5 42.49 4.5 16.6 0 30.76-1.5 42.49-4.5 11.73-3.009 17.6-6.636 17.6-10.885v-26.836c0 4.249-5.87 7.876-17.6 10.88-11.73 3.005-25.89 4.507-42.49 4.507-16.59 0-30.76-1.502-42.49-4.507-11.73-3.004-17.6-6.631-17.6-10.88Z"/><path fill="#fff" stroke="#1A76D2" stroke-width="2.453" d="M1762.18 962.391c0 4.249-5.87 7.876-17.6 10.88-11.73 3.005-25.89 4.507-42.49 4.507-16.59 0-30.76-1.502-42.49-4.507-11.73-3.004-17.6-6.631-17.6-10.88 0-4.249 5.87-7.877 17.6-10.882 11.73-3.006 25.9-4.509 42.49-4.509 16.59 0 30.76 1.503 42.49 4.509 11.73 3.005 17.6 6.633 17.6 10.882ZM1778 969.778v26.835c0 4.247 5.87 7.877 17.6 10.877 11.73 3.01 25.9 4.51 42.49 4.51 16.6 0 30.76-1.5 42.49-4.51 11.73-3 17.6-6.63 17.6-10.877v-26.835c0 4.249-5.87 7.876-17.6 10.88-11.73 3.004-25.89 4.506-42.49 4.506-16.59 0-30.76-1.502-42.49-4.506-11.73-3.004-17.6-6.631-17.6-10.88Z"/><path fill="#fff" stroke="#1A76D2" stroke-width="2.453" d="M1898.18 969.84c0 4.249-5.87 7.876-17.6 10.88-11.73 3.004-25.89 4.506-42.49 4.506-16.59 0-30.76-1.502-42.49-4.506-11.73-3.005-17.6-6.631-17.6-10.88 0-4.25 5.87-7.877 17.6-10.883 11.73-3.006 25.9-4.509 42.49-4.509 16.59 0 30.76 1.503 42.49 4.509 11.73 3.006 17.6 6.633 17.6 10.883Z"/><path fill="#1A76D2" fill-rule="evenodd" d="M1786.4 974.033c-2.8-1.453-5.33-3.583-5.33-6.708l5.33 3.066c2.33.92 7.36 2.504 12.64 3.642 10.47 2.257 24.22 4.038 39.23 4.038 15 0 28.76-1.781 39.23-4.038 5.27-1.138 10.26-2.403 12.64-3.642l5.33-3.066c0 3.125-2.54 5.255-5.33 6.708-2.96 1.543-7.23 2.87-12.64 4.038-10.91 2.353-24 3.513-39.23 3.513-15.23 0-28.32-1.16-39.23-3.513-5.42-1.168-9.68-2.495-12.64-4.038Z" clip-rule="evenodd"/><path fill="#fff" stroke="#1A76D2" stroke-width="2.453" d="M1778 936.053v26.836c0 4.249 5.87 7.876 17.6 10.88 11.73 3.005 25.9 4.507 42.49 4.507 16.6 0 30.76-1.502 42.49-4.507 11.73-3.004 17.6-6.631 17.6-10.88v-26.836c0 4.25-5.87 7.876-17.6 10.881-11.73 3.004-25.89 4.506-42.49 4.506-16.59 0-30.76-1.502-42.49-4.506-11.73-3.005-17.6-6.631-17.6-10.881Z"/><path fill="#fff" stroke="#1A76D2" stroke-width="2.453" d="M1898.18 936.115c0 4.25-5.87 7.876-17.6 10.881-11.73 3.004-25.89 4.506-42.49 4.506-16.59 0-30.76-1.502-42.49-4.506-11.73-3.005-17.6-6.632-17.6-10.881 0-4.249 5.87-7.876 17.6-10.882 11.73-3.006 25.9-4.509 42.49-4.509 16.59 0 30.76 1.503 42.49 4.509 11.73 3.005 17.6 6.633 17.6 10.882Z"/><path fill="#1A76D2" fill-rule="evenodd" d="M1786.4 940.922c-2.8-1.453-5.33-3.583-5.33-6.708l5.33 3.066c2.33.92 7.36 2.504 12.64 3.642 10.47 2.257 24.22 4.038 39.23 4.038 15 0 28.76-1.781 39.23-4.038 5.27-1.138 10.26-2.403 12.64-3.642l5.33-3.066c0 3.124-2.54 5.255-5.33 6.708-2.96 1.543-7.23 2.87-12.64 4.038-10.91 2.352-24 3.513-39.23 3.513-15.23 0-28.32-1.161-39.23-3.513-5.42-1.168-9.68-2.495-12.64-4.038Z" clip-rule="evenodd"/><path fill="#fff" stroke="#1A76D2" stroke-width="2.453" d="M1778 902.329v26.836c0 4.249 5.87 7.876 17.6 10.88 11.73 3.004 25.9 4.507 42.49 4.507 16.6 0 30.76-1.503 42.49-4.507 11.73-3.004 17.6-6.631 17.6-10.88v-26.836c0 4.249-5.87 7.876-17.6 10.88-11.73 3.005-25.89 4.507-42.49 4.507-16.59 0-30.76-1.502-42.49-4.507-11.73-3.004-17.6-6.631-17.6-10.88Z"/><path fill="#fff" stroke="#1A76D2" stroke-width="2.453" d="M1898.18 902.391c0 4.249-5.87 7.876-17.6 10.88-11.73 3.005-25.89 4.507-42.49 4.507-16.59 0-30.76-1.502-42.49-4.507-11.73-3.004-17.6-6.631-17.6-10.88 0-4.249 5.87-7.877 17.6-10.882 11.73-3.006 25.9-4.509 42.49-4.509 16.59 0 30.76 1.503 42.49 4.509 11.73 3.005 17.6 6.633 17.6 10.882Z"/><text xml:space="preserve" x="240.147" y="919.779" style="font-style:normal;font-variant:normal;font-weight:400;font-stretch:normal;font-size:42.66666667px;font-family:&quot;Noto Sans JP&quot;;-inkscape-font-specification:&quot;Noto Sans JP, @wght=700&quot;;font-variant-ligatures:normal;font-variant-caps:normal;font-variant-numeric:normal;font-variant-east-asian:normal;text-align:center;text-anchor:middle;fill:#f54337;font-variation-settings:&quot;wght&quot;700"><tspan x="240.147" y="919.779">プライベート</tspan><tspan x="240.147" y="973.113">キャッシュ</tspan></text><text xml:space="preserve" x="338.041" y="813.712" style="font-style:normal;font-variant:normal;font-weight:400;font-stretch:normal;font-size:32px;font-family:&quot;Noto Sans JP&quot;;-inkscape-font-specification:&quot;Noto Sans JP, @wght=700&quot;;font-variant-ligatures:normal;font-variant-caps:normal;font-variant-numeric:normal;font-variant-east-asian:normal;text-align:center;text-anchor:middle;fill:#1a76d2;fill-opacity:1;font-variation-settings:&quot;wght&quot;700"><tspan x="338.041" y="813.712">キャッシュ</tspan></text><text xml:space="preserve" x="923.748" y="846.196" style="font-style:normal;font-variant:normal;font-weight:400;font-stretch:normal;font-size:32px;font-family:&quot;Noto Sans JP&quot;;-inkscape-font-specification:&quot;Noto Sans JP, @wght=700&quot;;font-variant-ligatures:normal;font-variant-caps:normal;font-variant-numeric:normal;font-variant-east-asian:normal;text-align:center;text-anchor:middle;fill:#1a76d2;fill-opacity:1;font-variation-settings:&quot;wght&quot;700"><tspan x="923.748" y="846.196">キャッシュ</tspan></text><text xml:space="preserve" x="1613.859" y="572.49" style="font-style:normal;font-variant:normal;font-weight:400;font-stretch:normal;font-size:32px;font-family:&quot;Noto Sans JP&quot;;-inkscape-font-specification:&quot;Noto Sans JP, @wght=700&quot;;font-variant-ligatures:normal;font-variant-caps:normal;font-variant-numeric:normal;font-variant-east-asian:normal;text-align:center;text-anchor:middle;fill:#1a76d2;fill-opacity:1;font-variation-settings:&quot;wght&quot;700"><tspan x="1613.859" y="572.49">キャッシュ</tspan></text><text xml:space="preserve" x="1559.379" y="1079.145" style="font-style:normal;font-variant:normal;font-weight:400;font-stretch:normal;font-size:32px;font-family:&quot;Noto Sans JP&quot;;-inkscape-font-specification:&quot;Noto Sans JP, @wght=700&quot;;font-variant-ligatures:normal;font-variant-caps:normal;font-variant-numeric:normal;font-variant-east-asian:normal;text-align:center;text-anchor:middle;fill:#1a76d2;fill-opacity:1;font-variation-settings:&quot;wght&quot;700"><tspan x="1559.379" y="1079.145">キャッシュ</tspan></text><text xml:space="preserve" x="1705.253" y="1109.751" style="font-style:normal;font-variant:normal;font-weight:400;font-stretch:normal;font-size:32px;font-family:&quot;Noto Sans JP&quot;;-inkscape-font-specification:&quot;Noto Sans JP, @wght=700&quot;;font-variant-ligatures:normal;font-variant-caps:normal;font-variant-numeric:normal;font-variant-east-asian:normal;text-align:center;text-anchor:middle;fill:#1a76d2;fill-opacity:1;font-variation-settings:&quot;wght&quot;700"><tspan x="1705.253" y="1109.751">キャッシュ</tspan></text><text xml:space="preserve" x="1842.972" y="1042.258" style="font-style:normal;font-variant:normal;font-weight:400;font-stretch:normal;font-size:32px;font-family:&quot;Noto Sans JP&quot;;-inkscape-font-specification:&quot;Noto Sans JP, @wght=700&quot;;font-variant-ligatures:normal;font-variant-caps:normal;font-variant-numeric:normal;font-variant-east-asian:normal;text-align:center;text-anchor:middle;fill:#1a76d2;fill-opacity:1;font-variation-settings:&quot;wght&quot;700"><tspan x="1842.972" y="1042.258">キャッシュ</tspan></text><text xml:space="preserve" x="2409.684" y="776.199" style="font-style:normal;font-variant:normal;font-weight:400;font-stretch:normal;font-size:32px;font-family:&quot;Noto Sans JP&quot;;-inkscape-font-specification:&quot;Noto Sans JP, @wght=700&quot;;font-variant-ligatures:normal;font-variant-caps:normal;font-variant-numeric:normal;font-variant-east-asian:normal;text-align:center;text-anchor:middle;fill:#1a76d2;fill-opacity:1;font-variation-settings:&quot;wght&quot;700"><tspan x="2409.684" y="776.199">キャッシュ</tspan></text><text xml:space="preserve" x="2311.052" y="494.807" style="font-style:normal;font-variant:normal;font-weight:400;font-stretch:normal;font-size:32px;font-family:&quot;Noto Sans JP&quot;;-inkscape-font-specification:&quot;Noto Sans JP, @wght=700&quot;;font-variant-ligatures:normal;font-variant-caps:normal;font-variant-numeric:normal;font-variant-east-asian:normal;text-align:center;text-anchor:middle;fill:#000;fill-opacity:1;font-variation-settings:&quot;wght&quot;700"><tspan x="2311.052" y="494.807">オリジン</tspan></text><text xml:space="preserve" x="1695.325" y="213.096" style="font-style:normal;font-variant:normal;font-weight:400;font-stretch:normal;font-size:32px;font-family:&quot;Noto Sans JP&quot;;-inkscape-font-specification:&quot;Noto Sans JP, @wght=700&quot;;font-variant-ligatures:normal;font-variant-caps:normal;font-variant-numeric:normal;font-variant-east-asian:normal;text-align:center;text-anchor:middle;fill:#000;fill-opacity:1;font-variation-settings:&quot;wght&quot;700"><tspan x="1695.325" y="213.096">リバースプロキシ－</tspan></text><text xml:space="preserve" x="825.262" y="482.417" style="font-style:normal;font-variant:normal;font-weight:400;font-stretch:normal;font-size:32px;font-family:&quot;Noto Sans JP&quot;;-inkscape-font-specification:&quot;Noto Sans JP, @wght=700&quot;;font-variant-ligatures:normal;font-variant-caps:normal;font-variant-numeric:normal;font-variant-east-asian:normal;text-align:center;text-anchor:middle;fill:#000;fill-opacity:1;font-variation-settings:&quot;wght&quot;700"><tspan x="825.262" y="482.417">共有キャッシュ</tspan></text><text xml:space="preserve" x="229.895" y="529.605" style="font-style:normal;font-variant:normal;font-weight:400;font-stretch:normal;font-size:32px;font-family:&quot;Noto Sans JP&quot;;-inkscape-font-specification:&quot;Noto Sans JP, @wght=700&quot;;font-variant-ligatures:normal;font-variant-caps:normal;font-variant-numeric:normal;font-variant-east-asian:normal;text-align:center;text-anchor:middle;fill:#000;fill-opacity:1;font-variation-settings:&quot;wght&quot;700"><tspan x="229.895" y="529.605" style="font-weight:400;-inkscape-font-specification:&quot;Noto Sans JP, @wght=700&quot;;font-family:&quot;Noto Sans JP&quot;;font-style:normal;font-stretch:normal;font-variant:normal;font-size:32px;font-variant-ligatures:normal;font-variant-caps:normal;font-variant-numeric:normal;font-variant-east-asian:normal;font-variation-settings:&quot;wght&quot;700">ブラウザー</tspan></text><text xml:space="preserve" x="830.938" y="930.142" style="font-style:normal;font-variant:normal;font-weight:400;font-stretch:normal;font-size:42.66666667px;font-family:&quot;Noto Sans JP&quot;;-inkscape-font-specification:&quot;Noto Sans JP, @wght=700&quot;;font-variant-ligatures:normal;font-variant-caps:normal;font-variant-numeric:normal;font-variant-east-asian:normal;text-align:center;text-anchor:middle;fill:#f54337;font-variation-settings:&quot;wght&quot;700"><tspan x="830.938" y="930.142">（プロキシーの）共有</tspan><tspan x="830.938" y="983.475">キャッシュ</tspan></text><text xml:space="preserve" x="1672.011" y="1195.01" style="font-style:normal;font-variant:normal;font-weight:400;font-stretch:normal;font-size:42.66666667px;font-family:&quot;Noto Sans JP&quot;;-inkscape-font-specification:&quot;Noto Sans JP, @wght=700&quot;;font-variant-ligatures:normal;font-variant-caps:normal;font-variant-numeric:normal;font-variant-east-asian:normal;text-align:center;text-anchor:middle;fill:#f54337;font-variation-settings:&quot;wght&quot;700"><tspan x="1672.011" y="1195.01">（管理された）共有</tspan><tspan x="1672.011" y="1248.344">キャッシュ</tspan></text></svg>