<?xml version="1.0" encoding="UTF-8" standalone="no"?>
<svg
   width="2560"
   height="1440"
   viewBox="0 0 2560 1440"
   fill="none"
   version="1.1"
   id="svg94"
   xmlns="http://www.w3.org/2000/svg"
   xmlns:svg="http://www.w3.org/2000/svg">
  <defs
     id="defs94" />
  <rect
     width="2560"
     height="1440"
     fill="white"
     id="rect1" />
  <rect
     x="2220.27"
     y="660.494"
     width="185.455"
     height="4.53766"
     fill="#333333"
     id="rect2" />
  <rect
     x="2220.27"
     y="614.21"
     width="185.455"
     height="4.53765"
     fill="#333333"
     id="rect3" />
  <rect
     x="2220.27"
     y="568.834"
     width="185.455"
     height="4.53765"
     fill="#333333"
     id="rect4" />
  <rect
     x="2214.15"
     y="664.185"
     width="197.7"
     height="43.0769"
     rx="3.90932"
     fill="white"
     stroke="#616161"
     stroke-width="2.2996"
     id="rect5" />
  <rect
     x="2214.15"
     y="618.264"
     width="197.7"
     height="43.0769"
     rx="3.90932"
     fill="white"
     stroke="#616161"
     stroke-width="2.2996"
     id="rect6" />
  <rect
     x="2214.15"
     y="572.343"
     width="197.7"
     height="43.0769"
     rx="3.90932"
     fill="white"
     stroke="#616161"
     stroke-width="2.2996"
     id="rect7" />
  <rect
     x="2214.15"
     y="526.422"
     width="197.7"
     height="43.0769"
     rx="3.90932"
     fill="white"
     stroke="#616161"
     stroke-width="2.2996"
     id="rect8" />
  <path
     d="M2364.58 685.67C2364.58 691.549 2359.8 696.318 2353.91 696.318C2348.01 696.318 2343.24 691.549 2343.24 685.67C2343.24 679.791 2348.01 675.022 2353.91 675.022C2359.8 675.022 2364.58 679.791 2364.58 685.67Z"
     fill="white"
     stroke="#616161"
     stroke-width="2.2996"
     id="path8" />
  <path
     d="M2396.4 685.67C2396.4 691.549 2391.62 696.318 2385.73 696.318C2379.83 696.318 2375.06 691.549 2375.06 685.67C2375.06 679.791 2379.83 675.022 2385.73 675.022C2391.62 675.022 2396.4 679.791 2396.4 685.67Z"
     fill="white"
     stroke="#616161"
     stroke-width="2.2996"
     id="path9" />
  <path
     d="M2253.24 513.488L2217.55 528.364H2407.55L2371.99 513.497C2369.67 512.527 2367.19 512.028 2364.67 512.028H2260.54C2258.03 512.028 2255.55 512.524 2253.24 513.488Z"
     fill="white"
     stroke="#616161"
     stroke-width="2.2996"
     id="path10" />
  <line
     y1="-2.13542"
     x2="114"
     y2="-2.13542"
     transform="matrix(-1 0 0 1 2082.12 627)"
     stroke="#333333"
     stroke-width="4.27083"
     id="line11" />
  <line
     x1="1425"
     y1="621.135"
     x2="1125"
     y2="621.135"
     stroke="#333333"
     stroke-width="4.27083"
     id="line12" />
  <line
     x1="627"
     y1="621.135"
     x2="427"
     y2="621.135"
     stroke="#333333"
     stroke-width="4.27083"
     id="line13" />
  <path
     d="M341.19 712.191H115.906V547.56H341.19V712.191Z"
     fill="white"
     stroke="#616161"
     stroke-width="1.73295"
     id="path13" />
  <path
     fill-rule="evenodd"
     clip-rule="evenodd"
     d="M115.906 571.822H341.19V583.952H115.906V571.822Z"
     fill="#616161"
     id="path14" />
  <rect
     x="151.792"
     y="553.626"
     width="171.562"
     height="12.1307"
     rx="2.63904"
     stroke="#616161"
     stroke-width="1.73295"
     id="rect14" />
  <circle
     cx="133.234"
     cy="559.691"
     r="4.33238"
     stroke="#616161"
     stroke-width="1.73295"
     id="circle14" />
  <mask
     id="path-19-inside-1_4140_2099"
     fill="white">
    <path
       d="M150.566 583.952H308.265V711.325H150.566V583.952Z"
       id="path15" />
  </mask>
  <path
     d="M150.566 583.952H308.265V711.325H150.566V583.952Z"
     fill="#F5F7F9"
     id="path16" />
  <path
     d="M306.532 583.952V711.325H309.998V583.952H306.532ZM152.299 711.325V583.952H148.833V711.325H152.299Z"
     fill="#616161"
     mask="url(#path-19-inside-1_4140_2099)"
     id="path17" />
  <rect
     x="-2.2732"
     y="2.2732"
     width="63.6496"
     height="63.6496"
     rx="14.1536"
     transform="matrix(-1 0 0 1 793.899 679.763)"
     fill="white"
     stroke="#616161"
     stroke-width="4.5464"
     id="rect19" />
  <rect
     x="-2.2732"
     y="2.2732"
     width="63.6496"
     height="63.6496"
     rx="14.1536"
     transform="matrix(-1 0 0 1 793.899 593.382)"
     fill="white"
     stroke="#616161"
     stroke-width="4.5464"
     id="rect20" />
  <rect
     x="-2.2732"
     y="2.2732"
     width="63.6496"
     height="63.6496"
     rx="14.1536"
     transform="matrix(-1 0 0 1 793.899 507)"
     fill="white"
     stroke="#616161"
     stroke-width="4.5464"
     id="rect21" />
  <path
     d="M850.48 651.348H841.416C833.856 651.348 827.727 657.477 827.727 665.037V695.626C827.727 703.186 821.599 709.315 814.038 709.315H798.197"
     stroke="#616161"
     stroke-width="4.5464"
     id="path21" />
  <line
     y1="-2.2732"
     x2="53.387"
     y2="-2.2732"
     transform="matrix(-1 0 0 1 851.617 629.753)"
     stroke="#616161"
     stroke-width="4.5464"
     id="line21" />
  <path
     d="M850.48 603.611H841.416C833.856 603.611 827.727 597.482 827.727 589.922V558.197C827.727 550.637 821.599 544.508 814.038 544.508H798.197"
     stroke="#616161"
     stroke-width="4.5464"
     id="path22" />
  <rect
     x="-2.2732"
     y="2.2732"
     width="63.6496"
     height="86.3815"
     rx="14.1536"
     transform="matrix(-1 0 0 1 912.993 582.016)"
     fill="white"
     stroke="#616161"
     stroke-width="4.5464"
     id="rect22" />
  <path
     d="M278 736.777V763.613C278 767.862 283.867 771.489 295.6 774.493C307.334 777.498 321.497 779 338.09 779C354.685 779 368.849 777.498 380.582 774.493C392.315 771.489 398.181 767.862 398.181 763.613V736.777C398.181 741.027 392.315 744.653 380.582 747.658C368.849 750.662 354.685 752.164 338.09 752.164C321.497 752.164 307.334 750.662 295.6 747.658C283.867 744.653 278 741.027 278 736.777Z"
     fill="white"
     stroke="#1A76D2"
     stroke-width="2.45267"
     id="path26" />
  <path
     d="M398.181 736.84C398.181 741.089 392.315 744.716 380.582 747.72C368.849 750.724 354.685 752.226 338.09 752.226C321.497 752.226 307.334 750.724 295.6 747.72C283.867 744.715 278 741.089 278 736.84C278 732.59 283.867 728.963 295.6 725.957C307.335 722.951 321.498 721.448 338.09 721.448C354.684 721.448 368.848 722.951 380.582 725.957C392.315 728.963 398.181 732.59 398.181 736.84Z"
     fill="white"
     stroke="#1A76D2"
     stroke-width="2.45267"
     id="path27" />
  <path
     fill-rule="evenodd"
     clip-rule="evenodd"
     d="M286.395 741.033C283.604 739.58 281.066 737.45 281.066 734.325L286.395 737.391C288.731 738.311 293.763 739.895 299.038 741.033C309.508 743.29 323.263 745.071 338.268 745.071C353.275 745.071 367.03 743.29 377.499 741.033C382.774 739.895 387.761 738.63 390.141 737.391L395.47 734.325C395.47 737.45 392.932 739.58 390.141 741.033C387.177 742.576 382.915 743.903 377.499 745.071C366.589 747.424 353.501 748.584 338.268 748.584C323.037 748.584 309.949 747.424 299.038 745.071C293.622 743.903 289.36 742.576 286.395 741.033Z"
     fill="#1A76D2"
     id="path28" />
  <path
     d="M278 703.054V729.889C278 734.138 283.867 737.765 295.6 740.769C307.334 743.774 321.497 745.276 338.09 745.276C354.685 745.276 368.849 743.774 380.582 740.769C392.315 737.765 398.181 734.138 398.181 729.889V703.054C398.181 707.303 392.315 710.929 380.582 713.934C368.849 716.938 354.685 718.44 338.09 718.44C321.497 718.44 307.334 716.938 295.6 713.934C283.867 710.929 278 707.303 278 703.054Z"
     fill="white"
     stroke="#1A76D2"
     stroke-width="2.45267"
     id="path29" />
  <path
     d="M398.181 703.115C398.181 707.365 392.315 710.991 380.582 713.996C368.849 717 354.685 718.502 338.09 718.502C321.497 718.502 307.334 717 295.6 713.996C283.867 710.991 278 707.364 278 703.115C278 698.866 283.867 695.239 295.6 692.233C307.335 689.227 321.498 687.724 338.09 687.724C354.684 687.724 368.848 689.227 380.582 692.233C392.315 695.238 398.181 698.866 398.181 703.115Z"
     fill="white"
     stroke="#1A76D2"
     stroke-width="2.45267"
     id="path30" />
  <path
     fill-rule="evenodd"
     clip-rule="evenodd"
     d="M286.395 707.922C283.604 706.469 281.066 704.339 281.066 701.214L286.395 704.28C288.731 705.2 293.763 706.784 299.038 707.922C309.508 710.179 323.263 711.96 338.268 711.96C353.275 711.96 367.03 710.179 377.499 707.922C382.774 706.784 387.761 705.519 390.141 704.28L395.47 701.214C395.47 704.338 392.932 706.469 390.141 707.922C387.177 709.465 382.915 710.792 377.499 711.96C366.589 714.312 353.501 715.473 338.268 715.473C323.037 715.473 309.949 714.312 299.038 711.96C293.622 710.792 289.36 709.465 286.395 707.922Z"
     fill="#1A76D2"
     id="path31" />
  <path
     d="M278 669.329V696.165C278 700.414 283.867 704.041 295.6 707.045C307.334 710.049 321.497 711.552 338.09 711.552C354.685 711.552 368.849 710.049 380.582 707.045C392.315 704.041 398.181 700.414 398.181 696.165V669.329C398.181 673.578 392.315 677.205 380.582 680.209C368.849 683.214 354.685 684.716 338.09 684.716C321.497 684.716 307.334 683.214 295.6 680.209C283.867 677.205 278 673.578 278 669.329Z"
     fill="white"
     stroke="#1A76D2"
     stroke-width="2.45267"
     id="path32" />
  <path
     d="M398.181 669.391C398.181 673.64 392.315 677.267 380.582 680.271C368.849 683.276 354.685 684.778 338.09 684.778C321.497 684.778 307.334 683.276 295.6 680.271C283.867 677.267 278 673.64 278 669.391C278 665.142 283.867 661.514 295.6 658.509C307.335 655.503 321.498 654 338.09 654C354.684 654 368.848 655.503 380.582 658.509C392.315 661.514 398.181 665.142 398.181 669.391Z"
     fill="white"
     stroke="#1A76D2"
     stroke-width="2.45267"
     id="path33" />
  <path
     d="M861 771.777V798.613C861 802.862 866.867 806.489 878.6 809.493C890.334 812.498 904.497 814 921.09 814C937.685 814 951.849 812.498 963.582 809.493C975.315 806.489 981.181 802.862 981.181 798.613V771.777C981.181 776.027 975.315 779.653 963.582 782.658C951.849 785.662 937.685 787.164 921.09 787.164C904.497 787.164 890.334 785.662 878.6 782.658C866.867 779.653 861 776.027 861 771.777Z"
     fill="white"
     stroke="#1A76D2"
     stroke-width="2.45267"
     id="path35" />
  <path
     d="M981.181 771.84C981.181 776.089 975.315 779.716 963.582 782.72C951.849 785.724 937.685 787.226 921.09 787.226C904.497 787.226 890.334 785.724 878.6 782.72C866.867 779.715 861 776.089 861 771.84C861 767.59 866.867 763.963 878.6 760.957C890.335 757.951 904.498 756.448 921.09 756.448C937.684 756.448 951.848 757.951 963.582 760.957C975.315 763.963 981.181 767.59 981.181 771.84Z"
     fill="white"
     stroke="#1A76D2"
     stroke-width="2.45267"
     id="path36" />
  <path
     fill-rule="evenodd"
     clip-rule="evenodd"
     d="M869.395 776.033C866.604 774.58 864.066 772.45 864.066 769.325L869.395 772.391C871.731 773.311 876.763 774.895 882.038 776.033C892.508 778.29 906.263 780.071 921.268 780.071C936.275 780.071 950.03 778.29 960.499 776.033C965.774 774.895 970.761 773.63 973.141 772.391L978.47 769.325C978.47 772.45 975.932 774.58 973.141 776.033C970.177 777.576 965.915 778.903 960.499 780.071C949.589 782.424 936.501 783.584 921.268 783.584C906.037 783.584 892.949 782.424 882.038 780.071C876.622 778.903 872.36 777.576 869.395 776.033Z"
     fill="#1A76D2"
     id="path37" />
  <path
     d="M861 738.054V764.889C861 769.138 866.867 772.765 878.6 775.769C890.334 778.774 904.497 780.276 921.09 780.276C937.685 780.276 951.849 778.774 963.582 775.769C975.315 772.765 981.181 769.138 981.181 764.889V738.054C981.181 742.303 975.315 745.929 963.582 748.934C951.849 751.938 937.685 753.44 921.09 753.44C904.497 753.44 890.334 751.938 878.6 748.934C866.867 745.929 861 742.303 861 738.054Z"
     fill="white"
     stroke="#1A76D2"
     stroke-width="2.45267"
     id="path38" />
  <path
     d="M981.181 738.115C981.181 742.365 975.315 745.991 963.582 748.996C951.849 752 937.685 753.502 921.09 753.502C904.497 753.502 890.334 752 878.6 748.996C866.867 745.991 861 742.364 861 738.115C861 733.866 866.867 730.239 878.6 727.233C890.335 724.227 904.498 722.724 921.09 722.724C937.684 722.724 951.848 724.227 963.582 727.233C975.315 730.238 981.181 733.866 981.181 738.115Z"
     fill="white"
     stroke="#1A76D2"
     stroke-width="2.45267"
     id="path39" />
  <path
     fill-rule="evenodd"
     clip-rule="evenodd"
     d="M869.395 742.922C866.604 741.469 864.066 739.339 864.066 736.214L869.395 739.28C871.731 740.2 876.763 741.784 882.038 742.922C892.508 745.179 906.263 746.96 921.268 746.96C936.275 746.96 950.03 745.179 960.499 742.922C965.774 741.784 970.761 740.519 973.141 739.28L978.47 736.214C978.47 739.338 975.932 741.469 973.141 742.922C970.177 744.465 965.915 745.792 960.499 746.96C949.589 749.312 936.501 750.473 921.268 750.473C906.037 750.473 892.949 749.312 882.038 746.96C876.622 745.792 872.36 744.465 869.395 742.922Z"
     fill="#1A76D2"
     id="path40" />
  <path
     d="M861 704.329V731.165C861 735.414 866.867 739.041 878.6 742.045C890.334 745.049 904.497 746.552 921.09 746.552C937.685 746.552 951.849 745.049 963.582 742.045C975.315 739.041 981.181 735.414 981.181 731.165V704.329C981.181 708.578 975.315 712.205 963.582 715.209C951.849 718.214 937.685 719.716 921.09 719.716C904.497 719.716 890.334 718.214 878.6 715.209C866.867 712.205 861 708.578 861 704.329Z"
     fill="white"
     stroke="#1A76D2"
     stroke-width="2.45267"
     id="path41" />
  <path
     d="M981.181 704.391C981.181 708.64 975.315 712.267 963.582 715.271C951.849 718.276 937.685 719.778 921.09 719.778C904.497 719.778 890.334 718.276 878.6 715.271C866.867 712.267 861 708.64 861 704.391C861 700.142 866.867 696.514 878.6 693.509C890.335 690.503 904.498 689 921.09 689C937.684 689 951.848 690.503 963.582 693.509C975.315 696.514 981.181 700.142 981.181 704.391Z"
     fill="white"
     stroke="#1A76D2"
     stroke-width="2.45267"
     id="path42" />
  <rect
     x="1714.8"
     y="414.036"
     width="63.6496"
     height="63.6496"
     rx="14.1536"
     fill="white"
     stroke="#616161"
     stroke-width="4.5464"
     id="rect44" />
  <rect
     x="1714.8"
     y="327.655"
     width="63.6496"
     height="63.6496"
     rx="14.1536"
     fill="white"
     stroke="#616161"
     stroke-width="4.5464"
     id="rect45" />
  <rect
     x="1714.8"
     y="241.273"
     width="63.6496"
     height="63.6496"
     rx="14.1536"
     fill="white"
     stroke="#616161"
     stroke-width="4.5464"
     id="rect46" />
  <path
     d="M1660.49 383.348H1669.55C1677.11 383.348 1683.24 389.477 1683.24 397.037V427.626C1683.24 435.186 1689.37 441.315 1696.93 441.315H1712.77"
     stroke="#616161"
     stroke-width="4.5464"
     id="path46" />
  <line
     x1="1659.35"
     y1="359.479"
     x2="1712.74"
     y2="359.479"
     stroke="#616161"
     stroke-width="4.5464"
     id="line46" />
  <path
     d="M1660.49 335.611H1669.55C1677.11 335.611 1683.24 329.482 1683.24 321.922V290.197C1683.24 282.637 1689.37 276.508 1696.93 276.508H1712.77"
     stroke="#616161"
     stroke-width="4.5464"
     id="path47" />
  <rect
     x="1595.7"
     y="316.289"
     width="63.6496"
     height="86.3815"
     rx="14.1536"
     fill="white"
     stroke="#616161"
     stroke-width="4.5464"
     id="rect47" />
  <path
     d="M1556 495.778V522.613C1556 526.862 1561.87 530.489 1573.6 533.494C1585.33 536.498 1599.5 538 1616.09 538C1632.69 538 1646.85 536.498 1658.58 533.494C1670.31 530.489 1676.18 526.862 1676.18 522.613V495.778C1676.18 500.027 1670.31 503.654 1658.58 506.658C1646.85 509.662 1632.69 511.164 1616.09 511.164C1599.5 511.164 1585.33 509.662 1573.6 506.658C1561.87 503.654 1556 500.027 1556 495.778Z"
     fill="white"
     stroke="#1A76D2"
     stroke-width="2.45267"
     id="path48" />
  <path
     d="M1676.18 495.84C1676.18 500.089 1670.31 503.716 1658.58 506.72C1646.85 509.724 1632.69 511.226 1616.09 511.226C1599.5 511.226 1585.33 509.724 1573.6 506.72C1561.87 503.715 1556 500.089 1556 495.84C1556 491.59 1561.87 487.963 1573.6 484.957C1585.33 481.951 1599.5 480.448 1616.09 480.448C1632.68 480.448 1646.85 481.951 1658.58 484.957C1670.31 487.963 1676.18 491.59 1676.18 495.84Z"
     fill="white"
     stroke="#1A76D2"
     stroke-width="2.45267"
     id="path49" />
  <path
     fill-rule="evenodd"
     clip-rule="evenodd"
     d="M1564.4 500.033C1561.6 498.58 1559.07 496.45 1559.07 493.325L1564.4 496.391C1566.73 497.311 1571.76 498.895 1577.04 500.033C1587.51 502.29 1601.26 504.071 1616.27 504.071C1631.27 504.071 1645.03 502.29 1655.5 500.033C1660.77 498.895 1665.76 497.63 1668.14 496.391L1673.47 493.325C1673.47 496.45 1670.93 498.58 1668.14 500.033C1665.18 501.576 1660.91 502.903 1655.5 504.071C1644.59 506.424 1631.5 507.584 1616.27 507.584C1601.04 507.584 1587.95 506.424 1577.04 504.071C1571.62 502.903 1567.36 501.576 1564.4 500.033Z"
     fill="#1A76D2"
     id="path50" />
  <path
     d="M1556 462.053V488.889C1556 493.138 1561.87 496.765 1573.6 499.769C1585.33 502.774 1599.5 504.276 1616.09 504.276C1632.69 504.276 1646.85 502.774 1658.58 499.769C1670.31 496.765 1676.18 493.138 1676.18 488.889V462.053C1676.18 466.303 1670.31 469.929 1658.58 472.934C1646.85 475.938 1632.69 477.44 1616.09 477.44C1599.5 477.44 1585.33 475.938 1573.6 472.934C1561.87 469.929 1556 466.303 1556 462.053Z"
     fill="white"
     stroke="#1A76D2"
     stroke-width="2.45267"
     id="path51" />
  <path
     d="M1676.18 462.115C1676.18 466.365 1670.31 469.991 1658.58 472.996C1646.85 476 1632.69 477.502 1616.09 477.502C1599.5 477.502 1585.33 476 1573.6 472.996C1561.87 469.991 1556 466.364 1556 462.115C1556 457.866 1561.87 454.239 1573.6 451.233C1585.33 448.227 1599.5 446.724 1616.09 446.724C1632.68 446.724 1646.85 448.227 1658.58 451.233C1670.31 454.238 1676.18 457.866 1676.18 462.115Z"
     fill="white"
     stroke="#1A76D2"
     stroke-width="2.45267"
     id="path52" />
  <path
     fill-rule="evenodd"
     clip-rule="evenodd"
     d="M1564.4 466.922C1561.6 465.469 1559.07 463.339 1559.07 460.214L1564.4 463.28C1566.73 464.2 1571.76 465.784 1577.04 466.922C1587.51 469.179 1601.26 470.96 1616.27 470.96C1631.27 470.96 1645.03 469.179 1655.5 466.922C1660.77 465.784 1665.76 464.519 1668.14 463.28L1673.47 460.214C1673.47 463.338 1670.93 465.469 1668.14 466.922C1665.18 468.465 1660.91 469.792 1655.5 470.96C1644.59 473.312 1631.5 474.473 1616.27 474.473C1601.04 474.473 1587.95 473.312 1577.04 470.96C1571.62 469.792 1567.36 468.465 1564.4 466.922Z"
     fill="#1A76D2"
     id="path53" />
  <path
     d="M1556 428.329V455.165C1556 459.414 1561.87 463.041 1573.6 466.045C1585.33 469.049 1599.5 470.552 1616.09 470.552C1632.69 470.552 1646.85 469.049 1658.58 466.045C1670.31 463.041 1676.18 459.414 1676.18 455.165V428.329C1676.18 432.578 1670.31 436.205 1658.58 439.209C1646.85 442.214 1632.69 443.716 1616.09 443.716C1599.5 443.716 1585.33 442.214 1573.6 439.209C1561.87 436.205 1556 432.578 1556 428.329Z"
     fill="white"
     stroke="#1A76D2"
     stroke-width="2.45267"
     id="path54" />
  <path
     d="M1676.18 428.391C1676.18 432.64 1670.31 436.267 1658.58 439.271C1646.85 442.276 1632.69 443.778 1616.09 443.778C1599.5 443.778 1585.33 442.276 1573.6 439.271C1561.87 436.267 1556 432.64 1556 428.391C1556 424.142 1561.87 420.514 1573.6 417.509C1585.33 414.503 1599.5 413 1616.09 413C1632.68 413 1646.85 414.503 1658.58 417.509C1670.31 420.514 1676.18 424.142 1676.18 428.391Z"
     fill="white"
     stroke="#1A76D2"
     stroke-width="2.45267"
     id="path55" />
  <path
     d="M2351 699.777V726.613C2351 730.862 2356.87 734.489 2368.6 737.493C2380.33 740.498 2394.5 742 2411.09 742C2427.69 742 2441.85 740.498 2453.58 737.493C2465.31 734.489 2471.18 730.862 2471.18 726.613V699.777C2471.18 704.027 2465.31 707.653 2453.58 710.658C2441.85 713.662 2427.69 715.164 2411.09 715.164C2394.5 715.164 2380.33 713.662 2368.6 710.658C2356.87 707.653 2351 704.027 2351 699.777Z"
     fill="white"
     stroke="#1A76D2"
     stroke-width="2.45267"
     id="path57" />
  <path
     d="M2471.18 699.84C2471.18 704.089 2465.31 707.716 2453.58 710.72C2441.85 713.724 2427.69 715.226 2411.09 715.226C2394.5 715.226 2380.33 713.724 2368.6 710.72C2356.87 707.715 2351 704.089 2351 699.84C2351 695.59 2356.87 691.963 2368.6 688.957C2380.33 685.951 2394.5 684.448 2411.09 684.448C2427.68 684.448 2441.85 685.951 2453.58 688.957C2465.31 691.963 2471.18 695.59 2471.18 699.84Z"
     fill="white"
     stroke="#1A76D2"
     stroke-width="2.45267"
     id="path58" />
  <path
     fill-rule="evenodd"
     clip-rule="evenodd"
     d="M2359.4 704.033C2356.6 702.58 2354.07 700.45 2354.07 697.325L2359.4 700.391C2361.73 701.311 2366.76 702.895 2372.04 704.033C2382.51 706.29 2396.26 708.071 2411.27 708.071C2426.27 708.071 2440.03 706.29 2450.5 704.033C2455.77 702.895 2460.76 701.63 2463.14 700.391L2468.47 697.325C2468.47 700.45 2465.93 702.58 2463.14 704.033C2460.18 705.576 2455.91 706.903 2450.5 708.071C2439.59 710.424 2426.5 711.584 2411.27 711.584C2396.04 711.584 2382.95 710.424 2372.04 708.071C2366.62 706.903 2362.36 705.576 2359.4 704.033Z"
     fill="#1A76D2"
     id="path59" />
  <path
     d="M2351 666.054V692.889C2351 697.138 2356.87 700.765 2368.6 703.769C2380.33 706.774 2394.5 708.276 2411.09 708.276C2427.69 708.276 2441.85 706.774 2453.58 703.769C2465.31 700.765 2471.18 697.138 2471.18 692.889V666.054C2471.18 670.303 2465.31 673.929 2453.58 676.934C2441.85 679.938 2427.69 681.44 2411.09 681.44C2394.5 681.44 2380.33 679.938 2368.6 676.934C2356.87 673.929 2351 670.303 2351 666.054Z"
     fill="white"
     stroke="#1A76D2"
     stroke-width="2.45267"
     id="path60" />
  <path
     d="M2471.18 666.115C2471.18 670.365 2465.31 673.991 2453.58 676.996C2441.85 680 2427.69 681.502 2411.09 681.502C2394.5 681.502 2380.33 680 2368.6 676.996C2356.87 673.991 2351 670.364 2351 666.115C2351 661.866 2356.87 658.239 2368.6 655.233C2380.33 652.227 2394.5 650.724 2411.09 650.724C2427.68 650.724 2441.85 652.227 2453.58 655.233C2465.31 658.238 2471.18 661.866 2471.18 666.115Z"
     fill="white"
     stroke="#1A76D2"
     stroke-width="2.45267"
     id="path61" />
  <path
     fill-rule="evenodd"
     clip-rule="evenodd"
     d="M2359.4 670.922C2356.6 669.469 2354.07 667.339 2354.07 664.214L2359.4 667.28C2361.73 668.2 2366.76 669.784 2372.04 670.922C2382.51 673.179 2396.26 674.96 2411.27 674.96C2426.27 674.96 2440.03 673.179 2450.5 670.922C2455.77 669.784 2460.76 668.519 2463.14 667.28L2468.47 664.214C2468.47 667.338 2465.93 669.469 2463.14 670.922C2460.18 672.465 2455.91 673.792 2450.5 674.96C2439.59 677.312 2426.5 678.473 2411.27 678.473C2396.04 678.473 2382.95 677.312 2372.04 674.96C2366.62 673.792 2362.36 672.465 2359.4 670.922Z"
     fill="#1A76D2"
     id="path62" />
  <path
     d="M2351 632.329V659.165C2351 663.414 2356.87 667.041 2368.6 670.045C2380.33 673.049 2394.5 674.552 2411.09 674.552C2427.69 674.552 2441.85 673.049 2453.58 670.045C2465.31 667.041 2471.18 663.414 2471.18 659.165V632.329C2471.18 636.578 2465.31 640.205 2453.58 643.209C2441.85 646.214 2427.69 647.716 2411.09 647.716C2394.5 647.716 2380.33 646.214 2368.6 643.209C2356.87 640.205 2351 636.578 2351 632.329Z"
     fill="white"
     stroke="#1A76D2"
     stroke-width="2.45267"
     id="path63" />
  <path
     d="M2471.18 632.391C2471.18 636.64 2465.31 640.267 2453.58 643.271C2441.85 646.276 2427.69 647.778 2411.09 647.778C2394.5 647.778 2380.33 646.276 2368.6 643.271C2356.87 640.267 2351 636.64 2351 632.391C2351 628.142 2356.87 624.514 2368.6 621.509C2380.33 618.503 2394.5 617 2411.09 617C2427.68 617 2441.85 618.503 2453.58 621.509C2465.31 624.514 2471.18 628.142 2471.18 632.391Z"
     fill="white"
     stroke="#1A76D2"
     stroke-width="2.45267"
     id="path64" />
  <path
     d="M1526.19 828.007L1529.83 827.947L1529.08 824.387C1528.37 821.039 1528 817.565 1528 814C1528 786.386 1550.39 764 1578 764C1589.59 764 1600.25 767.941 1608.73 774.558L1612 777.104L1613.4 773.211C1623.76 744.509 1651.24 724 1683.5 724C1722.41 724 1754.36 753.837 1757.71 791.879L1758.03 795.472L1761.5 794.507C1767.38 792.874 1773.59 792 1780 792C1818.11 792 1849 822.892 1849 861C1849 894.22 1825.52 921.962 1794.25 928.527L1792.41 928.914L1791.96 930.738C1784.48 960.759 1757.33 983 1725 983C1707.31 983 1691.18 976.345 1678.96 965.398L1676.82 963.479L1674.81 965.536C1661.28 979.399 1642.4 988 1621.5 988C1583.73 988 1552.52 959.892 1547.66 923.453L1547.16 919.736L1543.64 921.036C1538.46 922.952 1532.86 924 1527 924C1500.49 924 1479 902.51 1479 876C1479 849.76 1500.06 828.437 1526.19 828.007Z"
     fill="white"
     stroke="#616161"
     stroke-width="6"
     id="path66" />
  <path
     d="M1624 878.703C1619.7 882.635 1614.21 884.602 1607.52 884.602C1599.23 884.602 1592.72 881.945 1587.98 876.633C1583.24 871.294 1580.88 863.977 1580.88 854.68C1580.88 844.628 1583.57 836.88 1588.96 831.438C1593.65 826.698 1599.61 824.328 1606.85 824.328C1616.54 824.328 1623.62 827.505 1628.1 833.859C1630.58 837.427 1631.9 841.008 1632.09 844.602H1620.05C1619.27 841.841 1618.27 839.758 1617.05 838.352C1614.86 835.852 1611.62 834.602 1607.32 834.602C1602.95 834.602 1599.49 836.372 1596.97 839.914C1594.44 843.43 1593.18 848.417 1593.18 854.875C1593.18 861.333 1594.51 866.177 1597.16 869.406C1599.85 872.609 1603.24 874.211 1607.36 874.211C1611.58 874.211 1614.79 872.831 1617.01 870.07C1618.23 868.586 1619.25 866.359 1620.05 863.391H1631.97C1630.93 869.667 1628.27 874.771 1624 878.703ZM1665.99 883H1641.19V825.422H1665.99C1669.56 825.474 1672.53 825.891 1674.9 826.672C1678.93 828 1682.2 830.435 1684.7 833.977C1686.71 836.841 1688.08 839.94 1688.8 843.273C1689.53 846.607 1689.9 849.784 1689.9 852.805C1689.9 860.461 1688.36 866.945 1685.29 872.258C1681.12 879.419 1674.69 883 1665.99 883ZM1674.94 840.109C1673.09 836.984 1669.43 835.422 1663.96 835.422H1652.87V873H1663.96C1669.64 873 1673.6 870.201 1675.84 864.602C1677.06 861.529 1677.67 857.87 1677.67 853.625C1677.67 847.766 1676.76 843.26 1674.94 840.109ZM1745.56 883H1733.53L1710.02 842.102V883H1698.8V825.422H1711.42L1734.35 865.617V825.422H1745.56V883Z"
     fill="#333333"
     id="path67" />
  <path
     d="M1506 1002.78V1029.61C1506 1033.86 1511.87 1037.49 1523.6 1040.49C1535.33 1043.5 1549.5 1045 1566.09 1045C1582.69 1045 1596.85 1043.5 1608.58 1040.49C1620.31 1037.49 1626.18 1033.86 1626.18 1029.61V1002.78C1626.18 1007.03 1620.31 1010.65 1608.58 1013.66C1596.85 1016.66 1582.69 1018.16 1566.09 1018.16C1549.5 1018.16 1535.33 1016.66 1523.6 1013.66C1511.87 1010.65 1506 1007.03 1506 1002.78Z"
     fill="white"
     stroke="#1A76D2"
     stroke-width="2.45267"
     id="path68" />
  <path
     d="M1626.18 1002.84C1626.18 1007.09 1620.31 1010.72 1608.58 1013.72C1596.85 1016.72 1582.69 1018.23 1566.09 1018.23C1549.5 1018.23 1535.33 1016.72 1523.6 1013.72C1511.87 1010.72 1506 1007.09 1506 1002.84C1506 998.59 1511.87 994.963 1523.6 991.957C1535.33 988.951 1549.5 987.448 1566.09 987.448C1582.68 987.448 1596.85 988.951 1608.58 991.957C1620.31 994.963 1626.18 998.59 1626.18 1002.84Z"
     fill="white"
     stroke="#1A76D2"
     stroke-width="2.45267"
     id="path69" />
  <path
     fill-rule="evenodd"
     clip-rule="evenodd"
     d="M1514.4 1007.03C1511.6 1005.58 1509.07 1003.45 1509.07 1000.33L1514.4 1003.39C1516.73 1004.31 1521.76 1005.9 1527.04 1007.03C1537.51 1009.29 1551.26 1011.07 1566.27 1011.07C1581.27 1011.07 1595.03 1009.29 1605.5 1007.03C1610.77 1005.9 1615.76 1004.63 1618.14 1003.39L1623.47 1000.33C1623.47 1003.45 1620.93 1005.58 1618.14 1007.03C1615.18 1008.58 1610.91 1009.9 1605.5 1011.07C1594.59 1013.42 1581.5 1014.58 1566.27 1014.58C1551.04 1014.58 1537.95 1013.42 1527.04 1011.07C1521.62 1009.9 1517.36 1008.58 1514.4 1007.03Z"
     fill="#1A76D2"
     id="path70" />
  <path
     d="M1506 969.053V995.889C1506 1000.14 1511.87 1003.76 1523.6 1006.77C1535.33 1009.77 1549.5 1011.28 1566.09 1011.28C1582.69 1011.28 1596.85 1009.77 1608.58 1006.77C1620.31 1003.76 1626.18 1000.14 1626.18 995.889V969.053C1626.18 973.303 1620.31 976.929 1608.58 979.934C1596.85 982.938 1582.69 984.44 1566.09 984.44C1549.5 984.44 1535.33 982.938 1523.6 979.934C1511.87 976.929 1506 973.303 1506 969.053Z"
     fill="white"
     stroke="#1A76D2"
     stroke-width="2.45267"
     id="path71" />
  <path
     d="M1626.18 969.115C1626.18 973.365 1620.31 976.991 1608.58 979.996C1596.85 983 1582.69 984.502 1566.09 984.502C1549.5 984.502 1535.33 983 1523.6 979.996C1511.87 976.991 1506 973.364 1506 969.115C1506 964.866 1511.87 961.239 1523.6 958.233C1535.33 955.227 1549.5 953.724 1566.09 953.724C1582.68 953.724 1596.85 955.227 1608.58 958.233C1620.31 961.238 1626.18 964.866 1626.18 969.115Z"
     fill="white"
     stroke="#1A76D2"
     stroke-width="2.45267"
     id="path72" />
  <path
     fill-rule="evenodd"
     clip-rule="evenodd"
     d="M1514.4 973.922C1511.6 972.469 1509.07 970.339 1509.07 967.214L1514.4 970.28C1516.73 971.2 1521.76 972.784 1527.04 973.922C1537.51 976.179 1551.26 977.96 1566.27 977.96C1581.27 977.96 1595.03 976.179 1605.5 973.922C1610.77 972.784 1615.76 971.519 1618.14 970.28L1623.47 967.214C1623.47 970.338 1620.93 972.469 1618.14 973.922C1615.18 975.465 1610.91 976.792 1605.5 977.96C1594.59 980.312 1581.5 981.473 1566.27 981.473C1551.04 981.473 1537.95 980.312 1527.04 977.96C1521.62 976.792 1517.36 975.465 1514.4 973.922Z"
     fill="#1A76D2"
     id="path73" />
  <path
     d="M1506 935.329V962.165C1506 966.414 1511.87 970.041 1523.6 973.045C1535.33 976.049 1549.5 977.552 1566.09 977.552C1582.69 977.552 1596.85 976.049 1608.58 973.045C1620.31 970.041 1626.18 966.414 1626.18 962.165V935.329C1626.18 939.578 1620.31 943.205 1608.58 946.209C1596.85 949.214 1582.69 950.716 1566.09 950.716C1549.5 950.716 1535.33 949.214 1523.6 946.209C1511.87 943.205 1506 939.578 1506 935.329Z"
     fill="white"
     stroke="#1A76D2"
     stroke-width="2.45267"
     id="path74" />
  <path
     d="M1626.18 935.391C1626.18 939.64 1620.31 943.267 1608.58 946.271C1596.85 949.276 1582.69 950.778 1566.09 950.778C1549.5 950.778 1535.33 949.276 1523.6 946.271C1511.87 943.267 1506 939.64 1506 935.391C1506 931.142 1511.87 927.514 1523.6 924.509C1535.33 921.503 1549.5 920 1566.09 920C1582.68 920 1596.85 921.503 1608.58 924.509C1620.31 927.514 1626.18 931.142 1626.18 935.391Z"
     fill="white"
     stroke="#1A76D2"
     stroke-width="2.45267"
     id="path75" />
  <path
     d="M1642 1029.78V1056.61C1642 1060.86 1647.87 1064.49 1659.6 1067.49C1671.33 1070.5 1685.5 1072 1702.09 1072C1718.69 1072 1732.85 1070.5 1744.58 1067.49C1756.31 1064.49 1762.18 1060.86 1762.18 1056.61V1029.78C1762.18 1034.03 1756.31 1037.65 1744.58 1040.66C1732.85 1043.66 1718.69 1045.16 1702.09 1045.16C1685.5 1045.16 1671.33 1043.66 1659.6 1040.66C1647.87 1037.65 1642 1034.03 1642 1029.78Z"
     fill="white"
     stroke="#1A76D2"
     stroke-width="2.45267"
     id="path77" />
  <path
     d="M1762.18 1029.84C1762.18 1034.09 1756.31 1037.72 1744.58 1040.72C1732.85 1043.72 1718.69 1045.23 1702.09 1045.23C1685.5 1045.23 1671.33 1043.72 1659.6 1040.72C1647.87 1037.72 1642 1034.09 1642 1029.84C1642 1025.59 1647.87 1021.96 1659.6 1018.96C1671.33 1015.95 1685.5 1014.45 1702.09 1014.45C1718.68 1014.45 1732.85 1015.95 1744.58 1018.96C1756.31 1021.96 1762.18 1025.59 1762.18 1029.84Z"
     fill="white"
     stroke="#1A76D2"
     stroke-width="2.45267"
     id="path78" />
  <path
     fill-rule="evenodd"
     clip-rule="evenodd"
     d="M1650.4 1034.03C1647.6 1032.58 1645.07 1030.45 1645.07 1027.33L1650.4 1030.39C1652.73 1031.31 1657.76 1032.9 1663.04 1034.03C1673.51 1036.29 1687.26 1038.07 1702.27 1038.07C1717.27 1038.07 1731.03 1036.29 1741.5 1034.03C1746.77 1032.9 1751.76 1031.63 1754.14 1030.39L1759.47 1027.33C1759.47 1030.45 1756.93 1032.58 1754.14 1034.03C1751.18 1035.58 1746.91 1036.9 1741.5 1038.07C1730.59 1040.42 1717.5 1041.58 1702.27 1041.58C1687.04 1041.58 1673.95 1040.42 1663.04 1038.07C1657.62 1036.9 1653.36 1035.58 1650.4 1034.03Z"
     fill="#1A76D2"
     id="path79" />
  <path
     d="M1642 996.053V1022.89C1642 1027.14 1647.87 1030.76 1659.6 1033.77C1671.33 1036.77 1685.5 1038.28 1702.09 1038.28C1718.69 1038.28 1732.85 1036.77 1744.58 1033.77C1756.31 1030.76 1762.18 1027.14 1762.18 1022.89V996.053C1762.18 1000.3 1756.31 1003.93 1744.58 1006.93C1732.85 1009.94 1718.69 1011.44 1702.09 1011.44C1685.5 1011.44 1671.33 1009.94 1659.6 1006.93C1647.87 1003.93 1642 1000.3 1642 996.053Z"
     fill="white"
     stroke="#1A76D2"
     stroke-width="2.45267"
     id="path80" />
  <path
     d="M1762.18 996.115C1762.18 1000.36 1756.31 1003.99 1744.58 1007C1732.85 1010 1718.69 1011.5 1702.09 1011.5C1685.5 1011.5 1671.33 1010 1659.6 1007C1647.87 1003.99 1642 1000.36 1642 996.115C1642 991.866 1647.87 988.239 1659.6 985.233C1671.33 982.227 1685.5 980.724 1702.09 980.724C1718.68 980.724 1732.85 982.227 1744.58 985.233C1756.31 988.238 1762.18 991.866 1762.18 996.115Z"
     fill="white"
     stroke="#1A76D2"
     stroke-width="2.45267"
     id="path81" />
  <path
     fill-rule="evenodd"
     clip-rule="evenodd"
     d="M1650.4 1000.92C1647.6 999.469 1645.07 997.339 1645.07 994.214L1650.4 997.28C1652.73 998.2 1657.76 999.784 1663.04 1000.92C1673.51 1003.18 1687.26 1004.96 1702.27 1004.96C1717.27 1004.96 1731.03 1003.18 1741.5 1000.92C1746.77 999.784 1751.76 998.519 1754.14 997.28L1759.47 994.214C1759.47 997.338 1756.93 999.469 1754.14 1000.92C1751.18 1002.47 1746.91 1003.79 1741.5 1004.96C1730.59 1007.31 1717.5 1008.47 1702.27 1008.47C1687.04 1008.47 1673.95 1007.31 1663.04 1004.96C1657.62 1003.79 1653.36 1002.47 1650.4 1000.92Z"
     fill="#1A76D2"
     id="path82" />
  <path
     d="M1642 962.329V989.165C1642 993.414 1647.87 997.041 1659.6 1000.05C1671.33 1003.05 1685.5 1004.55 1702.09 1004.55C1718.69 1004.55 1732.85 1003.05 1744.58 1000.05C1756.31 997.041 1762.18 993.414 1762.18 989.165V962.329C1762.18 966.578 1756.31 970.205 1744.58 973.209C1732.85 976.214 1718.69 977.716 1702.09 977.716C1685.5 977.716 1671.33 976.214 1659.6 973.209C1647.87 970.205 1642 966.578 1642 962.329Z"
     fill="white"
     stroke="#1A76D2"
     stroke-width="2.45267"
     id="path83" />
  <path
     d="M1762.18 962.391C1762.18 966.64 1756.31 970.267 1744.58 973.271C1732.85 976.276 1718.69 977.778 1702.09 977.778C1685.5 977.778 1671.33 976.276 1659.6 973.271C1647.87 970.267 1642 966.64 1642 962.391C1642 958.142 1647.87 954.514 1659.6 951.509C1671.33 948.503 1685.5 947 1702.09 947C1718.68 947 1732.85 948.503 1744.58 951.509C1756.31 954.514 1762.18 958.142 1762.18 962.391Z"
     fill="white"
     stroke="#1A76D2"
     stroke-width="2.45267"
     id="path84" />
  <path
     d="M1778 969.778V996.613C1778 1000.86 1783.87 1004.49 1795.6 1007.49C1807.33 1010.5 1821.5 1012 1838.09 1012C1854.69 1012 1868.85 1010.5 1880.58 1007.49C1892.31 1004.49 1898.18 1000.86 1898.18 996.613V969.778C1898.18 974.027 1892.31 977.654 1880.58 980.658C1868.85 983.662 1854.69 985.164 1838.09 985.164C1821.5 985.164 1807.33 983.662 1795.6 980.658C1783.87 977.654 1778 974.027 1778 969.778Z"
     fill="white"
     stroke="#1A76D2"
     stroke-width="2.45267"
     id="path86" />
  <path
     d="M1898.18 969.84C1898.18 974.089 1892.31 977.716 1880.58 980.72C1868.85 983.724 1854.69 985.226 1838.09 985.226C1821.5 985.226 1807.33 983.724 1795.6 980.72C1783.87 977.715 1778 974.089 1778 969.84C1778 965.59 1783.87 961.963 1795.6 958.957C1807.33 955.951 1821.5 954.448 1838.09 954.448C1854.68 954.448 1868.85 955.951 1880.58 958.957C1892.31 961.963 1898.18 965.59 1898.18 969.84Z"
     fill="white"
     stroke="#1A76D2"
     stroke-width="2.45267"
     id="path87" />
  <path
     fill-rule="evenodd"
     clip-rule="evenodd"
     d="M1786.4 974.033C1783.6 972.58 1781.07 970.45 1781.07 967.325L1786.4 970.391C1788.73 971.311 1793.76 972.895 1799.04 974.033C1809.51 976.29 1823.26 978.071 1838.27 978.071C1853.27 978.071 1867.03 976.29 1877.5 974.033C1882.77 972.895 1887.76 971.63 1890.14 970.391L1895.47 967.325C1895.47 970.45 1892.93 972.58 1890.14 974.033C1887.18 975.576 1882.91 976.903 1877.5 978.071C1866.59 980.424 1853.5 981.584 1838.27 981.584C1823.04 981.584 1809.95 980.424 1799.04 978.071C1793.62 976.903 1789.36 975.576 1786.4 974.033Z"
     fill="#1A76D2"
     id="path88" />
  <path
     d="M1778 936.053V962.889C1778 967.138 1783.87 970.765 1795.6 973.769C1807.33 976.774 1821.5 978.276 1838.09 978.276C1854.69 978.276 1868.85 976.774 1880.58 973.769C1892.31 970.765 1898.18 967.138 1898.18 962.889V936.053C1898.18 940.303 1892.31 943.929 1880.58 946.934C1868.85 949.938 1854.69 951.44 1838.09 951.44C1821.5 951.44 1807.33 949.938 1795.6 946.934C1783.87 943.929 1778 940.303 1778 936.053Z"
     fill="white"
     stroke="#1A76D2"
     stroke-width="2.45267"
     id="path89" />
  <path
     d="M1898.18 936.115C1898.18 940.365 1892.31 943.991 1880.58 946.996C1868.85 950 1854.69 951.502 1838.09 951.502C1821.5 951.502 1807.33 950 1795.6 946.996C1783.87 943.991 1778 940.364 1778 936.115C1778 931.866 1783.87 928.239 1795.6 925.233C1807.33 922.227 1821.5 920.724 1838.09 920.724C1854.68 920.724 1868.85 922.227 1880.58 925.233C1892.31 928.238 1898.18 931.866 1898.18 936.115Z"
     fill="white"
     stroke="#1A76D2"
     stroke-width="2.45267"
     id="path90" />
  <path
     fill-rule="evenodd"
     clip-rule="evenodd"
     d="M1786.4 940.922C1783.6 939.469 1781.07 937.339 1781.07 934.214L1786.4 937.28C1788.73 938.2 1793.76 939.784 1799.04 940.922C1809.51 943.179 1823.26 944.96 1838.27 944.96C1853.27 944.96 1867.03 943.179 1877.5 940.922C1882.77 939.784 1887.76 938.519 1890.14 937.28L1895.47 934.214C1895.47 937.338 1892.93 939.469 1890.14 940.922C1887.18 942.465 1882.91 943.792 1877.5 944.96C1866.59 947.312 1853.5 948.473 1838.27 948.473C1823.04 948.473 1809.95 947.312 1799.04 944.96C1793.62 943.792 1789.36 942.465 1786.4 940.922Z"
     fill="#1A76D2"
     id="path91" />
  <path
     d="M1778 902.329V929.165C1778 933.414 1783.87 937.041 1795.6 940.045C1807.33 943.049 1821.5 944.552 1838.09 944.552C1854.69 944.552 1868.85 943.049 1880.58 940.045C1892.31 937.041 1898.18 933.414 1898.18 929.165V902.329C1898.18 906.578 1892.31 910.205 1880.58 913.209C1868.85 916.214 1854.69 917.716 1838.09 917.716C1821.5 917.716 1807.33 916.214 1795.6 913.209C1783.87 910.205 1778 906.578 1778 902.329Z"
     fill="white"
     stroke="#1A76D2"
     stroke-width="2.45267"
     id="path92" />
  <path
     d="M1898.18 902.391C1898.18 906.64 1892.31 910.267 1880.58 913.271C1868.85 916.276 1854.69 917.778 1838.09 917.778C1821.5 917.778 1807.33 916.276 1795.6 913.271C1783.87 910.267 1778 906.64 1778 902.391C1778 898.142 1783.87 894.514 1795.6 891.509C1807.33 888.503 1821.5 887 1838.09 887C1854.68 887 1868.85 888.503 1880.58 891.509C1892.31 894.514 1898.18 898.142 1898.18 902.391Z"
     fill="white"
     stroke="#1A76D2"
     stroke-width="2.45267"
     id="path93" />
  <text
     xml:space="preserve"
     style="font-style:normal;font-variant:normal;font-weight:normal;font-stretch:normal;font-size:42.66666667px;font-family:'Noto Sans JP';-inkscape-font-specification:'Noto Sans JP, @wght=700';font-variant-ligatures:normal;font-variant-caps:normal;font-variant-numeric:normal;font-variant-east-asian:normal;text-align:center;text-anchor:middle;fill:#f54337;font-variation-settings:'wght' 700"
     x="240.14716"
     y="919.7793"
     id="text94"><tspan
       id="tspan94"
       x="240.14716"
       y="919.7793">プライベート</tspan><tspan
       x="240.14716"
       y="973.11267"
       id="tspan95">キャッシュ</tspan></text>
  <text
     xml:space="preserve"
     style="font-style:normal;font-variant:normal;font-weight:normal;font-stretch:normal;font-size:32px;font-family:'Noto Sans JP';-inkscape-font-specification:'Noto Sans JP, @wght=700';font-variant-ligatures:normal;font-variant-caps:normal;font-variant-numeric:normal;font-variant-east-asian:normal;text-align:center;text-anchor:middle;fill:#1a76d2;fill-opacity:1;font-variation-settings:'wght' 700"
     x="338.04062"
     y="813.71173"
     id="text94-0"><tspan
       id="tspan96"
       x="338.04062"
       y="813.71173">キャッシュ</tspan></text>
  <text
     xml:space="preserve"
     style="font-style:normal;font-variant:normal;font-weight:normal;font-stretch:normal;font-size:32px;font-family:'Noto Sans JP';-inkscape-font-specification:'Noto Sans JP, @wght=700';font-variant-ligatures:normal;font-variant-caps:normal;font-variant-numeric:normal;font-variant-east-asian:normal;text-align:center;text-anchor:middle;fill:#1a76d2;fill-opacity:1;font-variation-settings:'wght' 700"
     x="923.74835"
     y="846.19623"
     id="text94-0-9"><tspan
       id="tspan96-9"
       x="923.74835"
       y="846.19623">キャッシュ</tspan></text>
  <text
     xml:space="preserve"
     style="font-style:normal;font-variant:normal;font-weight:normal;font-stretch:normal;font-size:32px;font-family:'Noto Sans JP';-inkscape-font-specification:'Noto Sans JP, @wght=700';font-variant-ligatures:normal;font-variant-caps:normal;font-variant-numeric:normal;font-variant-east-asian:normal;text-align:center;text-anchor:middle;fill:#1a76d2;fill-opacity:1;font-variation-settings:'wght' 700"
     x="1613.8594"
     y="572.48993"
     id="text94-0-9-8"><tspan
       id="tspan96-9-3"
       x="1613.8594"
       y="572.48993">キャッシュ</tspan></text>
  <text
     xml:space="preserve"
     style="font-style:normal;font-variant:normal;font-weight:normal;font-stretch:normal;font-size:32px;font-family:'Noto Sans JP';-inkscape-font-specification:'Noto Sans JP, @wght=700';font-variant-ligatures:normal;font-variant-caps:normal;font-variant-numeric:normal;font-variant-east-asian:normal;text-align:center;text-anchor:middle;fill:#1a76d2;fill-opacity:1;font-variation-settings:'wght' 700"
     x="1559.3793"
     y="1079.1453"
     id="text94-0-9-8-1"><tspan
       id="tspan96-9-3-9"
       x="1559.3793"
       y="1079.1453">キャッシュ</tspan></text>
  <text
     xml:space="preserve"
     style="font-style:normal;font-variant:normal;font-weight:normal;font-stretch:normal;font-size:32px;font-family:'Noto Sans JP';-inkscape-font-specification:'Noto Sans JP, @wght=700';font-variant-ligatures:normal;font-variant-caps:normal;font-variant-numeric:normal;font-variant-east-asian:normal;text-align:center;text-anchor:middle;fill:#1a76d2;fill-opacity:1;font-variation-settings:'wght' 700"
     x="1705.2529"
     y="1109.7505"
     id="text94-0-9-8-1-0"><tspan
       id="tspan96-9-3-9-6"
       x="1705.2529"
       y="1109.7505">キャッシュ</tspan></text>
  <text
     xml:space="preserve"
     style="font-style:normal;font-variant:normal;font-weight:normal;font-stretch:normal;font-size:32px;font-family:'Noto Sans JP';-inkscape-font-specification:'Noto Sans JP, @wght=700';font-variant-ligatures:normal;font-variant-caps:normal;font-variant-numeric:normal;font-variant-east-asian:normal;text-align:center;text-anchor:middle;fill:#1a76d2;fill-opacity:1;font-variation-settings:'wght' 700"
     x="1842.9722"
     y="1042.2582"
     id="text94-0-9-8-1-0-0"><tspan
       id="tspan96-9-3-9-6-4"
       x="1842.9722"
       y="1042.2582">キャッシュ</tspan></text>
  <text
     xml:space="preserve"
     style="font-style:normal;font-variant:normal;font-weight:normal;font-stretch:normal;font-size:32px;font-family:'Noto Sans JP';-inkscape-font-specification:'Noto Sans JP, @wght=700';font-variant-ligatures:normal;font-variant-caps:normal;font-variant-numeric:normal;font-variant-east-asian:normal;text-align:center;text-anchor:middle;fill:#1a76d2;fill-opacity:1;font-variation-settings:'wght' 700"
     x="2409.6841"
     y="776.19873"
     id="text94-0-9-8-1-0-0-6"><tspan
       id="tspan96-9-3-9-6-4-9"
       x="2409.6841"
       y="776.19873">キャッシュ</tspan></text>
  <text
     xml:space="preserve"
     style="font-style:normal;font-variant:normal;font-weight:normal;font-stretch:normal;font-size:32px;font-family:'Noto Sans JP';-inkscape-font-specification:'Noto Sans JP, @wght=700';font-variant-ligatures:normal;font-variant-caps:normal;font-variant-numeric:normal;font-variant-east-asian:normal;text-align:center;text-anchor:middle;fill:#000000;fill-opacity:1;font-variation-settings:'wght' 700"
     x="2311.0518"
     y="494.80692"
     id="text94-0-9-8-1-0-0-6-6"><tspan
       id="tspan96-9-3-9-6-4-9-7"
       x="2311.0518"
       y="494.80692">オリジン</tspan></text>
  <text
     xml:space="preserve"
     style="font-style:normal;font-variant:normal;font-weight:normal;font-stretch:normal;font-size:32px;font-family:'Noto Sans JP';-inkscape-font-specification:'Noto Sans JP, @wght=700';font-variant-ligatures:normal;font-variant-caps:normal;font-variant-numeric:normal;font-variant-east-asian:normal;text-align:center;text-anchor:middle;fill:#000000;fill-opacity:1;font-variation-settings:'wght' 700"
     x="1695.3246"
     y="213.09607"
     id="text94-0-9-8-1-0-0-6-6-6"><tspan
       id="tspan96-9-3-9-6-4-9-7-0"
       x="1695.3246"
       y="213.09607">リバースプロキシ－</tspan></text>
  <text
     xml:space="preserve"
     style="font-style:normal;font-variant:normal;font-weight:normal;font-stretch:normal;font-size:32px;font-family:'Noto Sans JP';-inkscape-font-specification:'Noto Sans JP, @wght=700';font-variant-ligatures:normal;font-variant-caps:normal;font-variant-numeric:normal;font-variant-east-asian:normal;text-align:center;text-anchor:middle;fill:#000000;fill-opacity:1;font-variation-settings:'wght' 700"
     x="825.26172"
     y="482.41742"
     id="text94-0-9-8-1-0-0-6-6-6-1"><tspan
       id="tspan96-9-3-9-6-4-9-7-0-7"
       x="825.26172"
       y="482.41742">共有キャッシュ</tspan></text>
  <text
     xml:space="preserve"
     style="font-style:normal;font-variant:normal;font-weight:normal;font-stretch:normal;font-size:32px;font-family:'Noto Sans JP';-inkscape-font-specification:'Noto Sans JP, @wght=700';font-variant-ligatures:normal;font-variant-caps:normal;font-variant-numeric:normal;font-variant-east-asian:normal;text-align:center;text-anchor:middle;fill:#000000;fill-opacity:1;font-variation-settings:'wght' 700"
     x="229.89548"
     y="529.60468"
     id="text94-0-9-8-1-0-0-6-6-6-1-8"><tspan
       id="tspan96-9-3-9-6-4-9-7-0-7-5"
       x="229.89548"
       y="529.60468"
       style="font-weight:normal;-inkscape-font-specification:'Noto Sans JP, @wght=700';font-family:'Noto Sans JP';font-style:normal;font-stretch:normal;font-variant:normal;font-size:32px;font-variant-ligatures:normal;font-variant-caps:normal;font-variant-numeric:normal;font-variant-east-asian:normal;font-variation-settings:'wght' 700">ブラウザー</tspan></text>
  <text
     xml:space="preserve"
     style="font-style:normal;font-variant:normal;font-weight:normal;font-stretch:normal;font-size:42.66666667px;font-family:'Noto Sans JP';-inkscape-font-specification:'Noto Sans JP, @wght=700';font-variant-ligatures:normal;font-variant-caps:normal;font-variant-numeric:normal;font-variant-east-asian:normal;text-align:center;text-anchor:middle;fill:#f54337;font-variation-settings:'wght' 700"
     x="830.93762"
     y="930.14209"
     id="text94-6"><tspan
       id="tspan94-9"
       x="830.93762"
       y="930.14209">（プロキシーの）共有</tspan><tspan
       x="830.93762"
       y="983.47546"
       id="tspan95-0">キャッシュ</tspan></text>
  <text
     xml:space="preserve"
     style="font-style:normal;font-variant:normal;font-weight:normal;font-stretch:normal;font-size:42.66666667px;font-family:'Noto Sans JP';-inkscape-font-specification:'Noto Sans JP, @wght=700';font-variant-ligatures:normal;font-variant-caps:normal;font-variant-numeric:normal;font-variant-east-asian:normal;text-align:center;text-anchor:middle;fill:#f54337;font-variation-settings:'wght' 700"
     x="1672.0111"
     y="1195.0103"
     id="text94-6-4"><tspan
       id="tspan94-9-2"
       x="1672.0111"
       y="1195.0103">（管理された）共有</tspan><tspan
       x="1672.0111"
       y="1248.3436"
       id="tspan95-0-1">キャッシュ</tspan></text>
</svg>
