<?xml version="1.0" encoding="utf-8"?>
<!-- Generator: Adobe Illustrator 19.2.1, SVG Export Plug-In . SVG Version: 6.00 Build 0)  -->
<svg version="1.1" id="Layer_1" xmlns="http://www.w3.org/2000/svg" xmlns:xlink="http://www.w3.org/1999/xlink" x="0px" y="0px"
	 viewBox="0 0 293.8 98.1" style="enable-background:new 0 0 293.8 98.1;" xml:space="preserve">
<style type="text/css">
	.st0{fill:#FF5021;}
	.st1{fill:#6699A3;}
	.st2{fill:#ADC0C9;}
	.st3{fill:#000A17;}
</style>
<title>owg-logo-light</title>
<path class="st0" d="M86.6,51.4c3-6,0.6-13.3-5.4-16.4c-3.1-1.6-6.8-1.7-10-0.4c-2.7,1.2-4.9,3.2-6.3,5.8c-1.7,2.8-5.3,3.6-8.1,1.9
	c-0.8-0.5-1.5-1.2-1.9-1.9c-3-6-10.4-8.4-16.3-5.4s-8.4,10.4-5.4,16.3c3,6,10.4,8.4,16.3,5.4c2.3-1.1,4.1-3,5.3-5.2l0,0
	c1.6-2.8,5.1-3.8,7.9-2.3c2.8,1.6,3.8,5.1,2.3,7.9c-1,1.9-3,3-5.2,3h-0.3c-6.7,0-12.1,5.5-12.1,12.2s5.5,12.1,12.2,12.1
	S71.7,79,71.7,72.3c0-1.9-0.5-3.7-1.3-5.4l0,0c-2.1-4.3-0.6-9,5.4-8.8l0,0C80.3,58,84.5,55.4,86.6,51.4L86.6,51.4L86.6,51.4z"/>
<path class="st1" d="M36.4,63.2c-2.2-1.9-5-3-7.9-3h-0.2c-5-0.2-7.4-4.4-5.1-8.9c3-6,0.5-13.3-5.5-16.3c-1.8-0.9-3.7-1.3-5.7-1.3
	C5.1,33.9-0.2,39.5,0,46.2c0,1.5,0.4,3,0.9,4.4C2.8,55,7.2,58,12.1,58.1l0,0c4.7,0.2,7.5,4.2,5.4,8.8l0,0c-3,6-0.6,13.4,5.4,16.4
	s13.4,0.6,16.4-5.4C41.8,72.9,40.6,66.8,36.4,63.2L36.4,63.2L36.4,63.2z"/>
<circle class="st2" cx="59.5" cy="19.4" r="12.2"/>
<circle class="st2" cx="28.4" cy="19.4" r="12.2"/>
<path class="st3" d="M119.2,20.9c0,7.3-3.7,11.9-9.6,11.9s-9.6-4.5-9.6-11.8s3.7-11.9,9.6-11.9S119.2,13.4,119.2,20.9z M102.7,20.9
	c0,6.4,2.6,9.7,6.9,9.7s7-3.3,7-9.8s-2.6-9.6-7-9.6S102.7,14.4,102.7,20.9z"/>
<path class="st3" d="M165,21.9h-15.1c0.3,6.2,3.2,8.7,7.1,8.7c2.2,0,4.4-0.8,6.1-2.3l1.2,1.6c-2.1,1.8-4.7,2.8-7.4,2.8
	c-6,0-9.6-4.3-9.6-11.6s3.5-12,9.1-12c5.9,0,8.9,4.3,8.9,11C165.1,20.8,165.1,21.5,165,21.9z M162.6,19.3c0-5-2-8.1-6.3-8.1
	c-3.5,0-6.2,2.7-6.5,8.8h12.8L162.6,19.3L162.6,19.3z"/>
<path class="st3" d="M187.4,16v16.3h-2.5V16.4c0-3.7-1.5-5.3-4.3-5.3c-3.1,0-5.2,1.9-7,4.7v16.5h-2.5V9.6h2.2l0.2,3.9
	c1.8-2.6,4.3-4.3,7.6-4.3C185.2,9.1,187.4,11.6,187.4,16z"/>
<path class="st3" d="M223,32.3h-3.4l-5-20.4l-5.1,20.4h-3.3l-5.7-22.7h2.6l4.9,20.8l5.3-20.8h2.9l5.2,20.8l4.9-20.8h2.5L223,32.3z"
	/>
<path class="st3" d="M249.4,21.9h-15.2c0.3,6.2,3.2,8.7,7.1,8.7c2.2,0,4.4-0.8,6.1-2.3l1.2,1.6c-2.1,1.8-4.7,2.8-7.4,2.8
	c-6,0-9.6-4.3-9.6-11.6s3.5-12,9.1-12c5.9,0,8.9,4.3,8.9,11C249.5,20.8,249.5,21.5,249.4,21.9z M247,19.3c0-5-2-8.1-6.3-8.1
	c-3.5,0-6.2,2.7-6.5,8.8H247V19.3z"/>
<path class="st3" d="M272.2,20.8c0,7.3-3.2,11.9-8.6,11.9c-2.6,0-5.1-1.2-6.6-3.3l-0.2,2.9h-2.2v-32l2.5-0.3v12.7
	c1.5-2.3,4.1-3.7,6.8-3.6C269.1,9.1,272.2,13.2,272.2,20.8z M269.5,20.8c0-6.7-2.3-9.6-6.1-9.6c-2.9,0-4.7,1.7-6.3,3.9v12
	c1.2,2.2,3.5,3.5,6,3.6C267.1,30.7,269.5,27.4,269.5,20.8z"/>
<path class="st3" d="M133.4,48.8c-2.5,1-5.9,1.4-10.4,1.4c4.6,2,6.8,4.6,6.8,9.3c0,7-5.8,12.1-15.2,12.1c-1.4,0-2.8-0.1-4.2-0.4
	c-0.7,0.4-1.2,1.2-1.2,2c0,1.1,0.5,2.2,4,2.2h5.5c8.5,0,13.8,4.4,13.8,10.5c0,7.4-6.6,12-19,12c-13.7,0-17.3-4.5-17.3-11.7h9.7
	c0,3.1,1.4,4.5,7.9,4.5c6.3,0,7.8-1.8,7.8-4.1c0-2.1-1.6-3.6-5.2-3.6h-5.2c-7.9,0-11.1-3.3-11.1-7.2c0.2-2.9,1.8-5.5,4.3-7
	c-4.6-2.5-6.5-5.7-6.5-10.4c0-8.2,6.4-13.2,15.9-13.2c8.1,0.2,12.7-2.1,17.1-4.7L133.4,48.8z M108.6,58.7c0,4,2.2,6.1,5.5,6.1
	c3.6,0,5.5-2.1,5.5-6.3s-1.8-5.9-5.5-5.9C110.8,52.7,108.6,54.9,108.6,58.7L108.6,58.7z"/>
<path class="st3" d="M167.5,76.9l-2.2,7c-4.2-0.3-7-1.6-8.7-5.2c-2.6,4-6.6,5.4-10.9,5.4c-7.2,0-11.8-4.7-11.8-11.3
	c0-7.9,6-12.2,17-12.2h3.7V59c0-4.3-1.7-5.6-6.1-5.6c-3.2,0.2-6.4,0.8-9.5,1.9l-2.5-7.1c4.3-1.6,8.9-2.5,13.6-2.7
	c10.5,0,15,4.4,15,12.8v14.1C165.1,75.2,165.8,76.3,167.5,76.9z M154.5,73v-6.5h-2.7c-4.9,0-7.3,1.7-7.3,5.3c0,2.9,1.6,4.6,4.2,4.6
	C151.2,76.4,153.3,75.1,154.5,73L154.5,73z"/>
<path class="st3" d="M221.8,56.5v26.5H211V58.3c0-3.8-1.4-4.8-3.1-4.8c-2.3,0-4,1.7-5.5,4.7v24.8h-10.7V58.3c0-3.8-1.4-4.8-3.1-4.8
	c-2.2,0-4,1.7-5.5,4.7v24.8h-10.8V46.7h9.4l0.8,4.2c2.8-3.5,6.1-5.4,10.5-5.4c3.8-0.2,7.2,2.2,8.5,5.7c2.9-3.8,6.2-5.7,10.9-5.7
	C217.9,45.6,221.8,49.6,221.8,56.5z"/>
<path class="st3" d="M260,68h-22.4c0.7,6.5,3.8,8.3,8.2,8.3c2.9,0,5.5-1,8.7-3.2l4.4,6c-4,3.2-9,5-14.1,5
	c-12.1,0-18.2-7.8-18.2-19.1c0-10.8,5.9-19.4,16.9-19.4c10.4,0,16.7,6.8,16.7,18.6C260.2,65.4,260.1,66.7,260,68z M249.6,61
	c-0.1-4.9-1.6-8.3-5.9-8.3c-3.6,0-5.7,2.2-6.2,8.8h12.1V61z"/>
<path class="st3" d="M292.4,50l-4,6.1c-2.6-1.8-5.8-2.7-8.9-2.8c-2.9,0-4.4,1.1-4.4,2.7c0,1.9,1,2.7,7.4,4.6c7.2,2,11.2,5,11.2,11.5
	c0,7.5-7.1,11.9-16.1,11.9c-5.5,0.1-10.9-1.8-15.1-5.4l5.2-5.9c2.7,2.2,6.1,3.5,9.6,3.6c3.3,0,5.2-1.2,5.2-3.4c0-2.5-1.1-3.2-7.6-5
	c-7.2-2-10.7-5.7-10.7-11.3c0-6.2,5.7-11,14.8-11C283.9,45.5,288.6,47.1,292.4,50z"/>
<path class="st3" d="M133.9,9.1c-2.8,0-5.4,1.4-7,3.8l-0.2-3.3h-2.2v29.7l0.4-0.1c0.7-0.3,1.4-0.6,2.1-0.9v-8.6
	c1.5,2,3.9,3.2,6.5,3.1c5.6,0,8.6-4.8,8.6-12C142.1,13.5,139.4,9.1,133.9,9.1z M133,30.6c-2.5,0-4.8-1.3-6-3.5V15.1
	c1.6-2.2,3.5-3.9,6.4-3.9c4,0,6,3.2,6,9.6S137.1,30.6,133,30.6z"/>
</svg>
