<?xml version="1.0" encoding="UTF-8"?>
<!-- Generator: Adobe Illustrator 15.0.0, SVG Export Plug-In . SVG Version: 6.00 Build 0)  -->
<!DOCTYPE svg PUBLIC "-//W3C//DTD SVG 1.1//EN" "http://www.w3.org/Graphics/SVG/1.1/DTD/svg11.dtd">
<svg version="1.1" xmlns="http://www.w3.org/2000/svg" xmlns:xlink="http://www.w3.org/1999/xlink" x="0px" y="0px" width="692.929px" height="206.323px" viewBox="0 0 692.929 206.323" enable-background="new 0 0 692.929 206.323" xml:space="preserve">
<g id="Calque_2">
	<g>
		<line fill="none" stroke="#010101" x1="25.556" y1="31.667" x2="25.556" y2="91.125"/>
		<polygon fill="#010101" points="19.722,32.667 25.556,15.828 31.056,32.667   "/>
		<polygon fill="#010101" points="230.637,84.581 247.476,90.415 230.637,95.915   "/>
		<path fill="none" stroke="#010101" stroke-miterlimit="10" d="M25.722,53.167h36.667c0,0,4.167-14.333,9-11    c0,0,2.333,0.417,7.333,14c0,0,2.917,10.583,8,8.167c0,0,3.333-0.417,6.667-14.167c0,0,3.333-11.917,8.5-7.333    c0,0,2.667,1.833,6.5,13.333c0,0,4,12,8.5,7.5c0,0,3.333-2.666,6.167-13.5c0,0,3.167-12.667,9-7.667c0,0,2.292,0.562,5.667,13.5    c0,0,4.167,13.083,9.5,7.667c0,0,2.188-1.729,5-13.5c0,0,3.25-12.667,8.5-7.667c0,0,2.938,3.25,6.667,13.667    c0,0,5.021,12.333,8.833,7.667c0,0,3.812-4.646,4.667-10.561h30"/>
		<text transform="matrix(1 0 0 1 252.0552 94.8335)" font-family="'ArialMT'" font-size="14">t</text>
		<text transform="matrix(1 0 0 1 23.2222 106.333)"><tspan x="0" y="0" font-family="'ArialMT'" font-size="14">0</tspan><tspan x="7.786" y="0" font-family="'ArialMT'" font-size="14" letter-spacing="24">	</tspan><tspan x="36" y="0" font-family="'ArialMT'" font-size="14">1</tspan><tspan x="43.786" y="0" font-family="'ArialMT'" font-size="14" letter-spacing="24">	</tspan><tspan x="72" y="0" font-family="'ArialMT'" font-size="14">2</tspan><tspan x="79.786" y="0" font-family="'ArialMT'" font-size="14" letter-spacing="24">	</tspan><tspan x="108" y="0" font-family="'ArialMT'" font-size="14">3</tspan><tspan x="115.787" y="0" font-family="'ArialMT'" font-size="14" letter-spacing="24">	</tspan><tspan x="144" y="0" font-family="'ArialMT'" font-size="14">4</tspan><tspan x="151.787" y="0" font-family="'ArialMT'" font-size="14" letter-spacing="24">	</tspan></text>
		<line fill="none" stroke="#010101" stroke-miterlimit="10" x1="25.556" y1="90.667" x2="230.637" y2="90.667"/>
	</g>
	<g>
		<line fill="none" stroke="#010101" x1="431.556" y1="31.667" x2="431.556" y2="91.125"/>
		<polygon fill="#010101" points="425.722,32.667 431.556,15.828 437.056,32.667   "/>
		<polygon fill="#010101" points="636.636,84.581 653.476,90.415 636.636,95.915   "/>
		<path fill="none" stroke="#010101" stroke-miterlimit="10" d="M431.722,53.167h36.666c0,0,4.167-14.333,9-11    c0,0,2.334,0.417,7.334,14c0,0,2.916,10.583,8,8.167c0,0,3.334-0.417,6.666-14.167c0,0,3.334-11.917,8.5-7.333    c0,0,2.667,1.833,6.5,13.333c0,0,4,12,8.5,7.5c0,0,3.334-2.666,6.168-13.5c0,0,3.166-12.667,9-7.667c0,0,2.291,0.562,5.666,13.5    c0,0,4.167,13.083,9.5,7.667c0,0,2.188-1.729,5-13.5c0,0,3.25-12.667,8.5-7.667c0,0,2.938,3.25,6.667,13.667    c0,0,5.021,12.333,8.833,7.667c0,0,3.812-4.646,4.667-10.561h30"/>
		<text transform="matrix(1 0 0 1 658.0552 94.8335)" font-family="'ArialMT'" font-size="14">t</text>
		<text transform="matrix(1 0 0 1 429.2222 106.333)"><tspan x="0" y="0" font-family="'ArialMT'" font-size="14">0</tspan><tspan x="7.786" y="0" font-family="'ArialMT'" font-size="14" letter-spacing="24">	</tspan><tspan x="36" y="0" font-family="'ArialMT'" font-size="14">1</tspan><tspan x="43.786" y="0" font-family="'ArialMT'" font-size="14" letter-spacing="24">	</tspan><tspan x="72" y="0" font-family="'ArialMT'" font-size="14">2</tspan><tspan x="79.786" y="0" font-family="'ArialMT'" font-size="14" letter-spacing="24">	</tspan><tspan x="108" y="0" font-family="'ArialMT'" font-size="14">3</tspan><tspan x="115.787" y="0" font-family="'ArialMT'" font-size="14" letter-spacing="24">	</tspan><tspan x="144" y="0" font-family="'ArialMT'" font-size="14">4</tspan><tspan x="151.787" y="0" font-family="'ArialMT'" font-size="14" letter-spacing="24">	</tspan></text>
		<line fill="none" stroke="#010101" stroke-miterlimit="10" x1="431.556" y1="90.667" x2="636.636" y2="90.667"/>
	</g>
	<polygon fill="#010101" points="401.636,47.489 418.476,53.323 401.636,58.823  "/>
	<line fill="none" stroke="#010101" stroke-miterlimit="10" x1="273.555" y1="53.576" x2="401.636" y2="53.576"/>
	<polygon fill="#010101" points="347.889,148.454 342.055,165.294 336.555,148.454  "/>
	<rect x="299.222" y="35" fill="#719FD0" stroke="#010101" width="86" height="96.5"/>
	<text transform="matrix(1 0 0 1 304.2227 56.8232)" font-family="'ArialMT'" font-size="11">AnalyserNode</text>
	<line fill="none" stroke="#010101" stroke-miterlimit="10" x1="341.803" y1="118" x2="341.803" y2="148.454"/>
	<text transform="matrix(1 0 0 1 331.8887 106.333)" font-family="'Arial-BoldMT'" font-size="11">FFT</text>
	<polygon fill="none" stroke="#2C2C76" stroke-miterlimit="10" points="321.889,86.667 362.889,86.667 354.889,116 329.556,116  "/>
</g>
<g id="Calque_4">
	<g>
		<text transform="matrix(1 0 0 1 478.2222 131.5)" font-family="'ArialMT'" font-size="11">sortie inchangée</text>
	</g>
	<text transform="matrix(1 0 0 1 287.2227 176.167)" font-family="'ArialMT'" font-size="11">données de fréquence</text>
</g>
</svg>