<svg xmlns="http://www.w3.org/2000/svg" width="719.5" height="248.722" xml:space="preserve"><path fill="none" stroke="#000" stroke-miterlimit="10" d="m191.75 122.152 311.964 33.235M51.833 183.75l118.844-54.493"/><path fill="none" stroke="#797A7D" stroke-miterlimit="10" d="M51.542 156.042v28m-.542 0h32.667m-32.125 0 19.666-19.959"/><path fill="#010101" d="m167.161 124.414 17.678-2.262-12.638 12.413z"/><path fill="none" stroke="#000" stroke-miterlimit="10" d="m192.78 118.25 116.136-60.047"/><path fill="#010101" d="m305.175 53.531 17.551-3.095-12.037 12.997z"/><path fill="#797A7D" d="m48.238 156.042 3.364-9.833 3.245 9.807zm34.916 24.696 9.833 3.364-9.807 3.245zm-14.807-18.467 9.066-5.081-4.126 9.472z"/><path fill="#010101" d="m499.591 149.274 16.157 7.522-17.312 3.753z"/><text transform="translate(45.5 197.25)" fill="#797A7D" font-family="'ArialMT'" font-size="12">0</text><path fill="none" stroke="#719FD0" d="m102.5 42 33.5 95.75M365.597 99l-148.421 20.2m105.55-60.997 85.774-8.157m-109 91.762L259 184.042"/><circle fill="#010101" stroke="#719FD0" cx="188.583" cy="120.917" r="4.667"/><path fill="none" stroke="#000" stroke-miterlimit="10" d="m198.616 115.232 11.946 2.08-9.979 5.856"/><g font-family="'ArialMT'" font-size="12"><text transform="translate(413.597 54.124)">Vecteur de direction haut</text><text transform="translate(373 101)">Les deux vecteurs forment un angle droit (90°)</text><text transform="translate(202.563 199.615)">Vecteur de direction face</text><text transform="translate(16.738 34.75)">Vecteur de positionnement plaçant la source dans l’espace</text></g></svg>