<svg xmlns="http://www.w3.org/2000/svg" width="798.989" height="339.657" xml:space="preserve"><linearGradient id="a" gradientUnits="userSpaceOnUse" x1="350.572" y1="166.922" x2="364.528" y2="101.264"><stop offset="0" style="stop-color:#000"/><stop offset=".047" style="stop-color:#4c4c4e;stop-opacity:.9676"/><stop offset=".119" style="stop-color:#76777a;stop-opacity:.9175"/><stop offset=".195" style="stop-color:#97999c;stop-opacity:.8649"/><stop offset=".272" style="stop-color:#b5b7b9;stop-opacity:.811"/><stop offset=".353" style="stop-color:#cfd0d2;stop-opacity:.7552"/><stop offset=".436" style="stop-color:#e2e3e4;stop-opacity:.6971"/><stop offset=".525" style="stop-color:#f1f1f2;stop-opacity:.6356"/><stop offset=".622" style="stop-color:#fafafa;stop-opacity:.5683"/><stop offset=".742" style="stop-color:#fff;stop-opacity:.4847"/><stop offset="1" style="stop-color:#828486;stop-opacity:0"/></linearGradient><path fill="url(#a)" stroke="#000" stroke-miterlimit="10" d="M191.465 132h317.667s18.667 4 9 26.333c0 0-15 28-42.667 34 0 0-8-.333-24-4 0 0-249.667-53.666-260-56.333z"/><path fill="none" stroke="#000" stroke-miterlimit="10" d="m191.465 132 363.333 37.828M32.131 206l144.667-66.333M131.131 231l60.334-97.667"/><circle fill="#010101" stroke="#719FD0" cx="192.465" cy="132" r="4.667"/><path fill="none" stroke="#797A7D" stroke-miterlimit="10" d="M31.84 178.292v28m-.542 0h32.666m-32.124 0 19.666-19.959"/><path fill="#010101" d="m136.265 233.093-13.96 11.078 4.397-17.16zm32.069-96.371 17.678-2.262-12.638 12.414z"/><path fill="#797A7D" d="m28.536 178.292 3.363-9.833 3.246 9.807zm34.916 24.696 9.833 3.364-9.807 3.245zm-14.807-18.467 9.065-5.081-4.126 9.472z"/><path fill="#010101" d="m556.342 163.985 16.157 7.522-17.312 3.753z"/><text transform="translate(25.798 219.5)" fill="#797A7D" font-family="'ArialMT'" font-size="12">0</text><path fill="none" stroke="#719FD0" d="m97.798 88.5 18.5 71.5m365-101-32.906 82.5m-280.469 42.25L211.298 271m319.183-96.246 14.611 56.468"/><g font-family="'ArialMT'" font-size="12"><text transform="translate(125.512 292.167)">Vecteur de velocité indique comment la source se déplace</text><text transform="translate(420.894 45.667)">Cone dans lequel on peut écouter le son</text><text transform="translate(413.394 251.167)">Vecteur indiquant la direction vers laquelle pointe le PannerNode</text><text transform="translate(31.298 73.417)">Vecteur de positionnement plaçant la source dans l’espace </text></g></svg>