<?xml version="1.0" encoding="UTF-8"?>
<!-- Generator: Adobe Illustrator 15.0.0, SVG Export Plug-In . SVG Version: 6.00 Build 0)  -->
<!DOCTYPE svg PUBLIC "-//W3C//DTD SVG 1.1//EN" "http://www.w3.org/Graphics/SVG/1.1/DTD/svg11.dtd">
<svg version="1.1" xmlns="http://www.w3.org/2000/svg" xmlns:xlink="http://www.w3.org/1999/xlink" x="0px" y="0px" width="798.989px" height="339.657px" viewBox="0 0 798.989 339.657" enable-background="new 0 0 798.989 339.657" xml:space="preserve">
<g id="Calque_2">
	<linearGradient id="SVGID_1_" gradientUnits="userSpaceOnUse" x1="350.5718" y1="166.9224" x2="364.5278" y2="101.2642">
		<stop offset="0" style="stop-color:#000000"/>
		<stop offset="0.0467" style="stop-color:#4C4C4E;stop-opacity:0.9676"/>
		<stop offset="0.1189" style="stop-color:#76777A;stop-opacity:0.9175"/>
		<stop offset="0.1946" style="stop-color:#97999C;stop-opacity:0.8649"/>
		<stop offset="0.2723" style="stop-color:#B5B7B9;stop-opacity:0.811"/>
		<stop offset="0.3526" style="stop-color:#CFD0D2;stop-opacity:0.7552"/>
		<stop offset="0.4363" style="stop-color:#E2E3E4;stop-opacity:0.6971"/>
		<stop offset="0.525" style="stop-color:#F1F1F2;stop-opacity:0.6356"/>
		<stop offset="0.6218" style="stop-color:#FAFAFA;stop-opacity:0.5683"/>
		<stop offset="0.7423" style="stop-color:#FFFFFF;stop-opacity:0.4847"/>
		<stop offset="1" style="stop-color:#828486;stop-opacity:0"/>
	</linearGradient>
	<path fill="url(#SVGID_1_)" stroke="#000000" stroke-miterlimit="10" d="M191.465,132h317.667c0,0,18.667,4,9,26.333   c0,0-15,28-42.667,34c0,0-8-0.333-24-4C451.465,188.333,201.798,134.667,191.465,132z"/>
	<line fill="none" stroke="#000000" stroke-miterlimit="10" x1="191.465" y1="132" x2="554.798" y2="169.828"/>
	<line fill="none" stroke="#000000" stroke-miterlimit="10" x1="32.131" y1="206" x2="176.798" y2="139.667"/>
	<line fill="none" stroke="#000000" stroke-miterlimit="10" x1="131.131" y1="231" x2="191.465" y2="133.333"/>
	<circle fill="#010101" stroke="#719FD0" cx="192.465" cy="132" r="4.667"/>
	<line fill="none" stroke="#797A7D" stroke-miterlimit="10" x1="31.84" y1="178.292" x2="31.84" y2="206.292"/>
	<line fill="none" stroke="#797A7D" stroke-miterlimit="10" x1="31.298" y1="206.292" x2="63.964" y2="206.292"/>
	<line fill="none" stroke="#797A7D" stroke-miterlimit="10" x1="31.84" y1="206.292" x2="51.506" y2="186.333"/>
	<polygon fill="#010101" points="136.265,233.093 122.305,244.171 126.702,227.011  "/>
	<polygon fill="#010101" points="168.334,136.722 186.012,134.46 173.374,146.874  "/>
	<polygon fill="#797A7D" points="28.536,178.292 31.899,168.459 35.145,178.266  "/>
	<polygon fill="#797A7D" points="63.452,202.988 73.285,206.352 63.478,209.597  "/>
	<polygon fill="#797A7D" points="48.645,184.521 57.71,179.44 53.584,188.912  "/>
	<polygon fill="#010101" points="556.342,163.985 572.499,171.507 555.187,175.26  "/>
	<text transform="matrix(1 0 0 1 25.7979 219.5)" fill="#797A7D" font-family="'ArialMT'" font-size="12">0</text>
	<line fill="none" stroke="#719FD0" x1="97.798" y1="88.5" x2="116.298" y2="160"/>
	<line fill="none" stroke="#719FD0" x1="481.298" y1="59" x2="448.392" y2="141.5"/>
	<line fill="none" stroke="#719FD0" x1="167.923" y1="183.75" x2="211.298" y2="271"/>
	<line fill="none" stroke="#719FD0" x1="530.481" y1="174.754" x2="545.092" y2="231.222"/>
</g>
<g id="Calque_4">
	<text transform="matrix(1 0 0 1 125.5117 292.167)" font-family="'ArialMT'" font-size="12">Vecteur de velocité indique comment la source se déplace</text>
	<text transform="matrix(1 0 0 1 420.8945 45.667)" font-family="'ArialMT'" font-size="12">Cone dans lequel on peut écouter le son</text>
	<text transform="matrix(1 0 0 1 413.3945 251.167)" font-family="'ArialMT'" font-size="12">Vecteur indiquant la direction vers laquelle pointe le PannerNode</text>
	<text transform="matrix(1 0 0 1 31.2979 73.417)" font-family="'ArialMT'" font-size="12">Vecteur de positionnement plaçant la source dans l’espace </text>
</g>
<script xmlns=""/></svg>