<?xml version="1.0" encoding="UTF-8"?>
<!-- Generator: Adobe Illustrator 15.0.0, SVG Export Plug-In . SVG Version: 6.00 Build 0)  -->
<!DOCTYPE svg PUBLIC "-//W3C//DTD SVG 1.1//EN" "http://www.w3.org/Graphics/SVG/1.1/DTD/svg11.dtd">
<svg version="1.1" xmlns="http://www.w3.org/2000/svg" xmlns:xlink="http://www.w3.org/1999/xlink" x="0px" y="0px" width="622.281px" height="109.5px" viewBox="0 0 622.281 109.5" enable-background="new 0 0 622.281 109.5" xml:space="preserve">
<g id="Calque_4">
	<g>
		<path fill="none" stroke="#9D9D9D" stroke-width="3" stroke-miterlimit="10" d="M162.011,86.586    c0,8.577-7.695,15.529-17.187,15.529h-21.961c-9.491,0-17.187-6.953-17.187-15.529V29.645c0-8.577,7.695-15.529,17.187-15.529    h21.961c9.491,0,17.187,6.953,17.187,15.529V86.586z"/>
		<text transform="matrix(1 0 0 1 122.6196 26.1665)" font-family="'ArialMT'" font-size="8">trame</text>
		<text transform="matrix(1 0 0 1 112.519 46.1665)" font-family="'ArialMT'" font-size="8">échantillon</text>
		<text transform="matrix(1 0 0 1 112.519 75.4995)" font-family="'ArialMT'" font-size="8">échantillon</text>
	</g>
	<g>
		<path fill="none" stroke="#9D9D9D" stroke-width="3" stroke-miterlimit="10" d="M218.345,86.586    c0,8.577-7.695,15.529-17.187,15.529h-21.961c-9.491,0-17.187-6.953-17.187-15.529V29.645c0-8.577,7.695-15.529,17.187-15.529    h21.961c9.491,0,17.187,6.953,17.187,15.529V86.586z"/>
		<text transform="matrix(1 0 0 1 178.9536 26.1665)" font-family="'ArialMT'" font-size="8">trame</text>
		<text transform="matrix(1 0 0 1 168.853 46.1665)" font-family="'ArialMT'" font-size="8">échantillon</text>
		<text transform="matrix(1 0 0 1 168.853 75.4995)" font-family="'ArialMT'" font-size="8">échantillon</text>
	</g>
	<g>
		<path fill="none" stroke="#9D9D9D" stroke-width="3" stroke-miterlimit="10" d="M274.679,86.586    c0,8.577-7.695,15.529-17.187,15.529h-21.961c-9.491,0-17.187-6.953-17.187-15.529V29.645c0-8.577,7.695-15.529,17.187-15.529    h21.961c9.491,0,17.187,6.953,17.187,15.529V86.586z"/>
		<text transform="matrix(1 0 0 1 235.2876 26.1665)" font-family="'ArialMT'" font-size="8">trame</text>
		<text transform="matrix(1 0 0 1 225.187 46.1665)" font-family="'ArialMT'" font-size="8">échantillon</text>
		<text transform="matrix(1 0 0 1 225.187 75.4995)" font-family="'ArialMT'" font-size="8">échantillon</text>
	</g>
	<g>
		<path fill="none" stroke="#9D9D9D" stroke-width="3" stroke-miterlimit="10" d="M331.013,86.586    c0,8.577-7.695,15.529-17.187,15.529h-21.961c-9.491,0-17.187-6.953-17.187-15.529V29.645c0-8.577,7.695-15.529,17.187-15.529    h21.961c9.491,0,17.187,6.953,17.187,15.529V86.586z"/>
		<text transform="matrix(1 0 0 1 291.6216 26.1665)" font-family="'ArialMT'" font-size="8">trame</text>
		<text transform="matrix(1 0 0 1 281.521 46.1665)" font-family="'ArialMT'" font-size="8">échantillon</text>
		<text transform="matrix(1 0 0 1 281.521 75.4995)" font-family="'ArialMT'" font-size="8">échantillon</text>
	</g>
	<g>
		<path fill="none" stroke="#9D9D9D" stroke-width="3" stroke-miterlimit="10" d="M218.345,86.586    c0,8.577-7.695,15.529-17.187,15.529h-21.961c-9.491,0-17.187-6.953-17.187-15.529V29.645c0-8.577,7.695-15.529,17.187-15.529    h21.961c9.491,0,17.187,6.953,17.187,15.529V86.586z"/>
		<text transform="matrix(1 0 0 1 178.9536 26.1665)" font-family="'ArialMT'" font-size="8">trame</text>
		<text transform="matrix(1 0 0 1 168.853 46.1665)" font-family="'ArialMT'" font-size="8">échantillon</text>
		<text transform="matrix(1 0 0 1 168.853 75.4995)" font-family="'ArialMT'" font-size="8">échantillon</text>
	</g>
	<g>
		<path fill="none" stroke="#9D9D9D" stroke-width="3" stroke-miterlimit="10" d="M274.679,86.586    c0,8.577-7.695,15.529-17.187,15.529h-21.961c-9.491,0-17.187-6.953-17.187-15.529V29.645c0-8.577,7.695-15.529,17.187-15.529    h21.961c9.491,0,17.187,6.953,17.187,15.529V86.586z"/>
		<text transform="matrix(1 0 0 1 235.2876 26.1665)" font-family="'ArialMT'" font-size="8">trame</text>
		<text transform="matrix(1 0 0 1 225.187 46.1665)" font-family="'ArialMT'" font-size="8">échantillon</text>
		<text transform="matrix(1 0 0 1 225.187 75.4995)" font-family="'ArialMT'" font-size="8">échantillon</text>
	</g>
	<g>
		<path fill="none" stroke="#9D9D9D" stroke-width="3" stroke-miterlimit="10" d="M331.013,86.586    c0,8.577-7.695,15.529-17.187,15.529h-21.961c-9.491,0-17.187-6.953-17.187-15.529V29.645c0-8.577,7.695-15.529,17.187-15.529    h21.961c9.491,0,17.187,6.953,17.187,15.529V86.586z"/>
		<text transform="matrix(1 0 0 1 291.6216 26.1665)" font-family="'ArialMT'" font-size="8">trame</text>
		<text transform="matrix(1 0 0 1 281.521 46.1665)" font-family="'ArialMT'" font-size="8">échantillon</text>
		<text transform="matrix(1 0 0 1 281.521 75.4995)" font-family="'ArialMT'" font-size="8">échantillon</text>
	</g>
	<g>
		<path fill="none" stroke="#9D9D9D" stroke-width="3" stroke-miterlimit="10" d="M387.347,86.586    c0,8.577-7.695,15.529-17.187,15.529h-21.961c-9.491,0-17.187-6.953-17.187-15.529V29.645c0-8.577,7.695-15.529,17.187-15.529    h21.961c9.491,0,17.187,6.953,17.187,15.529V86.586z"/>
		<text transform="matrix(1 0 0 1 347.9551 26.1665)" font-family="'ArialMT'" font-size="8">trame</text>
		<text transform="matrix(1 0 0 1 337.855 46.1665)" font-family="'ArialMT'" font-size="8">échantillon</text>
		<text transform="matrix(1 0 0 1 337.855 75.4995)" font-family="'ArialMT'" font-size="8">échantillon</text>
	</g>
	<g>
		<path fill="none" stroke="#9D9D9D" stroke-width="3" stroke-miterlimit="10" d="M443.681,86.586    c0,8.577-7.695,15.529-17.187,15.529h-21.961c-9.491,0-17.187-6.953-17.187-15.529V29.645c0-8.577,7.695-15.529,17.187-15.529    h21.961c9.491,0,17.187,6.953,17.187,15.529V86.586z"/>
		<text transform="matrix(1 0 0 1 404.2891 26.1665)" font-family="'ArialMT'" font-size="8">trame</text>
		<text transform="matrix(1 0 0 1 394.1895 46.1665)" font-family="'ArialMT'" font-size="8">échantillon</text>
		<text transform="matrix(1 0 0 1 394.1895 75.4995)" font-family="'ArialMT'" font-size="8">échantillon</text>
	</g>
	<g>
		<path fill="none" stroke="#9D9D9D" stroke-width="3" stroke-miterlimit="10" d="M500.015,86.586    c0,8.577-7.695,15.529-17.187,15.529h-21.961c-9.491,0-17.187-6.953-17.187-15.529V29.645c0-8.577,7.695-15.529,17.187-15.529    h21.961c9.491,0,17.187,6.953,17.187,15.529V86.586z"/>
		<text transform="matrix(1 0 0 1 460.623 26.1665)" font-family="'ArialMT'" font-size="8">trame</text>
		<text transform="matrix(1 0 0 1 450.5234 46.1665)" font-family="'ArialMT'" font-size="8">échantillon</text>
		<text transform="matrix(1 0 0 1 450.5234 75.4995)" font-family="'ArialMT'" font-size="8">échantillon</text>
	</g>
	<g>
		<path fill="none" stroke="#9D9D9D" stroke-width="3" stroke-miterlimit="10" d="M556.349,86.586    c0,8.577-7.695,15.529-17.187,15.529h-21.961c-9.491,0-17.187-6.953-17.187-15.529V29.645c0-8.577,7.695-15.529,17.187-15.529    h21.961c9.491,0,17.187,6.953,17.187,15.529V86.586z"/>
		<text transform="matrix(1 0 0 1 516.957 26.1665)" font-family="'ArialMT'" font-size="8">trame</text>
		<text transform="matrix(1 0 0 1 506.8574 46.1665)" font-family="'ArialMT'" font-size="8">échantillon</text>
		<text transform="matrix(1 0 0 1 506.8574 75.4995)" font-family="'ArialMT'" font-size="8">échantillon</text>
	</g>
	<g>
		<path fill="none" stroke="#9D9D9D" stroke-width="3" stroke-miterlimit="10" d="M443.681,86.586    c0,8.577-7.695,15.529-17.187,15.529h-21.961c-9.491,0-17.187-6.953-17.187-15.529V29.645c0-8.577,7.695-15.529,17.187-15.529    h21.961c9.491,0,17.187,6.953,17.187,15.529V86.586z"/>
		<text transform="matrix(1 0 0 1 404.2891 26.1665)" font-family="'ArialMT'" font-size="8">trame</text>
		<text transform="matrix(1 0 0 1 394.1895 46.1665)" font-family="'ArialMT'" font-size="8">échantillon</text>
		<text transform="matrix(1 0 0 1 394.1895 75.4995)" font-family="'ArialMT'" font-size="8">échantillon</text>
	</g>
	<g>
		<path fill="none" stroke="#9D9D9D" stroke-width="3" stroke-miterlimit="10" d="M500.015,86.586    c0,8.577-7.695,15.529-17.187,15.529h-21.961c-9.491,0-17.187-6.953-17.187-15.529V29.645c0-8.577,7.695-15.529,17.187-15.529    h21.961c9.491,0,17.187,6.953,17.187,15.529V86.586z"/>
		<text transform="matrix(1 0 0 1 460.623 26.1665)" font-family="'ArialMT'" font-size="8">trame</text>
		<text transform="matrix(1 0 0 1 450.5234 46.1665)" font-family="'ArialMT'" font-size="8">échantillon</text>
		<text transform="matrix(1 0 0 1 450.5234 75.4995)" font-family="'ArialMT'" font-size="8">échantillon</text>
	</g>
	<g>
		<path fill="none" stroke="#9D9D9D" stroke-width="3" stroke-miterlimit="10" d="M556.349,86.586    c0,8.577-7.695,15.529-17.187,15.529h-21.961c-9.491,0-17.187-6.953-17.187-15.529V29.645c0-8.577,7.695-15.529,17.187-15.529    h21.961c9.491,0,17.187,6.953,17.187,15.529V86.586z"/>
		<text transform="matrix(1 0 0 1 516.957 26.1665)" font-family="'ArialMT'" font-size="8">trame</text>
		<text transform="matrix(1 0 0 1 506.8574 46.1665)" font-family="'ArialMT'" font-size="8">échantillon</text>
		<text transform="matrix(1 0 0 1 506.8574 75.4995)" font-family="'ArialMT'" font-size="8">échantillon</text>
	</g>
	<g>
		<path fill="none" stroke="#9D9D9D" stroke-width="3" stroke-miterlimit="10" d="M387.347,86.586    c0,8.577-7.695,15.529-17.187,15.529h-21.961c-9.491,0-17.187-6.953-17.187-15.529V29.645c0-8.577,7.695-15.529,17.187-15.529    h21.961c9.491,0,17.187,6.953,17.187,15.529V86.586z"/>
		<text transform="matrix(1 0 0 1 347.9551 26.1665)" font-family="'ArialMT'" font-size="8">trame</text>
		<text transform="matrix(1 0 0 1 337.855 46.1665)" font-family="'ArialMT'" font-size="8">échantillon</text>
		<text transform="matrix(1 0 0 1 337.855 75.4995)" font-family="'ArialMT'" font-size="8">échantillon</text>
	</g>
	<g>
		<path fill="none" stroke="#9D9D9D" stroke-width="3" stroke-miterlimit="10" d="M443.681,86.586    c0,8.577-7.695,15.529-17.187,15.529h-21.961c-9.491,0-17.187-6.953-17.187-15.529V29.645c0-8.577,7.695-15.529,17.187-15.529    h21.961c9.491,0,17.187,6.953,17.187,15.529V86.586z"/>
		<text transform="matrix(1 0 0 1 404.2891 26.1665)" font-family="'ArialMT'" font-size="8">trame</text>
		<text transform="matrix(1 0 0 1 394.1895 46.1665)" font-family="'ArialMT'" font-size="8">échantillon</text>
		<text transform="matrix(1 0 0 1 394.1895 75.4995)" font-family="'ArialMT'" font-size="8">échantillon</text>
	</g>
	<g>
		<path fill="none" stroke="#9D9D9D" stroke-width="3" stroke-miterlimit="10" d="M500.015,86.586    c0,8.577-7.695,15.529-17.187,15.529h-21.961c-9.491,0-17.187-6.953-17.187-15.529V29.645c0-8.577,7.695-15.529,17.187-15.529    h21.961c9.491,0,17.187,6.953,17.187,15.529V86.586z"/>
		<text transform="matrix(1 0 0 1 460.623 26.1665)" font-family="'ArialMT'" font-size="8">trame</text>
		<text transform="matrix(1 0 0 1 450.5234 46.1665)" font-family="'ArialMT'" font-size="8">échantillon</text>
		<text transform="matrix(1 0 0 1 450.5234 75.4995)" font-family="'ArialMT'" font-size="8">échantillon</text>
	</g>
	<g>
		<path fill="none" stroke="#9D9D9D" stroke-width="3" stroke-miterlimit="10" d="M556.349,86.586    c0,8.577-7.695,15.529-17.187,15.529h-21.961c-9.491,0-17.187-6.953-17.187-15.529V29.645c0-8.577,7.695-15.529,17.187-15.529    h21.961c9.491,0,17.187,6.953,17.187,15.529V86.586z"/>
		<text transform="matrix(1 0 0 1 516.957 26.1665)" font-family="'ArialMT'" font-size="8">trame</text>
		<text transform="matrix(1 0 0 1 506.8574 46.1665)" font-family="'ArialMT'" font-size="8">échantillon</text>
		<text transform="matrix(1 0 0 1 506.8574 75.4995)" font-family="'ArialMT'" font-size="8">échantillon</text>
	</g>
	<g>
		<path fill="none" stroke="#9D9D9D" stroke-width="3" stroke-miterlimit="10" d="M612.683,86.586    c0,8.577-7.695,15.529-17.187,15.529h-21.961c-9.491,0-17.187-6.953-17.187-15.529V29.645c0-8.577,7.695-15.529,17.187-15.529    h21.961c9.491,0,17.187,6.953,17.187,15.529V86.586z"/>
		<text transform="matrix(1 0 0 1 573.291 26.1665)" font-family="'ArialMT'" font-size="8">trame</text>
		<text transform="matrix(1 0 0 1 563.1914 46.1665)" font-family="'ArialMT'" font-size="8">échantillon</text>
		<text transform="matrix(1 0 0 1 563.1914 75.4995)" font-family="'ArialMT'" font-size="8">échantillon</text>
	</g>
	<g>
		<path fill="none" stroke="#9D9D9D" stroke-width="3" stroke-miterlimit="10" d="M612.683,86.586    c0,8.577-7.695,15.529-17.187,15.529h-21.961c-9.491,0-17.187-6.953-17.187-15.529V29.645c0-8.577,7.695-15.529,17.187-15.529    h21.961c9.491,0,17.187,6.953,17.187,15.529V86.586z"/>
		<text transform="matrix(1 0 0 1 573.291 26.1665)" font-family="'ArialMT'" font-size="8">trame</text>
		<text transform="matrix(1 0 0 1 563.1914 46.1665)" font-family="'ArialMT'" font-size="8">échantillon</text>
		<text transform="matrix(1 0 0 1 563.1914 75.4995)" font-family="'ArialMT'" font-size="8">échantillon</text>
	</g>
	<text transform="matrix(1 0 0 1 19.2275 48.833)" font-family="'ArialMT'" font-size="10">canal gauche -&gt;</text>
	<text transform="matrix(1 0 0 1 33.082 76.4995)" font-family="'ArialMT'" font-size="10">canal droit -&gt;</text>
</g>
<g id="Calque_3">
	<line fill="none" stroke="#000000" stroke-miterlimit="10" x1="105.352" y1="59" x2="612.7" y2="59"/>
	<path fill="none" stroke="#000000" stroke-miterlimit="10" d="M612.7,72.27c0,9.452-5.272,17.115-11.777,17.115H117.129   c-6.504,0-11.777-7.663-11.777-17.115V48.5c0-9.452,5.273-17.115,11.777-17.115h483.794c6.505,0,11.777,7.663,11.777,17.115V72.27z   "/>
</g>
</svg>