<?xml version="1.0" encoding="UTF-8" standalone="no"?>
<svg
   style="background-color:#fff"
   width="652"
   height="253"
   viewBox="-0.5 -0.5 652 253"
   version="1.1"
   id="svg21"
   xmlns="http://www.w3.org/2000/svg"
   xmlns:svg="http://www.w3.org/2000/svg">
  <defs
     id="defs21" />
  <path
     fill="none"
     pointer-events="all"
     d="M78 0h98v98H78z"
     id="path1" />
  <path
     d="M162.2 81.77v-6.61h-16.23v-3.79h27.55c.99 0 1.79-.73 1.79-1.63V1.64c0-.91-.8-1.64-1.79-1.64H80.14c-.99 0-1.79.73-1.79 1.64v68.09c0 .91.8 1.63 1.79 1.63h27.88v3.79H91.8v6.61L78 90.75V98h98v-7.25l-13.8-8.98zM84.9 64.93V5.92c0-.78.69-1.41 1.53-1.41h80.43c.85 0 1.54.63 1.54 1.41v59.01c0 .78-.7 1.41-1.54 1.41H86.44c-.85 0-1.54-.64-1.54-1.41zm-2.08 25.5 12.44-8.03h63.48l12.42 8.03H82.82z"
     pointer-events="all"
     id="path2" />
  <path
     d="M550 18v10m20-10v10m-10-10v10"
     fill="none"
     stroke="#000"
     stroke-width="5"
     stroke-miterlimit="10"
     pointer-events="stroke"
     id="path3" />
  <path
     fill="none"
     pointer-events="all"
     d="M78 0h98v98H78z"
     id="path4" />
  <path
     d="M162.2 81.77v-6.61h-16.23v-3.79h27.55c.99 0 1.79-.73 1.79-1.63V1.64c0-.91-.8-1.64-1.79-1.64H80.14c-.99 0-1.79.73-1.79 1.64v68.09c0 .91.8 1.63 1.79 1.63h27.88v3.79H91.8v6.61L78 90.75V98h98v-7.25l-13.8-8.98zM84.9 64.93V5.92c0-.78.69-1.41 1.53-1.41h80.43c.85 0 1.54.63 1.54 1.41v59.01c0 .78-.7 1.41-1.54 1.41H86.44c-.85 0-1.54-.64-1.54-1.41zm-2.08 25.5 12.44-8.03h63.48l12.42 8.03H82.82z"
     pointer-events="all"
     id="path5" />
  <path
     fill="#FFF"
     stroke="#000"
     stroke-width="5"
     pointer-events="all"
     d="M529 9h120v60H529z"
     id="path6" />
  <path
     d="M541 18v10m20-10v10m-10-10v10"
     fill="none"
     stroke="#000"
     stroke-width="5"
     stroke-miterlimit="10"
     pointer-events="stroke"
     id="path7" />
  <path
     d="M128 123h451.76"
     fill="none"
     stroke="#000"
     stroke-width="2"
     stroke-miterlimit="10"
     pointer-events="stroke"
     id="path8" />
  <path
     d="m585.76 123-8 4 2-4-2-4z"
     stroke="#000"
     stroke-width="2"
     stroke-miterlimit="10"
     pointer-events="all"
     id="path9" />
  <g
     font-family="Helvetica"
     text-anchor="middle"
     font-size="16"
     id="g10">
    <path
       fill="#FFF"
       d="M237 121h256v20H237z"
       id="path10" />
    <text
       x="364"
       y="126.5"
       id="text10"><tspan
         style="font-style:normal;font-variant:normal;font-weight:normal;font-stretch:normal;font-family:'Yu Gothic UI';-inkscape-font-specification:'Yu Gothic UI'"
         id="tspan22">ページをリクエスト (HTML, JS, CSS, ...)</tspan></text>
  </g>
  <path
     d="M128 200h451.76"
     fill="none"
     stroke="#000"
     stroke-width="2"
     stroke-miterlimit="10"
     pointer-events="stroke"
     id="path11" />
  <path
     d="m585.76 200-8 4 2-4-2-4z"
     stroke="#000"
     stroke-width="2"
     stroke-miterlimit="10"
     pointer-events="all"
     id="path12" />
  <g
     font-family="Helvetica"
     text-anchor="middle"
     font-size="16"
     id="g13">
    <path
       fill="#FFF"
       d="M237 197h256v20H237z"
       id="path13" />
    <text
       x="364"
       y="202.5"
       id="text13"><tspan
         style="font-style:normal;font-variant:normal;font-weight:normal;font-stretch:normal;font-family:'Yu Gothic UI';-inkscape-font-specification:'Yu Gothic UI'"
         id="tspan21">ページをリクエスト (HTML, JS, CSS, ...)</tspan></text>
  </g>
  <path
     d="m127 250-.5-152M588 250V69"
     fill="none"
     stroke="#000"
     stroke-width="3"
     stroke-miterlimit="10"
     stroke-dasharray="9 9"
     pointer-events="stroke"
     id="path14" />
  <path
     d="M588 150H136.24"
     fill="none"
     stroke="#000"
     stroke-width="2"
     stroke-miterlimit="10"
     pointer-events="stroke"
     id="path15" />
  <path
     d="m130.24 150 8-4-2 4 2 4z"
     stroke="#000"
     stroke-width="2"
     stroke-miterlimit="10"
     pointer-events="all"
     id="path16" />
  <path
     d="M588 230H136.24"
     fill="none"
     stroke="#000"
     stroke-width="2"
     stroke-miterlimit="10"
     pointer-events="stroke"
     id="path17" />
  <path
     d="m130.24 230 8-4-2 4 2 4z"
     stroke="#000"
     stroke-width="2"
     stroke-miterlimit="10"
     pointer-events="all"
     id="path18" />
  <path
     d="M8 180h101.76"
     fill="none"
     stroke="#000"
     stroke-width="2"
     stroke-miterlimit="10"
     pointer-events="stroke"
     id="path19" />
  <path
     d="m115.76 180-8 4 2-4-2-4z"
     stroke="#000"
     stroke-width="2"
     stroke-miterlimit="10"
     pointer-events="all"
     id="path20" />
  <g
     font-family="Helvetica"
     text-anchor="middle"
     font-size="16"
     id="g21">
    <path
       fill="#FFF"
       d="M22 171h71v20H22z"
       id="path21" />
    <text
       x="56"
       y="186"
       id="text21"><tspan
         style="font-style:normal;font-variant:normal;font-weight:normal;font-stretch:normal;font-family:'Yu Gothic UI';-inkscape-font-specification:'Yu Gothic UI'"
         id="tspan23">ナビゲート</tspan></text>
  </g>
</svg>
