<svg xmlns="http://www.w3.org/2000/svg" xmlns:xl="http://www.w3.org/1999/xlink" viewBox="141 24 632 653" width="632pt" height="653pt"><defs><linearGradient x1="0" x2="1" id="a" gradientUnits="userSpaceOnUse"><stop offset="0" stop-color="#e5f2f2"/><stop offset="1" stop-color="#cff2f2"/></linearGradient><linearGradient id="b" xl:href="#a" gradientTransform="matrix(0 65 -65 0 194 257.5)"/><linearGradient id="d" xl:href="#a" gradientTransform="matrix(0 41 -41 0 453.5 88.5)"/><linearGradient id="e" xl:href="#a" gradientTransform="matrix(0 41 -41 0 465.5 77.5)"/><linearGradient id="f" xl:href="#a" gradientTransform="matrix(0 41 -41 0 477.25 65.5)"/><linearGradient id="g" xl:href="#a" gradientTransform="matrix(0 41 -41 0 543 89)"/><linearGradient id="h" xl:href="#a" gradientTransform="matrix(0 41 -41 0 555 78)"/><linearGradient id="i" xl:href="#a" gradientTransform="matrix(0 41 -41 0 566.75 66)"/><linearGradient id="j" xl:href="#a" gradientTransform="matrix(0 41 -41 0 452.5 226.75)"/><linearGradient id="k" xl:href="#a" gradientTransform="matrix(0 41 -41 0 464.5 215.75)"/><linearGradient id="l" xl:href="#a" gradientTransform="rotate(90 136.25 340) scale(41)"/><linearGradient id="m" xl:href="#a" gradientTransform="matrix(0 41 -41 0 542 227.25)"/><linearGradient id="n" xl:href="#a" gradientTransform="matrix(0 41 -41 0 554 216.25)"/><linearGradient id="o" xl:href="#a" gradientTransform="rotate(90 180.75 385) scale(41)"/><linearGradient id="p" xl:href="#a" gradientTransform="matrix(0 41 -41 0 453.625 374)"/><linearGradient id="q" xl:href="#a" gradientTransform="matrix(0 41 -41 0 465.625 363)"/><linearGradient id="r" xl:href="#a" gradientTransform="matrix(0 41 -41 0 477.375 351)"/><linearGradient id="s" xl:href="#a" gradientTransform="matrix(0 41 -41 0 565.59 374)"/><linearGradient id="t" xl:href="#a" gradientTransform="matrix(0 41 -41 0 635.125 374)"/><linearGradient id="u" xl:href="#a" gradientTransform="matrix(0 41 -41 0 704.66 374)"/><linearGradient id="v" xl:href="#a" gradientTransform="matrix(0 41 -41 0 451.75 534.75)"/><linearGradient id="w" xl:href="#a" gradientTransform="rotate(90 -30 493.75) scale(41)"/><linearGradient id="x" xl:href="#a" gradientTransform="matrix(0 41 -41 0 475.5 511.75)"/><linearGradient id="y" xl:href="#a" gradientTransform="rotate(90 5.5 540.25) scale(41)"/><linearGradient id="z" xl:href="#a" gradientTransform="rotate(90 17 540.75) scale(41)"/><linearGradient id="A" xl:href="#a" gradientTransform="matrix(0 41 -41 0 569.5 511.75)"/><linearGradient id="B" xl:href="#a" gradientTransform="matrix(0 41 -41 0 451.875 614.25)"/><linearGradient id="C" xl:href="#a" gradientTransform="matrix(0 41 -41 0 463.875 603.25)"/><linearGradient id="D" xl:href="#a" gradientTransform="matrix(0 41 -41 0 475.625 591.25)"/><linearGradient id="E" xl:href="#a" gradientTransform="matrix(0 41 -41 0 545.375 614.25)"/><linearGradient id="F" xl:href="#a" gradientTransform="matrix(0 41 -41 0 557.375 603.25)"/><linearGradient id="G" xl:href="#a" gradientTransform="matrix(0 41 -41 0 569.125 591.25)"/><marker orient="auto" overflow="visible" markerUnits="strokeWidth" id="c" viewBox="-1 -4 10 8" markerWidth="10" markerHeight="8" color="#000"><path d="M8 0 0-3v6Z" fill="currentColor" stroke="currentColor"/></marker></defs><g fill="none"><path d="M245 276.733c0-6.157-1.295-6.919-10.758-13.012l-.1-.064c-9.512-6.157-9.611-6.157-19.374-6.157H143v65h102v-45.767Z" fill="url(#b)"/><path d="M245 276.733c0-6.157-1.295-6.919-10.758-13.012l-.1-.064c-9.512-6.157-9.611-6.157-19.374-6.157H143v65h102v-45.767Zm0-.317c0-5.84-.1-5.84-20.47-5.84h0c0-13.012 0-13.076-9.164-13.076" stroke="#000" stroke-linecap="round" stroke-linejoin="round"/><text transform="translate(148 281.5)" fill="#000"><tspan font-family="Helvetica" font-size="14" font-weight="500" x="4.759" y="14" textLength="82.482">manifest.json</tspan></text><path fill="#fff" d="M409 304h362v146H409z"/><path d="M409 304h362v146H409Z" stroke="#000" stroke-linecap="round" stroke-linejoin="round" stroke-dasharray="1,4"/><text transform="translate(527 312.125)" fill="#000"><tspan font-family="Helvetica Neue" font-size="16" font-weight="500" x=".232" y="15" textLength="16.288">Br</tspan><tspan font-family="Helvetica Neue" font-size="16" font-weight="500" x="16.232" y="15" textLength="91.536">owser action</tspan></text><path fill="#fff" d="M522 343.5h227.75v87H522z"/><path d="M522 343.5h227.75v87H522Z" stroke="#000" stroke-linecap="round" stroke-linejoin="round" stroke-dasharray="1,4"/><text transform="translate(607.875 349.5)" fill="#000"><tspan font-family="Helvetica Neue" font-size="16" font-weight="500" x=".288" y="15" textLength="47.424">Popup</tspan></text><path fill="#fff" d="M410 26.5h196.25v119H410z"/><path d="M410 26.5h196.25v119H410Z" stroke="#000" stroke-linecap="round" stroke-linejoin="round" stroke-dasharray="1,4"/><text transform="translate(438.054 33.75)" fill="#000"><tspan font-family="Helvetica Neue" font-size="16" font-weight="500" x="2.351" y="15" textLength="50.96">Backgr</tspan><tspan font-family="Helvetica Neue" font-size="16" font-weight="500" x="53.023" y="15" textLength="84.768">ound pages</tspan></text><path marker-end="url(#c)" stroke="#000" stroke-linecap="round" stroke-linejoin="round" d="M245 290 403.774 93.697"/><path marker-end="url(#c)" stroke="#000" stroke-linecap="round" stroke-linejoin="round" d="m245 290 155.254 82.361"/><path fill="#fff" d="M407 471.75h208.875v202.5H407z"/><path d="M407 471.75h208.875v202.5H407Z" stroke="#000" stroke-linecap="round" stroke-linejoin="round" stroke-dasharray="1,4"/><text transform="translate(417.938 483.25)" fill="#000"><tspan font-family="Helvetica Neue" font-size="16" font-weight="500" x=".316" y="15" textLength="14.816">W</tspan><tspan font-family="Helvetica Neue" font-size="16" font-weight="500" x="14.22" y="15" textLength="107.856">eb accessible r</tspan><tspan font-family="Helvetica Neue" font-size="16" font-weight="500" x="121.788" y="15" textLength="40">esour</tspan><tspan font-family="Helvetica Neue" font-size="16" font-weight="500" x="161.5" y="15" textLength="25.184">ces</tspan></text><path d="M479.25 100.632c0-3.884-.654-4.365-5.432-8.208l-.05-.04c-4.803-3.884-4.853-3.884-9.782-3.884H427.75v41h51.5v-28.868Z" fill="url(#d)"/><path d="M479.25 100.632c0-3.884-.654-4.365-5.432-8.208l-.05-.04c-4.803-3.884-4.853-3.884-9.782-3.884H427.75v41h51.5v-28.868Zm0-.2c0-3.684-.05-3.684-10.335-3.684h0c0-8.208 0-8.248-4.627-8.248" stroke="#000" stroke-linecap="round" stroke-linejoin="round"/><path d="M491.25 89.632c0-3.884-.654-4.365-5.432-8.208l-.05-.04c-4.803-3.884-4.853-3.884-9.782-3.884H439.75v41h51.5V89.632Z" fill="url(#e)"/><path d="M491.25 89.632c0-3.884-.654-4.365-5.432-8.208l-.05-.04c-4.803-3.884-4.853-3.884-9.782-3.884H439.75v41h51.5V89.632Zm0-.2c0-3.684-.05-3.684-10.335-3.684h0c0-8.208 0-8.248-4.627-8.248" stroke="#000" stroke-linecap="round" stroke-linejoin="round"/><path d="M503 77.632c0-3.884-.654-4.365-5.432-8.208l-.05-.04c-4.803-3.884-4.853-3.884-9.782-3.884H451.5v41H503V77.632Z" fill="url(#f)"/><path d="M503 77.632c0-3.884-.654-4.365-5.432-8.208l-.05-.04c-4.803-3.884-4.853-3.884-9.782-3.884H451.5v41H503V77.632Zm0-.2c0-3.684-.05-3.684-10.335-3.684h0c0-8.208 0-8.248-4.627-8.248" stroke="#000" stroke-linecap="round" stroke-linejoin="round"/><text transform="translate(456.5 77.5)" fill="#000"><tspan font-family="Helvetica" font-size="14" font-weight="500" x="1.951" y="14" textLength="38.11">HTML</tspan><tspan font-family="Helvetica" font-size="14" font-weight="500" x="39.549" y="14" textLength="3.89"> </tspan></text><path d="M568.75 101.132c0-3.884-.654-4.365-5.432-8.208l-.05-.04C558.465 89 558.415 89 553.486 89H517.25v41h51.5v-28.868Z" fill="url(#g)"/><path d="M568.75 101.132c0-3.884-.654-4.365-5.432-8.208l-.05-.04C558.465 89 558.415 89 553.486 89H517.25v41h51.5v-28.868Zm0-.2c0-3.684-.05-3.684-10.335-3.684h0c0-8.208 0-8.248-4.627-8.248" stroke="#000" stroke-linecap="round" stroke-linejoin="round"/><path d="M580.75 90.132c0-3.884-.654-4.365-5.432-8.208l-.05-.04C570.465 78 570.415 78 565.486 78H529.25v41h51.5V90.132Z" fill="url(#h)"/><path d="M580.75 90.132c0-3.884-.654-4.365-5.432-8.208l-.05-.04C570.465 78 570.415 78 565.486 78H529.25v41h51.5V90.132Zm0-.2c0-3.684-.05-3.684-10.335-3.684h0c0-8.208 0-8.248-4.627-8.248" stroke="#000" stroke-linecap="round" stroke-linejoin="round"/><path d="M592.5 78.132c0-3.884-.654-4.365-5.432-8.208l-.05-.04C582.215 66 582.165 66 577.236 66H541v41h51.5V78.132Z" fill="url(#i)"/><path d="M592.5 78.132c0-3.884-.654-4.365-5.432-8.208l-.05-.04C582.215 66 582.165 66 577.236 66H541v41h51.5V78.132Zm0-.2c0-3.684-.05-3.684-10.335-3.684h0c0-8.208 0-8.248-4.627-8.248" stroke="#000" stroke-linecap="round" stroke-linejoin="round"/><text transform="translate(546 78)" fill="#000"><tspan font-family="Helvetica" font-size="14" font-weight="500" x="12.581" y="14" textLength="20.228">JS </tspan></text><path fill="#fff" d="M409 164.75h196.25v119H409z"/><path d="M409 164.75h196.25v119H409Z" stroke="#000" stroke-linecap="round" stroke-linejoin="round" stroke-dasharray="1,4"/><text transform="translate(450.84 170.75)" fill="#000"><tspan font-family="Helvetica Neue" font-size="16" font-weight="500" x="2.461" y="15" textLength="109.648">Content scripts</tspan></text><path d="M478.25 238.882c0-3.884-.654-4.365-5.432-8.208l-.05-.04c-4.803-3.884-4.853-3.884-9.782-3.884H426.75v41h51.5v-28.868Z" fill="url(#j)"/><path d="M478.25 238.882c0-3.884-.654-4.365-5.432-8.208l-.05-.04c-4.803-3.884-4.853-3.884-9.782-3.884H426.75v41h51.5v-28.868Zm0-.2c0-3.684-.05-3.684-10.335-3.684h0c0-8.208 0-8.248-4.627-8.248" stroke="#000" stroke-linecap="round" stroke-linejoin="round"/><path d="M490.25 227.882c0-3.884-.654-4.365-5.432-8.208l-.05-.04c-4.803-3.884-4.853-3.884-9.782-3.884H438.75v41h51.5v-28.868Z" fill="url(#k)"/><path d="M490.25 227.882c0-3.884-.654-4.365-5.432-8.208l-.05-.04c-4.803-3.884-4.853-3.884-9.782-3.884H438.75v41h51.5v-28.868Zm0-.2c0-3.684-.05-3.684-10.335-3.684h0c0-8.208 0-8.248-4.627-8.248" stroke="#000" stroke-linecap="round" stroke-linejoin="round"/><path d="M502 215.882c0-3.884-.654-4.365-5.432-8.208l-.05-.04c-4.803-3.884-4.853-3.884-9.782-3.884H450.5v41H502v-28.868Z" fill="url(#l)"/><path d="M502 215.882c0-3.884-.654-4.365-5.432-8.208l-.05-.04c-4.803-3.884-4.853-3.884-9.782-3.884H450.5v41H502v-28.868Zm0-.2c0-3.684-.05-3.684-10.335-3.684h0c0-8.208 0-8.248-4.627-8.248" stroke="#000" stroke-linecap="round" stroke-linejoin="round"/><text transform="translate(455.5 215.75)" fill="#000"><tspan font-family="Helvetica" font-size="14" font-weight="500" x="12.581" y="14" textLength="20.228">JS </tspan></text><path d="M567.75 239.382c0-3.884-.654-4.365-5.432-8.208l-.05-.04c-4.803-3.884-4.853-3.884-9.782-3.884H516.25v41h51.5v-28.868Z" fill="url(#m)"/><path d="M567.75 239.382c0-3.884-.654-4.365-5.432-8.208l-.05-.04c-4.803-3.884-4.853-3.884-9.782-3.884H516.25v41h51.5v-28.868Zm0-.2c0-3.684-.05-3.684-10.335-3.684h0c0-8.208 0-8.248-4.627-8.248" stroke="#000" stroke-linecap="round" stroke-linejoin="round"/><path d="M579.75 228.382c0-3.884-.654-4.365-5.432-8.208l-.05-.04c-4.803-3.884-4.853-3.884-9.782-3.884H528.25v41h51.5v-28.868Z" fill="url(#n)"/><path d="M579.75 228.382c0-3.884-.654-4.365-5.432-8.208l-.05-.04c-4.803-3.884-4.853-3.884-9.782-3.884H528.25v41h51.5v-28.868Zm0-.2c0-3.684-.05-3.684-10.335-3.684h0c0-8.208 0-8.248-4.627-8.248" stroke="#000" stroke-linecap="round" stroke-linejoin="round"/><path d="M591.5 216.382c0-3.884-.654-4.365-5.432-8.208l-.05-.04c-4.803-3.884-4.853-3.884-9.782-3.884H540v41h51.5v-28.868Z" fill="url(#o)"/><path d="M591.5 216.382c0-3.884-.654-4.365-5.432-8.208l-.05-.04c-4.803-3.884-4.853-3.884-9.782-3.884H540v41h51.5v-28.868Zm0-.2c0-3.684-.05-3.684-10.335-3.684h0c0-8.208 0-8.248-4.627-8.248" stroke="#000" stroke-linecap="round" stroke-linejoin="round"/><text transform="translate(545 216.25)" fill="#000"><tspan font-family="Helvetica" font-size="14" font-weight="500" x="6.357" y="14" textLength="32.676">CSS </tspan></text><path d="M479.375 386.132c0-3.884-.654-4.365-5.432-8.208l-.05-.04C469.09 374 469.04 374 464.11 374h-36.236v41h51.5v-28.868Z" fill="url(#p)"/><path d="M479.375 386.132c0-3.884-.654-4.365-5.432-8.208l-.05-.04C469.09 374 469.04 374 464.11 374h-36.236v41h51.5v-28.868Zm0-.2c0-3.684-.05-3.684-10.335-3.684h0c0-8.208 0-8.248-4.627-8.248" stroke="#000" stroke-linecap="round" stroke-linejoin="round"/><path d="M491.375 375.132c0-3.884-.654-4.365-5.432-8.208l-.05-.04C481.09 363 481.04 363 476.11 363h-36.236v41h51.5v-28.868Z" fill="url(#q)"/><path d="M491.375 375.132c0-3.884-.654-4.365-5.432-8.208l-.05-.04C481.09 363 481.04 363 476.11 363h-36.236v41h51.5v-28.868Zm0-.2c0-3.684-.05-3.684-10.335-3.684h0c0-8.208 0-8.248-4.627-8.248" stroke="#000" stroke-linecap="round" stroke-linejoin="round"/><path d="M503.125 363.132c0-3.884-.654-4.365-5.432-8.208l-.05-.04C492.84 351 492.79 351 487.86 351h-36.236v41h51.5v-28.868Z" fill="url(#r)"/><path d="M503.125 363.132c0-3.884-.654-4.365-5.432-8.208l-.05-.04C492.84 351 492.79 351 487.86 351h-36.236v41h51.5v-28.868Zm0-.2c0-3.684-.05-3.684-10.335-3.684h0c0-8.208 0-8.248-4.627-8.248" stroke="#000" stroke-linecap="round" stroke-linejoin="round"/><text transform="translate(456.625 363)" fill="#000"><tspan font-family="Helvetica" font-size="14" font-weight="500" x="4.409" y="14" textLength="36.572">icons </tspan></text><path d="M591.34 386.132c0-3.884-.654-4.365-5.432-8.208l-.05-.04C581.054 374 581.004 374 576.075 374H539.84v41h51.5v-28.868Z" fill="url(#s)"/><path d="M591.34 386.132c0-3.884-.654-4.365-5.432-8.208l-.05-.04C581.054 374 581.004 374 576.075 374H539.84v41h51.5v-28.868Zm0-.2c0-3.684-.05-3.684-10.335-3.684h0c0-8.208 0-8.248-4.628-8.248" stroke="#000" stroke-linecap="round" stroke-linejoin="round"/><text transform="translate(544.84 386)" fill="#000"><tspan font-family="Helvetica" font-size="14" font-weight="500" x="1.951" y="14" textLength="38.11">HTML</tspan><tspan font-family="Helvetica" font-size="14" font-weight="500" x="39.549" y="14" textLength="3.89"> </tspan></text><path d="M660.875 386.132c0-3.884-.654-4.365-5.432-8.208l-.05-.04C650.59 374 650.54 374 645.61 374h-36.236v41h51.5v-28.868Z" fill="url(#t)"/><path d="M660.875 386.132c0-3.884-.654-4.365-5.432-8.208l-.05-.04C650.59 374 650.54 374 645.61 374h-36.236v41h51.5v-28.868Zm0-.2c0-3.684-.05-3.684-10.335-3.684h0c0-8.208 0-8.248-4.627-8.248" stroke="#000" stroke-linecap="round" stroke-linejoin="round"/><text transform="translate(614.375 386)" fill="#000"><tspan font-family="Helvetica" font-size="14" font-weight="500" x="12.581" y="14" textLength="20.228">JS </tspan></text><path d="M730.41 386.132c0-3.884-.654-4.365-5.431-8.208l-.05-.04C720.124 374 720.074 374 715.145 374H678.91v41h51.5v-28.868Z" fill="url(#u)"/><path d="M730.41 386.132c0-3.884-.654-4.365-5.431-8.208l-.05-.04C720.124 374 720.074 374 715.145 374H678.91v41h51.5v-28.868Zm0-.2c0-3.684-.05-3.684-10.335-3.684h0c0-8.208 0-8.248-4.627-8.248" stroke="#000" stroke-linecap="round" stroke-linejoin="round"/><text transform="translate(683.91 386)" fill="#000"><tspan font-family="Helvetica" font-size="14" font-weight="500" x="6.357" y="14" textLength="32.676">CSS </tspan></text><path d="M477.5 546.882c0-3.884-.654-4.365-5.432-8.208l-.05-.04c-4.803-3.884-4.853-3.884-9.782-3.884H426v41h51.5v-28.868Z" fill="url(#v)"/><path d="M477.5 546.882c0-3.884-.654-4.365-5.432-8.208l-.05-.04c-4.803-3.884-4.853-3.884-9.782-3.884H426v41h51.5v-28.868Zm0-.2c0-3.684-.05-3.684-10.335-3.684h0c0-8.208 0-8.248-4.627-8.248" stroke="#000" stroke-linecap="round" stroke-linejoin="round"/><path d="M489.5 535.882c0-3.884-.654-4.365-5.432-8.208l-.05-.04c-4.803-3.884-4.853-3.884-9.782-3.884H438v41h51.5v-28.868Z" fill="url(#w)"/><path d="M489.5 535.882c0-3.884-.654-4.365-5.432-8.208l-.05-.04c-4.803-3.884-4.853-3.884-9.782-3.884H438v41h51.5v-28.868Zm0-.2c0-3.684-.05-3.684-10.335-3.684h0c0-8.208 0-8.248-4.627-8.248" stroke="#000" stroke-linecap="round" stroke-linejoin="round"/><path d="M501.25 523.882c0-3.884-.654-4.365-5.432-8.208l-.05-.04c-4.803-3.884-4.853-3.884-9.782-3.884H449.75v41h51.5v-28.868Z" fill="url(#x)"/><path d="M501.25 523.882c0-3.884-.654-4.365-5.432-8.208l-.05-.04c-4.803-3.884-4.853-3.884-9.782-3.884H449.75v41h51.5v-28.868Zm0-.2c0-3.684-.05-3.684-10.335-3.684h0c0-8.208 0-8.248-4.627-8.248" stroke="#000" stroke-linecap="round" stroke-linejoin="round"/><text transform="translate(454.75 523.75)" fill="#000"><tspan font-family="Helvetica" font-size="14" font-weight="500" x="1.951" y="14" textLength="38.11">HTML</tspan><tspan font-family="Helvetica" font-size="14" font-weight="500" x="39.549" y="14" textLength="3.89"> </tspan></text><path d="M571.5 546.882c0-3.884-.654-4.365-5.432-8.208l-.05-.04c-4.803-3.884-4.853-3.884-9.782-3.884H520v41h51.5v-28.868Z" fill="url(#y)"/><path d="M571.5 546.882c0-3.884-.654-4.365-5.432-8.208l-.05-.04c-4.803-3.884-4.853-3.884-9.782-3.884H520v41h51.5v-28.868Zm0-.2c0-3.684-.05-3.684-10.335-3.684h0c0-8.208 0-8.248-4.627-8.248" stroke="#000" stroke-linecap="round" stroke-linejoin="round"/><path d="M583.5 535.882c0-3.884-.654-4.365-5.432-8.208l-.05-.04c-4.803-3.884-4.853-3.884-9.782-3.884H532v41h51.5v-28.868Z" fill="url(#z)"/><path d="M583.5 535.882c0-3.884-.654-4.365-5.432-8.208l-.05-.04c-4.803-3.884-4.853-3.884-9.782-3.884H532v41h51.5v-28.868Zm0-.2c0-3.684-.05-3.684-10.335-3.684h0c0-8.208 0-8.248-4.627-8.248" stroke="#000" stroke-linecap="round" stroke-linejoin="round"/><path d="M595.25 523.882c0-3.884-.654-4.365-5.432-8.208l-.05-.04c-4.803-3.884-4.853-3.884-9.782-3.884H543.75v41h51.5v-28.868Z" fill="url(#A)"/><path d="M595.25 523.882c0-3.884-.654-4.365-5.432-8.208l-.05-.04c-4.803-3.884-4.853-3.884-9.782-3.884H543.75v41h51.5v-28.868Zm0-.2c0-3.684-.05-3.684-10.335-3.684h0c0-8.208 0-8.248-4.627-8.248" stroke="#000" stroke-linecap="round" stroke-linejoin="round"/><text transform="translate(548.75 523.75)" fill="#000"><tspan font-family="Helvetica" font-size="14" font-weight="500" x="12.581" y="14" textLength="20.228">JS </tspan></text><path d="M477.625 626.382c0-3.884-.654-4.365-5.432-8.208l-.05-.04c-4.803-3.884-4.853-3.884-9.782-3.884h-36.236v41h51.5v-28.868Z" fill="url(#B)"/><path d="M477.625 626.382c0-3.884-.654-4.365-5.432-8.208l-.05-.04c-4.803-3.884-4.853-3.884-9.782-3.884h-36.236v41h51.5v-28.868Zm0-.2c0-3.684-.05-3.684-10.335-3.684h0c0-8.208 0-8.248-4.627-8.248" stroke="#000" stroke-linecap="round" stroke-linejoin="round"/><path d="M489.625 615.382c0-3.884-.654-4.365-5.432-8.208l-.05-.04c-4.803-3.884-4.853-3.884-9.782-3.884h-36.236v41h51.5v-28.868Z" fill="url(#C)"/><path d="M489.625 615.382c0-3.884-.654-4.365-5.432-8.208l-.05-.04c-4.803-3.884-4.853-3.884-9.782-3.884h-36.236v41h51.5v-28.868Zm0-.2c0-3.684-.05-3.684-10.335-3.684h0c0-8.208 0-8.248-4.627-8.248" stroke="#000" stroke-linecap="round" stroke-linejoin="round"/><path d="M501.375 603.382c0-3.884-.654-4.365-5.432-8.208l-.05-.04c-4.803-3.884-4.853-3.884-9.782-3.884h-36.236v41h51.5v-28.868Z" fill="url(#D)"/><path d="M501.375 603.382c0-3.884-.654-4.365-5.432-8.208l-.05-.04c-4.803-3.884-4.853-3.884-9.782-3.884h-36.236v41h51.5v-28.868Zm0-.2c0-3.684-.05-3.684-10.335-3.684h0c0-8.208 0-8.248-4.627-8.248" stroke="#000" stroke-linecap="round" stroke-linejoin="round"/><text transform="translate(454.875 603.25)" fill="#000"><tspan font-family="Helvetica" font-size="14" font-weight="500" x="6.357" y="14" textLength="32.676">CSS </tspan></text><path d="M571.125 626.382c0-3.884-.654-4.365-5.432-8.208l-.05-.04c-4.803-3.884-4.853-3.884-9.782-3.884h-36.236v41h51.5v-28.868Z" fill="url(#E)"/><path d="M571.125 626.382c0-3.884-.654-4.365-5.432-8.208l-.05-.04c-4.803-3.884-4.853-3.884-9.782-3.884h-36.236v41h51.5v-28.868Zm0-.2c0-3.684-.05-3.684-10.335-3.684h0c0-8.208 0-8.248-4.627-8.248" stroke="#000" stroke-linecap="round" stroke-linejoin="round"/><path d="M583.125 615.382c0-3.884-.654-4.365-5.432-8.208l-.05-.04c-4.803-3.884-4.853-3.884-9.782-3.884h-36.236v41h51.5v-28.868Z" fill="url(#F)"/><path d="M583.125 615.382c0-3.884-.654-4.365-5.432-8.208l-.05-.04c-4.803-3.884-4.853-3.884-9.782-3.884h-36.236v41h51.5v-28.868Zm0-.2c0-3.684-.05-3.684-10.335-3.684h0c0-8.208 0-8.248-4.627-8.248" stroke="#000" stroke-linecap="round" stroke-linejoin="round"/><path d="M594.875 603.382c0-3.884-.654-4.365-5.432-8.208l-.05-.04c-4.803-3.884-4.853-3.884-9.782-3.884h-36.236v41h51.5v-28.868Z" fill="url(#G)"/><path d="M594.875 603.382c0-3.884-.654-4.365-5.432-8.208l-.05-.04c-4.803-3.884-4.853-3.884-9.782-3.884h-36.236v41h51.5v-28.868Zm0-.2c0-3.684-.05-3.684-10.335-3.684h0c0-8.208 0-8.248-4.627-8.248" stroke="#000" stroke-linecap="round" stroke-linejoin="round"/><text transform="translate(548.375 603.25)" fill="#000"><tspan font-family="Helvetica" font-size="14" font-weight="500" x="13.75" y="14" textLength="17.89">… </tspan></text><path marker-end="url(#c)" stroke="#000" stroke-linecap="round" stroke-linejoin="round" d="m245 290 154.811-62.066"/><path marker-end="url(#c)" stroke="#000" stroke-linecap="round" stroke-linejoin="round" d="m245 290 157.082 274.408"/></g></svg>